G04*
G04 #@! TF.GenerationSoftware,Altium Limited,Altium Designer,21.0.9 (235)*
G04*
G04 Layer_Color=8421504*
%FSLAX44Y44*%
%MOMM*%
G71*
G04*
G04 #@! TF.SameCoordinates,6F3E63EC-60D3-48B1-A7CC-AFFCCD692F60*
G04*
G04*
G04 #@! TF.FilePolarity,Positive*
G04*
G01*
G75*
%ADD17R,1.1500X0.6000*%
%ADD18R,1.3000X2.0000*%
%ADD19R,1.3000X1.3000*%
%ADD20R,1.5000X0.3000*%
%ADD21R,0.3000X1.5000*%
%ADD22R,5.7000X2.0000*%
G04:AMPARAMS|DCode=23|XSize=0.8mm|YSize=1.2mm|CornerRadius=0mm|HoleSize=0mm|Usage=FLASHONLY|Rotation=335.000|XOffset=0mm|YOffset=0mm|HoleType=Round|Shape=Rectangle|*
%AMROTATEDRECTD23*
4,1,4,-0.6161,-0.3747,-0.1090,0.7128,0.6161,0.3747,0.1090,-0.7128,-0.6161,-0.3747,0.0*
%
%ADD23ROTATEDRECTD23*%

%ADD24R,0.8000X0.9000*%
%ADD25R,0.9000X0.8000*%
%ADD26R,3.2500X4.0000*%
%ADD27R,2.5000X1.5000*%
%ADD28R,1.4000X0.8500*%
%ADD29R,1.3500X1.3500*%
%ADD30R,2.6500X1.7500*%
%ADD31R,0.5499X1.1999*%
%ADD32R,5.0800X6.3500*%
%ADD33R,0.9000X1.8000*%
%ADD34R,4.7000X3.4000*%
%ADD35R,2.5000X1.2000*%
D17*
X589040Y306460D02*
D03*
Y287460D02*
D03*
X611540Y296960D02*
D03*
D18*
X565750Y923750D02*
D03*
D19*
X510750Y935250D02*
D03*
Y912250D02*
D03*
D20*
X661000Y630500D02*
D03*
Y625500D02*
D03*
Y620500D02*
D03*
Y615500D02*
D03*
Y610500D02*
D03*
Y605500D02*
D03*
Y600500D02*
D03*
Y595500D02*
D03*
Y590500D02*
D03*
Y585500D02*
D03*
Y580500D02*
D03*
Y575500D02*
D03*
X750000D02*
D03*
Y580500D02*
D03*
Y585500D02*
D03*
Y590500D02*
D03*
Y595500D02*
D03*
Y600500D02*
D03*
Y605500D02*
D03*
Y610500D02*
D03*
Y615500D02*
D03*
Y620500D02*
D03*
Y625500D02*
D03*
Y630500D02*
D03*
D21*
X678000Y558500D02*
D03*
X683000D02*
D03*
X688000D02*
D03*
X693000D02*
D03*
X698000D02*
D03*
X703000D02*
D03*
X708000D02*
D03*
X713000D02*
D03*
X718000D02*
D03*
X723000D02*
D03*
X728000D02*
D03*
X733000D02*
D03*
Y647500D02*
D03*
X728000D02*
D03*
X723000D02*
D03*
X718000D02*
D03*
X713000D02*
D03*
X708000D02*
D03*
X703000D02*
D03*
X698000D02*
D03*
X693000D02*
D03*
X688000D02*
D03*
X683000D02*
D03*
X678000D02*
D03*
D22*
X732250Y297000D02*
D03*
Y328000D02*
D03*
D23*
X308656Y947780D02*
D03*
X294844Y954220D02*
D03*
D24*
X608000Y331250D02*
D03*
X595000D02*
D03*
X726500Y393000D02*
D03*
X713500D02*
D03*
X589750Y273250D02*
D03*
X602750D02*
D03*
X680500Y671750D02*
D03*
X667500D02*
D03*
X675250Y687250D02*
D03*
X688250D02*
D03*
X675250Y702500D02*
D03*
X688250D02*
D03*
X633000Y581250D02*
D03*
X620000D02*
D03*
X759000Y470000D02*
D03*
X746000D02*
D03*
X759000Y450500D02*
D03*
X746000D02*
D03*
X759000Y431000D02*
D03*
X746000D02*
D03*
X636000Y311250D02*
D03*
X649000D02*
D03*
X661750Y384750D02*
D03*
X674750D02*
D03*
X664500Y289250D02*
D03*
X677500D02*
D03*
X636000Y289500D02*
D03*
X649000D02*
D03*
X661500Y363000D02*
D03*
X674500D02*
D03*
X636750Y336000D02*
D03*
X649750D02*
D03*
X758750Y489500D02*
D03*
X745750D02*
D03*
X633250Y609750D02*
D03*
X620250D02*
D03*
D25*
X312250Y883250D02*
D03*
Y896250D02*
D03*
X487250Y912250D02*
D03*
Y925250D02*
D03*
D26*
X562500Y994250D02*
D03*
D27*
X510000Y971750D02*
D03*
Y994250D02*
D03*
Y1016750D02*
D03*
D28*
X475000Y1080500D02*
D03*
Y1063000D02*
D03*
X435000Y1080500D02*
D03*
Y1063000D02*
D03*
D29*
X590500Y648250D02*
D03*
X637500D02*
D03*
D30*
X700250Y366000D02*
D03*
X743250D02*
D03*
X518500Y1051750D02*
D03*
X561500D02*
D03*
D31*
X684500Y340750D02*
D03*
X675000D02*
D03*
X665500D02*
D03*
Y314751D02*
D03*
X675000D02*
D03*
X684500D02*
D03*
D32*
X504350Y284300D02*
D03*
Y835600D02*
D03*
X360650Y835200D02*
D03*
Y283900D02*
D03*
D33*
X405000Y1024250D02*
D03*
X376000D02*
D03*
X404500Y1064250D02*
D03*
X375500D02*
D03*
D34*
X537750Y1097000D02*
D03*
D35*
X798000Y467125D02*
D03*
X853000D02*
D03*
Y517125D02*
D03*
X798000D02*
D03*
Y492125D02*
D03*
X853000D02*
D03*
M02*
