G04*
G04 #@! TF.GenerationSoftware,Altium Limited,Altium Designer,23.6.0 (18)*
G04*
G04 Layer_Physical_Order=1*
G04 Layer_Color=255*
%FSLAX44Y44*%
%MOMM*%
G71*
G04*
G04 #@! TF.SameCoordinates,A28E5885-0542-4C94-BDD8-BFCE9456E40A*
G04*
G04*
G04 #@! TF.FilePolarity,Positive*
G04*
G01*
G75*
%ADD10C,0.2500*%
%ADD11C,0.5000*%
%ADD14C,0.2540*%
%ADD17R,1.1500X0.6000*%
%ADD18R,1.3000X2.0000*%
%ADD19R,1.3000X1.3000*%
%ADD20R,1.5000X0.3000*%
%ADD21R,0.3000X1.5000*%
%ADD22R,5.7000X2.0000*%
G04:AMPARAMS|DCode=23|XSize=0.8mm|YSize=1.2mm|CornerRadius=0mm|HoleSize=0mm|Usage=FLASHONLY|Rotation=335.000|XOffset=0mm|YOffset=0mm|HoleType=Round|Shape=Rectangle|*
%AMROTATEDRECTD23*
4,1,4,-0.6161,-0.3747,-0.1090,0.7128,0.6161,0.3747,0.1090,-0.7128,-0.6161,-0.3747,0.0*
%
%ADD23ROTATEDRECTD23*%

%ADD24R,0.8000X0.9000*%
%ADD25R,0.9000X0.8000*%
%ADD26R,3.2500X4.0000*%
%ADD27R,2.5000X1.5000*%
%ADD28R,1.4000X0.8500*%
%ADD29R,1.3500X1.3500*%
%ADD30R,2.6500X1.7500*%
%ADD31R,0.5499X1.1999*%
%ADD32R,5.0800X6.3500*%
%ADD33R,0.9000X1.8000*%
%ADD34R,4.7000X3.4000*%
%ADD35R,2.5000X1.2000*%
%ADD63C,2.0000*%
%ADD64R,2.0000X2.0000*%
%ADD65C,1.5500*%
%ADD66R,1.5500X1.5500*%
%ADD69C,0.1520*%
%ADD70R,3.0000X4.0000*%
%ADD71R,1.5000X1.5000*%
%ADD72C,1.5000*%
%ADD73R,1.2002X1.2002*%
%ADD74C,1.2002*%
%ADD75R,1.5000X1.5000*%
%ADD76P,2.7577X4X360.0*%
%ADD77C,1.9500*%
%ADD78C,2.5500*%
%ADD79C,5.0000*%
%ADD80C,0.5000*%
G36*
X952194Y995739D02*
X926949Y995616D01*
X868868Y1053697D01*
X869281Y1055236D01*
Y1057484D01*
X868699Y1059657D01*
X867574Y1061604D01*
X865984Y1063194D01*
X864036Y1064319D01*
X861864Y1064901D01*
X859616D01*
X857443Y1064319D01*
X855496Y1063194D01*
X853906Y1061604D01*
X852781Y1059657D01*
X852199Y1057484D01*
Y1055236D01*
X852781Y1053063D01*
X853906Y1051116D01*
X855496Y1049526D01*
X857443Y1048401D01*
X859616Y1047819D01*
X861864D01*
X863403Y1048232D01*
X914905Y996730D01*
X914422Y995555D01*
X850989Y995248D01*
X850732Y995632D01*
X850732Y995632D01*
X792668Y1053697D01*
X793081Y1055236D01*
Y1057484D01*
X792499Y1059657D01*
X791374Y1061604D01*
X789784Y1063194D01*
X787837Y1064319D01*
X785664Y1064901D01*
X783416D01*
X781243Y1064319D01*
X779296Y1063194D01*
X777706Y1061604D01*
X776581Y1059657D01*
X775999Y1057484D01*
Y1055236D01*
X776581Y1053063D01*
X777706Y1051116D01*
X779296Y1049526D01*
X781243Y1048401D01*
X783416Y1047819D01*
X785664D01*
X787204Y1048232D01*
X839073Y996362D01*
X838590Y995188D01*
X825497Y995124D01*
X824747Y996247D01*
X767274Y1053719D01*
X767681Y1055236D01*
Y1057484D01*
X767099Y1059657D01*
X765974Y1061604D01*
X764384Y1063194D01*
X762437Y1064319D01*
X760264Y1064901D01*
X758016D01*
X755843Y1064319D01*
X753896Y1063194D01*
X752306Y1061604D01*
X751181Y1059657D01*
X750599Y1057484D01*
Y1055236D01*
X751181Y1053063D01*
X752306Y1051116D01*
X753896Y1049526D01*
X755843Y1048401D01*
X758016Y1047819D01*
X760264D01*
X761781Y1048225D01*
X813767Y996239D01*
X813283Y995065D01*
X696750Y994500D01*
Y915750D01*
X684114Y903114D01*
X680013D01*
X679605Y903523D01*
X677753Y904290D01*
X676963D01*
X675790Y904498D01*
X675790Y905463D01*
Y906503D01*
X675023Y908355D01*
X674635Y908743D01*
Y1024757D01*
X675023Y1025145D01*
X675790Y1026998D01*
Y1029003D01*
X675023Y1030855D01*
X673605Y1032273D01*
X671752Y1033040D01*
X669747D01*
X667895Y1032273D01*
X666477Y1030855D01*
X665710Y1029003D01*
Y1026998D01*
X666477Y1025145D01*
X666865Y1024757D01*
Y908743D01*
X666477Y908355D01*
X665710Y906503D01*
Y904498D01*
X666477Y902645D01*
X667895Y901227D01*
X669747Y900460D01*
X670537D01*
X671710Y900253D01*
X671710Y899287D01*
Y898248D01*
X671916Y897751D01*
X671210Y896695D01*
X650886D01*
X649400Y896399D01*
X648139Y895557D01*
X644583Y892000D01*
X580250D01*
X580250D01*
X580000Y891750D01*
X302500D01*
Y906621D01*
X308802Y912923D01*
D01*
X310190Y914311D01*
X310190Y914311D01*
X310919Y915403D01*
X311175Y916690D01*
Y937708D01*
X318193Y952756D01*
X306338Y958283D01*
X303740Y952712D01*
X302500Y952987D01*
Y955164D01*
X304380Y959196D01*
X302500Y960073D01*
Y1038956D01*
X303114Y1039958D01*
X304773Y1043963D01*
X305785Y1048178D01*
X306125Y1052500D01*
X305785Y1056822D01*
X304773Y1061037D01*
X303114Y1065042D01*
X302500Y1066044D01*
Y1076750D01*
X385000D01*
X385106Y966644D01*
X392500Y959250D01*
X412500D01*
X425000Y971750D01*
X462500D01*
X475000Y959250D01*
X475000Y942250D01*
X483365D01*
Y931790D01*
X480210D01*
Y918710D01*
Y905710D01*
X494290D01*
Y908386D01*
X501710D01*
Y903210D01*
X519790D01*
Y921290D01*
X501710D01*
Y916114D01*
X494290D01*
Y931790D01*
X491135D01*
Y942250D01*
X582500Y942250D01*
Y935500D01*
X589973D01*
X589975Y945889D01*
X590923Y946282D01*
X592341Y947699D01*
X593108Y949552D01*
Y951557D01*
X592341Y953409D01*
X590923Y954827D01*
X589976Y955219D01*
X590000Y1103750D01*
X951714D01*
X952194Y995739D01*
D02*
G37*
G36*
X806055Y872046D02*
X806351Y870559D01*
X807193Y869299D01*
X812174Y864318D01*
X811517Y863179D01*
X809794Y863641D01*
X807546D01*
X805373Y863059D01*
X803426Y861934D01*
X801836Y860344D01*
X800711Y858397D01*
X800129Y856224D01*
Y853976D01*
X800711Y851803D01*
X801836Y849856D01*
X803426Y848266D01*
X805373Y847141D01*
X807546Y846559D01*
X809794D01*
X811966Y847141D01*
X813914Y848266D01*
X815095Y849447D01*
X816365Y848921D01*
Y818720D01*
X816661Y817233D01*
X817503Y815973D01*
X876736Y756741D01*
X876329Y755224D01*
Y752976D01*
X876911Y750803D01*
X878036Y748856D01*
X879237Y747655D01*
X878711Y746385D01*
X865629D01*
X865103Y747655D01*
X866304Y748856D01*
X867429Y750803D01*
X868011Y752976D01*
Y755224D01*
X867429Y757397D01*
X866304Y759344D01*
X864714Y760934D01*
X862766Y762059D01*
X860594Y762641D01*
X858346D01*
X856829Y762234D01*
X788425Y830639D01*
Y887500D01*
X806055D01*
Y872046D01*
D02*
G37*
G36*
X998250Y886230D02*
Y172500D01*
X239500D01*
X238500Y173500D01*
X238500Y887500D01*
X272710D01*
Y886998D01*
X273477Y885145D01*
X274895Y883727D01*
X276747Y882960D01*
X278752D01*
X280605Y883727D01*
X282023Y885145D01*
X282790Y886998D01*
Y887500D01*
X638423Y887500D01*
X638909Y886327D01*
X637378Y884796D01*
X636536Y883535D01*
X636240Y882049D01*
Y872618D01*
X635852Y872230D01*
X635085Y870378D01*
Y868372D01*
X635391Y867635D01*
X634542Y866365D01*
X628583D01*
X627818Y867130D01*
X625966Y867897D01*
X623961D01*
X622109Y867130D01*
X620691Y865712D01*
X619924Y863859D01*
Y861854D01*
X620691Y860002D01*
X622109Y858584D01*
X623961Y857817D01*
X625966D01*
X627818Y858584D01*
X628870Y859635D01*
X674356D01*
X695635Y838356D01*
Y710460D01*
X694790Y709540D01*
X691365D01*
Y837750D01*
X691108Y839038D01*
X690379Y840129D01*
X690379Y840129D01*
X678629Y851879D01*
X677538Y852608D01*
X676250Y852865D01*
X676250Y852865D01*
X629263D01*
X628355Y853773D01*
X626502Y854540D01*
X624497D01*
X622645Y853773D01*
X621227Y852355D01*
X620460Y850502D01*
Y848497D01*
X621227Y846645D01*
X622645Y845227D01*
X624497Y844460D01*
X626502D01*
X628355Y845227D01*
X629263Y846135D01*
X674856D01*
X684635Y836356D01*
Y832535D01*
X683425Y832144D01*
X683365Y832143D01*
X676379Y839129D01*
X675288Y839858D01*
X674000Y840115D01*
X674000Y840115D01*
X626263D01*
X625355Y841023D01*
X623503Y841790D01*
X621497D01*
X619645Y841023D01*
X618227Y839605D01*
X617460Y837753D01*
Y835748D01*
X618227Y833895D01*
X619645Y832477D01*
X621497Y831710D01*
X623503D01*
X625355Y832477D01*
X626263Y833385D01*
X672606D01*
X677635Y828356D01*
Y709540D01*
X668710D01*
Y695460D01*
X668710D01*
Y694290D01*
X668710D01*
Y680210D01*
X668710D01*
X668772Y680060D01*
X667924Y678790D01*
X660960D01*
Y664710D01*
X662397D01*
X663635Y664500D01*
X663892Y663212D01*
X664621Y662121D01*
X673960Y652782D01*
Y637460D01*
X674635D01*
Y577394D01*
X672213Y574972D01*
X671040Y575458D01*
Y586460D01*
Y594540D01*
X650960D01*
Y594364D01*
X646500D01*
X646500Y594364D01*
X645021Y594070D01*
X643767Y593232D01*
X641518Y590982D01*
X640680Y589729D01*
X640529Y588969D01*
X639540Y588290D01*
X623365D01*
Y594606D01*
X624144Y595385D01*
X643250D01*
X643250Y595385D01*
X644538Y595642D01*
X645629Y596371D01*
X646394Y597135D01*
X650960D01*
Y596460D01*
X671040D01*
Y606460D01*
Y616460D01*
Y626460D01*
Y634540D01*
X650960D01*
Y628865D01*
X584894D01*
X583629Y630129D01*
X583629Y630129D01*
X577115Y636644D01*
Y782742D01*
X577115Y782742D01*
X576859Y784029D01*
X576129Y785121D01*
X576129Y785121D01*
X568121Y793129D01*
X567029Y793858D01*
X565742Y794115D01*
X565742Y794115D01*
X482263D01*
X481355Y795023D01*
X479502Y795790D01*
X477497D01*
X475645Y795023D01*
X474227Y793605D01*
X473460Y791752D01*
Y789747D01*
X474227Y787895D01*
X475645Y786477D01*
X477497Y785710D01*
X479502D01*
X481355Y786477D01*
X482263Y787385D01*
X564348D01*
X570385Y781348D01*
Y635250D01*
X570385Y635250D01*
X570642Y633962D01*
X571371Y632871D01*
X578871Y625371D01*
X578871Y625371D01*
X581121Y623121D01*
X581121Y623121D01*
X582212Y622392D01*
X583500Y622135D01*
X650960D01*
Y616460D01*
Y603865D01*
X645000D01*
X643712Y603609D01*
X642621Y602879D01*
X642621Y602879D01*
X641856Y602115D01*
X627813D01*
X626790Y602710D01*
Y616790D01*
X613710D01*
Y602710D01*
X616635D01*
Y596000D01*
X616635Y596000D01*
X616635Y596000D01*
Y588290D01*
X613460D01*
Y574210D01*
X639540D01*
X640386Y573290D01*
Y520400D01*
X640680Y518921D01*
X641518Y517668D01*
X647248Y511938D01*
X646761Y510764D01*
X630290D01*
Y516940D01*
X610210D01*
Y510764D01*
X600540D01*
Y516940D01*
X580460D01*
Y496860D01*
X600540D01*
Y503036D01*
X610210D01*
Y496860D01*
X630290D01*
Y503036D01*
X657750D01*
X657750Y503036D01*
X657750Y503036D01*
X715999D01*
X723386Y495649D01*
Y419614D01*
X722500D01*
X721021Y419320D01*
X719768Y418482D01*
X710768Y409482D01*
X709930Y408229D01*
X709636Y406750D01*
Y402090D01*
X675753Y402090D01*
X674250Y402389D01*
X574879D01*
X569884Y407384D01*
X569463Y407665D01*
X569105Y408023D01*
X568637Y408216D01*
X568217Y408498D01*
X567720Y408596D01*
X567253Y408790D01*
X566746D01*
X566250Y408889D01*
X565754Y408790D01*
X565247D01*
X564780Y408596D01*
X564283Y408498D01*
X563863Y408216D01*
X563395Y408023D01*
X563037Y407665D01*
X562616Y407384D01*
X562335Y406963D01*
X561977Y406605D01*
X561784Y406137D01*
X561502Y405717D01*
X561404Y405220D01*
X561210Y404753D01*
Y404246D01*
X561111Y403750D01*
X561210Y403254D01*
Y402747D01*
X561404Y402280D01*
X561502Y401783D01*
X561784Y401363D01*
X561977Y400895D01*
X562335Y400537D01*
X562616Y400116D01*
X569116Y393616D01*
X570784Y392502D01*
X572750Y392111D01*
X668160D01*
X668160Y375836D01*
X666890Y374840D01*
X654750D01*
X653759Y374643D01*
X652919Y374081D01*
X652357Y373241D01*
X652160Y372250D01*
Y356823D01*
X641669Y346331D01*
X641107Y345491D01*
X640910Y344500D01*
Y329403D01*
X640911Y329396D01*
X640910Y329390D01*
X641010Y328900D01*
X641107Y328411D01*
X641111Y328406D01*
X641112Y328400D01*
X641391Y327987D01*
X641669Y327571D01*
X641674Y327568D01*
X641678Y327562D01*
X642580Y326669D01*
X642585Y326665D01*
X642589Y326660D01*
X643008Y326386D01*
X643423Y326111D01*
X643429Y326110D01*
X643435Y326107D01*
X643924Y326014D01*
X644415Y325919D01*
X644421Y325920D01*
X644427Y325919D01*
X669275Y326160D01*
X669758Y326261D01*
X670204Y326350D01*
X670509Y325143D01*
X669669Y324581D01*
X669107Y323741D01*
X668500Y323340D01*
X658000D01*
X657009Y323143D01*
X656169Y322581D01*
X654467Y320880D01*
X642540D01*
X641549Y320683D01*
X640709Y320121D01*
X640147Y319281D01*
X639950Y318290D01*
Y304612D01*
X639870Y304210D01*
Y296540D01*
X639950Y296138D01*
Y282982D01*
X639950Y282460D01*
X638907Y281769D01*
X630519D01*
X630389Y281823D01*
Y285875D01*
X629997Y287842D01*
X628884Y289509D01*
X619830Y298562D01*
Y302500D01*
X619129D01*
Y324760D01*
X618737Y326726D01*
X617624Y328394D01*
X614540Y331477D01*
Y338290D01*
X604042D01*
X603853Y339241D01*
X603291Y340081D01*
X602451Y340643D01*
X601460Y340840D01*
X597599D01*
Y357460D01*
X603040D01*
Y377540D01*
X582960D01*
Y357460D01*
X587321D01*
Y340840D01*
X478788Y340840D01*
X478781Y340838D01*
X478775Y340840D01*
X478286Y340740D01*
X477797Y340643D01*
X477791Y340639D01*
X477785Y340638D01*
X477372Y340359D01*
X476956Y340081D01*
X476953Y340076D01*
X476947Y340072D01*
X476054Y339169D01*
X476050Y339164D01*
X476045Y339160D01*
X475770Y338741D01*
X475496Y338326D01*
X475495Y338320D01*
X475492Y338314D01*
X475399Y337824D01*
X475304Y337334D01*
X475306Y337328D01*
X475304Y337321D01*
X476176Y250724D01*
X476277Y250242D01*
X476373Y249759D01*
X476381Y249748D01*
X476384Y249735D01*
X476661Y249328D01*
X476935Y248919D01*
X476946Y248911D01*
X476953Y248900D01*
X477366Y248631D01*
X477775Y248357D01*
X477788Y248355D01*
X477799Y248347D01*
X478283Y248256D01*
X478766Y248160D01*
X596250Y248160D01*
X597241Y248357D01*
X598081Y248919D01*
X598643Y249759D01*
X598840Y250750D01*
X598840Y266210D01*
X609290D01*
Y267322D01*
X618669D01*
X620500Y265492D01*
Y264207D01*
X621267Y262355D01*
X622685Y260937D01*
X624537Y260170D01*
X626542D01*
X628395Y260937D01*
X629812Y262355D01*
X630580Y264207D01*
Y266213D01*
X630438Y266555D01*
X631143Y267611D01*
X675571D01*
X677538Y268002D01*
X679205Y269116D01*
X682134Y272045D01*
X683248Y273712D01*
X683639Y275679D01*
Y281943D01*
X697011Y281979D01*
X697910Y281082D01*
Y269250D01*
X698107Y268259D01*
X698669Y267419D01*
X699509Y266857D01*
X700500Y266660D01*
X764000Y266660D01*
X764991Y266857D01*
X765615Y267274D01*
X766411Y267030D01*
X766885Y266712D01*
Y226250D01*
X766885Y226250D01*
X767141Y224962D01*
X767871Y223871D01*
X787476Y204266D01*
X787161Y203722D01*
X786460Y201105D01*
Y198395D01*
X787161Y195778D01*
X788516Y193432D01*
X790432Y191516D01*
X792778Y190161D01*
X795395Y189460D01*
X798105D01*
X800722Y190161D01*
X803068Y191516D01*
X804984Y193432D01*
X806339Y195778D01*
X806501Y196385D01*
X851999D01*
X852161Y195778D01*
X853516Y193432D01*
X855432Y191516D01*
X857778Y190161D01*
X860395Y189460D01*
X863105D01*
X865722Y190161D01*
X868068Y191516D01*
X869984Y193432D01*
X871339Y195778D01*
X872040Y198395D01*
Y201105D01*
X871339Y203722D01*
X869984Y206068D01*
X868068Y207984D01*
X865722Y209339D01*
X863105Y210040D01*
X860395D01*
X857778Y209339D01*
X855432Y207984D01*
X853516Y206068D01*
X852161Y203722D01*
X851999Y203115D01*
X806501D01*
X806339Y203722D01*
X804984Y206068D01*
X803068Y207984D01*
X800722Y209339D01*
X798105Y210040D01*
X795395D01*
X792778Y209339D01*
X792234Y209024D01*
X773615Y227644D01*
Y297468D01*
X774788Y297954D01*
X788726Y284016D01*
X788411Y283472D01*
X787710Y280855D01*
Y278145D01*
X788411Y275528D01*
X789766Y273182D01*
X791682Y271266D01*
X794028Y269911D01*
X796645Y269210D01*
X799355D01*
X801972Y269911D01*
X804318Y271266D01*
X806234Y273182D01*
X807589Y275528D01*
X807759Y276165D01*
X808030D01*
X808030Y276165D01*
X809318Y276421D01*
X810409Y277151D01*
X822394Y289135D01*
X848606D01*
X853726Y284016D01*
X853411Y283472D01*
X852710Y280855D01*
Y278145D01*
X853411Y275528D01*
X854766Y273182D01*
X856682Y271266D01*
X859028Y269911D01*
X861645Y269210D01*
X864355D01*
X866972Y269911D01*
X869318Y271266D01*
X871234Y273182D01*
X872589Y275528D01*
X873290Y278145D01*
Y280855D01*
X872589Y283472D01*
X871234Y285818D01*
X869318Y287734D01*
X866972Y289089D01*
X864355Y289790D01*
X861645D01*
X859028Y289089D01*
X858484Y288775D01*
X852379Y294879D01*
X851288Y295609D01*
X850000Y295865D01*
X850000Y295865D01*
X821000D01*
X819712Y295609D01*
X818621Y294879D01*
X818621Y294879D01*
X808189Y284447D01*
X806930Y284613D01*
X806234Y285818D01*
X804318Y287734D01*
X801972Y289089D01*
X799355Y289790D01*
X796645D01*
X794028Y289089D01*
X793484Y288775D01*
X778865Y303394D01*
Y372581D01*
X780135Y373107D01*
X789475Y363766D01*
X789161Y363222D01*
X788460Y360605D01*
Y357896D01*
X789161Y355278D01*
X790516Y352932D01*
X792432Y351016D01*
X794778Y349661D01*
X797395Y348960D01*
X800105D01*
X802722Y349661D01*
X805068Y351016D01*
X806984Y352932D01*
X808339Y355278D01*
X809040Y357896D01*
Y360605D01*
X808339Y363222D01*
X808025Y363766D01*
X814893Y370635D01*
X847607D01*
X854475Y363766D01*
X854161Y363222D01*
X853460Y360605D01*
Y357896D01*
X854161Y355278D01*
X855516Y352932D01*
X857432Y351016D01*
X859778Y349661D01*
X862395Y348960D01*
X865105D01*
X867722Y349661D01*
X870068Y351016D01*
X871984Y352932D01*
X873339Y355278D01*
X874040Y357896D01*
Y360605D01*
X873339Y363222D01*
X871984Y365568D01*
X870068Y367484D01*
X867722Y368839D01*
X865105Y369540D01*
X862395D01*
X859778Y368839D01*
X859234Y368525D01*
X851379Y376379D01*
X850288Y377108D01*
X849000Y377365D01*
X849000Y377365D01*
X813500D01*
X813500Y377365D01*
X812212Y377108D01*
X811121Y376379D01*
X811121Y376379D01*
X803266Y368525D01*
X802722Y368839D01*
X800105Y369540D01*
X797395D01*
X794778Y368839D01*
X794234Y368525D01*
X784740Y378019D01*
Y427625D01*
X784740Y427625D01*
X784567Y428495D01*
X785088Y429196D01*
X785276Y429363D01*
X785558Y429523D01*
X786250Y429385D01*
X786250Y429385D01*
X895710D01*
Y420210D01*
X920790D01*
Y445290D01*
X911615D01*
Y545669D01*
X913090Y546065D01*
X915950Y547715D01*
X918285Y550050D01*
X919935Y552910D01*
X920790Y556099D01*
Y559401D01*
X919935Y562590D01*
X918285Y565450D01*
X915950Y567785D01*
X913090Y569435D01*
X909901Y570290D01*
X906599D01*
X903410Y569435D01*
X900550Y567785D01*
X898215Y565450D01*
X896565Y562590D01*
X895710Y559401D01*
Y556099D01*
X896565Y552910D01*
X898215Y550050D01*
X900550Y547715D01*
X903410Y546065D01*
X904885Y545669D01*
Y445290D01*
X895710D01*
Y436115D01*
X787644D01*
X783365Y440394D01*
Y458585D01*
X813040D01*
Y475665D01*
X783365D01*
Y480750D01*
X783365Y480750D01*
X783109Y482038D01*
X782909Y482336D01*
X783602Y483585D01*
X783860Y483585D01*
X783860Y483585D01*
X783915Y483585D01*
X813040D01*
Y500665D01*
X782960D01*
X782960Y484589D01*
Y484574D01*
Y484574D01*
X782960Y484344D01*
X782455Y484135D01*
X781690Y483818D01*
X773629Y491879D01*
X772538Y492608D01*
X771250Y492865D01*
X771250Y492865D01*
X765290D01*
Y496540D01*
X762564D01*
Y515826D01*
X764129Y517391D01*
X764129Y517391D01*
X764858Y518483D01*
X765115Y519770D01*
Y543750D01*
X765115Y543750D01*
X764858Y545038D01*
X764129Y546129D01*
X753365Y556894D01*
Y571460D01*
X760040D01*
Y577135D01*
X769856D01*
X774460Y572532D01*
Y571247D01*
X775227Y569395D01*
X776645Y567977D01*
X778497Y567210D01*
X780502D01*
X782355Y567977D01*
X783773Y569395D01*
X784540Y571247D01*
Y573252D01*
X783773Y575105D01*
X782355Y576523D01*
X780502Y577290D01*
X780061D01*
X779653Y577835D01*
X780076Y579332D01*
X780730Y579602D01*
X782148Y581020D01*
X782915Y582873D01*
Y584741D01*
X783350Y585215D01*
X783955Y585685D01*
X784498Y585460D01*
X786503D01*
X788355Y586227D01*
X789773Y587645D01*
X790540Y589497D01*
Y591502D01*
X789773Y593355D01*
X788355Y594773D01*
X786503Y595540D01*
X784498D01*
X782645Y594773D01*
X781737Y593865D01*
X776692D01*
X776440Y595135D01*
X776663Y595227D01*
X778081Y596645D01*
X778848Y598498D01*
Y600503D01*
X778081Y602355D01*
X776663Y603773D01*
X774811Y604540D01*
X772806D01*
X770953Y603773D01*
X769536Y602355D01*
X768768Y600503D01*
Y599218D01*
X768415Y598865D01*
X760040D01*
Y606460D01*
Y616460D01*
Y624540D01*
X739960D01*
Y624540D01*
X738973Y623856D01*
X737730Y623609D01*
X736639Y622879D01*
X733141Y619381D01*
X731857D01*
X730004Y618614D01*
X728586Y617196D01*
X727819Y615344D01*
Y613338D01*
X728586Y611486D01*
X729938Y610135D01*
X729913Y609804D01*
X729591Y608865D01*
X721750D01*
X721750Y608865D01*
X721123Y608740D01*
X721003Y608790D01*
X718997D01*
X717145Y608023D01*
X715727Y606605D01*
X714960Y604753D01*
Y602747D01*
X715727Y600895D01*
X716668Y599955D01*
X717109Y599389D01*
X716671Y598299D01*
X715977Y597605D01*
X715210Y595752D01*
Y593747D01*
X715977Y591895D01*
X717395Y590477D01*
X719248Y589710D01*
X721253D01*
X723105Y590477D01*
X724523Y591895D01*
X725290Y593747D01*
Y594032D01*
X728394Y597135D01*
X739960D01*
Y591460D01*
Y581460D01*
Y571460D01*
X746635D01*
Y555500D01*
X746635Y555500D01*
X746891Y554212D01*
X747621Y553121D01*
X758385Y542356D01*
Y521164D01*
X756821Y519599D01*
X756091Y518507D01*
X755835Y517220D01*
X755835Y517220D01*
Y496540D01*
X747898D01*
X747479Y496820D01*
X746000Y497114D01*
X744521Y496820D01*
X744102Y496540D01*
X739210D01*
Y482460D01*
X743136D01*
Y477040D01*
X739460D01*
Y462960D01*
X742636D01*
Y457540D01*
X739460D01*
Y443460D01*
X742136D01*
Y438040D01*
X739460D01*
Y429675D01*
X732288Y422502D01*
X731114Y422988D01*
Y497250D01*
Y529899D01*
X735732Y534518D01*
X736570Y535771D01*
X736864Y537250D01*
Y548460D01*
X737040D01*
Y568540D01*
X728960D01*
Y548460D01*
X729136D01*
Y538851D01*
X724518Y534232D01*
X723680Y532979D01*
X723386Y531500D01*
Y508238D01*
X722212Y507752D01*
X720332Y509632D01*
X719079Y510470D01*
X717600Y510764D01*
X677644D01*
X673365Y515044D01*
Y547437D01*
X673960Y548460D01*
X727040D01*
Y568540D01*
X676958D01*
X676472Y569713D01*
X679394Y572635D01*
X690450D01*
X690450Y572635D01*
X691738Y572892D01*
X692829Y573621D01*
X707168Y587960D01*
X708453D01*
X710305Y588727D01*
X711723Y590145D01*
X712490Y591997D01*
Y594002D01*
X711723Y595855D01*
X710305Y597273D01*
X708453Y598040D01*
X706448D01*
X704595Y597273D01*
X703177Y595855D01*
X702410Y594002D01*
Y592718D01*
X689056Y579365D01*
X681365D01*
Y637460D01*
X682040D01*
Y657540D01*
X678718D01*
X672722Y663537D01*
X673208Y664710D01*
X678643D01*
X679371Y663621D01*
X684182Y658810D01*
X683960Y657540D01*
X683960D01*
Y637460D01*
X694459D01*
X694562Y636190D01*
X693727Y635355D01*
X692960Y633503D01*
Y631497D01*
X693727Y629645D01*
X695145Y628227D01*
X696998Y627460D01*
X699003D01*
X700855Y628227D01*
X702273Y629645D01*
X703040Y631497D01*
Y633503D01*
X702273Y635355D01*
X701438Y636190D01*
X701541Y637460D01*
X729635D01*
Y634763D01*
X728727Y633855D01*
X727960Y632002D01*
Y629997D01*
X728727Y628145D01*
X730145Y626727D01*
X731998Y625960D01*
X734003D01*
X735855Y626727D01*
X737273Y628145D01*
X738040Y629997D01*
Y632002D01*
X737273Y633855D01*
X736365Y634763D01*
Y637460D01*
X737040D01*
Y657540D01*
X706365D01*
Y680500D01*
X706108Y681788D01*
X705379Y682879D01*
X705379Y682879D01*
X705040Y683218D01*
Y684502D01*
X704273Y686355D01*
X702855Y687773D01*
X701003Y688540D01*
X698997D01*
X697145Y687773D01*
X696060Y686688D01*
X694790Y687158D01*
Y688532D01*
X697879Y691621D01*
X697879Y691621D01*
X701379Y695121D01*
X701379Y695121D01*
X702109Y696212D01*
X702365Y697500D01*
X702365Y697500D01*
Y839750D01*
X702365Y839750D01*
X702109Y841038D01*
X701379Y842129D01*
X678129Y865379D01*
X677038Y866108D01*
X675750Y866365D01*
X675750Y866365D01*
X663538D01*
X663012Y867635D01*
X663273Y867895D01*
X664040Y869747D01*
Y870296D01*
X670859Y877115D01*
X692757D01*
X693145Y876727D01*
X694997Y875960D01*
X697002D01*
X698855Y876727D01*
X700273Y878145D01*
X700499Y878691D01*
X701714Y879060D01*
X701937Y878911D01*
X703424Y878615D01*
X707007D01*
X707395Y878227D01*
X709248Y877460D01*
X711253D01*
X713105Y878227D01*
X714523Y879645D01*
X714675Y880012D01*
X715920Y880260D01*
X718691Y877489D01*
X718568Y877193D01*
Y875188D01*
X719335Y873335D01*
X720753Y871917D01*
X722605Y871150D01*
X724610D01*
X726463Y871917D01*
X727881Y873335D01*
X728648Y875188D01*
X729876Y875086D01*
Y829030D01*
X730170Y827551D01*
X731008Y826298D01*
X800129Y757176D01*
Y745559D01*
X810187D01*
X811036Y744289D01*
X810710Y743503D01*
Y741497D01*
X811477Y739645D01*
X811743Y739379D01*
X811217Y738109D01*
X778388D01*
X778000Y738497D01*
X776148Y739265D01*
X774143D01*
X772290Y738497D01*
X770872Y737080D01*
X770105Y735227D01*
Y733222D01*
X770872Y731370D01*
X772290Y729952D01*
X774143Y729185D01*
X776148D01*
X778000Y729952D01*
X778388Y730340D01*
X901725D01*
X903211Y730636D01*
X904472Y731478D01*
X913247Y740253D01*
X914089Y741513D01*
X914385Y743000D01*
Y746614D01*
X915514Y747266D01*
X917104Y748856D01*
X918229Y750803D01*
X918811Y752976D01*
Y755224D01*
X918229Y757397D01*
X917104Y759344D01*
X915514Y760934D01*
X913567Y762059D01*
X911394Y762641D01*
X909146D01*
X907629Y762234D01*
X895827Y774037D01*
X896050Y774659D01*
X896450Y775210D01*
X898252D01*
X900105Y775977D01*
X901523Y777395D01*
X902290Y779248D01*
Y781253D01*
X901523Y783105D01*
X901135Y783493D01*
Y785000D01*
X900839Y786487D01*
X899997Y787747D01*
X863355Y824389D01*
Y847481D01*
X864714Y848266D01*
X866304Y849856D01*
X867429Y851803D01*
X868011Y853976D01*
Y856224D01*
X867429Y858397D01*
X866304Y860344D01*
X864714Y861934D01*
X862766Y863059D01*
X862047Y863251D01*
X861860Y864189D01*
X861023Y865442D01*
X861023Y865442D01*
X851864Y874601D01*
Y887500D01*
X931806D01*
Y862731D01*
X930426Y861934D01*
X928836Y860344D01*
X927711Y858397D01*
X927129Y856224D01*
Y853976D01*
X927711Y851803D01*
X928836Y849856D01*
X930426Y848266D01*
X932373Y847141D01*
X934546Y846559D01*
X936794D01*
X938967Y847141D01*
X940914Y848266D01*
X942504Y849856D01*
X943629Y851803D01*
X944211Y853976D01*
Y856224D01*
X943629Y858397D01*
X942504Y860344D01*
X940914Y861934D01*
X939534Y862731D01*
Y887500D01*
X997084D01*
X998250Y886230D01*
D02*
G37*
G36*
X851511Y851803D02*
X852636Y849856D01*
X854226Y848266D01*
X855585Y847481D01*
Y822780D01*
X855881Y821293D01*
X856723Y820033D01*
X893314Y783442D01*
X892977Y783105D01*
X892210Y781253D01*
Y779450D01*
X891659Y779050D01*
X891037Y778827D01*
X849885Y819979D01*
Y852967D01*
X851155Y853134D01*
X851511Y851803D01*
D02*
G37*
G36*
X827824Y860932D02*
X827236Y860344D01*
X826111Y858397D01*
X825529Y856224D01*
Y853976D01*
X826111Y851803D01*
X827236Y849856D01*
X828826Y848266D01*
X830773Y847141D01*
X832946Y846559D01*
X835194D01*
X837366Y847141D01*
X839314Y848266D01*
X840845Y849797D01*
X841114Y849779D01*
X842115Y849414D01*
Y818370D01*
X842411Y816883D01*
X843253Y815623D01*
X902135Y756741D01*
X901729Y755224D01*
Y752976D01*
X902311Y750803D01*
X902914Y749760D01*
X901897Y748980D01*
X900605Y750273D01*
X898753Y751040D01*
X896748D01*
X894895Y750273D01*
X893477Y748855D01*
X892710Y747002D01*
Y746454D01*
X892641Y746385D01*
X891029D01*
X890503Y747655D01*
X891704Y748856D01*
X892829Y750803D01*
X893411Y752976D01*
Y755224D01*
X892829Y757397D01*
X891704Y759344D01*
X890114Y760934D01*
X888167Y762059D01*
X885994Y762641D01*
X883746D01*
X882229Y762234D01*
X824135Y820329D01*
Y861736D01*
X824096Y861928D01*
X825087Y863377D01*
X825334Y863422D01*
X827824Y860932D01*
D02*
G37*
G36*
X780655Y829030D02*
X780951Y827543D01*
X781793Y826283D01*
X851336Y756741D01*
X850929Y755224D01*
Y752976D01*
X851511Y750803D01*
X852636Y748856D01*
X853837Y747655D01*
X853311Y746385D01*
X840229D01*
X839703Y747655D01*
X840904Y748856D01*
X842029Y750803D01*
X842611Y752976D01*
Y755224D01*
X842029Y757397D01*
X840904Y759344D01*
X839314Y760934D01*
X837366Y762059D01*
X835194Y762641D01*
X832946D01*
X831406Y762228D01*
X763004Y830631D01*
Y887500D01*
X780655D01*
Y829030D01*
D02*
G37*
G36*
X755276D02*
X755570Y827551D01*
X756407Y826298D01*
X825942Y756764D01*
X825529Y755224D01*
Y752976D01*
X826111Y750803D01*
X827236Y748856D01*
X828437Y747655D01*
X827911Y746385D01*
X818993D01*
X818605Y746773D01*
X817211Y747350D01*
Y762641D01*
X805594D01*
X737604Y830631D01*
Y887500D01*
X755276D01*
Y829030D01*
D02*
G37*
G36*
X650960Y581460D02*
Y571460D01*
X667126D01*
X667494Y570190D01*
X666891Y569288D01*
X666635Y568000D01*
X666635Y568000D01*
Y513650D01*
X666635Y513650D01*
X666891Y512362D01*
X667111Y512034D01*
X666432Y510764D01*
X659351D01*
X648114Y522001D01*
Y586636D01*
X650960D01*
Y581460D01*
D02*
G37*
G36*
X776635Y479356D02*
Y468669D01*
X775365Y468143D01*
X770880Y472629D01*
X769788Y473358D01*
X768500Y473615D01*
X768500Y473615D01*
X765540D01*
Y477040D01*
X750864D01*
Y482460D01*
X765290D01*
Y486135D01*
X769856D01*
X776635Y479356D01*
D02*
G37*
G36*
X766885Y417856D02*
Y404522D01*
X766645Y404313D01*
X765615Y403895D01*
X765586Y403912D01*
X765241Y404143D01*
X765150Y404161D01*
X765069Y404207D01*
X764657Y404259D01*
X764250Y404340D01*
X721000D01*
X720522Y404245D01*
X720044Y404157D01*
X720028Y404146D01*
X720009Y404143D01*
X719604Y403872D01*
X719196Y403608D01*
X719185Y403592D01*
X719169Y403581D01*
X718898Y403176D01*
X718622Y402776D01*
X718615Y402757D01*
X718573Y402748D01*
X717364Y402993D01*
Y405149D01*
X724101Y411886D01*
X729707D01*
X730786Y411671D01*
X732264Y411965D01*
X733518Y412803D01*
X744675Y423960D01*
X760782D01*
X766885Y417856D01*
D02*
G37*
G36*
X717320Y354750D02*
X670750D01*
Y358390D01*
X670750Y399500D01*
X675753D01*
X675753D01*
X689115D01*
X717320Y399500D01*
X717320Y354750D01*
D02*
G37*
G36*
X764152Y401719D02*
X764238D01*
X764250Y401709D01*
Y384500D01*
X721920D01*
X720764Y385672D01*
X720999Y401660D01*
X721030Y401705D01*
X721255Y401750D01*
X763995D01*
X764152Y401719D01*
D02*
G37*
G36*
X667500Y351750D02*
X669187Y350063D01*
X669250Y349745D01*
Y329005D01*
X669208Y328792D01*
X668995Y328748D01*
X644651Y328511D01*
X644421Y328556D01*
X644225Y328684D01*
X643677Y329227D01*
X643547Y329422D01*
X643500Y329651D01*
Y344245D01*
X643547Y344481D01*
X643680Y344680D01*
X653991Y354991D01*
X653991Y354991D01*
X654750Y355750D01*
X654750Y355892D01*
X654750D01*
X654750Y355904D01*
Y371995D01*
X654792Y372208D01*
X655005Y372250D01*
X667500D01*
Y351750D01*
D02*
G37*
G36*
X678066Y351689D02*
X678285Y351063D01*
X678289Y350890D01*
X678166Y350771D01*
X678053Y350514D01*
X677897Y350281D01*
X677852Y350056D01*
X677760Y349846D01*
X677755Y349565D01*
X677700Y349290D01*
Y332211D01*
X677767Y331870D01*
X677793Y331524D01*
X677865Y331379D01*
X677897Y331219D01*
X678090Y330931D01*
X678245Y330621D01*
X678967Y329693D01*
X679265Y329435D01*
X679540Y329152D01*
X679645Y329106D01*
X679731Y329032D01*
X680095Y328911D01*
X680175Y328857D01*
X680262Y328840D01*
X680468Y328751D01*
X680624Y328718D01*
X680680Y328717D01*
X680690Y328714D01*
X680726Y328716D01*
X680898Y328714D01*
X681166Y328660D01*
X695910D01*
Y319798D01*
X694640Y319272D01*
X692794Y321119D01*
X691954Y321680D01*
X690962Y321877D01*
X690113Y322466D01*
X689789Y322939D01*
Y323290D01*
X681692D01*
X681603Y323741D01*
X681041Y324581D01*
X680201Y325143D01*
X679210Y325340D01*
X671500D01*
X670569Y325155D01*
X670264Y326367D01*
X670672Y326646D01*
X671081Y326919D01*
X671088Y326929D01*
X671099Y326937D01*
X671369Y327350D01*
X671643Y327759D01*
X671645Y327772D01*
X671652Y327782D01*
X671743Y328266D01*
X671840Y328750D01*
Y350000D01*
X671663Y350890D01*
X671677Y351045D01*
X672389Y352160D01*
X677742D01*
X678066Y351689D01*
D02*
G37*
G36*
X763000Y313500D02*
X704000D01*
X703750Y313250D01*
X698500Y318500D01*
Y331250D01*
X681422D01*
X681403Y331254D01*
X681167D01*
X681082Y331272D01*
X681046Y331292D01*
X681030Y331303D01*
X680960Y331393D01*
X680854Y331485D01*
X680446Y332009D01*
X680405Y332091D01*
X680307Y332217D01*
Y332375D01*
X680290Y332466D01*
Y349034D01*
X680295Y349060D01*
Y349288D01*
X680425Y349475D01*
X680436Y349500D01*
X717250D01*
X721000Y353250D01*
Y380750D01*
X763000D01*
Y313500D01*
D02*
G37*
G36*
X601460Y337086D02*
Y324210D01*
X602203D01*
Y307465D01*
X601029Y306979D01*
X599629Y308379D01*
X598538Y309109D01*
X597330Y309349D01*
Y312000D01*
X580750D01*
Y300920D01*
X596635D01*
Y294250D01*
X596635Y294250D01*
X596892Y292962D01*
X597621Y291871D01*
X601347Y288144D01*
X596250Y283047D01*
Y280290D01*
X596210D01*
Y266210D01*
X596250D01*
X596250Y251005D01*
X596208Y250792D01*
X595995Y250750D01*
X479021Y250750D01*
X478808Y250792D01*
X478763Y251005D01*
X477897Y337099D01*
X477941Y337328D01*
X478069Y337524D01*
X478613Y338073D01*
X478807Y338203D01*
X479036Y338250D01*
X484994D01*
X600296Y338250D01*
X601460Y337086D01*
D02*
G37*
G36*
X668500Y281750D02*
X643516D01*
X642540Y282460D01*
Y296540D01*
X642490D01*
Y296643D01*
X642460Y296795D01*
Y303955D01*
X642490Y304107D01*
Y304210D01*
X642540D01*
Y318035D01*
X642582Y318248D01*
X642795Y318290D01*
X655540D01*
X657820Y320570D01*
X658019Y320703D01*
X658255Y320750D01*
X668500D01*
Y281750D01*
D02*
G37*
G36*
X679180Y322705D02*
X679194Y322685D01*
X679210Y322646D01*
Y306211D01*
X689789D01*
Y318233D01*
X689925Y318475D01*
X690736Y319085D01*
X691059Y319163D01*
X691143Y319107D01*
X700500Y309750D01*
X764000D01*
Y270414D01*
X762755Y269250D01*
X741436D01*
X700755Y269250D01*
X700542Y269292D01*
X700500Y269505D01*
Y281082D01*
Y284578D01*
X693659Y284560D01*
X683632Y284533D01*
X672399Y284503D01*
X671500Y285399D01*
Y322660D01*
X671530Y322705D01*
X671755Y322750D01*
X678955D01*
X679180Y322705D01*
D02*
G37*
%LPC*%
G36*
X836464Y1064901D02*
X834216D01*
X832043Y1064319D01*
X830096Y1063194D01*
X828506Y1061604D01*
X827381Y1059657D01*
X826799Y1057484D01*
Y1055236D01*
X827381Y1053063D01*
X828506Y1051116D01*
X830096Y1049526D01*
X832043Y1048401D01*
X834216Y1047819D01*
X836464D01*
X838636Y1048401D01*
X840584Y1049526D01*
X842174Y1051116D01*
X843299Y1053063D01*
X843881Y1055236D01*
Y1057484D01*
X843299Y1059657D01*
X842174Y1061604D01*
X840584Y1063194D01*
X838636Y1064319D01*
X836464Y1064901D01*
D02*
G37*
G36*
X811064D02*
X808816D01*
X806643Y1064319D01*
X804696Y1063194D01*
X803106Y1061604D01*
X801981Y1059657D01*
X801399Y1057484D01*
Y1055236D01*
X801981Y1053063D01*
X803106Y1051116D01*
X804696Y1049526D01*
X806643Y1048401D01*
X808816Y1047819D01*
X811064D01*
X813236Y1048401D01*
X815184Y1049526D01*
X816774Y1051116D01*
X817899Y1053063D01*
X818481Y1055236D01*
Y1057484D01*
X817899Y1059657D01*
X816774Y1061604D01*
X815184Y1063194D01*
X813236Y1064319D01*
X811064Y1064901D01*
D02*
G37*
G36*
X734864D02*
X732616D01*
X730443Y1064319D01*
X728496Y1063194D01*
X726906Y1061604D01*
X725781Y1059657D01*
X725199Y1057484D01*
Y1055236D01*
X725781Y1053063D01*
X726906Y1051116D01*
X728496Y1049526D01*
X730443Y1048401D01*
X732616Y1047819D01*
X734864D01*
X737037Y1048401D01*
X738984Y1049526D01*
X740574Y1051116D01*
X741699Y1053063D01*
X742281Y1055236D01*
Y1057484D01*
X741699Y1059657D01*
X740574Y1061604D01*
X738984Y1063194D01*
X737037Y1064319D01*
X734864Y1064901D01*
D02*
G37*
G36*
X396464Y927326D02*
X393256Y926904D01*
X390266Y925666D01*
X387699Y923696D01*
X385729Y921128D01*
X384491Y918139D01*
X384068Y914930D01*
X384491Y911722D01*
X385729Y908732D01*
X387699Y906165D01*
X390266Y904195D01*
X393256Y902956D01*
X396464Y902534D01*
X399673Y902956D01*
X402663Y904195D01*
X405230Y906165D01*
X407200Y908732D01*
X408438Y911722D01*
X408860Y914930D01*
X408438Y918139D01*
X407200Y921128D01*
X405230Y923696D01*
X402663Y925666D01*
X399673Y926904D01*
X396464Y927326D01*
D02*
G37*
G36*
X911394Y863641D02*
X909146D01*
X906973Y863059D01*
X905026Y861934D01*
X903436Y860344D01*
X902311Y858397D01*
X901729Y856224D01*
Y853976D01*
X902311Y851803D01*
X903436Y849856D01*
X905026Y848266D01*
X906973Y847141D01*
X909146Y846559D01*
X911394D01*
X913567Y847141D01*
X915514Y848266D01*
X917104Y849856D01*
X918229Y851803D01*
X918811Y853976D01*
Y856224D01*
X918229Y858397D01*
X917104Y860344D01*
X915514Y861934D01*
X913567Y863059D01*
X911394Y863641D01*
D02*
G37*
G36*
X885994D02*
X883746D01*
X881573Y863059D01*
X879626Y861934D01*
X878036Y860344D01*
X876911Y858397D01*
X876329Y856224D01*
Y853976D01*
X876911Y851803D01*
X878036Y849856D01*
X879626Y848266D01*
X881573Y847141D01*
X883746Y846559D01*
X885994D01*
X888167Y847141D01*
X890114Y848266D01*
X891704Y849856D01*
X892829Y851803D01*
X893411Y853976D01*
Y856224D01*
X892829Y858397D01*
X891704Y860344D01*
X890114Y861934D01*
X888167Y863059D01*
X885994Y863641D01*
D02*
G37*
G36*
X534500Y873590D02*
X328500D01*
X327509Y873393D01*
X326669Y872831D01*
X326169Y872331D01*
X325607Y871491D01*
X325410Y870500D01*
Y801000D01*
X325607Y800009D01*
X326169Y799169D01*
X327009Y798607D01*
X328000Y798410D01*
X401022D01*
X401107Y798427D01*
X401192Y798416D01*
X401600Y798525D01*
X402014Y798607D01*
X402741Y798202D01*
X403170Y797845D01*
X404156Y796138D01*
X406388Y793906D01*
X409122Y792327D01*
X412171Y791510D01*
X415328D01*
X418378Y792327D01*
X421112Y793906D01*
X423344Y796138D01*
X424330Y797845D01*
X424759Y798202D01*
X425486Y798607D01*
X425900Y798525D01*
X426308Y798416D01*
X426393Y798427D01*
X426477Y798410D01*
X534086D01*
X535077Y798607D01*
X535917Y799169D01*
X536478Y800009D01*
X536478Y800009D01*
X536893Y801009D01*
X536893Y801009D01*
X537090Y802000D01*
Y871000D01*
X536893Y871991D01*
X536331Y872831D01*
X535491Y873393D01*
X534500Y873590D01*
D02*
G37*
G36*
X936794Y762641D02*
X934546D01*
X932373Y762059D01*
X930426Y760934D01*
X928836Y759344D01*
X927711Y757397D01*
X927129Y755224D01*
Y752976D01*
X927711Y750803D01*
X928836Y748856D01*
X930426Y747266D01*
X932373Y746141D01*
X934546Y745559D01*
X936794D01*
X938967Y746141D01*
X940914Y747266D01*
X942504Y748856D01*
X943629Y750803D01*
X944211Y752976D01*
Y755224D01*
X943629Y757397D01*
X942504Y759344D01*
X940914Y760934D01*
X938967Y762059D01*
X936794Y762641D01*
D02*
G37*
G36*
X960667Y700040D02*
X956332D01*
X952051Y699362D01*
X947928Y698022D01*
X944066Y696054D01*
X940559Y693506D01*
X937494Y690441D01*
X934946Y686934D01*
X932978Y683072D01*
X931638Y678949D01*
X930960Y674668D01*
Y670332D01*
X931638Y666051D01*
X932978Y661928D01*
X934946Y658066D01*
X937494Y654559D01*
X940559Y651494D01*
X944066Y648946D01*
X947928Y646978D01*
X952051Y645638D01*
X956332Y644960D01*
X960667D01*
X964949Y645638D01*
X969072Y646978D01*
X972934Y648946D01*
X976441Y651494D01*
X979506Y654559D01*
X982054Y658066D01*
X984022Y661928D01*
X985362Y666051D01*
X986040Y670332D01*
Y674668D01*
X985362Y678949D01*
X984022Y683072D01*
X982054Y686934D01*
X979506Y690441D01*
X976441Y693506D01*
X972934Y696054D01*
X969072Y698022D01*
X964949Y699362D01*
X960667Y700040D01*
D02*
G37*
G36*
X599790Y657540D02*
X581210D01*
Y638960D01*
X599790D01*
Y657540D01*
D02*
G37*
G36*
X760040Y634540D02*
X739960D01*
Y626460D01*
X760040D01*
Y634540D01*
D02*
G37*
G36*
X813040Y525665D02*
X782960D01*
Y508585D01*
X813040D01*
Y525665D01*
D02*
G37*
G36*
X621572Y491540D02*
X618928D01*
X616375Y490856D01*
X614085Y489534D01*
X612216Y487665D01*
X610894Y485375D01*
X610210Y482822D01*
Y480178D01*
X610894Y477625D01*
X612216Y475335D01*
X614085Y473466D01*
X616375Y472144D01*
X618928Y471460D01*
X621572D01*
X624125Y472144D01*
X626415Y473466D01*
X628284Y475335D01*
X629606Y477625D01*
X629743Y478135D01*
X662737D01*
X663645Y477227D01*
X665498Y476460D01*
X667503D01*
X669355Y477227D01*
X670773Y478645D01*
X671540Y480498D01*
Y482503D01*
X670773Y484355D01*
X669355Y485773D01*
X667503Y486540D01*
X665498D01*
X663645Y485773D01*
X662737Y484865D01*
X629743D01*
X629606Y485375D01*
X628284Y487665D01*
X626415Y489534D01*
X624125Y490856D01*
X621572Y491540D01*
D02*
G37*
G36*
X591822D02*
X589178D01*
X586625Y490856D01*
X584335Y489534D01*
X582466Y487665D01*
X581144Y485375D01*
X580460Y482822D01*
Y480178D01*
X581144Y477625D01*
X582466Y475335D01*
X584335Y473466D01*
X586625Y472144D01*
X589178Y471460D01*
X591822D01*
X594375Y472144D01*
X596665Y473466D01*
X598534Y475335D01*
X599856Y477625D01*
X600540Y480178D01*
Y482822D01*
X599856Y485375D01*
X598534Y487665D01*
X596665Y489534D01*
X594375Y490856D01*
X591822Y491540D01*
D02*
G37*
G36*
X868040Y500665D02*
X837960D01*
Y483585D01*
X868040D01*
Y488635D01*
X881991D01*
X888135Y482491D01*
Y475763D01*
X887227Y474855D01*
X886460Y473003D01*
Y470998D01*
X887227Y469145D01*
X888645Y467727D01*
X890498Y466960D01*
X892503D01*
X894355Y467727D01*
X895773Y469145D01*
X896540Y470998D01*
Y473003D01*
X895773Y474855D01*
X894865Y475763D01*
Y483884D01*
X894865Y483885D01*
X894609Y485172D01*
X893879Y486264D01*
X893879Y486264D01*
X885764Y494379D01*
X884672Y495108D01*
X883384Y495365D01*
X883384Y495365D01*
X868040D01*
Y500665D01*
D02*
G37*
G36*
X621572Y466140D02*
X618928D01*
X616375Y465456D01*
X614085Y464134D01*
X612216Y462265D01*
X610894Y459975D01*
X610210Y457422D01*
Y454778D01*
X610894Y452225D01*
X612216Y449935D01*
X614085Y448066D01*
X616375Y446744D01*
X618928Y446060D01*
X621572D01*
X624125Y446744D01*
X626415Y448066D01*
X628284Y449935D01*
X629606Y452225D01*
X629863Y453185D01*
X640437D01*
X640895Y452727D01*
X642747Y451960D01*
X644753D01*
X646605Y452727D01*
X648023Y454145D01*
X648790Y455998D01*
Y458003D01*
X648023Y459855D01*
X646605Y461273D01*
X644753Y462040D01*
X642747D01*
X640895Y461273D01*
X639537Y459915D01*
X629622D01*
X629606Y459975D01*
X628284Y462265D01*
X626415Y464134D01*
X624125Y465456D01*
X621572Y466140D01*
D02*
G37*
G36*
X591822D02*
X589178D01*
X586625Y465456D01*
X584335Y464134D01*
X582466Y462265D01*
X581144Y459975D01*
X580460Y457422D01*
Y454778D01*
X581144Y452225D01*
X582466Y449935D01*
X584335Y448066D01*
X586625Y446744D01*
X589178Y446060D01*
X591822D01*
X594375Y446744D01*
X596665Y448066D01*
X598534Y449935D01*
X599856Y452225D01*
X600540Y454778D01*
Y457422D01*
X599856Y459975D01*
X598534Y462265D01*
X596665Y464134D01*
X594375Y465456D01*
X591822Y466140D01*
D02*
G37*
G36*
X868040Y475665D02*
X837960D01*
Y458585D01*
X868040D01*
Y463635D01*
X875741D01*
X880635Y458741D01*
Y452013D01*
X879727Y451105D01*
X878960Y449253D01*
Y447248D01*
X879727Y445395D01*
X881145Y443977D01*
X882998Y443210D01*
X885003D01*
X886855Y443977D01*
X888273Y445395D01*
X889040Y447248D01*
Y449253D01*
X888273Y451105D01*
X887365Y452013D01*
Y460134D01*
X887365Y460135D01*
X887109Y461422D01*
X886379Y462514D01*
X879514Y469379D01*
X878422Y470108D01*
X877135Y470365D01*
X877134Y470365D01*
X868040D01*
Y475665D01*
D02*
G37*
G36*
X452828Y327990D02*
X449671D01*
X446622Y327173D01*
X443888Y325594D01*
X441656Y323362D01*
X440077Y320628D01*
X439260Y317579D01*
Y314422D01*
X440077Y311372D01*
X441656Y308638D01*
X443888Y306406D01*
X446622Y304827D01*
X449671Y304010D01*
X452828D01*
X455878Y304827D01*
X458612Y306406D01*
X460844Y308638D01*
X462423Y311372D01*
X463240Y314422D01*
Y317579D01*
X462423Y320628D01*
X460844Y323362D01*
X458612Y325594D01*
X455878Y327173D01*
X452828Y327990D01*
D02*
G37*
G36*
X829502Y282790D02*
X827497D01*
X825645Y282023D01*
X824227Y280605D01*
X823460Y278752D01*
Y276747D01*
X824227Y274895D01*
X825385Y273737D01*
Y246513D01*
X824727Y245855D01*
X823960Y244002D01*
Y241998D01*
X824727Y240145D01*
X826145Y238727D01*
X827998Y237960D01*
X830003D01*
X831855Y238727D01*
X833273Y240145D01*
X834040Y241998D01*
Y244002D01*
X833273Y245855D01*
X832115Y247013D01*
Y274237D01*
X832773Y274895D01*
X833540Y276747D01*
Y278752D01*
X832773Y280605D01*
X831355Y282023D01*
X829502Y282790D01*
D02*
G37*
G36*
X693250Y231180D02*
X327500D01*
X326509Y230983D01*
X325669Y230421D01*
X325107Y229581D01*
X324910Y228590D01*
Y213540D01*
Y200878D01*
Y188217D01*
X325107Y187226D01*
X325669Y186385D01*
X326509Y185824D01*
X327500Y185627D01*
X693250D01*
X694241Y185824D01*
X695081Y186385D01*
X695643Y187226D01*
X695840Y188217D01*
Y203267D01*
Y215929D01*
Y228590D01*
X695643Y229581D01*
X695081Y230421D01*
X694241Y230983D01*
X693250Y231180D01*
D02*
G37*
G36*
X739918Y240040D02*
X735583D01*
X731301Y239362D01*
X727178Y238022D01*
X723316Y236054D01*
X719809Y233506D01*
X716744Y230441D01*
X714196Y226934D01*
X712228Y223072D01*
X710888Y218949D01*
X710210Y214667D01*
Y210333D01*
X710888Y206051D01*
X712228Y201928D01*
X714196Y198066D01*
X716744Y194559D01*
X719809Y191494D01*
X723316Y188946D01*
X727178Y186978D01*
X731301Y185638D01*
X735583Y184960D01*
X739918D01*
X744199Y185638D01*
X748322Y186978D01*
X752184Y188946D01*
X755691Y191494D01*
X758756Y194559D01*
X761304Y198066D01*
X763272Y201928D01*
X764612Y206051D01*
X765290Y210333D01*
Y214667D01*
X764612Y218949D01*
X763272Y223072D01*
X761304Y226934D01*
X758756Y230441D01*
X755691Y233506D01*
X752184Y236054D01*
X748322Y238022D01*
X744199Y239362D01*
X739918Y240040D01*
D02*
G37*
G36*
X280667D02*
X276332D01*
X272051Y239362D01*
X267928Y238022D01*
X264066Y236054D01*
X260559Y233506D01*
X257494Y230441D01*
X254946Y226934D01*
X252978Y223072D01*
X251638Y218949D01*
X250960Y214667D01*
Y210333D01*
X251638Y206051D01*
X252978Y201928D01*
X254946Y198066D01*
X257494Y194559D01*
X260559Y191494D01*
X264066Y188946D01*
X267928Y186978D01*
X272051Y185638D01*
X276332Y184960D01*
X280667D01*
X284949Y185638D01*
X289072Y186978D01*
X292934Y188946D01*
X296441Y191494D01*
X299506Y194559D01*
X302054Y198066D01*
X304022Y201928D01*
X305362Y206051D01*
X306040Y210333D01*
Y214667D01*
X305362Y218949D01*
X304022Y223072D01*
X302054Y226934D01*
X299506Y230441D01*
X296441Y233506D01*
X292934Y236054D01*
X289072Y238022D01*
X284949Y239362D01*
X280667Y240040D01*
D02*
G37*
%LPD*%
G36*
X534458Y870958D02*
X534500Y870745D01*
Y802255D01*
X534402Y801765D01*
X534183Y801236D01*
X534056Y801045D01*
X533831Y801000D01*
X426795D01*
X426502Y801097D01*
X425850Y801765D01*
X425701Y802417D01*
X425843Y803500D01*
X425431Y806630D01*
X424223Y809547D01*
X422301Y812051D01*
X419797Y813973D01*
X416880Y815181D01*
X413750Y815593D01*
X410620Y815181D01*
X407703Y813973D01*
X405199Y812051D01*
X403277Y809547D01*
X402069Y806630D01*
X401656Y803500D01*
X401799Y802417D01*
X401650Y801765D01*
X400998Y801097D01*
X400705Y801000D01*
X328255D01*
X328042Y801042D01*
X328000Y801255D01*
Y870245D01*
X328047Y870481D01*
X328180Y870680D01*
X328320Y870820D01*
X328519Y870953D01*
X328755Y871000D01*
X534245D01*
X534458Y870958D01*
D02*
G37*
G36*
X693250Y228351D02*
Y228112D01*
Y227873D01*
Y227635D01*
Y227396D01*
Y227157D01*
Y226918D01*
Y226679D01*
Y226440D01*
Y226201D01*
Y225962D01*
Y225723D01*
Y225485D01*
Y225246D01*
Y225007D01*
Y224768D01*
Y224529D01*
Y224290D01*
Y224051D01*
Y223812D01*
Y223573D01*
Y223334D01*
Y223095D01*
Y222857D01*
Y222618D01*
Y222379D01*
Y222140D01*
Y221901D01*
Y221662D01*
Y221423D01*
Y221184D01*
Y220945D01*
Y220707D01*
Y220468D01*
Y220229D01*
Y219990D01*
Y219751D01*
Y219512D01*
Y219273D01*
Y219034D01*
Y218795D01*
Y218556D01*
Y218318D01*
Y218079D01*
Y217840D01*
Y217601D01*
Y217362D01*
Y217123D01*
Y216884D01*
Y216645D01*
Y216406D01*
Y216168D01*
Y215929D01*
Y215690D01*
Y215451D01*
Y215212D01*
Y214973D01*
Y214734D01*
Y214495D01*
Y214256D01*
Y214018D01*
Y213779D01*
Y213540D01*
Y213301D01*
Y213062D01*
Y212823D01*
Y212584D01*
Y212345D01*
Y212106D01*
Y211867D01*
Y211628D01*
Y211390D01*
Y211151D01*
Y210912D01*
Y210673D01*
Y210434D01*
Y210195D01*
Y209956D01*
Y209717D01*
Y209478D01*
Y209240D01*
Y209001D01*
Y208762D01*
Y208523D01*
Y208284D01*
Y208045D01*
Y207806D01*
Y207567D01*
Y207328D01*
Y207090D01*
Y206851D01*
Y206612D01*
Y206373D01*
Y206134D01*
Y205895D01*
Y205656D01*
Y205417D01*
Y205178D01*
Y204939D01*
Y204701D01*
Y204462D01*
Y204223D01*
Y203984D01*
Y203745D01*
Y203506D01*
Y203267D01*
Y203028D01*
Y202789D01*
Y202551D01*
Y202312D01*
Y202073D01*
Y201834D01*
Y201595D01*
Y201356D01*
Y201117D01*
Y200878D01*
Y200639D01*
Y200400D01*
Y200161D01*
Y199923D01*
Y199684D01*
Y199445D01*
Y199206D01*
Y198967D01*
Y198728D01*
Y198489D01*
Y198250D01*
Y198011D01*
Y197773D01*
Y197534D01*
Y197295D01*
Y197056D01*
Y196817D01*
Y196578D01*
Y196339D01*
Y196100D01*
Y195861D01*
Y195623D01*
Y195384D01*
Y195145D01*
Y194906D01*
Y194667D01*
Y194428D01*
Y194189D01*
Y193950D01*
Y193711D01*
Y193472D01*
Y193234D01*
Y192995D01*
Y192756D01*
Y192517D01*
Y192278D01*
Y192039D01*
Y191800D01*
Y191561D01*
Y191322D01*
Y191083D01*
Y190845D01*
Y190606D01*
Y190367D01*
Y190128D01*
Y189889D01*
Y189650D01*
Y189411D01*
Y189172D01*
Y188933D01*
Y188694D01*
Y188456D01*
Y188217D01*
X327500D01*
Y188456D01*
Y188694D01*
Y188933D01*
Y189172D01*
Y189411D01*
Y189650D01*
Y189889D01*
Y190128D01*
Y190367D01*
Y190606D01*
Y190845D01*
Y191083D01*
Y191322D01*
Y191561D01*
Y191800D01*
Y192039D01*
Y192278D01*
Y192517D01*
Y192756D01*
Y192995D01*
Y193234D01*
Y193472D01*
Y193711D01*
Y193950D01*
Y194189D01*
Y194428D01*
Y194667D01*
Y194906D01*
Y195145D01*
Y195384D01*
Y195623D01*
Y195861D01*
Y196100D01*
Y196339D01*
Y196578D01*
Y196817D01*
Y197056D01*
Y197295D01*
Y197534D01*
Y197773D01*
Y198011D01*
Y198250D01*
Y198489D01*
Y198728D01*
Y198967D01*
Y199206D01*
Y199445D01*
Y199684D01*
Y199923D01*
Y200161D01*
Y200400D01*
Y200639D01*
Y200878D01*
Y201117D01*
Y201356D01*
Y201595D01*
Y201834D01*
Y202073D01*
Y202312D01*
Y202551D01*
Y202789D01*
Y203028D01*
Y203267D01*
Y203506D01*
Y203745D01*
Y203984D01*
Y204223D01*
Y204462D01*
Y204701D01*
Y204939D01*
Y205178D01*
Y205417D01*
Y205656D01*
Y205895D01*
Y206134D01*
Y206373D01*
Y206612D01*
Y206851D01*
Y207090D01*
Y207328D01*
Y207567D01*
Y207806D01*
Y208045D01*
Y208284D01*
Y208523D01*
Y208762D01*
Y209001D01*
Y209240D01*
Y209478D01*
Y209717D01*
Y209956D01*
Y210195D01*
Y210434D01*
Y210673D01*
Y210912D01*
Y211151D01*
Y211390D01*
Y211628D01*
Y211867D01*
Y212106D01*
Y212345D01*
Y212584D01*
Y212823D01*
Y213062D01*
Y213301D01*
Y213540D01*
Y213779D01*
Y214018D01*
Y214256D01*
Y214495D01*
Y214734D01*
Y214973D01*
Y215212D01*
Y215451D01*
Y215690D01*
Y215929D01*
Y216168D01*
Y216406D01*
Y216645D01*
Y216884D01*
Y217123D01*
Y217362D01*
Y217601D01*
Y217840D01*
Y218079D01*
Y218318D01*
Y218556D01*
Y218795D01*
Y219034D01*
Y219273D01*
Y219512D01*
Y219751D01*
Y219990D01*
Y220229D01*
Y220468D01*
Y220707D01*
Y220945D01*
Y221184D01*
Y221423D01*
Y221662D01*
Y221901D01*
Y222140D01*
Y222379D01*
Y222618D01*
Y222857D01*
Y223095D01*
Y223334D01*
Y223573D01*
Y223812D01*
Y224051D01*
Y224290D01*
Y224529D01*
Y224768D01*
Y225007D01*
Y225246D01*
Y225485D01*
Y225723D01*
Y225962D01*
Y226201D01*
Y226440D01*
Y226679D01*
Y226918D01*
Y227157D01*
Y227396D01*
Y227635D01*
Y227873D01*
Y228112D01*
Y228351D01*
Y228590D01*
X693250D01*
Y228351D01*
D02*
G37*
%LPC*%
G36*
X687278Y223334D02*
X333472D01*
Y223095D01*
X333233D01*
Y222857D01*
X332995D01*
Y222618D01*
Y222379D01*
X332756D01*
Y222140D01*
Y221901D01*
Y221662D01*
Y221423D01*
Y221184D01*
Y220945D01*
Y220707D01*
Y220468D01*
Y220229D01*
Y219990D01*
Y219751D01*
Y219512D01*
Y219273D01*
Y219034D01*
Y218795D01*
Y218556D01*
Y218318D01*
Y218079D01*
Y217840D01*
Y217601D01*
Y217362D01*
Y217123D01*
Y216884D01*
Y216645D01*
Y216406D01*
Y216168D01*
Y215929D01*
Y215690D01*
Y215451D01*
Y215212D01*
Y214973D01*
Y214734D01*
Y214495D01*
Y214256D01*
Y214018D01*
Y213779D01*
Y213540D01*
Y213301D01*
Y213062D01*
Y212823D01*
Y212584D01*
Y212345D01*
Y212106D01*
Y211867D01*
Y211628D01*
Y211390D01*
Y211151D01*
Y210912D01*
Y210673D01*
Y210434D01*
Y210195D01*
Y209956D01*
Y209717D01*
Y209478D01*
Y209240D01*
Y209001D01*
Y208762D01*
Y208523D01*
Y208284D01*
Y208045D01*
Y207806D01*
Y207567D01*
Y207328D01*
Y207090D01*
Y206851D01*
Y206612D01*
Y206373D01*
Y206134D01*
Y205895D01*
Y205656D01*
Y205417D01*
Y205178D01*
Y204939D01*
Y204701D01*
Y204462D01*
Y204223D01*
Y203984D01*
Y203745D01*
Y203506D01*
Y203267D01*
Y203028D01*
Y202789D01*
Y202551D01*
Y202312D01*
Y202073D01*
Y201834D01*
Y201595D01*
Y201356D01*
Y201117D01*
Y200878D01*
Y200639D01*
Y200400D01*
Y200161D01*
Y199923D01*
Y199684D01*
Y199445D01*
Y199206D01*
Y198967D01*
Y198728D01*
Y198489D01*
Y198250D01*
Y198011D01*
Y197773D01*
Y197534D01*
Y197295D01*
Y197056D01*
Y196817D01*
Y196578D01*
Y196339D01*
Y196100D01*
Y195861D01*
Y195623D01*
Y195384D01*
Y195145D01*
Y194906D01*
Y194667D01*
Y194428D01*
Y194189D01*
Y193950D01*
Y193711D01*
X332995D01*
Y193472D01*
X333233D01*
Y193234D01*
X687516D01*
Y193472D01*
X687755D01*
Y193711D01*
X687994D01*
Y193950D01*
Y194189D01*
Y194428D01*
Y194667D01*
Y194906D01*
Y195145D01*
Y195384D01*
Y195623D01*
Y195861D01*
Y196100D01*
Y196339D01*
Y196578D01*
Y196817D01*
Y197056D01*
Y197295D01*
Y197534D01*
Y197773D01*
Y198011D01*
Y198250D01*
Y198489D01*
Y198728D01*
Y198967D01*
Y199206D01*
Y199445D01*
Y199684D01*
Y199923D01*
Y200161D01*
Y200400D01*
Y200639D01*
Y200878D01*
Y201117D01*
Y201356D01*
Y201595D01*
Y201834D01*
Y202073D01*
Y202312D01*
Y202551D01*
Y202789D01*
Y203028D01*
Y203267D01*
Y203506D01*
Y203745D01*
Y203984D01*
Y204223D01*
Y204462D01*
Y204701D01*
Y204939D01*
Y205178D01*
Y205417D01*
Y205656D01*
Y205895D01*
Y206134D01*
Y206373D01*
Y206612D01*
Y206851D01*
Y207090D01*
Y207328D01*
Y207567D01*
Y207806D01*
Y208045D01*
Y208284D01*
Y208523D01*
Y208762D01*
Y209001D01*
Y209240D01*
Y209478D01*
Y209717D01*
Y209956D01*
Y210195D01*
Y210434D01*
Y210673D01*
Y210912D01*
Y211151D01*
Y211390D01*
Y211628D01*
Y211867D01*
Y212106D01*
Y212345D01*
Y212584D01*
Y212823D01*
Y213062D01*
Y213301D01*
Y213540D01*
Y213779D01*
Y214018D01*
Y214256D01*
Y214495D01*
Y214734D01*
Y214973D01*
Y215212D01*
Y215451D01*
Y215690D01*
Y215929D01*
Y216168D01*
Y216406D01*
Y216645D01*
Y216884D01*
Y217123D01*
Y217362D01*
Y217601D01*
Y217840D01*
Y218079D01*
Y218318D01*
Y218556D01*
Y218795D01*
Y219034D01*
Y219273D01*
Y219512D01*
Y219751D01*
Y219990D01*
Y220229D01*
Y220468D01*
Y220707D01*
Y220945D01*
Y221184D01*
Y221423D01*
Y221662D01*
Y221901D01*
Y222140D01*
Y222379D01*
X687755D01*
Y222618D01*
Y222857D01*
X687516D01*
Y223095D01*
X687278D01*
Y223334D01*
D02*
G37*
%LPD*%
G36*
X468449Y216884D02*
X468927D01*
Y216645D01*
Y216406D01*
X469165D01*
Y216168D01*
X468927D01*
Y215929D01*
Y215690D01*
Y215451D01*
X468688D01*
Y215212D01*
X468210D01*
Y214973D01*
X466538D01*
Y215212D01*
X466299D01*
Y215451D01*
Y215690D01*
Y215929D01*
Y216168D01*
Y216406D01*
Y216645D01*
X466538D01*
Y216884D01*
X466777D01*
Y217123D01*
X468449D01*
Y216884D01*
D02*
G37*
G36*
X478721Y212345D02*
X479199D01*
Y212106D01*
X479438D01*
Y211867D01*
X479677D01*
Y211628D01*
Y211390D01*
Y211151D01*
Y210912D01*
X479438D01*
Y210673D01*
Y210434D01*
X479199D01*
Y210195D01*
Y209956D01*
X478960D01*
Y209717D01*
X478721D01*
Y209478D01*
X478005D01*
Y209717D01*
X477766D01*
Y209956D01*
X477527D01*
Y210195D01*
X477288D01*
Y210434D01*
X475854D01*
Y210195D01*
X475138D01*
Y209956D01*
X474899D01*
Y209717D01*
X474421D01*
Y209478D01*
X473704D01*
Y209240D01*
X473227D01*
Y209001D01*
X472988D01*
Y208762D01*
Y208523D01*
X472749D01*
Y208284D01*
X472510D01*
Y208045D01*
X472271D01*
Y207806D01*
X472032D01*
Y207567D01*
Y207328D01*
X471793D01*
Y207090D01*
Y206851D01*
Y206612D01*
Y206373D01*
Y206134D01*
Y205895D01*
Y205656D01*
X471554D01*
Y205417D01*
Y205178D01*
Y204939D01*
Y204701D01*
Y204462D01*
X471793D01*
Y204223D01*
Y203984D01*
Y203745D01*
X472032D01*
Y203506D01*
Y203267D01*
X472271D01*
Y203028D01*
X472510D01*
Y202789D01*
X472749D01*
Y202551D01*
X473227D01*
Y202312D01*
X475377D01*
Y202551D01*
X475616D01*
Y202789D01*
X475854D01*
Y203028D01*
X476332D01*
Y203267D01*
X477049D01*
Y203028D01*
X477288D01*
Y202789D01*
X477527D01*
Y202551D01*
Y202312D01*
X477766D01*
Y202073D01*
Y201834D01*
Y201595D01*
X477527D01*
Y201356D01*
Y201117D01*
X477288D01*
Y200878D01*
X477049D01*
Y200639D01*
X476810D01*
Y200400D01*
X476093D01*
Y200161D01*
X471793D01*
Y200400D01*
X471315D01*
Y200639D01*
X471077D01*
Y200878D01*
X470838D01*
Y201117D01*
X470360D01*
Y201356D01*
X470121D01*
Y201595D01*
X469882D01*
Y201834D01*
X469643D01*
Y202073D01*
Y202312D01*
Y202551D01*
X469404D01*
Y202789D01*
Y203028D01*
X469165D01*
Y203267D01*
Y203506D01*
X468927D01*
Y203745D01*
Y203984D01*
Y204223D01*
Y204462D01*
Y204701D01*
Y204939D01*
Y205178D01*
Y205417D01*
Y205656D01*
Y205895D01*
Y206134D01*
X469165D01*
Y206373D01*
Y206612D01*
Y206851D01*
X469404D01*
Y207090D01*
Y207328D01*
Y207567D01*
X469643D01*
Y207806D01*
Y208045D01*
Y208284D01*
X469882D01*
Y208523D01*
Y208762D01*
X470121D01*
Y209001D01*
X470360D01*
Y209240D01*
Y209478D01*
X470599D01*
Y209717D01*
X470838D01*
Y209956D01*
Y210195D01*
X471077D01*
Y210434D01*
X471315D01*
Y210673D01*
X471554D01*
Y210912D01*
X472032D01*
Y211151D01*
X472271D01*
Y211390D01*
X472749D01*
Y211628D01*
X473227D01*
Y211867D01*
X473466D01*
Y212106D01*
X473704D01*
Y212345D01*
X474182D01*
Y212584D01*
X478721D01*
Y212345D01*
D02*
G37*
G36*
X543940Y216884D02*
X544179D01*
Y216645D01*
Y216406D01*
Y216168D01*
Y215929D01*
Y215690D01*
Y215451D01*
X543940D01*
Y215212D01*
Y214973D01*
Y214734D01*
Y214495D01*
Y214256D01*
Y214018D01*
Y213779D01*
Y213540D01*
Y213301D01*
Y213062D01*
Y212823D01*
X543701D01*
Y212584D01*
Y212345D01*
Y212106D01*
Y211867D01*
Y211628D01*
Y211390D01*
Y211151D01*
X543462D01*
Y210912D01*
Y210673D01*
Y210434D01*
Y210195D01*
X543223D01*
Y209956D01*
Y209717D01*
Y209478D01*
X542984D01*
Y209240D01*
Y209001D01*
Y208762D01*
Y208523D01*
Y208284D01*
Y208045D01*
Y207806D01*
Y207567D01*
Y207328D01*
Y207090D01*
Y206851D01*
Y206612D01*
X542745D01*
Y206373D01*
Y206134D01*
Y205895D01*
Y205656D01*
Y205417D01*
X542506D01*
Y205178D01*
Y204939D01*
Y204701D01*
Y204462D01*
Y204223D01*
Y203984D01*
Y203745D01*
Y203506D01*
X542268D01*
Y203267D01*
Y203028D01*
X542029D01*
Y202789D01*
Y202551D01*
Y202312D01*
X541790D01*
Y202073D01*
Y201834D01*
Y201595D01*
Y201356D01*
Y201117D01*
Y200878D01*
Y200639D01*
Y200400D01*
X541551D01*
Y200161D01*
X539401D01*
Y200400D01*
X539162D01*
Y200639D01*
X538923D01*
Y200878D01*
Y201117D01*
X539162D01*
Y201356D01*
X539401D01*
Y201595D01*
Y201834D01*
X539640D01*
Y202073D01*
Y202312D01*
Y202551D01*
Y202789D01*
Y203028D01*
Y203267D01*
Y203506D01*
Y203745D01*
X539879D01*
Y203984D01*
Y204223D01*
Y204462D01*
Y204701D01*
Y204939D01*
Y205178D01*
Y205417D01*
Y205656D01*
X540118D01*
Y205895D01*
Y206134D01*
Y206373D01*
Y206612D01*
X540356D01*
Y206851D01*
Y207090D01*
Y207328D01*
Y207567D01*
Y207806D01*
X540595D01*
Y208045D01*
Y208284D01*
Y208523D01*
X540834D01*
Y208762D01*
Y209001D01*
Y209240D01*
Y209478D01*
Y209717D01*
Y209956D01*
Y210195D01*
Y210434D01*
Y210673D01*
Y210912D01*
X540595D01*
Y211151D01*
X540118D01*
Y210912D01*
X539879D01*
Y210673D01*
X539640D01*
Y210434D01*
Y210195D01*
X539401D01*
Y209956D01*
Y209717D01*
X539162D01*
Y209478D01*
Y209240D01*
X538923D01*
Y209001D01*
X538684D01*
Y208762D01*
X538445D01*
Y208523D01*
Y208284D01*
Y208045D01*
X538206D01*
Y207806D01*
Y207567D01*
X537967D01*
Y207328D01*
X537729D01*
Y207090D01*
X537490D01*
Y206851D01*
Y206612D01*
X537251D01*
Y206373D01*
Y206134D01*
X537012D01*
Y205895D01*
X536773D01*
Y205656D01*
Y205417D01*
X536534D01*
Y205178D01*
X536295D01*
Y204939D01*
Y204701D01*
X536056D01*
Y204462D01*
Y204223D01*
X535817D01*
Y203984D01*
X535578D01*
Y203745D01*
X535340D01*
Y203506D01*
X535101D01*
Y203267D01*
Y203028D01*
X534862D01*
Y202789D01*
Y202551D01*
X534384D01*
Y202312D01*
X532712D01*
Y202551D01*
X532234D01*
Y202789D01*
X531995D01*
Y203028D01*
X531756D01*
Y203267D01*
Y203506D01*
Y203745D01*
Y203984D01*
Y204223D01*
Y204462D01*
Y204701D01*
Y204939D01*
Y205178D01*
Y205417D01*
Y205656D01*
Y205895D01*
Y206134D01*
Y206373D01*
X531517D01*
Y206612D01*
Y206851D01*
Y207090D01*
Y207328D01*
X531278D01*
Y207567D01*
Y207806D01*
X531040D01*
Y208045D01*
Y208284D01*
Y208523D01*
Y208762D01*
Y209001D01*
Y209240D01*
Y209478D01*
Y209717D01*
X530801D01*
Y209956D01*
Y210195D01*
Y210434D01*
X530562D01*
Y210673D01*
X530323D01*
Y210912D01*
X529845D01*
Y210673D01*
X529606D01*
Y210434D01*
X529367D01*
Y210195D01*
Y209956D01*
X529128D01*
Y209717D01*
Y209478D01*
Y209240D01*
Y209001D01*
Y208762D01*
Y208523D01*
Y208284D01*
Y208045D01*
X528889D01*
Y207806D01*
Y207567D01*
Y207328D01*
X528651D01*
Y207090D01*
Y206851D01*
X528412D01*
Y206612D01*
Y206373D01*
X528173D01*
Y206134D01*
Y205895D01*
Y205656D01*
Y205417D01*
Y205178D01*
X527934D01*
Y204939D01*
Y204701D01*
Y204462D01*
Y204223D01*
Y203984D01*
Y203745D01*
X527695D01*
Y203506D01*
Y203267D01*
Y203028D01*
Y202789D01*
X527456D01*
Y202551D01*
Y202312D01*
X527217D01*
Y202073D01*
Y201834D01*
Y201595D01*
X526978D01*
Y201356D01*
Y201117D01*
Y200878D01*
Y200639D01*
X526739D01*
Y200400D01*
X526501D01*
Y200161D01*
X524350D01*
Y200400D01*
X524112D01*
Y200639D01*
Y200878D01*
Y201117D01*
X524350D01*
Y201356D01*
Y201595D01*
X524589D01*
Y201834D01*
Y202073D01*
X524828D01*
Y202312D01*
Y202551D01*
Y202789D01*
Y203028D01*
Y203267D01*
Y203506D01*
Y203745D01*
Y203984D01*
X525067D01*
Y204223D01*
Y204462D01*
Y204701D01*
X525306D01*
Y204939D01*
Y205178D01*
X525545D01*
Y205417D01*
Y205656D01*
X525784D01*
Y205895D01*
Y206134D01*
Y206373D01*
X526023D01*
Y206612D01*
Y206851D01*
Y207090D01*
Y207328D01*
Y207567D01*
Y207806D01*
Y208045D01*
X526262D01*
Y208284D01*
Y208523D01*
Y208762D01*
X526501D01*
Y209001D01*
Y209240D01*
X526739D01*
Y209478D01*
Y209717D01*
X526978D01*
Y209956D01*
Y210195D01*
Y210434D01*
Y210673D01*
Y210912D01*
X527217D01*
Y211151D01*
Y211390D01*
Y211628D01*
X527456D01*
Y211867D01*
Y212106D01*
Y212345D01*
Y212584D01*
X527695D01*
Y212823D01*
Y213062D01*
Y213301D01*
X527934D01*
Y213540D01*
Y213779D01*
X528173D01*
Y214018D01*
Y214256D01*
Y214495D01*
Y214734D01*
X528412D01*
Y214973D01*
Y215212D01*
Y215451D01*
Y215690D01*
X528651D01*
Y215929D01*
Y216168D01*
X528889D01*
Y216406D01*
Y216645D01*
X529128D01*
Y216884D01*
X529367D01*
Y217123D01*
X531756D01*
Y216884D01*
X532234D01*
Y216645D01*
Y216406D01*
X532473D01*
Y216168D01*
Y215929D01*
Y215690D01*
Y215451D01*
Y215212D01*
X532712D01*
Y214973D01*
Y214734D01*
Y214495D01*
Y214256D01*
Y214018D01*
Y213779D01*
Y213540D01*
X532951D01*
Y213301D01*
Y213062D01*
Y212823D01*
Y212584D01*
Y212345D01*
Y212106D01*
X533190D01*
Y211867D01*
Y211628D01*
Y211390D01*
X533428D01*
Y211151D01*
Y210912D01*
Y210673D01*
Y210434D01*
Y210195D01*
X533667D01*
Y209956D01*
Y209717D01*
Y209478D01*
Y209240D01*
Y209001D01*
Y208762D01*
Y208523D01*
Y208284D01*
Y208045D01*
Y207806D01*
Y207567D01*
Y207328D01*
X533906D01*
Y207090D01*
Y206851D01*
Y206612D01*
X534384D01*
Y206373D01*
X534623D01*
Y206612D01*
X534862D01*
Y206851D01*
X535101D01*
Y207090D01*
Y207328D01*
X535340D01*
Y207567D01*
Y207806D01*
X535578D01*
Y208045D01*
Y208284D01*
X535817D01*
Y208523D01*
X536056D01*
Y208762D01*
Y209001D01*
X536295D01*
Y209240D01*
Y209478D01*
X536534D01*
Y209717D01*
X536773D01*
Y209956D01*
X537012D01*
Y210195D01*
X537251D01*
Y210434D01*
Y210673D01*
X537490D01*
Y210912D01*
Y211151D01*
Y211390D01*
X537729D01*
Y211628D01*
X537967D01*
Y211867D01*
Y212106D01*
X538206D01*
Y212345D01*
X538445D01*
Y212584D01*
Y212823D01*
X538684D01*
Y213062D01*
Y213301D01*
X538923D01*
Y213540D01*
X539162D01*
Y213779D01*
X539401D01*
Y214018D01*
X539640D01*
Y214256D01*
Y214495D01*
Y214734D01*
X539879D01*
Y214973D01*
Y215212D01*
X540118D01*
Y215451D01*
X540356D01*
Y215690D01*
X540595D01*
Y215929D01*
Y216168D01*
X540834D01*
Y216406D01*
Y216645D01*
X541073D01*
Y216884D01*
X541312D01*
Y217123D01*
X543940D01*
Y216884D01*
D02*
G37*
G36*
X502850Y207806D02*
X503328D01*
Y207567D01*
X503567D01*
Y207328D01*
X503805D01*
Y207090D01*
Y206851D01*
Y206612D01*
X503567D01*
Y206373D01*
Y206134D01*
X503089D01*
Y205895D01*
X501894D01*
Y205656D01*
X501655D01*
Y205895D01*
X498788D01*
Y205656D01*
X498072D01*
Y205895D01*
X497355D01*
Y206134D01*
Y206373D01*
Y206612D01*
X497116D01*
Y206851D01*
X497355D01*
Y207090D01*
Y207328D01*
Y207567D01*
X497594D01*
Y207806D01*
X498311D01*
Y208045D01*
X502850D01*
Y207806D01*
D02*
G37*
G36*
X445276D02*
X445515D01*
Y207567D01*
Y207328D01*
Y207090D01*
Y206851D01*
Y206612D01*
Y206373D01*
Y206134D01*
X445276D01*
Y205895D01*
X444798D01*
Y205656D01*
X444081D01*
Y205895D01*
X439542D01*
Y206134D01*
X439303D01*
Y206373D01*
Y206612D01*
Y206851D01*
Y207090D01*
X439542D01*
Y207328D01*
Y207567D01*
X439781D01*
Y207806D01*
X440259D01*
Y208045D01*
X445276D01*
Y207806D01*
D02*
G37*
G36*
X488516Y212345D02*
X488994D01*
Y212106D01*
X489233D01*
Y211867D01*
X489711D01*
Y211628D01*
X489949D01*
Y211390D01*
X490188D01*
Y211151D01*
Y210912D01*
Y210673D01*
X490427D01*
Y210434D01*
Y210195D01*
Y209956D01*
X490666D01*
Y209717D01*
Y209478D01*
Y209240D01*
X490905D01*
Y209001D01*
X490666D01*
Y208762D01*
Y208523D01*
Y208284D01*
X490427D01*
Y208045D01*
Y207806D01*
X490188D01*
Y207567D01*
Y207328D01*
X489949D01*
Y207090D01*
Y206851D01*
X489711D01*
Y206612D01*
X489233D01*
Y206373D01*
Y206134D01*
X488755D01*
Y205895D01*
X488277D01*
Y205656D01*
X488038D01*
Y205417D01*
X487560D01*
Y205178D01*
X487083D01*
Y204939D01*
X485410D01*
Y204701D01*
X482544D01*
Y204462D01*
X482066D01*
Y204223D01*
Y203984D01*
Y203745D01*
Y203506D01*
Y203267D01*
X482305D01*
Y203028D01*
X482783D01*
Y202789D01*
X483021D01*
Y202551D01*
X483499D01*
Y202312D01*
X486127D01*
Y202551D01*
X486605D01*
Y202789D01*
X486844D01*
Y203028D01*
X487322D01*
Y203267D01*
X488038D01*
Y203028D01*
X488516D01*
Y202789D01*
Y202551D01*
X488755D01*
Y202312D01*
Y202073D01*
Y201834D01*
X488516D01*
Y201595D01*
X488277D01*
Y201356D01*
Y201117D01*
X488038D01*
Y200878D01*
X487799D01*
Y200639D01*
X487560D01*
Y200400D01*
X487083D01*
Y200161D01*
X481827D01*
Y200400D01*
X481588D01*
Y200639D01*
X481349D01*
Y200878D01*
X481110D01*
Y201117D01*
X480871D01*
Y201356D01*
X480393D01*
Y201595D01*
X480155D01*
Y201834D01*
Y202073D01*
X479916D01*
Y202312D01*
Y202551D01*
X479677D01*
Y202789D01*
Y203028D01*
X479438D01*
Y203267D01*
Y203506D01*
Y203745D01*
Y203984D01*
X479199D01*
Y204223D01*
Y204462D01*
Y204701D01*
Y204939D01*
Y205178D01*
Y205417D01*
X479438D01*
Y205656D01*
Y205895D01*
Y206134D01*
X479677D01*
Y206373D01*
Y206612D01*
X479916D01*
Y206851D01*
Y207090D01*
Y207328D01*
X480155D01*
Y207567D01*
Y207806D01*
Y208045D01*
Y208284D01*
Y208523D01*
X480393D01*
Y208762D01*
X480632D01*
Y209001D01*
X480871D01*
Y209240D01*
Y209478D01*
X481110D01*
Y209717D01*
Y209956D01*
X481349D01*
Y210195D01*
X481588D01*
Y210434D01*
X481827D01*
Y210673D01*
X482066D01*
Y210912D01*
X482305D01*
Y211151D01*
X482544D01*
Y211390D01*
X483021D01*
Y211628D01*
X483499D01*
Y211867D01*
X483738D01*
Y212106D01*
X483977D01*
Y212345D01*
X484455D01*
Y212584D01*
X488516D01*
Y212345D01*
D02*
G37*
G36*
X457221Y216884D02*
X457698D01*
Y216645D01*
X458176D01*
Y216406D01*
X458415D01*
Y216168D01*
X459132D01*
Y215929D01*
X459610D01*
Y215690D01*
X459849D01*
Y215451D01*
X460087D01*
Y215212D01*
X460326D01*
Y214973D01*
X460565D01*
Y214734D01*
Y214495D01*
X460804D01*
Y214256D01*
X461043D01*
Y214018D01*
Y213779D01*
X461282D01*
Y213540D01*
X461521D01*
Y213301D01*
Y213062D01*
Y212823D01*
Y212584D01*
Y212345D01*
Y212106D01*
Y211867D01*
Y211628D01*
Y211390D01*
X461760D01*
Y211151D01*
Y210912D01*
Y210673D01*
Y210434D01*
Y210195D01*
Y209956D01*
Y209717D01*
Y209478D01*
Y209240D01*
Y209001D01*
X461521D01*
Y208762D01*
Y208523D01*
Y208284D01*
Y208045D01*
Y207806D01*
Y207567D01*
Y207328D01*
Y207090D01*
Y206851D01*
X461282D01*
Y206612D01*
Y206373D01*
X461043D01*
Y206134D01*
X460804D01*
Y205895D01*
Y205656D01*
X460565D01*
Y205417D01*
Y205178D01*
X460326D01*
Y204939D01*
Y204701D01*
Y204462D01*
X460087D01*
Y204223D01*
Y203984D01*
X459849D01*
Y203745D01*
X459610D01*
Y203506D01*
X459371D01*
Y203267D01*
X459132D01*
Y203028D01*
X458893D01*
Y202789D01*
X458654D01*
Y202551D01*
X458415D01*
Y202312D01*
X457937D01*
Y202073D01*
X457698D01*
Y201834D01*
X457459D01*
Y201595D01*
X456982D01*
Y201356D01*
X456265D01*
Y201117D01*
X455787D01*
Y200878D01*
X455548D01*
Y200639D01*
X455070D01*
Y200400D01*
X453637D01*
Y200161D01*
X446470D01*
Y200400D01*
X445993D01*
Y200639D01*
Y200878D01*
Y201117D01*
Y201356D01*
X446231D01*
Y201595D01*
X446470D01*
Y201834D01*
Y202073D01*
X446709D01*
Y202312D01*
Y202551D01*
Y202789D01*
Y203028D01*
X446948D01*
Y203267D01*
Y203506D01*
Y203745D01*
Y203984D01*
Y204223D01*
Y204462D01*
Y204701D01*
Y204939D01*
Y205178D01*
Y205417D01*
X447187D01*
Y205656D01*
Y205895D01*
Y206134D01*
Y206373D01*
X447426D01*
Y206612D01*
Y206851D01*
Y207090D01*
X447665D01*
Y207328D01*
Y207567D01*
X447904D01*
Y207806D01*
Y208045D01*
Y208284D01*
Y208523D01*
Y208762D01*
Y209001D01*
X448143D01*
Y209240D01*
Y209478D01*
Y209717D01*
Y209956D01*
Y210195D01*
Y210434D01*
X448382D01*
Y210673D01*
Y210912D01*
Y211151D01*
Y211390D01*
Y211628D01*
X448620D01*
Y211867D01*
Y212106D01*
X448859D01*
Y212345D01*
Y212584D01*
X449098D01*
Y212823D01*
Y213062D01*
Y213301D01*
Y213540D01*
Y213779D01*
Y214018D01*
Y214256D01*
Y214495D01*
X449337D01*
Y214734D01*
Y214973D01*
Y215212D01*
Y215451D01*
Y215690D01*
Y215929D01*
Y216168D01*
X449576D01*
Y216406D01*
Y216645D01*
X449815D01*
Y216884D01*
X450054D01*
Y217123D01*
X457221D01*
Y216884D01*
D02*
G37*
G36*
X600319D02*
X600797D01*
Y216645D01*
Y216406D01*
Y216168D01*
X600558D01*
Y215929D01*
Y215690D01*
X600319D01*
Y215451D01*
Y215212D01*
Y214973D01*
Y214734D01*
Y214495D01*
Y214256D01*
X600080D01*
Y214018D01*
Y213779D01*
Y213540D01*
Y213301D01*
X599842D01*
Y213062D01*
Y212823D01*
Y212584D01*
Y212345D01*
X599603D01*
Y212106D01*
Y211867D01*
X599364D01*
Y211628D01*
Y211390D01*
Y211151D01*
X599125D01*
Y210912D01*
Y210673D01*
Y210434D01*
Y210195D01*
Y209956D01*
Y209717D01*
Y209478D01*
Y209240D01*
X598886D01*
Y209001D01*
Y208762D01*
Y208523D01*
Y208284D01*
Y208045D01*
Y207806D01*
X598647D01*
Y207567D01*
Y207328D01*
Y207090D01*
X598408D01*
Y206851D01*
Y206612D01*
X598169D01*
Y206373D01*
Y206134D01*
Y205895D01*
Y205656D01*
X597930D01*
Y205417D01*
Y205178D01*
Y204939D01*
Y204701D01*
Y204462D01*
Y204223D01*
X597691D01*
Y203984D01*
Y203745D01*
Y203506D01*
Y203267D01*
Y203028D01*
X597453D01*
Y202789D01*
Y202551D01*
X597214D01*
Y202312D01*
Y202073D01*
Y201834D01*
X596975D01*
Y201595D01*
Y201356D01*
Y201117D01*
Y200878D01*
Y200639D01*
X596736D01*
Y200400D01*
X596497D01*
Y200161D01*
X596019D01*
Y199923D01*
X595303D01*
Y200161D01*
X594586D01*
Y200400D01*
X594347D01*
Y200639D01*
Y200878D01*
Y201117D01*
X594586D01*
Y201356D01*
Y201595D01*
Y201834D01*
X594825D01*
Y202073D01*
Y202312D01*
Y202551D01*
Y202789D01*
Y203028D01*
Y203267D01*
Y203506D01*
X595064D01*
Y203745D01*
Y203984D01*
Y204223D01*
Y204462D01*
X595303D01*
Y204701D01*
Y204939D01*
Y205178D01*
Y205417D01*
X595541D01*
Y205656D01*
Y205895D01*
Y206134D01*
Y206373D01*
X595780D01*
Y206612D01*
Y206851D01*
Y207090D01*
Y207328D01*
Y207567D01*
X596019D01*
Y207806D01*
Y208045D01*
Y208284D01*
Y208523D01*
Y208762D01*
Y209001D01*
X596258D01*
Y209240D01*
Y209478D01*
Y209717D01*
Y209956D01*
X596497D01*
Y210195D01*
Y210434D01*
X596736D01*
Y210673D01*
Y210912D01*
X596975D01*
Y211151D01*
Y211390D01*
Y211628D01*
Y211867D01*
Y212106D01*
Y212345D01*
Y212584D01*
X596736D01*
Y212823D01*
X596019D01*
Y212584D01*
X595541D01*
Y212345D01*
Y212106D01*
X595303D01*
Y211867D01*
X595064D01*
Y211628D01*
X593630D01*
Y211867D01*
X593391D01*
Y212106D01*
Y212345D01*
X593153D01*
Y212584D01*
Y212823D01*
Y213062D01*
Y213301D01*
X593391D01*
Y213540D01*
X593630D01*
Y213779D01*
X594347D01*
Y214018D01*
X594586D01*
Y214256D01*
X594825D01*
Y214495D01*
X595303D01*
Y214734D01*
X595780D01*
Y214973D01*
X596258D01*
Y215212D01*
X596736D01*
Y215451D01*
X596975D01*
Y215690D01*
X597214D01*
Y215929D01*
X597691D01*
Y216168D01*
X597930D01*
Y216406D01*
X598169D01*
Y216645D01*
X598408D01*
Y216884D01*
X598647D01*
Y217123D01*
X600319D01*
Y216884D01*
D02*
G37*
G36*
X585986D02*
X586463D01*
Y216645D01*
X586941D01*
Y216406D01*
X587180D01*
Y216168D01*
X587419D01*
Y215929D01*
X587658D01*
Y215690D01*
X587897D01*
Y215451D01*
Y215212D01*
X588136D01*
Y214973D01*
Y214734D01*
X588375D01*
Y214495D01*
Y214256D01*
X588614D01*
Y214018D01*
Y213779D01*
Y213540D01*
Y213301D01*
Y213062D01*
Y212823D01*
Y212584D01*
Y212345D01*
Y212106D01*
X588375D01*
Y211867D01*
Y211628D01*
Y211390D01*
X588136D01*
Y211151D01*
Y210912D01*
X587897D01*
Y210673D01*
Y210434D01*
X587658D01*
Y210195D01*
Y209956D01*
Y209717D01*
X587419D01*
Y209478D01*
X587180D01*
Y209240D01*
X586702D01*
Y209001D01*
Y208762D01*
X586463D01*
Y208523D01*
X586225D01*
Y208284D01*
X585986D01*
Y208045D01*
X585508D01*
Y207806D01*
X585269D01*
Y207567D01*
X585030D01*
Y207328D01*
X584791D01*
Y207090D01*
X584313D01*
Y206851D01*
X584075D01*
Y206612D01*
X583836D01*
Y206373D01*
X583597D01*
Y206134D01*
X583119D01*
Y205895D01*
X582641D01*
Y205656D01*
X582163D01*
Y205417D01*
X581924D01*
Y205178D01*
X581685D01*
Y204939D01*
X581447D01*
Y204701D01*
X581208D01*
Y204462D01*
X580969D01*
Y204223D01*
X580730D01*
Y203984D01*
X580252D01*
Y203745D01*
X580013D01*
Y203506D01*
X579774D01*
Y203267D01*
X579535D01*
Y203028D01*
Y202789D01*
Y202551D01*
X579774D01*
Y202312D01*
X585986D01*
Y202073D01*
X586463D01*
Y201834D01*
Y201595D01*
Y201356D01*
Y201117D01*
Y200878D01*
Y200639D01*
X586225D01*
Y200400D01*
X585747D01*
Y200161D01*
X577863D01*
Y199923D01*
X576908D01*
Y200161D01*
X576430D01*
Y200400D01*
X576191D01*
Y200639D01*
Y200878D01*
Y201117D01*
Y201356D01*
Y201595D01*
X576430D01*
Y201834D01*
Y202073D01*
X576669D01*
Y202312D01*
Y202551D01*
X576908D01*
Y202789D01*
Y203028D01*
X577146D01*
Y203267D01*
X577385D01*
Y203506D01*
Y203745D01*
X577624D01*
Y203984D01*
Y204223D01*
X577863D01*
Y204462D01*
X578102D01*
Y204701D01*
X578580D01*
Y204939D01*
Y205178D01*
X578819D01*
Y205417D01*
X579058D01*
Y205656D01*
X579296D01*
Y205895D01*
X579774D01*
Y206134D01*
Y206373D01*
X580013D01*
Y206612D01*
X580252D01*
Y206851D01*
X580730D01*
Y207090D01*
X580969D01*
Y207328D01*
X581208D01*
Y207567D01*
X581685D01*
Y207806D01*
X581924D01*
Y208045D01*
X582402D01*
Y208284D01*
X582880D01*
Y208523D01*
X583119D01*
Y208762D01*
X583358D01*
Y209001D01*
X583836D01*
Y209240D01*
X584075D01*
Y209478D01*
X584313D01*
Y209717D01*
X584552D01*
Y209956D01*
X584791D01*
Y210195D01*
X585030D01*
Y210434D01*
X585269D01*
Y210673D01*
X585508D01*
Y210912D01*
Y211151D01*
X585747D01*
Y211390D01*
Y211628D01*
Y211867D01*
X585986D01*
Y212106D01*
Y212345D01*
Y212584D01*
Y212823D01*
Y213062D01*
Y213301D01*
X585747D01*
Y213540D01*
Y213779D01*
Y214018D01*
Y214256D01*
X585508D01*
Y214495D01*
X585269D01*
Y214734D01*
X585030D01*
Y214973D01*
X582402D01*
Y214734D01*
X581924D01*
Y214495D01*
X581685D01*
Y214256D01*
X581447D01*
Y214018D01*
X580969D01*
Y213779D01*
X580252D01*
Y214018D01*
X580013D01*
Y214256D01*
X579774D01*
Y214495D01*
X579535D01*
Y214734D01*
Y214973D01*
Y215212D01*
Y215451D01*
Y215690D01*
X579774D01*
Y215929D01*
X580013D01*
Y216168D01*
X580491D01*
Y216406D01*
X580969D01*
Y216645D01*
X581447D01*
Y216884D01*
X581924D01*
Y217123D01*
X585986D01*
Y216884D01*
D02*
G37*
G36*
X570219Y218079D02*
X570457D01*
Y217840D01*
Y217601D01*
Y217362D01*
Y217123D01*
Y216884D01*
Y216645D01*
X570219D01*
Y216406D01*
Y216168D01*
Y215929D01*
Y215690D01*
X569980D01*
Y215451D01*
Y215212D01*
Y214973D01*
X569741D01*
Y214734D01*
Y214495D01*
X569502D01*
Y214256D01*
Y214018D01*
Y213779D01*
Y213540D01*
X569263D01*
Y213301D01*
Y213062D01*
Y212823D01*
Y212584D01*
Y212345D01*
Y212106D01*
X569024D01*
Y211867D01*
Y211628D01*
Y211390D01*
Y211151D01*
Y210912D01*
X568785D01*
Y210673D01*
Y210434D01*
X568546D01*
Y210195D01*
Y209956D01*
Y209717D01*
X568307D01*
Y209478D01*
Y209240D01*
Y209001D01*
Y208762D01*
Y208523D01*
Y208284D01*
X569263D01*
Y208523D01*
X569502D01*
Y208762D01*
Y209001D01*
X569741D01*
Y209240D01*
X569980D01*
Y209478D01*
X570219D01*
Y209717D01*
X570696D01*
Y209956D01*
X570935D01*
Y210195D01*
X571174D01*
Y210434D01*
X571413D01*
Y210673D01*
X571652D01*
Y210912D01*
X571891D01*
Y211151D01*
X572130D01*
Y211390D01*
X572369D01*
Y211628D01*
X572607D01*
Y211867D01*
X572846D01*
Y212106D01*
X573085D01*
Y212345D01*
X573324D01*
Y212584D01*
X575713D01*
Y212345D01*
X575952D01*
Y212106D01*
Y211867D01*
X575713D01*
Y211628D01*
X575474D01*
Y211390D01*
X575235D01*
Y211151D01*
X574996D01*
Y210912D01*
X574757D01*
Y210673D01*
X574280D01*
Y210434D01*
X574041D01*
Y210195D01*
X573802D01*
Y209956D01*
X573563D01*
Y209717D01*
X573324D01*
Y209478D01*
X573085D01*
Y209240D01*
X572846D01*
Y209001D01*
X572607D01*
Y208762D01*
X572369D01*
Y208523D01*
X572130D01*
Y208284D01*
X571652D01*
Y208045D01*
X571413D01*
Y207806D01*
X570935D01*
Y207567D01*
X570696D01*
Y207328D01*
X570457D01*
Y207090D01*
Y206851D01*
Y206612D01*
Y206373D01*
X570696D01*
Y206134D01*
Y205895D01*
X570935D01*
Y205656D01*
X571413D01*
Y205417D01*
Y205178D01*
X571652D01*
Y204939D01*
X571891D01*
Y204701D01*
Y204462D01*
X572130D01*
Y204223D01*
X572369D01*
Y203984D01*
X572607D01*
Y203745D01*
X572846D01*
Y203506D01*
Y203267D01*
X573085D01*
Y203028D01*
Y202789D01*
X573324D01*
Y202551D01*
Y202312D01*
X573563D01*
Y202073D01*
X573802D01*
Y201834D01*
Y201595D01*
X574041D01*
Y201356D01*
Y201117D01*
X574280D01*
Y200878D01*
Y200639D01*
Y200400D01*
X574041D01*
Y200161D01*
X573324D01*
Y199923D01*
X572369D01*
Y200161D01*
X571891D01*
Y200400D01*
X571652D01*
Y200639D01*
Y200878D01*
X571413D01*
Y201117D01*
Y201356D01*
X571174D01*
Y201595D01*
X570935D01*
Y201834D01*
Y202073D01*
X570696D01*
Y202312D01*
Y202551D01*
X570457D01*
Y202789D01*
Y203028D01*
X570219D01*
Y203267D01*
X569980D01*
Y203506D01*
X569741D01*
Y203745D01*
Y203984D01*
X569502D01*
Y204223D01*
X569263D01*
Y204462D01*
X569024D01*
Y204701D01*
X568785D01*
Y204939D01*
X568546D01*
Y205178D01*
X568068D01*
Y205417D01*
X567352D01*
Y205178D01*
Y204939D01*
X567113D01*
Y204701D01*
Y204462D01*
Y204223D01*
Y203984D01*
Y203745D01*
Y203506D01*
Y203267D01*
X566874D01*
Y203028D01*
Y202789D01*
Y202551D01*
Y202312D01*
Y202073D01*
X566635D01*
Y201834D01*
Y201595D01*
Y201356D01*
Y201117D01*
X566396D01*
Y200878D01*
Y200639D01*
X566157D01*
Y200400D01*
X565918D01*
Y200161D01*
X565202D01*
Y199923D01*
X564485D01*
Y200161D01*
X564007D01*
Y200400D01*
X563768D01*
Y200639D01*
Y200878D01*
Y201117D01*
Y201356D01*
Y201595D01*
X564007D01*
Y201834D01*
Y202073D01*
Y202312D01*
X564246D01*
Y202551D01*
Y202789D01*
Y203028D01*
Y203267D01*
X564485D01*
Y203506D01*
Y203745D01*
X564724D01*
Y203984D01*
Y204223D01*
Y204462D01*
Y204701D01*
X564963D01*
Y204939D01*
Y205178D01*
Y205417D01*
Y205656D01*
Y205895D01*
Y206134D01*
X565202D01*
Y206373D01*
Y206612D01*
Y206851D01*
Y207090D01*
Y207328D01*
X565441D01*
Y207567D01*
Y207806D01*
X565680D01*
Y208045D01*
Y208284D01*
Y208523D01*
X565918D01*
Y208762D01*
Y209001D01*
Y209240D01*
Y209478D01*
X566157D01*
Y209717D01*
Y209956D01*
Y210195D01*
Y210434D01*
Y210673D01*
Y210912D01*
X566396D01*
Y211151D01*
Y211390D01*
Y211628D01*
Y211867D01*
X566635D01*
Y212106D01*
Y212345D01*
Y212584D01*
X566874D01*
Y212823D01*
Y213062D01*
Y213301D01*
X567113D01*
Y213540D01*
Y213779D01*
Y214018D01*
Y214256D01*
Y214495D01*
Y214734D01*
X567352D01*
Y214973D01*
Y215212D01*
Y215451D01*
Y215690D01*
Y215929D01*
Y216168D01*
X567591D01*
Y216406D01*
Y216645D01*
Y216884D01*
Y217123D01*
X567830D01*
Y217362D01*
Y217601D01*
Y217840D01*
X568068D01*
Y218079D01*
X568546D01*
Y218318D01*
X570219D01*
Y218079D01*
D02*
G37*
G36*
X560424Y216884D02*
X560901D01*
Y216645D01*
X561140D01*
Y216406D01*
Y216168D01*
X561618D01*
Y215929D01*
X561857D01*
Y215690D01*
X562096D01*
Y215451D01*
X562335D01*
Y215212D01*
Y214973D01*
Y214734D01*
X562574D01*
Y214495D01*
Y214256D01*
Y214018D01*
Y213779D01*
Y213540D01*
X562813D01*
Y213301D01*
Y213062D01*
Y212823D01*
X562574D01*
Y212584D01*
Y212345D01*
Y212106D01*
Y211867D01*
X562335D01*
Y211628D01*
Y211390D01*
Y211151D01*
Y210912D01*
Y210673D01*
X562096D01*
Y210434D01*
X561857D01*
Y210195D01*
X561618D01*
Y209956D01*
Y209717D01*
X561379D01*
Y209478D01*
X561140D01*
Y209240D01*
X560901D01*
Y209001D01*
X560663D01*
Y208762D01*
X560424D01*
Y208523D01*
X560185D01*
Y208284D01*
X559946D01*
Y208045D01*
X559707D01*
Y207806D01*
X559468D01*
Y207567D01*
X559229D01*
Y207328D01*
X558751D01*
Y207090D01*
X558513D01*
Y206851D01*
X558035D01*
Y206612D01*
X557796D01*
Y206373D01*
Y206134D01*
X557318D01*
Y205895D01*
X557079D01*
Y205656D01*
X556601D01*
Y205417D01*
X556362D01*
Y205178D01*
X556124D01*
Y204939D01*
X555885D01*
Y204701D01*
X555407D01*
Y204462D01*
X555168D01*
Y204223D01*
X554690D01*
Y203984D01*
X554451D01*
Y203745D01*
X554212D01*
Y203506D01*
X553974D01*
Y203267D01*
Y203028D01*
X553735D01*
Y202789D01*
X553974D01*
Y202551D01*
X554212D01*
Y202312D01*
X560185D01*
Y202073D01*
X560424D01*
Y201834D01*
X560663D01*
Y201595D01*
Y201356D01*
Y201117D01*
X560424D01*
Y200878D01*
Y200639D01*
X560185D01*
Y200400D01*
X559946D01*
Y200161D01*
X559468D01*
Y199923D01*
X558990D01*
Y200161D01*
X550390D01*
Y200400D01*
X550151D01*
Y200639D01*
Y200878D01*
Y201117D01*
Y201356D01*
X550390D01*
Y201595D01*
X550629D01*
Y201834D01*
X550868D01*
Y202073D01*
Y202312D01*
X551107D01*
Y202551D01*
Y202789D01*
Y203028D01*
X551346D01*
Y203267D01*
Y203506D01*
X551585D01*
Y203745D01*
X551824D01*
Y203984D01*
Y204223D01*
X552062D01*
Y204462D01*
X552301D01*
Y204701D01*
X552540D01*
Y204939D01*
X552779D01*
Y205178D01*
X553018D01*
Y205417D01*
X553257D01*
Y205656D01*
X553496D01*
Y205895D01*
X553735D01*
Y206134D01*
X553974D01*
Y206373D01*
X554212D01*
Y206612D01*
X554690D01*
Y206851D01*
X554929D01*
Y207090D01*
X555407D01*
Y207328D01*
X555646D01*
Y207567D01*
X555885D01*
Y207806D01*
X556362D01*
Y208045D01*
X556601D01*
Y208284D01*
X557079D01*
Y208523D01*
Y208762D01*
X557557D01*
Y209001D01*
X557796D01*
Y209240D01*
X558274D01*
Y209478D01*
X558513D01*
Y209717D01*
X558751D01*
Y209956D01*
X558990D01*
Y210195D01*
X559229D01*
Y210434D01*
Y210673D01*
X559468D01*
Y210912D01*
X559707D01*
Y211151D01*
X559946D01*
Y211390D01*
X560185D01*
Y211628D01*
Y211867D01*
Y212106D01*
X560424D01*
Y212345D01*
Y212584D01*
Y212823D01*
Y213062D01*
Y213301D01*
X560185D01*
Y213540D01*
Y213779D01*
X559946D01*
Y214018D01*
X559707D01*
Y214256D01*
X559468D01*
Y214495D01*
X559229D01*
Y214734D01*
X558751D01*
Y214973D01*
X556840D01*
Y214734D01*
X556124D01*
Y214495D01*
X555885D01*
Y214256D01*
X555407D01*
Y214018D01*
X553974D01*
Y214256D01*
X553735D01*
Y214495D01*
X553496D01*
Y214734D01*
Y214973D01*
Y215212D01*
Y215451D01*
X553735D01*
Y215690D01*
X553974D01*
Y215929D01*
X554212D01*
Y216168D01*
X554690D01*
Y216406D01*
X554929D01*
Y216645D01*
X555168D01*
Y216884D01*
X556362D01*
Y217123D01*
X560424D01*
Y216884D01*
D02*
G37*
G36*
X520289D02*
X520767D01*
Y216645D01*
Y216406D01*
X521006D01*
Y216168D01*
Y215929D01*
Y215690D01*
Y215451D01*
Y215212D01*
Y214973D01*
Y214734D01*
Y214495D01*
Y214256D01*
Y214018D01*
X521245D01*
Y213779D01*
Y213540D01*
Y213301D01*
Y213062D01*
Y212823D01*
Y212584D01*
Y212345D01*
Y212106D01*
Y211867D01*
Y211628D01*
X521484D01*
Y211390D01*
Y211151D01*
Y210912D01*
Y210673D01*
X521723D01*
Y210434D01*
Y210195D01*
Y209956D01*
X521962D01*
Y209717D01*
Y209478D01*
Y209240D01*
Y209001D01*
Y208762D01*
Y208523D01*
Y208284D01*
Y208045D01*
Y207806D01*
X522200D01*
Y207567D01*
Y207328D01*
Y207090D01*
Y206851D01*
Y206612D01*
Y206373D01*
Y206134D01*
Y205895D01*
Y205656D01*
Y205417D01*
Y205178D01*
Y204939D01*
X522439D01*
Y204701D01*
Y204462D01*
Y204223D01*
Y203984D01*
Y203745D01*
Y203506D01*
Y203267D01*
Y203028D01*
Y202789D01*
Y202551D01*
Y202312D01*
Y202073D01*
Y201834D01*
X522678D01*
Y201595D01*
Y201356D01*
Y201117D01*
Y200878D01*
Y200639D01*
Y200400D01*
X522439D01*
Y200161D01*
X521723D01*
Y199923D01*
X520767D01*
Y200161D01*
X520289D01*
Y200400D01*
Y200639D01*
X520050D01*
Y200878D01*
Y201117D01*
Y201356D01*
Y201595D01*
X520289D01*
Y201834D01*
Y202073D01*
Y202312D01*
X520050D01*
Y202551D01*
Y202789D01*
Y203028D01*
Y203267D01*
Y203506D01*
Y203745D01*
Y203984D01*
X519811D01*
Y204223D01*
X519572D01*
Y204462D01*
X519095D01*
Y204701D01*
X513600D01*
Y204462D01*
X512883D01*
Y204223D01*
X512645D01*
Y203984D01*
X512406D01*
Y203745D01*
X512167D01*
Y203506D01*
Y203267D01*
X511928D01*
Y203028D01*
Y202789D01*
X511689D01*
Y202551D01*
Y202312D01*
X511450D01*
Y202073D01*
X511211D01*
Y201834D01*
Y201595D01*
X510972D01*
Y201356D01*
Y201117D01*
Y200878D01*
X510733D01*
Y200639D01*
Y200400D01*
X510494D01*
Y200161D01*
X508106D01*
Y200400D01*
X507867D01*
Y200639D01*
Y200878D01*
X508106D01*
Y201117D01*
Y201356D01*
X508344D01*
Y201595D01*
X508583D01*
Y201834D01*
X508822D01*
Y202073D01*
Y202312D01*
Y202551D01*
X509061D01*
Y202789D01*
Y203028D01*
X509300D01*
Y203267D01*
X509539D01*
Y203506D01*
X509778D01*
Y203745D01*
Y203984D01*
X510017D01*
Y204223D01*
Y204462D01*
Y204701D01*
Y204939D01*
X510256D01*
Y205178D01*
Y205417D01*
X510494D01*
Y205656D01*
X510733D01*
Y205895D01*
X510972D01*
Y206134D01*
Y206373D01*
X511211D01*
Y206612D01*
Y206851D01*
Y207090D01*
X511450D01*
Y207328D01*
X511689D01*
Y207567D01*
Y207806D01*
X511928D01*
Y208045D01*
X512167D01*
Y208284D01*
Y208523D01*
X512406D01*
Y208762D01*
Y209001D01*
X512645D01*
Y209240D01*
X512883D01*
Y209478D01*
X513122D01*
Y209717D01*
Y209956D01*
X513361D01*
Y210195D01*
Y210434D01*
Y210673D01*
X513600D01*
Y210912D01*
X513839D01*
Y211151D01*
X514078D01*
Y211390D01*
X514317D01*
Y211628D01*
Y211867D01*
X514556D01*
Y212106D01*
Y212345D01*
Y212584D01*
X514795D01*
Y212823D01*
Y213062D01*
X515033D01*
Y213301D01*
X515272D01*
Y213540D01*
X515511D01*
Y213779D01*
Y214018D01*
X515750D01*
Y214256D01*
Y214495D01*
X515989D01*
Y214734D01*
X516228D01*
Y214973D01*
X516467D01*
Y215212D01*
X516706D01*
Y215451D01*
Y215690D01*
X516945D01*
Y215929D01*
Y216168D01*
Y216406D01*
X517183D01*
Y216645D01*
X517422D01*
Y216884D01*
X517900D01*
Y217123D01*
X520289D01*
Y216884D01*
D02*
G37*
G36*
X467493Y212345D02*
X467971D01*
Y212106D01*
Y211867D01*
Y211628D01*
Y211390D01*
X467732D01*
Y211151D01*
X467493D01*
Y210912D01*
Y210673D01*
Y210434D01*
X467254D01*
Y210195D01*
Y209956D01*
Y209717D01*
Y209478D01*
Y209240D01*
Y209001D01*
Y208762D01*
X467015D01*
Y208523D01*
Y208284D01*
Y208045D01*
Y207806D01*
X466777D01*
Y207567D01*
Y207328D01*
Y207090D01*
X466538D01*
Y206851D01*
Y206612D01*
Y206373D01*
X466299D01*
Y206134D01*
Y205895D01*
Y205656D01*
Y205417D01*
X466060D01*
Y205178D01*
Y204939D01*
Y204701D01*
Y204462D01*
Y204223D01*
Y203984D01*
X465821D01*
Y203745D01*
Y203506D01*
Y203267D01*
Y203028D01*
X465582D01*
Y202789D01*
Y202551D01*
Y202312D01*
X465343D01*
Y202073D01*
Y201834D01*
Y201595D01*
X465104D01*
Y201356D01*
Y201117D01*
Y200878D01*
Y200639D01*
Y200400D01*
X464865D01*
Y200161D01*
X464388D01*
Y199923D01*
X463432D01*
Y200161D01*
X462954D01*
Y200400D01*
X462715D01*
Y200639D01*
Y200878D01*
Y201117D01*
Y201356D01*
Y201595D01*
X462954D01*
Y201834D01*
Y202073D01*
Y202312D01*
Y202551D01*
Y202789D01*
X463193D01*
Y203028D01*
Y203267D01*
Y203506D01*
Y203745D01*
Y203984D01*
X463432D01*
Y204223D01*
Y204462D01*
X463671D01*
Y204701D01*
Y204939D01*
Y205178D01*
X463910D01*
Y205417D01*
Y205656D01*
Y205895D01*
Y206134D01*
Y206373D01*
X464149D01*
Y206612D01*
Y206851D01*
Y207090D01*
Y207328D01*
Y207567D01*
Y207806D01*
Y208045D01*
Y208284D01*
X464388D01*
Y208523D01*
Y208762D01*
Y209001D01*
X464626D01*
Y209240D01*
Y209478D01*
Y209717D01*
X464865D01*
Y209956D01*
Y210195D01*
X465104D01*
Y210434D01*
Y210673D01*
Y210912D01*
Y211151D01*
Y211390D01*
Y211628D01*
Y211867D01*
X465343D01*
Y212106D01*
Y212345D01*
X465582D01*
Y212584D01*
X467493D01*
Y212345D01*
D02*
G37*
G36*
X434287Y216884D02*
X434764D01*
Y216645D01*
X435003D01*
Y216406D01*
X435242D01*
Y216168D01*
X435481D01*
Y215929D01*
X435959D01*
Y215690D01*
X436198D01*
Y215451D01*
X436437D01*
Y215212D01*
X436675D01*
Y214973D01*
X436914D01*
Y214734D01*
X437153D01*
Y214495D01*
X437392D01*
Y214256D01*
Y214018D01*
Y213779D01*
Y213540D01*
Y213301D01*
X437631D01*
Y213062D01*
Y212823D01*
Y212584D01*
Y212345D01*
X437870D01*
Y212106D01*
Y211867D01*
X438109D01*
Y211628D01*
Y211390D01*
Y211151D01*
Y210912D01*
Y210673D01*
Y210434D01*
Y210195D01*
X437870D01*
Y209956D01*
Y209717D01*
Y209478D01*
Y209240D01*
Y209001D01*
Y208762D01*
X437631D01*
Y208523D01*
Y208284D01*
Y208045D01*
Y207806D01*
X437392D01*
Y207567D01*
Y207328D01*
Y207090D01*
Y206851D01*
Y206612D01*
Y206373D01*
X437153D01*
Y206134D01*
Y205895D01*
X436914D01*
Y205656D01*
Y205417D01*
X436675D01*
Y205178D01*
Y204939D01*
X436437D01*
Y204701D01*
Y204462D01*
X436198D01*
Y204223D01*
Y203984D01*
X435959D01*
Y203745D01*
X435720D01*
Y203506D01*
X435481D01*
Y203267D01*
X435242D01*
Y203028D01*
X435003D01*
Y202789D01*
Y202551D01*
X434525D01*
Y202312D01*
X434287D01*
Y202073D01*
X434048D01*
Y201834D01*
Y201595D01*
X433809D01*
Y201356D01*
X433331D01*
Y201117D01*
X432853D01*
Y200878D01*
X432375D01*
Y200639D01*
X432136D01*
Y200400D01*
X431181D01*
Y200161D01*
X430464D01*
Y199923D01*
X429986D01*
Y199684D01*
Y199445D01*
Y199206D01*
Y198967D01*
X430464D01*
Y198728D01*
X430942D01*
Y198489D01*
X431659D01*
Y198250D01*
X432136D01*
Y198011D01*
X432853D01*
Y197773D01*
X433809D01*
Y197534D01*
X434048D01*
Y197295D01*
Y197056D01*
Y196817D01*
Y196578D01*
Y196339D01*
X433809D01*
Y196100D01*
Y195861D01*
X433331D01*
Y195623D01*
X432614D01*
Y195384D01*
X432136D01*
Y195623D01*
X431420D01*
Y195861D01*
X429986D01*
Y196100D01*
X429748D01*
Y196339D01*
X429509D01*
Y196578D01*
X429031D01*
Y196817D01*
X428553D01*
Y197056D01*
X428314D01*
Y197295D01*
X428075D01*
Y197534D01*
X427836D01*
Y197773D01*
X427598D01*
Y198011D01*
Y198250D01*
X427359D01*
Y198489D01*
Y198728D01*
Y198967D01*
Y199206D01*
Y199445D01*
Y199684D01*
X427120D01*
Y199923D01*
X426881D01*
Y200161D01*
X425686D01*
Y200400D01*
X425209D01*
Y200639D01*
X424970D01*
Y200878D01*
X424731D01*
Y201117D01*
X424253D01*
Y201356D01*
X424014D01*
Y201595D01*
X423775D01*
Y201834D01*
X423536D01*
Y202073D01*
X423297D01*
Y202312D01*
X423059D01*
Y202551D01*
X422820D01*
Y202789D01*
Y203028D01*
X422581D01*
Y203267D01*
Y203506D01*
Y203745D01*
X422342D01*
Y203984D01*
Y204223D01*
X422103D01*
Y204462D01*
Y204701D01*
Y204939D01*
X421864D01*
Y205178D01*
Y205417D01*
Y205656D01*
Y205895D01*
Y206134D01*
Y206373D01*
Y206612D01*
Y206851D01*
Y207090D01*
Y207328D01*
Y207567D01*
X422103D01*
Y207806D01*
Y208045D01*
Y208284D01*
Y208523D01*
X422342D01*
Y208762D01*
Y209001D01*
X422581D01*
Y209240D01*
Y209478D01*
X422820D01*
Y209717D01*
Y209956D01*
Y210195D01*
Y210434D01*
Y210673D01*
Y210912D01*
Y211151D01*
Y211390D01*
X423059D01*
Y211628D01*
Y211867D01*
X423297D01*
Y212106D01*
X423536D01*
Y212345D01*
Y212584D01*
X423775D01*
Y212823D01*
Y213062D01*
X424014D01*
Y213301D01*
X424253D01*
Y213540D01*
X424492D01*
Y213779D01*
X424731D01*
Y214018D01*
X424970D01*
Y214256D01*
X425209D01*
Y214495D01*
Y214734D01*
X425686D01*
Y214973D01*
X425925D01*
Y215212D01*
X426164D01*
Y215451D01*
X426403D01*
Y215690D01*
X426642D01*
Y215929D01*
X427120D01*
Y216168D01*
X427598D01*
Y216406D01*
X427836D01*
Y216645D01*
X428553D01*
Y216884D01*
X429270D01*
Y217123D01*
X434287D01*
Y216884D01*
D02*
G37*
%LPC*%
G36*
X487322Y210434D02*
X485888D01*
Y210195D01*
X485172D01*
Y209956D01*
X484694D01*
Y209717D01*
X484455D01*
Y209478D01*
X483977D01*
Y209240D01*
X483738D01*
Y209001D01*
X483499D01*
Y208762D01*
X483260D01*
Y208523D01*
X483021D01*
Y208284D01*
X482783D01*
Y208045D01*
X482544D01*
Y207806D01*
X482305D01*
Y207567D01*
Y207328D01*
Y207090D01*
X482544D01*
Y206851D01*
X485172D01*
Y207090D01*
X485649D01*
Y207328D01*
X485888D01*
Y207567D01*
X486366D01*
Y207806D01*
X487560D01*
Y208045D01*
X487799D01*
Y208284D01*
X488038D01*
Y208523D01*
Y208762D01*
X488277D01*
Y209001D01*
Y209240D01*
Y209478D01*
X488038D01*
Y209717D01*
Y209956D01*
X487799D01*
Y210195D01*
X487322D01*
Y210434D01*
D02*
G37*
G36*
X455787Y214973D02*
X452682D01*
Y214734D01*
X452204D01*
Y214495D01*
X451965D01*
Y214256D01*
Y214018D01*
X451726D01*
Y213779D01*
Y213540D01*
Y213301D01*
Y213062D01*
X451487D01*
Y212823D01*
Y212584D01*
Y212345D01*
X451248D01*
Y212106D01*
Y211867D01*
Y211628D01*
Y211390D01*
Y211151D01*
Y210912D01*
Y210673D01*
X451009D01*
Y210434D01*
Y210195D01*
Y209956D01*
Y209717D01*
X450770D01*
Y209478D01*
Y209240D01*
Y209001D01*
X450532D01*
Y208762D01*
Y208523D01*
Y208284D01*
X450293D01*
Y208045D01*
Y207806D01*
Y207567D01*
Y207328D01*
Y207090D01*
X450054D01*
Y206851D01*
Y206612D01*
Y206373D01*
Y206134D01*
Y205895D01*
Y205656D01*
Y205417D01*
X449815D01*
Y205178D01*
Y204939D01*
Y204701D01*
Y204462D01*
Y204223D01*
X449576D01*
Y203984D01*
Y203745D01*
X449337D01*
Y203506D01*
X449098D01*
Y203267D01*
Y203028D01*
Y202789D01*
X449337D01*
Y202551D01*
X449576D01*
Y202312D01*
X453398D01*
Y202551D01*
X453637D01*
Y202789D01*
X453876D01*
Y203028D01*
X454354D01*
Y203267D01*
X455309D01*
Y203506D01*
X455787D01*
Y203745D01*
X456026D01*
Y203984D01*
X456265D01*
Y204223D01*
X456504D01*
Y204462D01*
X456743D01*
Y204701D01*
X456982D01*
Y204939D01*
X457221D01*
Y205178D01*
X457459D01*
Y205417D01*
X457698D01*
Y205656D01*
X457937D01*
Y205895D01*
X458176D01*
Y206134D01*
Y206373D01*
X458415D01*
Y206612D01*
Y206851D01*
Y207090D01*
X458654D01*
Y207328D01*
Y207567D01*
Y207806D01*
X458893D01*
Y208045D01*
Y208284D01*
Y208523D01*
X459132D01*
Y208762D01*
Y209001D01*
Y209240D01*
Y209478D01*
Y209717D01*
Y209956D01*
X459371D01*
Y210195D01*
Y210434D01*
Y210673D01*
Y210912D01*
Y211151D01*
Y211390D01*
X459132D01*
Y211628D01*
Y211867D01*
Y212106D01*
X458893D01*
Y212345D01*
X458654D01*
Y212584D01*
Y212823D01*
X458415D01*
Y213062D01*
Y213301D01*
X458176D01*
Y213540D01*
Y213779D01*
X457698D01*
Y214018D01*
X456982D01*
Y214256D01*
X456504D01*
Y214495D01*
X456265D01*
Y214734D01*
X455787D01*
Y214973D01*
D02*
G37*
G36*
X518617Y213779D02*
X518139D01*
Y213540D01*
X517900D01*
Y213301D01*
X517661D01*
Y213062D01*
Y212823D01*
X517422D01*
Y212584D01*
Y212345D01*
X517183D01*
Y212106D01*
X516945D01*
Y211867D01*
Y211628D01*
X516706D01*
Y211390D01*
Y211151D01*
X516467D01*
Y210912D01*
Y210673D01*
X516228D01*
Y210434D01*
X515989D01*
Y210195D01*
X515750D01*
Y209956D01*
X515511D01*
Y209717D01*
Y209478D01*
Y209240D01*
Y209001D01*
X515272D01*
Y208762D01*
Y208523D01*
X514795D01*
Y208284D01*
X514556D01*
Y208045D01*
X514317D01*
Y207806D01*
Y207567D01*
Y207328D01*
Y207090D01*
X514556D01*
Y206851D01*
X518856D01*
Y207090D01*
X519334D01*
Y207328D01*
Y207567D01*
X519572D01*
Y207806D01*
Y208045D01*
X519334D01*
Y208284D01*
Y208523D01*
Y208762D01*
X519095D01*
Y209001D01*
Y209240D01*
Y209478D01*
Y209717D01*
Y209956D01*
Y210195D01*
Y210434D01*
Y210673D01*
Y210912D01*
Y211151D01*
Y211390D01*
Y211628D01*
Y211867D01*
Y212106D01*
Y212345D01*
Y212584D01*
Y212823D01*
Y213062D01*
X518856D01*
Y213301D01*
Y213540D01*
X518617D01*
Y213779D01*
D02*
G37*
G36*
X432853Y214973D02*
X429986D01*
Y214734D01*
X429509D01*
Y214495D01*
X429270D01*
Y214256D01*
X429031D01*
Y214018D01*
X428553D01*
Y213779D01*
X428075D01*
Y213540D01*
X427598D01*
Y213301D01*
X427359D01*
Y213062D01*
Y212823D01*
X427120D01*
Y212584D01*
X426881D01*
Y212345D01*
X426642D01*
Y212106D01*
X426403D01*
Y211867D01*
X426164D01*
Y211628D01*
Y211390D01*
X425925D01*
Y211151D01*
Y210912D01*
X425686D01*
Y210673D01*
Y210434D01*
X425447D01*
Y210195D01*
Y209956D01*
X425209D01*
Y209717D01*
Y209478D01*
X424970D01*
Y209240D01*
Y209001D01*
Y208762D01*
Y208523D01*
X424731D01*
Y208284D01*
Y208045D01*
Y207806D01*
Y207567D01*
Y207328D01*
Y207090D01*
Y206851D01*
Y206612D01*
Y206373D01*
Y206134D01*
Y205895D01*
Y205656D01*
Y205417D01*
X424970D01*
Y205178D01*
Y204939D01*
Y204701D01*
Y204462D01*
Y204223D01*
X425209D01*
Y203984D01*
Y203745D01*
X425686D01*
Y203506D01*
X425925D01*
Y203267D01*
X426164D01*
Y203028D01*
X426642D01*
Y202789D01*
X426881D01*
Y202551D01*
X427359D01*
Y202312D01*
X429986D01*
Y202551D01*
X430464D01*
Y202789D01*
X430703D01*
Y203028D01*
X431181D01*
Y203267D01*
X431659D01*
Y203506D01*
X431898D01*
Y203745D01*
X432375D01*
Y203984D01*
X432614D01*
Y204223D01*
X432853D01*
Y204462D01*
X433092D01*
Y204701D01*
Y204939D01*
X433331D01*
Y205178D01*
X433570D01*
Y205417D01*
X433809D01*
Y205656D01*
X434048D01*
Y205895D01*
Y206134D01*
X434287D01*
Y206373D01*
Y206612D01*
Y206851D01*
X434525D01*
Y207090D01*
Y207328D01*
X434764D01*
Y207567D01*
Y207806D01*
X435003D01*
Y208045D01*
Y208284D01*
X435242D01*
Y208523D01*
Y208762D01*
Y209001D01*
Y209240D01*
Y209478D01*
Y209717D01*
Y209956D01*
Y210195D01*
Y210434D01*
Y210673D01*
Y210912D01*
Y211151D01*
Y211390D01*
Y211628D01*
Y211867D01*
Y212106D01*
Y212345D01*
Y212584D01*
X435003D01*
Y212823D01*
Y213062D01*
X434764D01*
Y213301D01*
X434525D01*
Y213540D01*
X434287D01*
Y213779D01*
X434048D01*
Y214018D01*
X433809D01*
Y214256D01*
X433570D01*
Y214495D01*
X433092D01*
Y214734D01*
X432853D01*
Y214973D01*
D02*
G37*
%LPD*%
D10*
X487250Y912250D02*
X510750D01*
X727250Y417000D02*
X728500Y415750D01*
X730571D01*
X722500D02*
X728500D01*
X730571D02*
X730786Y415536D01*
X713500Y393000D02*
Y406750D01*
X722500Y415750D01*
X746000Y430500D02*
Y450500D01*
X743000Y427750D02*
X743250D01*
X644250Y520400D02*
Y588250D01*
X727250Y417000D02*
Y497250D01*
X743250Y427750D02*
X746000Y430500D01*
X730786Y415536D02*
X743000Y427750D01*
X747000Y474750D02*
Y492250D01*
X746500Y454750D02*
Y473250D01*
X746000Y450500D02*
Y454250D01*
Y473750D02*
X747000Y474750D01*
X746000Y493250D02*
X747000Y492250D01*
X746000Y454250D02*
X746500Y454750D01*
X746000Y473750D02*
X746500Y473250D01*
X676750Y506900D02*
X717600D01*
X657750D02*
X676750D01*
X620250D02*
X657750D01*
X644250Y520400D02*
X657750Y506900D01*
X644250Y588250D02*
X646500Y590500D01*
X640750Y581250D02*
X644000Y578000D01*
X633000Y581250D02*
X640750D01*
X646500Y590500D02*
X661000D01*
X717600Y506900D02*
X727250Y497250D01*
Y531500D01*
X590500Y506900D02*
X620250D01*
X733000Y537250D02*
Y558500D01*
X727250Y531500D02*
X733000Y537250D01*
X725250Y920000D02*
X808000D01*
X704500Y899250D02*
X725250Y920000D01*
X676750Y899250D02*
X704500D01*
X759140Y829030D02*
Y903960D01*
Y829030D02*
X834070Y754100D01*
X733740Y829030D02*
X808670Y754100D01*
X733740Y829030D02*
Y903960D01*
X848000Y873000D02*
Y992900D01*
X858290Y856280D02*
X859470Y855100D01*
X858290Y856280D02*
Y862710D01*
X848000Y873000D02*
X858290Y862710D01*
X784540Y1056360D02*
X848000Y992900D01*
X860740Y1056360D02*
X935670Y981430D01*
Y855100D02*
Y981430D01*
X515000Y1021750D02*
X532000D01*
X536500Y1026250D01*
D11*
X572750Y397250D02*
X674250D01*
X566250Y403750D02*
X572750Y397250D01*
X614115Y297135D02*
X614790Y296460D01*
Y296335D02*
X625250Y285875D01*
X613990Y297135D02*
Y324760D01*
X625250Y275679D02*
Y285875D01*
X613990Y297135D02*
X614115D01*
X614790Y296335D02*
Y296460D01*
X510750Y912250D02*
X510750Y912250D01*
X595000Y331250D02*
Y331750D01*
X592460Y366960D02*
X593000Y367500D01*
X592460Y334290D02*
Y366960D01*
Y334290D02*
X595000Y331750D01*
X675571Y272750D02*
X678500Y275679D01*
X625250D02*
X628179Y272750D01*
X678500Y275679D02*
Y290500D01*
X628179Y272750D02*
X675571D01*
X434500Y1081000D02*
X435000Y1080500D01*
X399750Y1163750D02*
X434500Y1129000D01*
Y1081000D02*
Y1129000D01*
X322300Y1163750D02*
X394650D01*
X678250Y290750D02*
X678500Y290500D01*
X608000Y330750D02*
Y331250D01*
Y330750D02*
X613990Y324760D01*
X510000Y1016750D02*
X515000Y1021750D01*
X561500Y1051750D02*
X562500Y1050750D01*
Y994250D02*
Y1050750D01*
X510000Y994250D02*
X562500D01*
X419216D02*
X510000D01*
X403535Y978570D02*
X419216Y994250D01*
D14*
X530730Y965520D02*
X545696Y950554D01*
X588068D01*
X516230Y965520D02*
X530730D01*
X510000Y971750D02*
X516230Y965520D01*
X487250Y925250D02*
Y965750D01*
X493250Y971750D01*
X510000D01*
X518500Y1081270D02*
X534230Y1097000D01*
X537750D01*
X518500Y1051750D02*
Y1081270D01*
X669250Y881000D02*
X696000D01*
X659000Y870750D02*
X669250Y881000D01*
X660636Y887560D02*
X698364D01*
X649750Y876674D02*
X660636Y887560D01*
X649750Y870500D02*
Y876674D01*
X650886Y892810D02*
X708864D01*
X640125Y882049D02*
X650886Y892810D01*
X640125Y869375D02*
Y882049D01*
X698364Y887560D02*
X703424Y882500D01*
X708864Y892810D02*
X723608Y878066D01*
Y876190D02*
Y878066D01*
X897250Y780250D02*
Y785000D01*
X859470Y822780D02*
Y855100D01*
Y822780D02*
X897250Y785000D01*
X815750Y742500D02*
X894250D01*
X897750Y746000D01*
X703424Y882500D02*
X710250D01*
X784540Y829030D02*
X859470Y754100D01*
X784540Y829030D02*
Y903960D01*
X910270Y754100D02*
X910500Y753870D01*
Y743000D02*
Y753870D01*
X775145Y734225D02*
X901725D01*
X910500Y743000D01*
X670750Y905500D02*
Y1028000D01*
X822000Y872250D02*
Y993500D01*
X832260Y856910D02*
X834070Y855100D01*
X832260Y856910D02*
Y861990D01*
X822000Y872250D02*
X832260Y861990D01*
X809940Y872046D02*
Y903960D01*
Y872046D02*
X820250Y861736D01*
Y818720D02*
Y861736D01*
X759140Y1056360D02*
X822000Y993500D01*
X820250Y818720D02*
X884870Y754100D01*
X846000Y818370D02*
X910270Y754100D01*
X846000Y818370D02*
Y859000D01*
X835340Y869660D02*
X846000Y859000D01*
X835340Y869660D02*
Y903960D01*
X475000Y1041750D02*
Y1063000D01*
X487250Y925250D02*
X488520Y926520D01*
X455000Y1076750D02*
X458750Y1080500D01*
X455000Y1066750D02*
Y1076750D01*
X458750Y1080500D02*
X475000D01*
X435000Y1063000D02*
X451250D01*
X455000Y1066750D01*
X404500Y1064250D02*
X433750D01*
X435000Y1063000D01*
X403535Y978570D02*
X403535D01*
X475000Y1063000D02*
X476250Y1061750D01*
X492500D01*
X457500Y1024250D02*
X475000Y1041750D01*
X405000Y1024250D02*
X457500D01*
X502500Y1051750D02*
X518500D01*
X492500Y1061750D02*
X502500Y1051750D01*
D17*
X589040Y306460D02*
D03*
Y287460D02*
D03*
X611540Y296960D02*
D03*
D18*
X565750Y923750D02*
D03*
D19*
X510750Y935250D02*
D03*
Y912250D02*
D03*
D20*
X661000Y630500D02*
D03*
Y625500D02*
D03*
Y620500D02*
D03*
Y615500D02*
D03*
Y610500D02*
D03*
Y605500D02*
D03*
Y600500D02*
D03*
Y595500D02*
D03*
Y590500D02*
D03*
Y585500D02*
D03*
Y580500D02*
D03*
Y575500D02*
D03*
X750000D02*
D03*
Y580500D02*
D03*
Y585500D02*
D03*
Y590500D02*
D03*
Y595500D02*
D03*
Y600500D02*
D03*
Y605500D02*
D03*
Y610500D02*
D03*
Y615500D02*
D03*
Y620500D02*
D03*
Y625500D02*
D03*
Y630500D02*
D03*
D21*
X678000Y558500D02*
D03*
X683000D02*
D03*
X688000D02*
D03*
X693000D02*
D03*
X698000D02*
D03*
X703000D02*
D03*
X708000D02*
D03*
X713000D02*
D03*
X718000D02*
D03*
X723000D02*
D03*
X728000D02*
D03*
X733000D02*
D03*
Y647500D02*
D03*
X728000D02*
D03*
X723000D02*
D03*
X718000D02*
D03*
X713000D02*
D03*
X708000D02*
D03*
X703000D02*
D03*
X698000D02*
D03*
X693000D02*
D03*
X688000D02*
D03*
X683000D02*
D03*
X678000D02*
D03*
D22*
X732250Y297000D02*
D03*
Y328000D02*
D03*
D23*
X308656Y947780D02*
D03*
X294844Y954220D02*
D03*
D24*
X608000Y331250D02*
D03*
X595000D02*
D03*
X726500Y393000D02*
D03*
X713500D02*
D03*
X589750Y273250D02*
D03*
X602750D02*
D03*
X680500Y671750D02*
D03*
X667500D02*
D03*
X675250Y687250D02*
D03*
X688250D02*
D03*
X675250Y702500D02*
D03*
X688250D02*
D03*
X633000Y581250D02*
D03*
X620000D02*
D03*
X759000Y470000D02*
D03*
X746000D02*
D03*
X759000Y450500D02*
D03*
X746000D02*
D03*
X759000Y431000D02*
D03*
X746000D02*
D03*
X636000Y311250D02*
D03*
X649000D02*
D03*
X661750Y384750D02*
D03*
X674750D02*
D03*
X664500Y289250D02*
D03*
X677500D02*
D03*
X636000Y289500D02*
D03*
X649000D02*
D03*
X661500Y363000D02*
D03*
X674500D02*
D03*
X636750Y336000D02*
D03*
X649750D02*
D03*
X758750Y489500D02*
D03*
X745750D02*
D03*
X633250Y609750D02*
D03*
X620250D02*
D03*
D25*
X312250Y883250D02*
D03*
Y896250D02*
D03*
X487250Y912250D02*
D03*
Y925250D02*
D03*
D26*
X562500Y994250D02*
D03*
D27*
X510000Y971750D02*
D03*
Y994250D02*
D03*
Y1016750D02*
D03*
D28*
X475000Y1080500D02*
D03*
Y1063000D02*
D03*
X435000Y1080500D02*
D03*
Y1063000D02*
D03*
D29*
X590500Y648250D02*
D03*
X637500D02*
D03*
D30*
X700250Y366000D02*
D03*
X743250D02*
D03*
X518500Y1051750D02*
D03*
X561500D02*
D03*
D31*
X684500Y340750D02*
D03*
X675000D02*
D03*
X665500D02*
D03*
Y314751D02*
D03*
X675000D02*
D03*
X684500D02*
D03*
D32*
X504350Y284300D02*
D03*
Y835600D02*
D03*
X360650Y835200D02*
D03*
Y283900D02*
D03*
D33*
X405000Y1024250D02*
D03*
X376000D02*
D03*
X404500Y1064250D02*
D03*
X375500D02*
D03*
D34*
X537750Y1097000D02*
D03*
D35*
X798000Y467125D02*
D03*
X853000D02*
D03*
Y517125D02*
D03*
X798000D02*
D03*
Y492125D02*
D03*
X853000D02*
D03*
D63*
X958250Y557750D02*
D03*
Y432750D02*
D03*
X908250Y557750D02*
D03*
D64*
Y432750D02*
D03*
D65*
X798750Y359250D02*
D03*
Y404250D02*
D03*
X863750Y359250D02*
D03*
X796750Y199750D02*
D03*
Y244750D02*
D03*
X861750Y199750D02*
D03*
X798000Y279500D02*
D03*
Y324500D02*
D03*
X863000Y279500D02*
D03*
D66*
X863750Y404250D02*
D03*
X861750Y244750D02*
D03*
X863000Y324500D02*
D03*
D69*
X589500Y306000D02*
X597250D01*
X589040Y306460D02*
X589500Y306000D01*
X597250D02*
X600000Y303250D01*
Y294250D02*
Y303250D01*
Y294250D02*
X615750Y278500D01*
X291870Y883380D02*
Y900750D01*
Y883380D02*
X292000Y883250D01*
X277750Y888000D02*
Y897250D01*
X293999Y913499D02*
Y953375D01*
X277750Y897250D02*
X293999Y913499D01*
Y953375D02*
X294844Y954220D01*
X291870Y900750D02*
X307811Y916690D01*
Y946935D02*
X308656Y947780D01*
X307811Y916690D02*
Y946935D01*
X565742Y790750D02*
X573750Y782742D01*
X478500Y790750D02*
X565742D01*
X573750Y635250D02*
Y782742D01*
Y635250D02*
X581250Y627750D01*
X620000Y596000D02*
Y609500D01*
X620750Y609750D02*
X621250Y609250D01*
X620250Y609750D02*
X620750D01*
X581250Y627750D02*
X583500Y625500D01*
X661000D01*
X581250Y627750D02*
Y627750D01*
X620000Y609500D02*
X620250Y609750D01*
X908250Y432750D02*
Y557750D01*
X759200Y517220D02*
X761750Y519770D01*
Y543750D01*
X758750Y489500D02*
X759200Y489950D01*
Y517220D01*
X750000Y555500D02*
Y575500D01*
Y555500D02*
X761750Y543750D01*
X796750Y199750D02*
X861750D01*
X813500Y374000D02*
X849000D01*
X863750Y359250D01*
X798750D02*
X813500Y374000D01*
X850000Y292500D02*
X863000Y279500D01*
X821000Y292500D02*
X850000D01*
X808030Y279530D02*
X821000Y292500D01*
X798000Y279500D02*
X798030Y279530D01*
X808030D01*
X828500Y277750D02*
X828750Y277500D01*
Y243250D02*
Y277500D01*
Y243250D02*
X829000Y243000D01*
X620063Y270687D02*
X625540Y265210D01*
X605313Y270687D02*
X620063D01*
X602750Y273250D02*
X605313Y270687D01*
X759250Y470250D02*
X768500D01*
X773750Y435250D02*
Y465000D01*
X768500Y470250D02*
X773750Y465000D01*
X770250Y226250D02*
Y419250D01*
Y226250D02*
X796750Y199750D01*
X773750Y435250D02*
X781375Y427625D01*
Y376625D02*
Y427625D01*
X759000Y450500D02*
X764500D01*
X769690Y445310D01*
X903884Y557750D02*
X908250D01*
X771250Y580500D02*
X779500Y572250D01*
X884000Y448250D02*
Y460135D01*
X891500Y472000D02*
Y483885D01*
X852885Y492000D02*
X883384D01*
X852885Y467000D02*
X877135D01*
X884000Y460135D01*
X883384Y492000D02*
X891500Y483885D01*
X667000Y672250D02*
X674000Y679250D01*
X667000Y664500D02*
Y672250D01*
X678000Y647500D02*
Y653500D01*
X667000Y664500D02*
X678000Y653500D01*
X758750Y489500D02*
X771250D01*
X780000Y439000D02*
Y480750D01*
X771250Y489500D02*
X780000Y480750D01*
X786250Y432750D02*
X908250D01*
X780000Y439000D02*
X786250Y432750D01*
X781375Y376625D02*
X798750Y359250D01*
X769690Y429560D02*
X775500Y423750D01*
Y302000D02*
X798000Y279500D01*
X775500Y302000D02*
Y423750D01*
X759000Y430500D02*
X770250Y419250D01*
X674000Y679250D02*
Y704250D01*
X759000Y470000D02*
X759250Y470250D01*
X769690Y429560D02*
Y445310D01*
X759000Y430500D02*
Y431000D01*
X695500Y694000D02*
X699000Y697500D01*
X695500Y694000D02*
X695500D01*
X699000Y697500D02*
Y839750D01*
X688750Y687250D02*
X695500Y694000D01*
X688000Y687250D02*
Y690500D01*
Y682500D02*
Y687250D01*
Y702500D02*
Y837750D01*
X750000Y590500D02*
X785500D01*
X776250Y585500D02*
X777875Y583875D01*
X750000Y585500D02*
X776250D01*
X769808Y595500D02*
X773808Y599500D01*
X750000Y595500D02*
X769808D01*
X750000Y580500D02*
X771250D01*
X620250Y456100D02*
X620700Y456550D01*
X643300D01*
X643750Y457000D01*
X620250Y481500D02*
X666500D01*
X673500Y687250D02*
X673750Y687000D01*
X678000Y576000D02*
Y647500D01*
X670000Y513650D02*
Y568000D01*
Y513650D02*
X676750Y506900D01*
X670000Y568000D02*
X678000Y576000D01*
X690450D01*
X707450Y593000D02*
Y593000D01*
X690450Y576000D02*
X707450Y593000D01*
X645000Y600500D02*
X661000D01*
X622750Y598750D02*
X643250D01*
X645000Y600500D01*
X620000Y581250D02*
Y596000D01*
X622750Y598750D01*
X720250Y594750D02*
X721192D01*
X722192Y595750D01*
X722250D01*
X727000Y600500D02*
X750000D01*
X722250Y595750D02*
X727000Y600500D01*
X720000Y603750D02*
X721750Y605500D01*
X750000D01*
X733000Y631000D02*
Y647500D01*
X739018Y620500D02*
X750000D01*
X732859Y614341D02*
X739018Y620500D01*
X698000Y632500D02*
Y647500D01*
X625500Y849500D02*
X676250D01*
X688000Y837750D01*
X624964Y862857D02*
X625107Y863000D01*
X675750D01*
X699000Y839750D01*
X622500Y836750D02*
X674000D01*
X681000Y671750D02*
Y829750D01*
X674000Y836750D02*
X681000Y829750D01*
X681000Y829750D02*
X681000Y829750D01*
X700000Y683500D02*
X703000Y680500D01*
Y647500D02*
Y680500D01*
X693200Y647700D02*
Y677300D01*
X688000Y682500D02*
X693200Y677300D01*
X693000Y647500D02*
X693200Y647700D01*
X681000Y671750D02*
X681750Y671000D01*
Y666000D02*
Y671000D01*
Y666000D02*
X688000Y659750D01*
Y647500D02*
Y659750D01*
D70*
X562500Y994250D02*
D03*
D71*
X593000Y367500D02*
D03*
D72*
X618400D02*
D03*
X620250Y430700D02*
D03*
Y456100D02*
D03*
Y481500D02*
D03*
X590500D02*
D03*
Y456100D02*
D03*
Y430700D02*
D03*
D73*
X733740Y903960D02*
D03*
X808670Y754100D02*
D03*
D74*
X759140Y903960D02*
D03*
X784540D02*
D03*
X809940D02*
D03*
X835340D02*
D03*
X860740D02*
D03*
Y1056360D02*
D03*
X835340D02*
D03*
X809940D02*
D03*
X784540D02*
D03*
X759140D02*
D03*
X733740D02*
D03*
X910270Y855100D02*
D03*
X935670D02*
D03*
X808670D02*
D03*
X834070D02*
D03*
X884870D02*
D03*
X859470D02*
D03*
X935670Y754100D02*
D03*
X910270D02*
D03*
X884870D02*
D03*
X859470D02*
D03*
X834070D02*
D03*
D75*
X620250Y506900D02*
D03*
X590500D02*
D03*
D76*
X403535Y978570D02*
D03*
D77*
X368180Y943214D02*
D03*
X396464Y914930D02*
D03*
X431820Y950285D02*
D03*
D78*
X322300Y1163750D02*
D03*
X398500D02*
D03*
X838500D02*
D03*
X914700D02*
D03*
D79*
X278500Y1052500D02*
D03*
X958500Y672500D02*
D03*
X737750Y212500D02*
D03*
X278500D02*
D03*
D80*
X975000Y870000D02*
D03*
X960000Y840000D02*
D03*
X975000Y810000D02*
D03*
X960000Y780000D02*
D03*
X975000Y750000D02*
D03*
X960000Y720000D02*
D03*
X975000Y630000D02*
D03*
X960000Y600000D02*
D03*
X975000Y570000D02*
D03*
X960000Y540000D02*
D03*
X975000Y510000D02*
D03*
X960000Y480000D02*
D03*
X975000Y450000D02*
D03*
Y390000D02*
D03*
X960000Y360000D02*
D03*
X975000Y330000D02*
D03*
X960000Y300000D02*
D03*
X975000Y270000D02*
D03*
X960000Y240000D02*
D03*
X975000Y210000D02*
D03*
X960000Y180000D02*
D03*
X945000Y870000D02*
D03*
Y810000D02*
D03*
X930000Y780000D02*
D03*
Y660000D02*
D03*
X945000Y630000D02*
D03*
X930000Y600000D02*
D03*
X945000Y570000D02*
D03*
X930000Y540000D02*
D03*
X945000Y510000D02*
D03*
X930000Y480000D02*
D03*
X945000Y450000D02*
D03*
X930000Y420000D02*
D03*
X945000Y390000D02*
D03*
X930000Y360000D02*
D03*
X945000Y330000D02*
D03*
X930000Y300000D02*
D03*
X945000Y270000D02*
D03*
X930000Y240000D02*
D03*
X945000Y210000D02*
D03*
X930000Y180000D02*
D03*
X900000Y840000D02*
D03*
X915000Y810000D02*
D03*
X900000Y720000D02*
D03*
X915000Y690000D02*
D03*
X900000Y660000D02*
D03*
X915000Y630000D02*
D03*
X900000Y600000D02*
D03*
Y540000D02*
D03*
X915000Y510000D02*
D03*
X900000Y480000D02*
D03*
X915000Y450000D02*
D03*
Y390000D02*
D03*
X900000Y360000D02*
D03*
X915000Y330000D02*
D03*
X900000Y300000D02*
D03*
X915000Y270000D02*
D03*
X900000Y240000D02*
D03*
X915000Y210000D02*
D03*
X900000Y180000D02*
D03*
X870000Y840000D02*
D03*
X885000Y810000D02*
D03*
X870000Y780000D02*
D03*
Y720000D02*
D03*
X885000Y690000D02*
D03*
X870000Y660000D02*
D03*
X885000Y630000D02*
D03*
X870000Y600000D02*
D03*
X885000Y570000D02*
D03*
X870000Y540000D02*
D03*
X885000Y510000D02*
D03*
X870000Y480000D02*
D03*
Y420000D02*
D03*
Y300000D02*
D03*
X885000Y210000D02*
D03*
X870000Y180000D02*
D03*
X855000Y690000D02*
D03*
X840000Y660000D02*
D03*
X855000Y630000D02*
D03*
X840000Y600000D02*
D03*
X855000Y570000D02*
D03*
Y450000D02*
D03*
Y390000D02*
D03*
X840000Y360000D02*
D03*
Y240000D02*
D03*
Y180000D02*
D03*
X810000Y840000D02*
D03*
X825000Y690000D02*
D03*
X810000Y660000D02*
D03*
X825000Y630000D02*
D03*
X810000Y600000D02*
D03*
Y540000D02*
D03*
Y480000D02*
D03*
Y420000D02*
D03*
Y300000D02*
D03*
Y240000D02*
D03*
X825000Y210000D02*
D03*
X810000Y180000D02*
D03*
X795000Y630000D02*
D03*
X780000Y540000D02*
D03*
X795000Y450000D02*
D03*
Y390000D02*
D03*
X780000Y240000D02*
D03*
Y180000D02*
D03*
X750000Y840000D02*
D03*
X765000Y690000D02*
D03*
X750000Y660000D02*
D03*
X765000Y630000D02*
D03*
Y570000D02*
D03*
X750000Y540000D02*
D03*
Y420000D02*
D03*
Y180000D02*
D03*
X735000Y690000D02*
D03*
Y510000D02*
D03*
X720000Y480000D02*
D03*
X735000Y450000D02*
D03*
X720000Y240000D02*
D03*
Y180000D02*
D03*
X705000Y870000D02*
D03*
X690000Y600000D02*
D03*
Y540000D02*
D03*
Y480000D02*
D03*
X705000Y450000D02*
D03*
X690000Y420000D02*
D03*
Y240000D02*
D03*
X705000Y210000D02*
D03*
X690000Y180000D02*
D03*
X675000Y750000D02*
D03*
X660000Y660000D02*
D03*
Y540000D02*
D03*
X675000Y450000D02*
D03*
X660000Y420000D02*
D03*
X675000Y330000D02*
D03*
X660000Y240000D02*
D03*
Y180000D02*
D03*
X630000Y720000D02*
D03*
X645000Y690000D02*
D03*
X630000Y660000D02*
D03*
Y540000D02*
D03*
Y420000D02*
D03*
Y360000D02*
D03*
Y300000D02*
D03*
Y240000D02*
D03*
Y180000D02*
D03*
X600000Y600000D02*
D03*
X615000Y570000D02*
D03*
X600000Y540000D02*
D03*
Y420000D02*
D03*
Y240000D02*
D03*
Y180000D02*
D03*
X585000Y870000D02*
D03*
X570000Y840000D02*
D03*
X585000Y810000D02*
D03*
Y750000D02*
D03*
Y690000D02*
D03*
Y570000D02*
D03*
X570000Y360000D02*
D03*
Y240000D02*
D03*
Y180000D02*
D03*
X555000Y870000D02*
D03*
Y810000D02*
D03*
X540000Y780000D02*
D03*
Y720000D02*
D03*
X555000Y690000D02*
D03*
X540000Y660000D02*
D03*
X555000Y630000D02*
D03*
X540000Y600000D02*
D03*
X555000Y570000D02*
D03*
X540000Y540000D02*
D03*
X555000Y510000D02*
D03*
X540000Y480000D02*
D03*
X555000Y450000D02*
D03*
X540000Y420000D02*
D03*
X555000Y390000D02*
D03*
X540000Y360000D02*
D03*
Y240000D02*
D03*
Y180000D02*
D03*
X510000Y780000D02*
D03*
X525000Y750000D02*
D03*
X510000Y720000D02*
D03*
X525000Y690000D02*
D03*
X510000Y660000D02*
D03*
X525000Y630000D02*
D03*
X510000Y600000D02*
D03*
X525000Y570000D02*
D03*
X510000Y540000D02*
D03*
X525000Y510000D02*
D03*
X510000Y480000D02*
D03*
X525000Y450000D02*
D03*
X510000Y420000D02*
D03*
X525000Y390000D02*
D03*
X510000Y360000D02*
D03*
Y240000D02*
D03*
Y180000D02*
D03*
X480000Y780000D02*
D03*
X495000Y750000D02*
D03*
X480000Y720000D02*
D03*
X495000Y690000D02*
D03*
X480000Y660000D02*
D03*
X495000Y630000D02*
D03*
X480000Y600000D02*
D03*
X495000Y570000D02*
D03*
X480000Y540000D02*
D03*
X495000Y510000D02*
D03*
X480000Y480000D02*
D03*
X495000Y450000D02*
D03*
X480000Y420000D02*
D03*
X495000Y390000D02*
D03*
X480000Y360000D02*
D03*
Y240000D02*
D03*
Y180000D02*
D03*
X450000Y780000D02*
D03*
X465000Y750000D02*
D03*
X450000Y720000D02*
D03*
X465000Y690000D02*
D03*
X450000Y660000D02*
D03*
X465000Y630000D02*
D03*
X450000Y600000D02*
D03*
X465000Y570000D02*
D03*
X450000Y540000D02*
D03*
X465000Y510000D02*
D03*
X450000Y480000D02*
D03*
X465000Y450000D02*
D03*
X450000Y420000D02*
D03*
X465000Y390000D02*
D03*
X450000Y360000D02*
D03*
X465000Y330000D02*
D03*
X450000Y300000D02*
D03*
X465000Y270000D02*
D03*
X450000Y240000D02*
D03*
Y180000D02*
D03*
X420000Y780000D02*
D03*
X435000Y750000D02*
D03*
X420000Y720000D02*
D03*
X435000Y690000D02*
D03*
X420000Y660000D02*
D03*
X435000Y630000D02*
D03*
X420000Y600000D02*
D03*
X435000Y570000D02*
D03*
X420000Y540000D02*
D03*
X435000Y510000D02*
D03*
X420000Y480000D02*
D03*
X435000Y450000D02*
D03*
X420000Y420000D02*
D03*
X435000Y390000D02*
D03*
X420000Y360000D02*
D03*
X435000Y330000D02*
D03*
X420000Y300000D02*
D03*
X435000Y270000D02*
D03*
X420000Y240000D02*
D03*
Y180000D02*
D03*
X390000Y780000D02*
D03*
X405000Y750000D02*
D03*
X390000Y720000D02*
D03*
X405000Y690000D02*
D03*
X390000Y660000D02*
D03*
X405000Y630000D02*
D03*
X390000Y600000D02*
D03*
X405000Y570000D02*
D03*
X390000Y540000D02*
D03*
X405000Y510000D02*
D03*
X390000Y480000D02*
D03*
X405000Y450000D02*
D03*
X390000Y420000D02*
D03*
X405000Y390000D02*
D03*
X390000Y360000D02*
D03*
X405000Y330000D02*
D03*
X390000Y300000D02*
D03*
X405000Y270000D02*
D03*
X390000Y240000D02*
D03*
Y180000D02*
D03*
X360000Y780000D02*
D03*
X375000Y750000D02*
D03*
X360000Y720000D02*
D03*
X375000Y690000D02*
D03*
X360000Y660000D02*
D03*
X375000Y630000D02*
D03*
X360000Y600000D02*
D03*
X375000Y570000D02*
D03*
X360000Y540000D02*
D03*
X375000Y510000D02*
D03*
X360000Y480000D02*
D03*
X375000Y450000D02*
D03*
X360000Y420000D02*
D03*
X375000Y390000D02*
D03*
X360000Y360000D02*
D03*
X375000Y330000D02*
D03*
X360000Y240000D02*
D03*
Y180000D02*
D03*
X330000Y780000D02*
D03*
X345000Y750000D02*
D03*
X330000Y720000D02*
D03*
X345000Y690000D02*
D03*
X330000Y660000D02*
D03*
X345000Y630000D02*
D03*
X330000Y600000D02*
D03*
X345000Y570000D02*
D03*
X330000Y540000D02*
D03*
X345000Y510000D02*
D03*
X330000Y480000D02*
D03*
X345000Y450000D02*
D03*
X330000Y420000D02*
D03*
X345000Y390000D02*
D03*
X330000Y360000D02*
D03*
X345000Y330000D02*
D03*
X330000Y300000D02*
D03*
Y240000D02*
D03*
Y180000D02*
D03*
X315000Y870000D02*
D03*
X300000Y840000D02*
D03*
X315000Y810000D02*
D03*
X300000Y780000D02*
D03*
X315000Y750000D02*
D03*
X300000Y720000D02*
D03*
X315000Y690000D02*
D03*
X300000Y660000D02*
D03*
X315000Y630000D02*
D03*
X300000Y600000D02*
D03*
X315000Y570000D02*
D03*
X300000Y540000D02*
D03*
X315000Y510000D02*
D03*
X300000Y480000D02*
D03*
X315000Y450000D02*
D03*
X300000Y420000D02*
D03*
X315000Y390000D02*
D03*
X300000Y360000D02*
D03*
X315000Y330000D02*
D03*
X300000Y300000D02*
D03*
X315000Y270000D02*
D03*
X300000Y240000D02*
D03*
X315000Y210000D02*
D03*
X300000Y180000D02*
D03*
X270000Y840000D02*
D03*
X285000Y810000D02*
D03*
X270000Y780000D02*
D03*
X285000Y750000D02*
D03*
X270000Y720000D02*
D03*
X285000Y690000D02*
D03*
X270000Y660000D02*
D03*
X285000Y630000D02*
D03*
X270000Y600000D02*
D03*
X285000Y570000D02*
D03*
X270000Y540000D02*
D03*
X285000Y510000D02*
D03*
X270000Y480000D02*
D03*
X285000Y450000D02*
D03*
X270000Y420000D02*
D03*
X285000Y390000D02*
D03*
X270000Y360000D02*
D03*
X285000Y330000D02*
D03*
X270000Y300000D02*
D03*
X285000Y270000D02*
D03*
X270000Y180000D02*
D03*
X566250Y403750D02*
D03*
X615750Y278500D02*
D03*
X937500Y1005000D02*
D03*
X900000Y1050000D02*
D03*
X885000Y1080000D02*
D03*
X892500Y1065000D02*
D03*
X885000Y1050000D02*
D03*
X892500Y1035000D02*
D03*
X885000Y1020000D02*
D03*
X892500Y1005000D02*
D03*
X877500Y1095000D02*
D03*
X870000Y1080000D02*
D03*
X877500Y1065000D02*
D03*
X870000Y1020000D02*
D03*
X877500Y1005000D02*
D03*
X862500Y1095000D02*
D03*
X855000Y1080000D02*
D03*
X862500Y1035000D02*
D03*
X855000Y1020000D02*
D03*
X862500Y1005000D02*
D03*
X847500Y1095000D02*
D03*
X840000Y1080000D02*
D03*
X847500Y1065000D02*
D03*
Y1035000D02*
D03*
X840000Y1020000D02*
D03*
X847500Y1005000D02*
D03*
X832500Y1095000D02*
D03*
X825000Y1080000D02*
D03*
Y1050000D02*
D03*
X817500Y1095000D02*
D03*
X810000Y1080000D02*
D03*
X817500Y1065000D02*
D03*
Y1035000D02*
D03*
X802500Y1095000D02*
D03*
X795000Y1080000D02*
D03*
X802500Y1065000D02*
D03*
X787500Y1095000D02*
D03*
X780000Y1080000D02*
D03*
Y1020000D02*
D03*
X787500Y1005000D02*
D03*
X772500Y1095000D02*
D03*
X765000Y1080000D02*
D03*
X772500Y1065000D02*
D03*
X765000Y1020000D02*
D03*
X772500Y1005000D02*
D03*
X757500Y1095000D02*
D03*
X750000Y1080000D02*
D03*
Y1050000D02*
D03*
X757500Y1035000D02*
D03*
X750000Y1020000D02*
D03*
X757500Y1005000D02*
D03*
X742500Y1095000D02*
D03*
X735000Y1080000D02*
D03*
X742500Y1065000D02*
D03*
Y1035000D02*
D03*
Y1005000D02*
D03*
X727500Y1095000D02*
D03*
X720000Y1080000D02*
D03*
Y1050000D02*
D03*
X727500Y1035000D02*
D03*
X720000Y1020000D02*
D03*
X727500Y1005000D02*
D03*
X712500Y1095000D02*
D03*
X705000Y1080000D02*
D03*
X712500Y1065000D02*
D03*
X705000Y1050000D02*
D03*
X712500Y1035000D02*
D03*
X705000Y1020000D02*
D03*
X712500Y1005000D02*
D03*
X697500Y1095000D02*
D03*
X690000Y1080000D02*
D03*
X697500Y1065000D02*
D03*
X690000Y1050000D02*
D03*
X697500Y1035000D02*
D03*
Y1005000D02*
D03*
X690000Y960000D02*
D03*
Y930000D02*
D03*
X682500Y1095000D02*
D03*
X675000Y1080000D02*
D03*
X682500Y1065000D02*
D03*
X675000Y1050000D02*
D03*
X682500Y1035000D02*
D03*
Y915000D02*
D03*
X667500Y1095000D02*
D03*
X660000Y1080000D02*
D03*
X667500Y1065000D02*
D03*
X660000Y1050000D02*
D03*
X652500Y1095000D02*
D03*
X645000Y1080000D02*
D03*
X652500Y1065000D02*
D03*
X645000Y1050000D02*
D03*
X652500Y1005000D02*
D03*
Y915000D02*
D03*
X637500Y1095000D02*
D03*
X630000Y1080000D02*
D03*
X637500Y1065000D02*
D03*
X630000Y1050000D02*
D03*
Y930000D02*
D03*
X637500Y915000D02*
D03*
X622500Y1095000D02*
D03*
X615000Y1080000D02*
D03*
X622500Y1065000D02*
D03*
X615000Y1050000D02*
D03*
X622500Y945000D02*
D03*
Y915000D02*
D03*
X607500Y1095000D02*
D03*
X600000Y1080000D02*
D03*
X607500Y1065000D02*
D03*
X600000Y1050000D02*
D03*
X607500Y1035000D02*
D03*
Y975000D02*
D03*
X600000Y960000D02*
D03*
X277750Y888000D02*
D03*
X588250Y647250D02*
D03*
X621250Y609250D02*
D03*
X828500Y277750D02*
D03*
X625540Y265210D02*
D03*
X829000Y243000D02*
D03*
X779500Y572250D02*
D03*
X891500Y472000D02*
D03*
X884000Y448250D02*
D03*
X760250Y397750D02*
D03*
Y389750D02*
D03*
X760250Y273500D02*
D03*
X625500Y849500D02*
D03*
X624964Y862857D02*
D03*
X775145Y734225D02*
D03*
X659000Y870750D02*
D03*
X649750Y870500D02*
D03*
X622500Y836750D02*
D03*
X815750Y742500D02*
D03*
X640125Y869375D02*
D03*
X785500Y590500D02*
D03*
X777875Y583875D02*
D03*
X643750Y457000D02*
D03*
X666500Y481500D02*
D03*
X707450Y593000D02*
D03*
X773808Y599500D02*
D03*
X808000Y920000D02*
D03*
X676750Y899250D02*
D03*
X760250Y281500D02*
D03*
X711906D02*
D03*
Y273500D02*
D03*
X705000Y281500D02*
D03*
Y273500D02*
D03*
X478500Y790750D02*
D03*
X746437Y273500D02*
D03*
Y281500D02*
D03*
X753344Y273500D02*
D03*
Y281500D02*
D03*
X732625Y273500D02*
D03*
Y281500D02*
D03*
X739531Y273500D02*
D03*
Y281500D02*
D03*
X718812Y273500D02*
D03*
Y281500D02*
D03*
X725719Y273500D02*
D03*
Y281500D02*
D03*
X753000Y397750D02*
D03*
Y389750D02*
D03*
X746000Y397750D02*
D03*
Y389750D02*
D03*
X738750D02*
D03*
Y397750D02*
D03*
X720250Y594750D02*
D03*
X720000Y603750D02*
D03*
X733000Y631000D02*
D03*
X732859Y614341D02*
D03*
X698000Y632500D02*
D03*
X689500Y702500D02*
D03*
X700000Y683500D02*
D03*
X696000Y881000D02*
D03*
X897250Y780250D02*
D03*
X897750Y746000D02*
D03*
X723608Y876190D02*
D03*
X710250Y882500D02*
D03*
X670750Y905500D02*
D03*
X536500Y1026250D02*
D03*
X670750Y1028000D02*
D03*
X588068Y950554D02*
D03*
M02*
