G04*
G04 #@! TF.GenerationSoftware,Altium Limited,Altium Designer,21.0.9 (235)*
G04*
G04 Layer_Color=8388736*
%FSLAX44Y44*%
%MOMM*%
G71*
G04*
G04 #@! TF.SameCoordinates,0D4F0E72-BB14-44F6-86D7-A2CD8496CB50*
G04*
G04*
G04 #@! TF.FilePolarity,Positive*
G04*
G01*
G75*
%ADD14C,0.2540*%
%ADD99C,0.2032*%
%ADD101C,0.3048*%
%ADD102C,0.4064*%
%ADD103R,0.4999X0.6502*%
%ADD104R,1.0160X1.5240*%
D14*
X722310Y1015974D02*
X725358Y1019022D01*
X718246Y993876D02*
X722310Y1015974D01*
X718246Y993876D02*
X721040Y991082D01*
X723580Y993622D01*
X727390Y1016990D01*
X725358Y1019022D02*
X727390Y1016990D01*
X719770Y1019530D02*
X722310Y1022070D01*
X694370Y1019530D02*
X719770D01*
X691830Y1022070D02*
X694370Y1019530D01*
X691830Y1022070D02*
X694370Y1024610D01*
X719770D01*
X722310Y1022070D01*
X688782Y1019022D02*
X691830Y1015974D01*
X688020Y993876D02*
X691830Y1015974D01*
X685480Y991336D02*
X688020Y993876D01*
X682940D02*
X685480Y991336D01*
X682940Y993876D02*
X686750Y1016990D01*
X688782Y1019022D01*
X687258Y987018D02*
X690560Y990320D01*
X715452D01*
X717484Y988288D01*
X714436Y985240D02*
X717484Y988288D01*
X689036Y985240D02*
X714436D01*
X687258Y987018D02*
X689036Y985240D01*
X683702Y984478D02*
X686242Y981938D01*
X679130Y956538D02*
X682432Y959840D01*
X686242Y981938D01*
X680908Y981684D02*
X683702Y984478D01*
X677098Y958570D02*
X680908Y981684D01*
X677098Y958570D02*
X679130Y956538D01*
X682178Y953490D02*
X684718Y956030D01*
X710118D01*
X712658Y953490D01*
X710118Y950950D02*
X712658Y953490D01*
X684718Y950950D02*
X710118D01*
X682178Y953490D02*
X684718Y950950D01*
X716468Y981176D02*
X719008Y983716D01*
X712658Y959586D02*
X716468Y981176D01*
X712658Y959586D02*
X715706Y956538D01*
X717738Y958570D01*
X721548Y981176D01*
X719008Y983716D02*
X721548Y981176D01*
X817560Y1015974D02*
X820608Y1019022D01*
X813496Y993876D02*
X817560Y1015974D01*
X813496Y993876D02*
X816290Y991082D01*
X818830Y993622D01*
X822640Y1016990D01*
X820608Y1019022D02*
X822640Y1016990D01*
X815020Y1019530D02*
X817560Y1022070D01*
X789620Y1019530D02*
X815020D01*
X787080Y1022070D02*
X789620Y1019530D01*
X787080Y1022070D02*
X789620Y1024610D01*
X815020D01*
X817560Y1022070D01*
X784032Y1019022D02*
X787080Y1015974D01*
X783270Y993876D02*
X787080Y1015974D01*
X780730Y991336D02*
X783270Y993876D01*
X778190D02*
X780730Y991336D01*
X778190Y993876D02*
X782000Y1016990D01*
X784032Y1019022D01*
X782508Y987018D02*
X785810Y990320D01*
X810702D01*
X812734Y988288D01*
X809686Y985240D02*
X812734Y988288D01*
X784286Y985240D02*
X809686D01*
X782508Y987018D02*
X784286Y985240D01*
X778952Y984478D02*
X781492Y981938D01*
X774380Y956538D02*
X777682Y959840D01*
X781492Y981938D01*
X776158Y981684D02*
X778952Y984478D01*
X772348Y958570D02*
X776158Y981684D01*
X772348Y958570D02*
X774380Y956538D01*
X777428Y953490D02*
X779968Y956030D01*
X805368D01*
X807908Y953490D01*
X805368Y950950D02*
X807908Y953490D01*
X779968Y950950D02*
X805368D01*
X777428Y953490D02*
X779968Y950950D01*
X811718Y981176D02*
X814258Y983716D01*
X807908Y959586D02*
X811718Y981176D01*
X807908Y959586D02*
X810956Y956538D01*
X812988Y958570D01*
X816798Y981176D01*
X814258Y983716D02*
X816798Y981176D01*
X912810Y1015974D02*
X915858Y1019022D01*
X908746Y993876D02*
X912810Y1015974D01*
X908746Y993876D02*
X911540Y991082D01*
X914080Y993622D01*
X917890Y1016990D01*
X915858Y1019022D02*
X917890Y1016990D01*
X910270Y1019530D02*
X912810Y1022070D01*
X884870Y1019530D02*
X910270D01*
X882330Y1022070D02*
X884870Y1019530D01*
X882330Y1022070D02*
X884870Y1024610D01*
X910270D01*
X912810Y1022070D01*
X879282Y1019022D02*
X882330Y1015974D01*
X878520Y993876D02*
X882330Y1015974D01*
X875980Y991336D02*
X878520Y993876D01*
X873440D02*
X875980Y991336D01*
X873440Y993876D02*
X877250Y1016990D01*
X879282Y1019022D01*
X877758Y987018D02*
X881060Y990320D01*
X905952D01*
X907984Y988288D01*
X904936Y985240D02*
X907984Y988288D01*
X879536Y985240D02*
X904936D01*
X877758Y987018D02*
X879536Y985240D01*
X874202Y984478D02*
X876742Y981938D01*
X869630Y956538D02*
X872932Y959840D01*
X876742Y981938D01*
X871408Y981684D02*
X874202Y984478D01*
X867598Y958570D02*
X871408Y981684D01*
X867598Y958570D02*
X869630Y956538D01*
X872678Y953490D02*
X875218Y956030D01*
X900618D01*
X903158Y953490D01*
X900618Y950950D02*
X903158Y953490D01*
X875218Y950950D02*
X900618D01*
X872678Y953490D02*
X875218Y950950D01*
X906968Y981176D02*
X909508Y983716D01*
X903158Y959586D02*
X906968Y981176D01*
X903158Y959586D02*
X906206Y956538D01*
X908238Y958570D01*
X912048Y981176D01*
X909508Y983716D02*
X912048Y981176D01*
D99*
X660781Y319650D02*
Y335850D01*
X689219D01*
Y319650D02*
Y335850D01*
X660781Y319650D02*
X689219D01*
D101*
X733740Y950950D02*
G03*
X733740Y950950I-2540J0D01*
G01*
X828990D02*
G03*
X828990Y950950I-2540J0D01*
G01*
X924240D02*
G03*
X924240Y950950I-2540J0D01*
G01*
X729930D02*
X732470D01*
X825180D02*
X827720D01*
X920430D02*
X922970D01*
D102*
X721040Y994130D02*
X724850Y1015720D01*
X694370Y1022070D02*
X719770D01*
X685480Y994130D02*
X689290Y1015720D01*
Y987780D02*
X714690D01*
Y959840D02*
X718500Y980160D01*
X685480Y953490D02*
X709610D01*
X679130Y958570D02*
X682940Y981430D01*
X816290Y994130D02*
X820100Y1015720D01*
X789620Y1022070D02*
X815020D01*
X780730Y994130D02*
X784540Y1015720D01*
Y987780D02*
X809940D01*
Y959840D02*
X813750Y980160D01*
X780730Y953490D02*
X804860D01*
X774380Y958570D02*
X778190Y981430D01*
X911540Y994130D02*
X915350Y1015720D01*
X884870Y1022070D02*
X910270D01*
X875980Y994130D02*
X879790Y1015720D01*
Y987780D02*
X905190D01*
Y959840D02*
X909000Y980160D01*
X875980Y953490D02*
X900110D01*
X869630Y958570D02*
X873440Y981430D01*
D103*
X684499Y339500D02*
D03*
X674999D02*
D03*
X665500D02*
D03*
Y316000D02*
D03*
X674999D02*
D03*
X684499D02*
D03*
D104*
X697749Y617750D02*
D03*
M02*
