G04*
G04 #@! TF.GenerationSoftware,Altium Limited,Altium Designer,23.6.0 (18)*
G04*
G04 Layer_Color=32768*
%FSLAX44Y44*%
%MOMM*%
G71*
G04*
G04 #@! TF.SameCoordinates,A28E5885-0542-4C94-BDD8-BFCE9456E40A*
G04*
G04*
G04 #@! TF.FilePolarity,Positive*
G04*
G01*
G75*
%ADD13C,0.2000*%
%ADD15C,0.1000*%
%ADD100C,0.0500*%
D13*
X866500Y446125D02*
Y538125D01*
X784500Y446125D02*
X866500D01*
X784500D02*
Y538125D01*
X866500D01*
D15*
X580790Y279460D02*
Y314460D01*
X619790Y279460D02*
Y314460D01*
X580790D02*
X619790D01*
X580790Y279460D02*
X619790D01*
X595290Y296960D02*
X605290D01*
X600290Y291960D02*
Y301960D01*
X533250Y923750D02*
X543250D01*
X538250Y918750D02*
Y928750D01*
X634300Y924550D02*
X646800D01*
X634300Y950050D02*
X646800D01*
Y924550D02*
Y950050D01*
X634300Y924550D02*
Y950050D01*
X640550Y932550D02*
Y942050D01*
X635800Y937300D02*
X645300D01*
X680700Y962300D02*
X690700D01*
X685700Y957300D02*
Y967300D01*
X607250Y913000D02*
Y923000D01*
X602250Y918000D02*
X612250D01*
X636150Y998680D02*
X646150D01*
X641150Y993680D02*
Y1003680D01*
X615150Y955680D02*
Y1041680D01*
X667150Y955680D02*
Y1041680D01*
X615150D02*
X667150D01*
X615150Y955680D02*
X667150D01*
X901000Y1088250D02*
Y1097750D01*
X896250Y1093000D02*
X905750D01*
X888250Y1099250D02*
X913750D01*
X888250Y1086750D02*
X913750D01*
Y1099250D01*
X888250Y1086750D02*
Y1099250D01*
X917000Y1042000D02*
X927000D01*
X922000Y1037000D02*
Y1047000D01*
X531740Y817130D02*
Y852130D01*
X492740Y817130D02*
Y852130D01*
X531740D01*
X492740Y817130D02*
X531740D01*
X507240Y834630D02*
X517240D01*
X512240Y829630D02*
Y839630D01*
X454870Y851740D02*
X489870D01*
X454870Y812740D02*
X489870D01*
X454870D02*
Y851740D01*
X489870Y812740D02*
Y851740D01*
X472370Y827240D02*
Y837240D01*
X467370Y832240D02*
X477370D01*
D100*
X455000Y946750D02*
G03*
X455000Y946750I-55000J0D01*
G01*
X573250Y900250D02*
Y947250D01*
X503250Y900250D02*
X573250D01*
X503250Y947250D02*
X573250D01*
X503250Y900250D02*
Y947250D01*
X307050Y1206300D02*
X413750D01*
Y1121200D02*
Y1206300D01*
X307050Y1121200D02*
X413750D01*
X307050D02*
Y1206300D01*
X929950Y1121200D02*
Y1206300D01*
X823250D02*
X929950D01*
X823250Y1121200D02*
Y1206300D01*
Y1121200D02*
X929950D01*
X697370Y349870D02*
Y354750D01*
X684500D02*
X697370D01*
X746130Y377250D02*
Y382130D01*
Y377250D02*
X759000D01*
X697370Y382130D02*
X746130D01*
X684500Y354750D02*
Y377250D01*
X697370D02*
Y382130D01*
X684500Y377250D02*
X697370D01*
X746130Y349870D02*
Y354750D01*
X759000D01*
X697370Y349870D02*
X746130D01*
X759000Y354750D02*
Y377250D01*
X676700Y940400D02*
Y984200D01*
Y940400D02*
X694700D01*
X676700Y984200D02*
X694700D01*
Y940400D02*
Y984200D01*
X587250Y942000D02*
X627250D01*
X587250Y894000D02*
X627250D01*
X587250D02*
Y942000D01*
X627250Y894000D02*
Y942000D01*
X591500Y875250D02*
X730500D01*
X591500Y683250D02*
Y875250D01*
Y683250D02*
X730500D01*
Y875250D01*
X902000Y1018000D02*
Y1066000D01*
X942000Y1018000D02*
Y1066000D01*
X902000D02*
X942000D01*
X902000Y1018000D02*
X942000D01*
X515620Y1035620D02*
Y1040500D01*
X502750D02*
X515620D01*
X564380Y1063000D02*
Y1067880D01*
Y1063000D02*
X577250D01*
X515620Y1067880D02*
X564380D01*
X502750Y1040500D02*
Y1063000D01*
X515620D02*
Y1067880D01*
X502750Y1063000D02*
X515620D01*
X564380Y1035620D02*
Y1040500D01*
X577250D01*
X515620Y1035620D02*
X564380D01*
X577250Y1040500D02*
Y1063000D01*
M02*
