G04*
G04 #@! TF.GenerationSoftware,Altium Limited,Altium Designer,21.0.9 (235)*
G04*
G04 Layer_Color=16711935*
%FSLAX44Y44*%
%MOMM*%
G71*
G04*
G04 #@! TF.SameCoordinates,0D4F0E72-BB14-44F6-86D7-A2CD8496CB50*
G04*
G04*
G04 #@! TF.FilePolarity,Negative*
G04*
G01*
G75*
%ADD42R,1.0032X1.1032*%
%ADD43R,1.3532X0.8032*%
%ADD44R,1.1032X1.0032*%
%ADD54R,1.7032X1.7032*%
%ADD55C,1.7032*%
%ADD56R,1.4034X1.4034*%
%ADD57C,1.4034*%
%ADD58R,1.7032X1.7032*%
%ADD59P,3.0451X4X360.0*%
%ADD60C,2.1532*%
%ADD61C,2.7532*%
%ADD62R,0.2032X0.2032*%
%ADD63C,2.0000*%
%ADD64R,2.0000X2.0000*%
%ADD65C,1.5500*%
%ADD66R,1.5500X1.5500*%
%ADD67C,5.2032*%
%ADD68C,0.7032*%
%ADD89R,1.1032X1.0032*%
%ADD90R,1.4232X1.1132*%
%ADD91R,0.8032X1.8032*%
%ADD92O,2.4532X0.8032*%
%ADD93R,1.1032X2.7032*%
%ADD94R,1.0032X1.1032*%
%ADD95R,1.3716X1.8034*%
%ADD96R,0.8032X1.3532*%
D42*
X656250Y905000D02*
D03*
X643250D02*
D03*
X894500Y1073500D02*
D03*
X907500D02*
D03*
X922000Y1006500D02*
D03*
X909000D02*
D03*
X511500Y805000D02*
D03*
X524500D02*
D03*
X478250Y862000D02*
D03*
X465250D02*
D03*
X509250Y862500D02*
D03*
X522250D02*
D03*
D43*
X499990Y824370D02*
D03*
Y843370D02*
D03*
X522490Y833870D02*
D03*
D44*
X660550Y943800D02*
D03*
Y930800D02*
D03*
X685550Y1011300D02*
D03*
Y998300D02*
D03*
X603050Y1003800D02*
D03*
Y990800D02*
D03*
X931750Y1077000D02*
D03*
Y1090000D02*
D03*
X277750Y868000D02*
D03*
Y881000D02*
D03*
D54*
X593000Y367500D02*
D03*
D55*
X618400D02*
D03*
X620250Y430700D02*
D03*
Y456100D02*
D03*
Y481500D02*
D03*
X590500D02*
D03*
Y456100D02*
D03*
Y430700D02*
D03*
D56*
X733740Y903960D02*
D03*
X808670Y754100D02*
D03*
D57*
X759140Y903960D02*
D03*
X784540D02*
D03*
X809940D02*
D03*
X835340D02*
D03*
X860740D02*
D03*
Y1056360D02*
D03*
X835340D02*
D03*
X809940D02*
D03*
X784540D02*
D03*
X759140D02*
D03*
X733740D02*
D03*
X910270Y855100D02*
D03*
X935670D02*
D03*
X808670D02*
D03*
X834070D02*
D03*
X884870D02*
D03*
X859470D02*
D03*
X935670Y754100D02*
D03*
X910270D02*
D03*
X884870D02*
D03*
X859470D02*
D03*
X834070D02*
D03*
D58*
X620250Y506900D02*
D03*
X590500D02*
D03*
D59*
X403535Y978570D02*
D03*
D60*
X368180Y943214D02*
D03*
X396464Y914930D02*
D03*
X431820Y950285D02*
D03*
D61*
X322300Y1163750D02*
D03*
X398500D02*
D03*
X838500D02*
D03*
X914700D02*
D03*
D62*
X451250Y316000D02*
D03*
X413750Y803500D02*
D03*
D63*
X958250Y557750D02*
D03*
Y432750D02*
D03*
X908250Y557750D02*
D03*
D64*
Y432750D02*
D03*
D65*
X798750Y359250D02*
D03*
Y404250D02*
D03*
X863750Y359250D02*
D03*
X796750Y199750D02*
D03*
Y244750D02*
D03*
X861750Y199750D02*
D03*
X798000Y279500D02*
D03*
Y324500D02*
D03*
X863000Y279500D02*
D03*
D66*
X863750Y404250D02*
D03*
X861750Y244750D02*
D03*
X863000Y324500D02*
D03*
D67*
X278500Y1052500D02*
D03*
X958500Y672500D02*
D03*
X737750Y212500D02*
D03*
X278500D02*
D03*
D68*
X616250Y929250D02*
D03*
X277750Y888000D02*
D03*
X588250Y647250D02*
D03*
X621250Y609250D02*
D03*
D89*
X640550Y930300D02*
D03*
Y944300D02*
D03*
D90*
X685700Y978650D02*
D03*
Y945950D02*
D03*
D91*
X597750Y929000D02*
D03*
X616750D02*
D03*
X607250Y907000D02*
D03*
X922000Y1053000D02*
D03*
X912500Y1031000D02*
D03*
X931500D02*
D03*
D92*
X716500Y861500D02*
D03*
Y848800D02*
D03*
Y836100D02*
D03*
Y823400D02*
D03*
Y810700D02*
D03*
Y798000D02*
D03*
Y785300D02*
D03*
Y772600D02*
D03*
Y759900D02*
D03*
Y747200D02*
D03*
Y734500D02*
D03*
Y721800D02*
D03*
Y709100D02*
D03*
Y696400D02*
D03*
X605500Y697000D02*
D03*
Y709700D02*
D03*
Y722400D02*
D03*
Y735100D02*
D03*
Y747800D02*
D03*
Y760500D02*
D03*
Y773200D02*
D03*
Y785900D02*
D03*
Y798600D02*
D03*
Y811300D02*
D03*
Y824000D02*
D03*
Y836700D02*
D03*
Y849400D02*
D03*
Y862100D02*
D03*
D93*
X622100Y1028180D02*
D03*
X634800D02*
D03*
X647500D02*
D03*
X660200D02*
D03*
X622100Y969180D02*
D03*
X634800D02*
D03*
X647500D02*
D03*
X660200D02*
D03*
D94*
X908000Y1093000D02*
D03*
X894000D02*
D03*
D95*
X711720Y617750D02*
D03*
X683780D02*
D03*
X697750D02*
D03*
D96*
X462870Y843490D02*
D03*
X481870D02*
D03*
X472370Y820990D02*
D03*
M02*
