G04*
G04 #@! TF.GenerationSoftware,Altium Limited,Altium Designer,21.0.9 (235)*
G04*
G04 Layer_Physical_Order=2*
G04 Layer_Color=16711680*
%FSLAX44Y44*%
%MOMM*%
G71*
G04*
G04 #@! TF.SameCoordinates,6F3E63EC-60D3-48B1-A7CC-AFFCCD692F60*
G04*
G04*
G04 #@! TF.FilePolarity,Positive*
G04*
G01*
G75*
%ADD10C,0.2500*%
%ADD11C,0.5000*%
%ADD14C,0.2540*%
%ADD17R,1.1500X0.6000*%
%ADD24R,0.8000X0.9000*%
%ADD25R,0.9000X0.8000*%
%ADD63C,2.0000*%
%ADD64R,2.0000X2.0000*%
%ADD65C,1.5500*%
%ADD66R,1.5500X1.5500*%
%ADD69C,0.1520*%
%ADD71R,1.5000X1.5000*%
%ADD72C,1.5000*%
%ADD73R,1.2002X1.2002*%
%ADD74C,1.2002*%
%ADD75R,1.5000X1.5000*%
%ADD76P,2.7577X4X360.0*%
%ADD77C,1.9500*%
%ADD78C,2.5500*%
%ADD79C,5.0000*%
%ADD80C,0.5000*%
%ADD81R,0.9000X0.8000*%
%ADD82R,1.2200X0.9100*%
%ADD83R,0.6000X1.6000*%
%ADD84O,2.2500X0.6000*%
%ADD85R,0.9000X2.5000*%
%ADD86R,0.8000X0.9000*%
%ADD87R,1.1684X1.6002*%
%ADD88R,0.6000X1.1500*%
G36*
X952000Y994500D02*
X925385D01*
Y999460D01*
X928540D01*
Y1013540D01*
X925885D01*
Y1019221D01*
X925960Y1020460D01*
X937040D01*
Y1041540D01*
X935385D01*
Y1070460D01*
X938790D01*
Y1083460D01*
Y1096540D01*
X924710D01*
Y1093885D01*
X914540D01*
Y1100040D01*
X911885D01*
Y1103750D01*
X952000D01*
Y994500D01*
D02*
G37*
G36*
X904115Y1100040D02*
X901460D01*
Y1085960D01*
X914540D01*
Y1086115D01*
X924710D01*
Y1080885D01*
X910500D01*
X909013Y1080589D01*
X908940Y1080540D01*
X900960D01*
Y1066460D01*
X914040D01*
Y1073115D01*
X924710D01*
Y1070460D01*
X927615D01*
Y1064779D01*
X927540Y1063540D01*
X916460D01*
Y1042460D01*
X918115D01*
Y1013540D01*
X902460D01*
Y999460D01*
X904386D01*
Y994500D01*
X807729D01*
X807243Y995673D01*
X838087Y1026517D01*
X838929Y1027777D01*
X839225Y1029264D01*
Y1048741D01*
X840584Y1049526D01*
X842174Y1051116D01*
X843299Y1053063D01*
X843881Y1055236D01*
Y1057484D01*
X843299Y1059657D01*
X842174Y1061604D01*
X840584Y1063194D01*
X838636Y1064319D01*
X836464Y1064901D01*
X834216D01*
X832043Y1064319D01*
X830096Y1063194D01*
X828506Y1061604D01*
X827381Y1059657D01*
X826799Y1057484D01*
Y1055236D01*
X827381Y1053063D01*
X828506Y1051116D01*
X830096Y1049526D01*
X831455Y1048741D01*
Y1030873D01*
X815074Y1014492D01*
X813804Y1015018D01*
Y1048729D01*
X815184Y1049526D01*
X816774Y1051116D01*
X817899Y1053063D01*
X818481Y1055236D01*
Y1057484D01*
X817899Y1059657D01*
X816774Y1061604D01*
X815184Y1063194D01*
X813236Y1064319D01*
X811064Y1064901D01*
X808816D01*
X806643Y1064319D01*
X804696Y1063194D01*
X803106Y1061604D01*
X801981Y1059657D01*
X801399Y1057484D01*
Y1055236D01*
X801981Y1053063D01*
X803106Y1051116D01*
X804696Y1049526D01*
X806076Y1048729D01*
Y1015041D01*
X785535Y994500D01*
X738114D01*
Y1049024D01*
X738984Y1049526D01*
X740574Y1051116D01*
X741699Y1053063D01*
X742281Y1055236D01*
Y1057484D01*
X741699Y1059657D01*
X740574Y1061604D01*
X738984Y1063194D01*
X737037Y1064319D01*
X734864Y1064901D01*
X732616D01*
X730443Y1064319D01*
X728496Y1063194D01*
X726906Y1061604D01*
X725781Y1059657D01*
X725199Y1057484D01*
Y1055236D01*
X725781Y1053063D01*
X726906Y1051116D01*
X728496Y1049526D01*
X730386Y1048435D01*
Y994500D01*
X696500D01*
Y915715D01*
X682378Y901593D01*
X681132Y901841D01*
X681023Y902105D01*
X679605Y903523D01*
X677753Y904290D01*
X676963D01*
X675790Y904498D01*
X675790Y905463D01*
Y906503D01*
X675023Y908355D01*
X673605Y909773D01*
X671752Y910540D01*
X669747D01*
X667895Y909773D01*
X667507Y909385D01*
X662790D01*
Y912040D01*
X636710D01*
Y908885D01*
X612790D01*
Y917540D01*
X611135D01*
Y944721D01*
X620554Y954140D01*
X643615D01*
Y950840D01*
X633510D01*
Y937760D01*
X647590D01*
Y942083D01*
X648987Y942361D01*
X649412Y942645D01*
X653510D01*
Y937260D01*
X667590D01*
Y942065D01*
X677060D01*
Y938860D01*
X694340D01*
Y953040D01*
X677060D01*
Y949835D01*
X667590D01*
Y950340D01*
X658195D01*
X657820Y950415D01*
X651385D01*
Y954140D01*
X654540D01*
Y984220D01*
X639435D01*
Y986915D01*
X656550D01*
X658037Y987211D01*
X659297Y988053D01*
X677337Y1006093D01*
X678510Y1005607D01*
Y991760D01*
X681665D01*
Y985740D01*
X677060D01*
Y971560D01*
X694340D01*
Y985740D01*
X689435D01*
Y991760D01*
X692590D01*
Y1004760D01*
Y1017840D01*
X678510D01*
Y1015185D01*
X677050D01*
X675563Y1014889D01*
X674303Y1014047D01*
X654941Y994685D01*
X610090D01*
Y999915D01*
X642050D01*
X643537Y1000211D01*
X644797Y1001053D01*
X650247Y1006503D01*
X651089Y1007763D01*
X651385Y1009250D01*
Y1013140D01*
X667240D01*
Y1022723D01*
X668510Y1023473D01*
X669747Y1022960D01*
X671752D01*
X673605Y1023727D01*
X675023Y1025145D01*
X675790Y1026998D01*
Y1029003D01*
X675023Y1030855D01*
X673605Y1032273D01*
X671752Y1033040D01*
X669747D01*
X668510Y1032527D01*
X667240Y1033277D01*
Y1043220D01*
X640460D01*
Y1013140D01*
X643615D01*
Y1010859D01*
X640441Y1007685D01*
X610090D01*
Y1010340D01*
X606935D01*
Y1018700D01*
X606639Y1020187D01*
X605797Y1021447D01*
X597747Y1029497D01*
X596487Y1030339D01*
X595000Y1030635D01*
X590000D01*
Y1103750D01*
X904115D01*
Y1100040D01*
D02*
G37*
G36*
X599165Y1017091D02*
Y1010340D01*
X596010D01*
Y997260D01*
Y984260D01*
X610090D01*
Y986915D01*
X630441D01*
X631665Y985691D01*
Y984220D01*
X615060D01*
Y959634D01*
X604503Y949077D01*
X603661Y947817D01*
X603365Y946330D01*
Y940779D01*
X603290Y939540D01*
X601635D01*
Y940872D01*
X601339Y942359D01*
X600497Y943619D01*
X593108Y951008D01*
Y951557D01*
X592341Y953409D01*
X590923Y954827D01*
X590000Y955209D01*
Y1022865D01*
X593391D01*
X599165Y1017091D01*
D02*
G37*
G36*
X592614Y940515D02*
X592210Y939540D01*
X592210D01*
Y918460D01*
X600865D01*
X601710Y917540D01*
Y897364D01*
X590000D01*
Y941469D01*
X591173Y941955D01*
X592614Y940515D01*
D02*
G37*
G36*
X292136Y879851D02*
X285963Y873678D01*
X284790Y874164D01*
Y887500D01*
X292136D01*
Y879851D01*
D02*
G37*
G36*
X534136Y858399D02*
Y838491D01*
X526315Y830670D01*
X515364D01*
Y833289D01*
X520665Y838590D01*
X531780D01*
Y849670D01*
X515200D01*
Y844055D01*
X510453Y839308D01*
X509280Y839794D01*
Y840170D01*
X505931D01*
X505405Y841440D01*
X511482Y847517D01*
X511482Y847518D01*
X512320Y848771D01*
X512614Y850250D01*
X512614Y850250D01*
Y855460D01*
X528790D01*
Y858636D01*
X533899D01*
X534136Y858399D01*
D02*
G37*
G36*
X531908Y818373D02*
X525575Y812040D01*
X515364D01*
Y819590D01*
X531329D01*
X531908Y818373D01*
D02*
G37*
G36*
X667348Y886230D02*
X667180Y885979D01*
X666886Y884500D01*
Y817101D01*
X627149Y777364D01*
X617490D01*
X615912Y778419D01*
X613750Y778848D01*
X597250D01*
X595088Y778419D01*
X593256Y777194D01*
X592032Y775362D01*
X591601Y773200D01*
X592032Y771038D01*
X593256Y769206D01*
X595088Y767981D01*
X597250Y767551D01*
X613750D01*
X615912Y767981D01*
X617744Y769206D01*
X618031Y769636D01*
X628750D01*
X630229Y769930D01*
X631482Y770768D01*
X673482Y812768D01*
X674320Y814021D01*
X674366Y814251D01*
X675636Y814126D01*
Y807101D01*
X632899Y764364D01*
X617831D01*
X617744Y764494D01*
X615912Y765719D01*
X613750Y766149D01*
X597250D01*
X595088Y765719D01*
X593256Y764494D01*
X592032Y762662D01*
X591601Y760500D01*
X592032Y758338D01*
X593256Y756506D01*
X595088Y755281D01*
X597250Y754852D01*
X613750D01*
X615912Y755281D01*
X617744Y756506D01*
X617831Y756636D01*
X634500D01*
X635979Y756930D01*
X637232Y757768D01*
X682232Y802768D01*
X683070Y804021D01*
X683364Y805500D01*
Y880352D01*
X683595Y880506D01*
X684865Y879827D01*
Y798109D01*
X638441Y751685D01*
X617817D01*
X617744Y751794D01*
X615912Y753019D01*
X613750Y753448D01*
X597250D01*
X595088Y753019D01*
X593256Y751794D01*
X592032Y749962D01*
X591601Y747800D01*
X592032Y745638D01*
X593256Y743806D01*
X595088Y742581D01*
X597250Y742151D01*
X613750D01*
X615912Y742581D01*
X617744Y743806D01*
X617817Y743915D01*
X640050D01*
X641537Y744211D01*
X642797Y745053D01*
X690866Y793122D01*
X692136Y792596D01*
Y763351D01*
X616149Y687364D01*
X581750D01*
X580271Y687070D01*
X579018Y686232D01*
X579017Y686232D01*
X572812Y680027D01*
X571639Y680513D01*
Y687924D01*
X576851Y693136D01*
X593169D01*
X593256Y693006D01*
X595088Y691781D01*
X597250Y691351D01*
X613750D01*
X615912Y691781D01*
X617744Y693006D01*
X618969Y694838D01*
X619398Y697000D01*
X618969Y699162D01*
X617744Y700994D01*
X615912Y702219D01*
X613750Y702648D01*
X597250D01*
X595088Y702219D01*
X593256Y700994D01*
X593169Y700864D01*
X575250D01*
X575250Y700864D01*
X573771Y700570D01*
X572909Y699994D01*
X571692Y700507D01*
X571639Y700556D01*
Y740250D01*
X571248Y742216D01*
X570134Y743884D01*
X529639Y784379D01*
Y797960D01*
X531040D01*
Y806575D01*
X540732Y816267D01*
X540732Y816267D01*
X541570Y817521D01*
X541864Y819000D01*
Y860000D01*
X541570Y861479D01*
X540732Y862732D01*
X538232Y865232D01*
X536979Y866070D01*
X535500Y866364D01*
X528790D01*
Y869540D01*
X513114D01*
Y882212D01*
X513998Y883533D01*
X514308Y885093D01*
X516715Y887500D01*
X666669D01*
X667348Y886230D01*
D02*
G37*
G36*
X998250D02*
Y172500D01*
X239500D01*
X238500Y173500D01*
X238500Y887500D01*
X270710D01*
Y874460D01*
Y861460D01*
X284790D01*
Y864136D01*
X285750D01*
X287229Y864430D01*
X288482Y865268D01*
X298732Y875518D01*
X298732Y875518D01*
X299570Y876771D01*
X299864Y878250D01*
Y887500D01*
X502035Y887500D01*
X504130Y885405D01*
X504502Y883533D01*
X505386Y882212D01*
Y869540D01*
X502710D01*
Y855460D01*
X504886D01*
Y851851D01*
X498258Y845222D01*
X497420Y843969D01*
X497126Y842490D01*
Y840170D01*
X492700D01*
Y829090D01*
X507636D01*
Y812040D01*
X504960D01*
Y810139D01*
X487738D01*
X477910Y819967D01*
Y829280D01*
X467505D01*
X466830Y829280D01*
X466235Y830303D01*
Y835200D01*
X468410D01*
Y851780D01*
X468009D01*
Y854960D01*
X471790D01*
Y869040D01*
X458710D01*
Y861966D01*
X458122Y861087D01*
X457731Y859120D01*
Y851780D01*
X457330D01*
Y835200D01*
X459505D01*
Y806380D01*
X459505Y806380D01*
X459762Y805092D01*
X460491Y804001D01*
X473460Y791032D01*
Y789747D01*
X474227Y787895D01*
X475645Y786477D01*
X477497Y785710D01*
X479502D01*
X481355Y786477D01*
X482773Y787895D01*
X483540Y789747D01*
Y791752D01*
X482773Y793605D01*
X481355Y795023D01*
X479502Y795790D01*
X478218D01*
X466235Y807774D01*
Y811677D01*
X466830Y812700D01*
X467505Y812700D01*
X470643D01*
X481976Y801366D01*
X483643Y800252D01*
X485610Y799861D01*
X504960D01*
Y797960D01*
X519361D01*
Y782250D01*
X519753Y780284D01*
X520866Y778616D01*
X561361Y738121D01*
Y688250D01*
Y668250D01*
Y405118D01*
X561210Y404753D01*
Y404246D01*
X561111Y403750D01*
X561210Y403254D01*
Y402747D01*
X561404Y402280D01*
X561502Y401783D01*
X561784Y401363D01*
X561977Y400895D01*
X562335Y400537D01*
X562616Y400116D01*
X563037Y399835D01*
X563395Y399477D01*
X563863Y399284D01*
X564283Y399002D01*
X564780Y398904D01*
X565247Y398710D01*
X565754D01*
X566250Y398611D01*
X566746Y398710D01*
X567253D01*
X567720Y398904D01*
X568217Y399002D01*
X568637Y399284D01*
X569105Y399477D01*
X569463Y399835D01*
X569884Y400116D01*
X570134Y400366D01*
X570415Y400787D01*
X570523Y400895D01*
X570581Y401036D01*
X571248Y402034D01*
X571639Y404000D01*
Y667924D01*
X583351Y679636D01*
X617750D01*
X619229Y679930D01*
X620482Y680768D01*
X698732Y759018D01*
X699570Y760271D01*
X699864Y761750D01*
Y817649D01*
X701751Y819536D01*
X704169D01*
X704256Y819406D01*
X706088Y818181D01*
X708250Y817751D01*
X724750D01*
X726912Y818181D01*
X728744Y819406D01*
X729968Y821238D01*
X730398Y823400D01*
X729968Y825562D01*
X728744Y827394D01*
X726912Y828619D01*
X724750Y829048D01*
X708250D01*
X706088Y828619D01*
X704256Y827394D01*
X704169Y827264D01*
X700150D01*
X700150Y827264D01*
X698671Y826970D01*
X697418Y826132D01*
X697418Y826132D01*
X693905Y822619D01*
X692635Y823146D01*
Y875578D01*
X693905Y876413D01*
X694997Y875960D01*
X697002D01*
X698855Y876727D01*
X700273Y878145D01*
X701040Y879997D01*
Y880546D01*
X703940Y883446D01*
X705210Y882920D01*
Y881497D01*
X705977Y879645D01*
X707395Y878227D01*
X709248Y877460D01*
X711253D01*
X713105Y878227D01*
X713493Y878615D01*
X718014D01*
X718720Y877559D01*
X718568Y877193D01*
Y875188D01*
X719335Y873335D01*
X720753Y871917D01*
X722605Y871150D01*
X724610D01*
X726463Y871917D01*
X726851Y872305D01*
X785971D01*
X800536Y857741D01*
X800129Y856224D01*
Y853976D01*
X800711Y851803D01*
X801836Y849856D01*
X803426Y848266D01*
X805373Y847141D01*
X807546Y846559D01*
X809794D01*
X811966Y847141D01*
X813914Y848266D01*
X815504Y849856D01*
X816629Y851803D01*
X817211Y853976D01*
Y856224D01*
X816629Y858397D01*
X815504Y860344D01*
X813914Y861934D01*
X811966Y863059D01*
X809794Y863641D01*
X807546D01*
X806029Y863234D01*
X791822Y877442D01*
X792308Y878615D01*
X864891D01*
X880107Y863399D01*
X880019Y862161D01*
X879626Y861934D01*
X878036Y860344D01*
X876911Y858397D01*
X876329Y856224D01*
Y853976D01*
X876911Y851803D01*
X878036Y849856D01*
X879626Y848266D01*
X881573Y847141D01*
X883746Y846559D01*
X885994D01*
X888167Y847141D01*
X890114Y848266D01*
X891704Y849856D01*
X892829Y851803D01*
X893411Y853976D01*
Y856224D01*
X892829Y858397D01*
X891704Y860344D01*
X890114Y861934D01*
X888167Y863059D01*
X887885Y863134D01*
Y865000D01*
X887589Y866487D01*
X886747Y867747D01*
X870552Y883942D01*
X871038Y885115D01*
X888391D01*
X905115Y868391D01*
Y861986D01*
X905026Y861934D01*
X903436Y860344D01*
X902311Y858397D01*
X901729Y856224D01*
Y853976D01*
X902311Y851803D01*
X903436Y849856D01*
X905026Y848266D01*
X906973Y847141D01*
X909146Y846559D01*
X911394D01*
X913567Y847141D01*
X915514Y848266D01*
X917104Y849856D01*
X918229Y851803D01*
X918811Y853976D01*
Y856224D01*
X918229Y858397D01*
X917104Y860344D01*
X915514Y861934D01*
X913567Y863059D01*
X912885Y863241D01*
Y870000D01*
X912589Y871487D01*
X911747Y872747D01*
X898167Y886327D01*
X898653Y887500D01*
X947865D01*
Y739359D01*
X923891Y715385D01*
X811250D01*
X809763Y715089D01*
X808503Y714247D01*
X777503Y683247D01*
X776661Y681987D01*
X776365Y680500D01*
Y607551D01*
X773355Y604540D01*
X772806D01*
X770953Y603773D01*
X769536Y602355D01*
X768768Y600503D01*
Y598498D01*
X769536Y596645D01*
X770953Y595227D01*
X772806Y594460D01*
X774811D01*
X776663Y595227D01*
X778081Y596645D01*
X778848Y598498D01*
Y599046D01*
X782997Y603195D01*
X783839Y604455D01*
X784135Y605942D01*
Y678891D01*
X812859Y707615D01*
X925500D01*
X926987Y707911D01*
X928247Y708753D01*
X954497Y735003D01*
X955339Y736263D01*
X955635Y737750D01*
Y887500D01*
X997084D01*
X998250Y886230D01*
D02*
G37*
%LPC*%
G36*
X893250Y1097635D02*
X891763Y1097339D01*
X890503Y1096497D01*
X889661Y1095237D01*
X889365Y1093750D01*
X889661Y1092263D01*
X890503Y1091003D01*
X891253Y1090253D01*
X891253Y1090253D01*
X892513Y1089411D01*
X894000Y1089115D01*
X895487Y1089411D01*
X896747Y1090253D01*
X897589Y1091513D01*
X897885Y1093000D01*
X897589Y1094487D01*
X896747Y1095747D01*
X895997Y1096497D01*
X894737Y1097339D01*
X893250Y1097635D01*
D02*
G37*
G36*
X861864Y1064901D02*
X859616D01*
X857443Y1064319D01*
X855496Y1063194D01*
X853906Y1061604D01*
X852781Y1059657D01*
X852199Y1057484D01*
Y1055236D01*
X852781Y1053063D01*
X853906Y1051116D01*
X855496Y1049526D01*
X857443Y1048401D01*
X859616Y1047819D01*
X861864D01*
X864036Y1048401D01*
X865984Y1049526D01*
X867574Y1051116D01*
X868699Y1053063D01*
X869281Y1055236D01*
Y1057484D01*
X868699Y1059657D01*
X867574Y1061604D01*
X865984Y1063194D01*
X864036Y1064319D01*
X861864Y1064901D01*
D02*
G37*
G36*
X785664D02*
X783416D01*
X781243Y1064319D01*
X779296Y1063194D01*
X777706Y1061604D01*
X776581Y1059657D01*
X775999Y1057484D01*
Y1055236D01*
X776581Y1053063D01*
X777706Y1051116D01*
X779296Y1049526D01*
X781243Y1048401D01*
X783416Y1047819D01*
X785664D01*
X787837Y1048401D01*
X789784Y1049526D01*
X791374Y1051116D01*
X792499Y1053063D01*
X793081Y1055236D01*
Y1057484D01*
X792499Y1059657D01*
X791374Y1061604D01*
X789784Y1063194D01*
X787837Y1064319D01*
X785664Y1064901D01*
D02*
G37*
G36*
X760264D02*
X758016D01*
X755843Y1064319D01*
X753896Y1063194D01*
X752306Y1061604D01*
X751181Y1059657D01*
X750599Y1057484D01*
Y1055236D01*
X751181Y1053063D01*
X752306Y1051116D01*
X753896Y1049526D01*
X755843Y1048401D01*
X758016Y1047819D01*
X760264D01*
X762437Y1048401D01*
X764384Y1049526D01*
X765974Y1051116D01*
X767099Y1053063D01*
X767681Y1055236D01*
Y1057484D01*
X767099Y1059657D01*
X765974Y1061604D01*
X764384Y1063194D01*
X762437Y1064319D01*
X760264Y1064901D01*
D02*
G37*
G36*
X629140Y1043220D02*
X615060D01*
Y1013140D01*
X629140D01*
Y1043220D01*
D02*
G37*
G36*
X616250Y932615D02*
X614962Y932358D01*
X613871Y931629D01*
X613142Y930538D01*
X612885Y929250D01*
X613142Y927962D01*
X613871Y926871D01*
X614121Y926621D01*
X615212Y925891D01*
X616500Y925635D01*
X616750D01*
X618037Y925891D01*
X619129Y926621D01*
X619859Y927712D01*
X620115Y929000D01*
X619859Y930288D01*
X619129Y931379D01*
X618037Y932109D01*
X617858Y932144D01*
X617538Y932358D01*
X616250Y932615D01*
D02*
G37*
G36*
X660003Y875790D02*
X657998D01*
X656145Y875023D01*
X655080Y873957D01*
X654540Y873650D01*
X653476Y873902D01*
X652605Y874773D01*
X650752Y875540D01*
X648747D01*
X646895Y874773D01*
X645477Y873355D01*
X645340Y873022D01*
X643860Y872768D01*
X642980Y873648D01*
X641127Y874415D01*
X639123D01*
X637270Y873648D01*
X635852Y872230D01*
X635085Y870378D01*
Y868372D01*
X635852Y866520D01*
X635865Y866507D01*
Y831109D01*
X619941Y815185D01*
X617817D01*
X617744Y815294D01*
X615912Y816519D01*
X613750Y816948D01*
X597250D01*
X595088Y816519D01*
X593256Y815294D01*
X592032Y813462D01*
X591601Y811300D01*
X592032Y809138D01*
X593256Y807306D01*
X595088Y806081D01*
X597250Y805651D01*
X613750D01*
X615912Y806081D01*
X617744Y807306D01*
X617817Y807415D01*
X621550D01*
X623037Y807711D01*
X624297Y808553D01*
X642497Y826753D01*
X643339Y828013D01*
X643635Y829500D01*
Y865757D01*
X644398Y866520D01*
X645702Y866350D01*
X645865Y866266D01*
Y825609D01*
X622741Y802485D01*
X617817D01*
X617744Y802594D01*
X615912Y803819D01*
X613750Y804249D01*
X597250D01*
X595088Y803819D01*
X593256Y802594D01*
X592032Y800762D01*
X591601Y798600D01*
X592032Y796438D01*
X593256Y794606D01*
X595088Y793381D01*
X597250Y792952D01*
X613750D01*
X615912Y793381D01*
X617744Y794606D01*
X617817Y794715D01*
X624350D01*
X625837Y795011D01*
X627097Y795853D01*
X652497Y821253D01*
X653339Y822513D01*
X653635Y824000D01*
Y866244D01*
X653845Y866457D01*
X655096Y865941D01*
X655115Y865913D01*
Y819859D01*
X625041Y789785D01*
X617817D01*
X617744Y789894D01*
X615912Y791119D01*
X613750Y791548D01*
X597250D01*
X595088Y791119D01*
X593256Y789894D01*
X592032Y788062D01*
X591601Y785900D01*
X592032Y783738D01*
X593256Y781906D01*
X595088Y780681D01*
X597250Y780251D01*
X613750D01*
X615912Y780681D01*
X617744Y781906D01*
X617817Y782015D01*
X626650D01*
X628137Y782311D01*
X629397Y783153D01*
X661747Y815503D01*
X662589Y816763D01*
X662885Y818250D01*
Y867507D01*
X663273Y867895D01*
X664040Y869747D01*
Y871752D01*
X663273Y873605D01*
X661855Y875023D01*
X660003Y875790D01*
D02*
G37*
G36*
X625966Y867897D02*
X623961D01*
X622109Y867130D01*
X620822Y865843D01*
X617912D01*
X617744Y866094D01*
X615912Y867319D01*
X613750Y867748D01*
X597250D01*
X595088Y867319D01*
X593256Y866094D01*
X592032Y864262D01*
X591601Y862100D01*
X592032Y859938D01*
X593256Y858106D01*
X595088Y856881D01*
X597250Y856451D01*
X613750D01*
X615912Y856881D01*
X617744Y858106D01*
X618418Y859114D01*
X621579D01*
X622109Y858584D01*
X623961Y857817D01*
X625966D01*
X627818Y858584D01*
X629236Y860002D01*
X630004Y861854D01*
Y863859D01*
X629236Y865712D01*
X627818Y867130D01*
X625966Y867897D01*
D02*
G37*
G36*
X613750Y855049D02*
X597250D01*
X595088Y854619D01*
X593256Y853394D01*
X592032Y851562D01*
X591601Y849400D01*
X592032Y847238D01*
X593256Y845406D01*
X595088Y844181D01*
X597250Y843752D01*
X613750D01*
X615912Y844181D01*
X617744Y845406D01*
X618198Y846085D01*
X621787D01*
X622645Y845227D01*
X624497Y844460D01*
X626502D01*
X628355Y845227D01*
X629773Y846645D01*
X630540Y848497D01*
Y850502D01*
X629773Y852355D01*
X628355Y853773D01*
X626502Y854540D01*
X624497D01*
X622645Y853773D01*
X621687Y852815D01*
X618131D01*
X617744Y853394D01*
X615912Y854619D01*
X613750Y855049D01*
D02*
G37*
G36*
Y842348D02*
X597250D01*
X595088Y841919D01*
X593256Y840694D01*
X592032Y838862D01*
X591601Y836700D01*
X592032Y834538D01*
X593256Y832706D01*
X595088Y831481D01*
X597250Y831051D01*
X613750D01*
X615912Y831481D01*
X617744Y832706D01*
X617817Y832815D01*
X619307D01*
X619645Y832477D01*
X621497Y831710D01*
X623503D01*
X625355Y832477D01*
X626773Y833895D01*
X627540Y835748D01*
Y837753D01*
X626773Y839605D01*
X625355Y841023D01*
X623503Y841790D01*
X621497D01*
X619645Y841023D01*
X619207Y840585D01*
X617817D01*
X617744Y840694D01*
X615912Y841919D01*
X613750Y842348D01*
D02*
G37*
G36*
Y728048D02*
X597250D01*
X595088Y727619D01*
X593256Y726394D01*
X592032Y724562D01*
X591601Y722400D01*
X592032Y720238D01*
X593256Y718406D01*
X595088Y717181D01*
X597250Y716751D01*
X613750D01*
X615912Y717181D01*
X617744Y718406D01*
X618969Y720238D01*
X619398Y722400D01*
X618969Y724562D01*
X617744Y726394D01*
X615912Y727619D01*
X613750Y728048D01*
D02*
G37*
G36*
Y715349D02*
X597250D01*
X595088Y714919D01*
X593256Y713694D01*
X592032Y711862D01*
X591601Y709700D01*
X592032Y707538D01*
X593256Y705706D01*
X595088Y704481D01*
X597250Y704052D01*
X613750D01*
X615912Y704481D01*
X617744Y705706D01*
X618969Y707538D01*
X619398Y709700D01*
X618969Y711862D01*
X617744Y713694D01*
X615912Y714919D01*
X613750Y715349D01*
D02*
G37*
G36*
X724750Y867149D02*
X708250D01*
X706088Y866719D01*
X704256Y865494D01*
X703031Y863662D01*
X702601Y861500D01*
X703031Y859338D01*
X704256Y857506D01*
X706088Y856281D01*
X708250Y855852D01*
X724750D01*
X726912Y856281D01*
X728744Y857506D01*
X729968Y859338D01*
X730398Y861500D01*
X729968Y863662D01*
X728744Y865494D01*
X726912Y866719D01*
X724750Y867149D01*
D02*
G37*
G36*
X860594Y863641D02*
X858346D01*
X856173Y863059D01*
X854226Y861934D01*
X852636Y860344D01*
X851511Y858397D01*
X850929Y856224D01*
Y853976D01*
X851511Y851803D01*
X852636Y849856D01*
X854226Y848266D01*
X856173Y847141D01*
X858346Y846559D01*
X860594D01*
X862766Y847141D01*
X864714Y848266D01*
X866304Y849856D01*
X867429Y851803D01*
X868011Y853976D01*
Y856224D01*
X867429Y858397D01*
X866304Y860344D01*
X864714Y861934D01*
X862766Y863059D01*
X860594Y863641D01*
D02*
G37*
G36*
X724750Y854448D02*
X708250D01*
X706088Y854019D01*
X704256Y852794D01*
X703031Y850962D01*
X702601Y848800D01*
X703031Y846638D01*
X704256Y844806D01*
X706088Y843581D01*
X708250Y843151D01*
X724750D01*
X726912Y843581D01*
X728744Y844806D01*
X729968Y846638D01*
X730398Y848800D01*
X729968Y850962D01*
X728744Y852794D01*
X726912Y854019D01*
X724750Y854448D01*
D02*
G37*
G36*
Y841749D02*
X708250D01*
X706088Y841319D01*
X704256Y840094D01*
X703031Y838262D01*
X702601Y836100D01*
X703031Y833938D01*
X704256Y832106D01*
X706088Y830881D01*
X708250Y830452D01*
X724750D01*
X726912Y830881D01*
X728744Y832106D01*
X729968Y833938D01*
X730398Y836100D01*
X729968Y838262D01*
X728744Y840094D01*
X726912Y841319D01*
X724750Y841749D01*
D02*
G37*
G36*
X835194Y863641D02*
X832946D01*
X830773Y863059D01*
X828826Y861934D01*
X827236Y860344D01*
X826111Y858397D01*
X825529Y856224D01*
Y853976D01*
X826111Y851803D01*
X827236Y849856D01*
X828826Y848266D01*
X830185Y847481D01*
Y823429D01*
X821341Y814585D01*
X728817D01*
X728744Y814694D01*
X726912Y815919D01*
X724750Y816348D01*
X708250D01*
X706088Y815919D01*
X704256Y814694D01*
X703031Y812862D01*
X702601Y810700D01*
X703031Y808538D01*
X704256Y806706D01*
X706088Y805481D01*
X708250Y805051D01*
X724750D01*
X726912Y805481D01*
X728744Y806706D01*
X728817Y806815D01*
X822950D01*
X824437Y807111D01*
X825697Y807953D01*
X836817Y819073D01*
X837659Y820333D01*
X837955Y821820D01*
Y847481D01*
X839314Y848266D01*
X840904Y849856D01*
X842029Y851803D01*
X842611Y853976D01*
Y856224D01*
X842029Y858397D01*
X840904Y860344D01*
X839314Y861934D01*
X837366Y863059D01*
X835194Y863641D01*
D02*
G37*
G36*
X936794D02*
X934546D01*
X932373Y863059D01*
X930426Y861934D01*
X928836Y860344D01*
X927711Y858397D01*
X927129Y856224D01*
Y853976D01*
X927711Y851803D01*
X928836Y849856D01*
X930426Y848266D01*
X931136Y847856D01*
Y816601D01*
X916399Y801864D01*
X728831D01*
X728744Y801994D01*
X726912Y803219D01*
X724750Y803649D01*
X708250D01*
X706088Y803219D01*
X704256Y801994D01*
X703031Y800162D01*
X702601Y798000D01*
X703031Y795838D01*
X704256Y794006D01*
X706088Y792781D01*
X708250Y792352D01*
X724750D01*
X726912Y792781D01*
X728744Y794006D01*
X728831Y794136D01*
X918000D01*
X919479Y794430D01*
X920732Y795268D01*
X937732Y812268D01*
X938570Y813521D01*
X938864Y815000D01*
X938864Y815000D01*
Y847114D01*
X938967Y847141D01*
X940914Y848266D01*
X942504Y849856D01*
X943629Y851803D01*
X944211Y853976D01*
Y856224D01*
X943629Y858397D01*
X942504Y860344D01*
X940914Y861934D01*
X938967Y863059D01*
X936794Y863641D01*
D02*
G37*
G36*
X415328Y815490D02*
X412171D01*
X409122Y814673D01*
X406388Y813094D01*
X404156Y810862D01*
X402577Y808128D01*
X401760Y805079D01*
Y801921D01*
X402577Y798872D01*
X404156Y796138D01*
X406388Y793906D01*
X409122Y792327D01*
X412171Y791510D01*
X415328D01*
X418378Y792327D01*
X421112Y793906D01*
X423344Y796138D01*
X424923Y798872D01*
X425740Y801921D01*
Y805079D01*
X424923Y808128D01*
X423344Y810862D01*
X421112Y813094D01*
X418378Y814673D01*
X415328Y815490D01*
D02*
G37*
G36*
X724750Y765548D02*
X708250D01*
X706088Y765119D01*
X704256Y763894D01*
X703031Y762062D01*
X702601Y759900D01*
X703031Y757738D01*
X704256Y755906D01*
X706088Y754681D01*
X708250Y754251D01*
X724750D01*
X726912Y754681D01*
X728744Y755906D01*
X728831Y756036D01*
X763018D01*
X766699Y752355D01*
X766173Y751085D01*
X728817D01*
X728744Y751194D01*
X726912Y752419D01*
X724750Y752849D01*
X708250D01*
X706088Y752419D01*
X704256Y751194D01*
X703031Y749362D01*
X702601Y747200D01*
X703031Y745038D01*
X704256Y743206D01*
X706088Y741981D01*
X708250Y741552D01*
X724750D01*
X726912Y741981D01*
X728744Y743206D01*
X728817Y743315D01*
X766757D01*
X770320Y739753D01*
X770467Y739655D01*
X770082Y738385D01*
X728817D01*
X728744Y738494D01*
X726912Y739719D01*
X724750Y740148D01*
X708250D01*
X706088Y739719D01*
X704256Y738494D01*
X703031Y736662D01*
X702601Y734500D01*
X703031Y732338D01*
X704256Y730506D01*
X706088Y729281D01*
X708250Y728851D01*
X724750D01*
X726912Y729281D01*
X728744Y730506D01*
X728817Y730615D01*
X771627D01*
X772290Y729952D01*
X774143Y729185D01*
X776148D01*
X778000Y729952D01*
X779418Y731370D01*
X780185Y733222D01*
Y735227D01*
X779418Y737080D01*
X779152Y737345D01*
X779678Y738615D01*
X812507D01*
X812895Y738227D01*
X814747Y737460D01*
X816752D01*
X818605Y738227D01*
X820023Y739645D01*
X820790Y741497D01*
Y743503D01*
X820023Y745355D01*
X818605Y746773D01*
X817211Y747350D01*
Y762641D01*
X800129D01*
Y757964D01*
X772019D01*
X767351Y762632D01*
X766097Y763470D01*
X764618Y763764D01*
X728831D01*
X728744Y763894D01*
X726912Y765119D01*
X724750Y765548D01*
D02*
G37*
G36*
X936794Y762641D02*
X934546D01*
X932373Y762059D01*
X930426Y760934D01*
X928836Y759344D01*
X927711Y757397D01*
X927129Y755224D01*
Y752976D01*
X927711Y750803D01*
X928836Y748856D01*
X930426Y747266D01*
X932373Y746141D01*
X934546Y745559D01*
X936794D01*
X938967Y746141D01*
X940914Y747266D01*
X942504Y748856D01*
X943629Y750803D01*
X944211Y752976D01*
Y755224D01*
X943629Y757397D01*
X942504Y759344D01*
X940914Y760934D01*
X938967Y762059D01*
X936794Y762641D01*
D02*
G37*
G36*
X724750Y790948D02*
X708250D01*
X706088Y790519D01*
X704256Y789294D01*
X703031Y787462D01*
X702601Y785300D01*
X703031Y783138D01*
X704256Y781306D01*
X706088Y780081D01*
X708250Y779651D01*
X724750D01*
X726912Y780081D01*
X728744Y781306D01*
X728817Y781415D01*
X852061D01*
X876736Y756741D01*
X876329Y755224D01*
Y752976D01*
X876911Y750803D01*
X878036Y748856D01*
X879626Y747266D01*
X881573Y746141D01*
X883746Y745559D01*
X885994D01*
X888167Y746141D01*
X890114Y747266D01*
X891704Y748856D01*
X892058Y749470D01*
X893398Y749250D01*
X893477Y748855D01*
X892710Y747002D01*
Y744997D01*
X893477Y743145D01*
X894895Y741727D01*
X896748Y740960D01*
X898753D01*
X900605Y741727D01*
X902023Y743145D01*
X902790Y744997D01*
Y747002D01*
X902157Y748530D01*
X903299Y749093D01*
X903436Y748856D01*
X905026Y747266D01*
X906973Y746141D01*
X909146Y745559D01*
X911394D01*
X913567Y746141D01*
X915514Y747266D01*
X917104Y748856D01*
X918229Y750803D01*
X918811Y752976D01*
Y755224D01*
X918229Y757397D01*
X917104Y759344D01*
X915514Y760934D01*
X913567Y762059D01*
X911394Y762641D01*
X909146D01*
X906973Y762059D01*
X905026Y760934D01*
X903436Y759344D01*
X902905Y758424D01*
X901635Y758765D01*
Y777665D01*
X902290Y779248D01*
Y781253D01*
X901523Y783105D01*
X900105Y784523D01*
X898252Y785290D01*
X896247D01*
X894395Y784523D01*
X892977Y783105D01*
X892210Y781253D01*
Y779248D01*
X892977Y777395D01*
X893865Y776507D01*
Y758141D01*
X892595Y757801D01*
X891704Y759344D01*
X890114Y760934D01*
X888167Y762059D01*
X885994Y762641D01*
X883746D01*
X882229Y762234D01*
X856417Y788047D01*
X855156Y788889D01*
X853670Y789185D01*
X728817D01*
X728744Y789294D01*
X726912Y790519D01*
X724750Y790948D01*
D02*
G37*
G36*
Y778249D02*
X708250D01*
X706088Y777819D01*
X704256Y776594D01*
X703031Y774762D01*
X702601Y772600D01*
X703031Y770438D01*
X704256Y768606D01*
X706088Y767381D01*
X708250Y766952D01*
X724750D01*
X726912Y767381D01*
X728744Y768606D01*
X728831Y768736D01*
X813969D01*
X825942Y756764D01*
X825529Y755224D01*
Y752976D01*
X826111Y750803D01*
X827236Y748856D01*
X828826Y747266D01*
X830773Y746141D01*
X832946Y745559D01*
X835194D01*
X837366Y746141D01*
X839314Y747266D01*
X840904Y748856D01*
X842029Y750803D01*
X842611Y752976D01*
Y755224D01*
X842029Y757397D01*
X840904Y759344D01*
X839314Y760934D01*
X837366Y762059D01*
X835194Y762641D01*
X832946D01*
X831406Y762228D01*
X818302Y775332D01*
X817049Y776170D01*
X815570Y776464D01*
X728831D01*
X728744Y776594D01*
X726912Y777819D01*
X724750Y778249D01*
D02*
G37*
G36*
X860594Y762641D02*
X858346D01*
X856173Y762059D01*
X854226Y760934D01*
X852636Y759344D01*
X851511Y757397D01*
X850929Y755224D01*
Y752976D01*
X851511Y750803D01*
X852636Y748856D01*
X854115Y747376D01*
Y741359D01*
X838441Y725685D01*
X728817D01*
X728744Y725794D01*
X726912Y727019D01*
X724750Y727449D01*
X708250D01*
X706088Y727019D01*
X704256Y725794D01*
X703031Y723962D01*
X702601Y721800D01*
X703031Y719638D01*
X704256Y717806D01*
X706088Y716581D01*
X708250Y716152D01*
X724750D01*
X726912Y716581D01*
X728744Y717806D01*
X728817Y717915D01*
X840050D01*
X841537Y718211D01*
X842797Y719053D01*
X860747Y737003D01*
X861589Y738263D01*
X861885Y739750D01*
Y745905D01*
X862766Y746141D01*
X864714Y747266D01*
X866304Y748856D01*
X867429Y750803D01*
X868011Y752976D01*
Y755224D01*
X867429Y757397D01*
X866304Y759344D01*
X864714Y760934D01*
X862766Y762059D01*
X860594Y762641D01*
D02*
G37*
G36*
X724750Y714749D02*
X708250D01*
X706088Y714319D01*
X704256Y713094D01*
X703031Y711262D01*
X702601Y709100D01*
X703031Y706938D01*
X704256Y705106D01*
X706088Y703881D01*
X708250Y703452D01*
X724750D01*
X726912Y703881D01*
X728744Y705106D01*
X729968Y706938D01*
X730398Y709100D01*
X729968Y711262D01*
X728744Y713094D01*
X726912Y714319D01*
X724750Y714749D01*
D02*
G37*
G36*
X690502Y707540D02*
X688497D01*
X686645Y706773D01*
X685227Y705355D01*
X684460Y703503D01*
Y701497D01*
X685227Y699645D01*
X686645Y698227D01*
X688497Y697460D01*
X689782D01*
X696635Y690607D01*
Y687263D01*
X695727Y686355D01*
X694960Y684502D01*
Y682497D01*
X695727Y680645D01*
X697145Y679227D01*
X698997Y678460D01*
X701003D01*
X702855Y679227D01*
X704273Y680645D01*
X705040Y682497D01*
Y684502D01*
X704273Y686355D01*
X703365Y687263D01*
Y691590D01*
X703454Y691672D01*
X704433Y692155D01*
X704596Y692178D01*
X706088Y691181D01*
X708250Y690751D01*
X724750D01*
X726912Y691181D01*
X728744Y692406D01*
X729968Y694238D01*
X730398Y696400D01*
X729968Y698562D01*
X728744Y700394D01*
X726912Y701619D01*
X724750Y702048D01*
X708250D01*
X706088Y701619D01*
X704256Y700394D01*
X703031Y698562D01*
X702601Y696400D01*
X702712Y695842D01*
X701542Y695217D01*
X694540Y702219D01*
Y703503D01*
X693773Y705355D01*
X692355Y706773D01*
X690502Y707540D01*
D02*
G37*
G36*
X960667Y700040D02*
X956332D01*
X952051Y699362D01*
X947928Y698022D01*
X944066Y696054D01*
X940559Y693506D01*
X937494Y690441D01*
X934946Y686934D01*
X932978Y683072D01*
X931638Y678949D01*
X930960Y674668D01*
Y670332D01*
X931638Y666051D01*
X932978Y661928D01*
X934946Y658066D01*
X937494Y654559D01*
X940559Y651494D01*
X944066Y648946D01*
X947928Y646978D01*
X952051Y645638D01*
X956332Y644960D01*
X960667D01*
X964949Y645638D01*
X969072Y646978D01*
X972934Y648946D01*
X976441Y651494D01*
X979506Y654559D01*
X982054Y658066D01*
X984022Y661928D01*
X985362Y666051D01*
X986040Y670332D01*
Y674668D01*
X985362Y678949D01*
X984022Y683072D01*
X982054Y686934D01*
X979506Y690441D01*
X976441Y693506D01*
X972934Y696054D01*
X969072Y698022D01*
X964949Y699362D01*
X960667Y700040D01*
D02*
G37*
G36*
X589253Y652290D02*
X587248D01*
X585395Y651523D01*
X583977Y650105D01*
X583210Y648252D01*
Y646247D01*
X583977Y644395D01*
X585395Y642977D01*
X587248Y642210D01*
X589253D01*
X591105Y642977D01*
X591513Y643385D01*
X595106D01*
X617885Y620606D01*
Y613013D01*
X616977Y612105D01*
X616210Y610252D01*
Y608247D01*
X616977Y606395D01*
X618395Y604977D01*
X620247Y604210D01*
X622253D01*
X624105Y604977D01*
X625523Y606395D01*
X626290Y608247D01*
Y610252D01*
X625523Y612105D01*
X624615Y613013D01*
Y622000D01*
X624358Y623288D01*
X623629Y624379D01*
X623629Y624379D01*
X598879Y649129D01*
X597788Y649858D01*
X596500Y650115D01*
X596500Y650115D01*
X592513D01*
X591105Y651523D01*
X589253Y652290D01*
D02*
G37*
G36*
X786503Y595540D02*
X784498D01*
X782645Y594773D01*
X781227Y593355D01*
X780460Y591502D01*
Y589634D01*
X780025Y589160D01*
X779420Y588690D01*
X778877Y588915D01*
X776872D01*
X775020Y588148D01*
X773602Y586730D01*
X772835Y584878D01*
Y582873D01*
X773602Y581020D01*
X775020Y579602D01*
X776872Y578835D01*
X778877D01*
X780730Y579602D01*
X781638Y580510D01*
X824231D01*
X827385Y577356D01*
Y568535D01*
X826174Y568144D01*
X826115Y568143D01*
X819629Y574629D01*
X818538Y575359D01*
X817250Y575615D01*
X817250Y575615D01*
X783263D01*
X782355Y576523D01*
X780502Y577290D01*
X778497D01*
X776645Y576523D01*
X775227Y575105D01*
X774460Y573252D01*
Y571247D01*
X775227Y569395D01*
X776645Y567977D01*
X778497Y567210D01*
X780502D01*
X782355Y567977D01*
X783263Y568885D01*
X815856D01*
X820385Y564356D01*
Y282500D01*
X820385Y282500D01*
X820641Y281212D01*
X821371Y280121D01*
X823460Y278032D01*
Y276747D01*
X824227Y274895D01*
X825645Y273477D01*
X827497Y272710D01*
X829502D01*
X831355Y273477D01*
X832773Y274895D01*
X833540Y276747D01*
Y278752D01*
X832773Y280605D01*
X831355Y282023D01*
X829502Y282790D01*
X828218D01*
X827115Y283894D01*
Y308965D01*
X828325Y309356D01*
X828385Y309357D01*
X853726Y284016D01*
X853411Y283472D01*
X852710Y280855D01*
Y278145D01*
X853411Y275528D01*
X854766Y273182D01*
X856682Y271266D01*
X859028Y269911D01*
X860061Y269635D01*
X859894Y268365D01*
X801106D01*
X800939Y269635D01*
X801972Y269911D01*
X804318Y271266D01*
X806234Y273182D01*
X807589Y275528D01*
X808290Y278145D01*
Y280855D01*
X807589Y283472D01*
X806234Y285818D01*
X804318Y287734D01*
X801972Y289089D01*
X799355Y289790D01*
X796645D01*
X794028Y289089D01*
X791682Y287734D01*
X789766Y285818D01*
X788411Y283472D01*
X787710Y280855D01*
Y278145D01*
X788411Y275528D01*
X789766Y273182D01*
X791682Y271266D01*
X794028Y269911D01*
X795061Y269635D01*
X794894Y268365D01*
X769909D01*
X768840Y269500D01*
Y401284D01*
X768839Y401288D01*
X768840Y401292D01*
X768741Y401779D01*
X768643Y402275D01*
X768641Y402279D01*
X768640Y402282D01*
X768362Y402696D01*
X768081Y403116D01*
X768078Y403118D01*
X768076Y403121D01*
X767175Y404016D01*
X767172Y404018D01*
X767170Y404021D01*
X766756Y404295D01*
X766333Y404575D01*
X766330Y404576D01*
X766327Y404578D01*
X765838Y404672D01*
X765342Y404770D01*
X765338Y404769D01*
X765334Y404769D01*
X734235Y404590D01*
X733748Y404490D01*
X733259Y404393D01*
X733253Y404388D01*
X733245Y404387D01*
X732833Y404108D01*
X732419Y403831D01*
X732414Y403825D01*
X732408Y403821D01*
X732134Y403406D01*
X731857Y402991D01*
X731856Y402984D01*
X731852Y402977D01*
X731757Y402489D01*
X731660Y402000D01*
Y328823D01*
X715927Y313090D01*
X700500D01*
X699509Y312893D01*
X698669Y312331D01*
X698107Y311491D01*
X697910Y310500D01*
Y269500D01*
X696841Y268365D01*
X629513D01*
X628395Y269483D01*
X626542Y270250D01*
X624537D01*
X622685Y269483D01*
X621267Y268065D01*
X621197Y267897D01*
X619938Y267623D01*
X619115Y268350D01*
Y274737D01*
X620023Y275645D01*
X620790Y277498D01*
Y279503D01*
X620023Y281355D01*
X618605Y282773D01*
X616753Y283540D01*
X614748D01*
X612895Y282773D01*
X611477Y281355D01*
X610710Y279503D01*
Y277498D01*
X611477Y275645D01*
X612385Y274737D01*
Y266797D01*
X612385Y266797D01*
X612641Y265510D01*
X613371Y264418D01*
X620758Y257031D01*
X620758Y257031D01*
X621850Y256301D01*
X623137Y256045D01*
X881410D01*
X881410Y256045D01*
X882698Y256301D01*
X883789Y257031D01*
X893879Y267121D01*
X894609Y268212D01*
X894865Y269500D01*
X894865Y269500D01*
Y419290D01*
X895710Y420210D01*
X896135Y420210D01*
X920790D01*
Y445290D01*
X896135D01*
X895710Y445290D01*
X894865Y446210D01*
Y468237D01*
X895773Y469145D01*
X896540Y470998D01*
Y473003D01*
X895773Y474855D01*
X894355Y476273D01*
X892503Y477040D01*
X890498D01*
X888645Y476273D01*
X887227Y474855D01*
X886460Y473003D01*
Y470998D01*
X887227Y469145D01*
X888135Y468237D01*
Y452902D01*
X886962Y452416D01*
X886855Y452523D01*
X885003Y453290D01*
X882998D01*
X881145Y452523D01*
X879727Y451105D01*
X878960Y449253D01*
Y447248D01*
X879727Y445395D01*
X881135Y443987D01*
Y273144D01*
X876356Y268365D01*
X866106D01*
X865939Y269635D01*
X866972Y269911D01*
X869318Y271266D01*
X871234Y273182D01*
X872589Y275528D01*
X873290Y278145D01*
Y280855D01*
X872589Y283472D01*
X871234Y285818D01*
X869318Y287734D01*
X866972Y289089D01*
X864355Y289790D01*
X861645D01*
X859028Y289089D01*
X858484Y288775D01*
X834115Y313144D01*
Y382589D01*
X835385Y382975D01*
X835621Y382621D01*
X854475Y363766D01*
X854161Y363222D01*
X853460Y360605D01*
Y357896D01*
X854161Y355278D01*
X855516Y352932D01*
X857432Y351016D01*
X859778Y349661D01*
X862395Y348960D01*
X865105D01*
X867722Y349661D01*
X870068Y351016D01*
X871984Y352932D01*
X873339Y355278D01*
X874040Y357896D01*
Y360605D01*
X873339Y363222D01*
X871984Y365568D01*
X870068Y367484D01*
X867722Y368839D01*
X865105Y369540D01*
X862395D01*
X859778Y368839D01*
X859234Y368525D01*
X841365Y386394D01*
Y585250D01*
X841365Y585250D01*
X841108Y586538D01*
X840379Y587629D01*
X835129Y592879D01*
X834038Y593609D01*
X832750Y593865D01*
X832750Y593865D01*
X789263D01*
X788355Y594773D01*
X786503Y595540D01*
D02*
G37*
G36*
X909901Y570290D02*
X906599D01*
X903410Y569435D01*
X900550Y567785D01*
X898215Y565450D01*
X896565Y562590D01*
X895710Y559401D01*
Y556099D01*
X896565Y552910D01*
X898215Y550050D01*
X900550Y547715D01*
X903410Y546065D01*
X906599Y545210D01*
X909901D01*
X913090Y546065D01*
X915950Y547715D01*
X918285Y550050D01*
X919935Y552910D01*
X920790Y556099D01*
Y559401D01*
X919935Y562590D01*
X918285Y565450D01*
X915950Y567785D01*
X913090Y569435D01*
X909901Y570290D01*
D02*
G37*
G36*
X699003Y637540D02*
X696998D01*
X695145Y636773D01*
X693727Y635355D01*
X692960Y633503D01*
Y631497D01*
X693727Y629645D01*
X693811Y629561D01*
X693285Y628291D01*
X689368D01*
Y607209D01*
X705291D01*
X705777Y606036D01*
X705071Y605329D01*
X704342Y604238D01*
X704085Y602950D01*
X704085Y602950D01*
Y596763D01*
X703177Y595855D01*
X702410Y594002D01*
Y591997D01*
X703177Y590145D01*
X704595Y588727D01*
X706448Y587960D01*
X708453D01*
X708829Y588116D01*
X709885Y587411D01*
Y549894D01*
X657356Y497365D01*
X630290D01*
Y516940D01*
X610210D01*
Y497365D01*
X603000D01*
X601810Y497128D01*
X601664Y497140D01*
X600540Y497853D01*
Y516940D01*
X580460D01*
Y496860D01*
X599306D01*
X599832Y495590D01*
X594833Y490591D01*
X594375Y490856D01*
X591822Y491540D01*
X589178D01*
X586625Y490856D01*
X584335Y489534D01*
X582466Y487665D01*
X581144Y485375D01*
X580460Y482822D01*
Y480178D01*
X581144Y477625D01*
X582466Y475335D01*
X584335Y473466D01*
X586625Y472144D01*
X589178Y471460D01*
X591822D01*
X594375Y472144D01*
X596665Y473466D01*
X598534Y475335D01*
X599856Y477625D01*
X600540Y480178D01*
Y482822D01*
X599856Y485375D01*
X599591Y485833D01*
X604394Y490635D01*
X613678D01*
X613917Y489365D01*
X612216Y487665D01*
X610894Y485375D01*
X610210Y482822D01*
Y480178D01*
X610894Y477625D01*
X612216Y475335D01*
X614085Y473466D01*
X614659Y473135D01*
X614319Y471865D01*
X606250D01*
X606250Y471865D01*
X604962Y471609D01*
X603871Y470879D01*
X603871Y470879D01*
X596895Y463904D01*
X596665Y464134D01*
X594375Y465456D01*
X591822Y466140D01*
X589178D01*
X586625Y465456D01*
X584335Y464134D01*
X582466Y462265D01*
X581144Y459975D01*
X580460Y457422D01*
Y454778D01*
X581144Y452225D01*
X582466Y449935D01*
X584335Y448066D01*
X586625Y446744D01*
X589178Y446060D01*
X591822D01*
X594375Y446744D01*
X596665Y448066D01*
X598534Y449935D01*
X599856Y452225D01*
X600540Y454778D01*
Y457422D01*
X600411Y457903D01*
X607644Y465135D01*
X613437D01*
X613817Y463865D01*
X612216Y462265D01*
X610894Y459975D01*
X610210Y457422D01*
Y454778D01*
X610894Y452225D01*
X612216Y449935D01*
X614085Y448066D01*
X616375Y446744D01*
X618928Y446060D01*
X621572D01*
X624125Y446744D01*
X626415Y448066D01*
X628284Y449935D01*
X629606Y452225D01*
X630290Y454778D01*
Y457422D01*
X629606Y459975D01*
X628284Y462265D01*
X626683Y463865D01*
X627063Y465135D01*
X643250D01*
X643250Y465135D01*
X644538Y465392D01*
X645629Y466121D01*
X660287Y480778D01*
X661560Y480256D01*
X662227Y478645D01*
X663645Y477227D01*
X665256Y476560D01*
X665778Y475287D01*
X650856Y460365D01*
X647513D01*
X646605Y461273D01*
X644753Y462040D01*
X642747D01*
X640895Y461273D01*
X639477Y459855D01*
X638710Y458003D01*
Y455998D01*
X639477Y454145D01*
X640895Y452727D01*
X642747Y451960D01*
X644753D01*
X646605Y452727D01*
X647513Y453635D01*
X652250D01*
X652250Y453635D01*
X653538Y453891D01*
X654629Y454621D01*
X735129Y535121D01*
X735129Y535121D01*
X735859Y536212D01*
X736115Y537500D01*
Y610469D01*
X737132Y611486D01*
X737899Y613338D01*
Y615344D01*
X737132Y617196D01*
X735714Y618614D01*
X733862Y619381D01*
X731857D01*
X731171Y619097D01*
X730115Y619802D01*
Y623356D01*
X732718Y625960D01*
X734003D01*
X735855Y626727D01*
X737273Y628145D01*
X738040Y629997D01*
Y632002D01*
X737273Y633855D01*
X735855Y635273D01*
X734003Y636040D01*
X731998D01*
X730145Y635273D01*
X728727Y633855D01*
X727960Y632002D01*
Y630718D01*
X724371Y627129D01*
X723642Y626038D01*
X723385Y624750D01*
X723385Y624750D01*
Y609152D01*
X722115Y608329D01*
X721003Y608790D01*
X720102D01*
Y628291D01*
X702715D01*
X702189Y629561D01*
X702273Y629645D01*
X703040Y631497D01*
Y633503D01*
X702273Y635355D01*
X700855Y636773D01*
X699003Y637540D01*
D02*
G37*
G36*
X603040Y377540D02*
X582960D01*
Y357460D01*
X603040D01*
Y377540D01*
D02*
G37*
G36*
X800105Y369540D02*
X797395D01*
X794778Y368839D01*
X792432Y367484D01*
X790516Y365568D01*
X789161Y363222D01*
X788460Y360605D01*
Y357896D01*
X789161Y355278D01*
X790516Y352932D01*
X792432Y351016D01*
X794778Y349661D01*
X797395Y348960D01*
X800105D01*
X802722Y349661D01*
X805068Y351016D01*
X806984Y352932D01*
X808339Y355278D01*
X809040Y357896D01*
Y360605D01*
X808339Y363222D01*
X806984Y365568D01*
X805068Y367484D01*
X802722Y368839D01*
X800105Y369540D01*
D02*
G37*
G36*
X452828Y327990D02*
X449671D01*
X446622Y327173D01*
X443888Y325594D01*
X441656Y323362D01*
X440077Y320628D01*
X439260Y317579D01*
Y314422D01*
X440077Y311372D01*
X441656Y308638D01*
X443888Y306406D01*
X446622Y304827D01*
X449671Y304010D01*
X452828D01*
X455878Y304827D01*
X458612Y306406D01*
X460844Y308638D01*
X462423Y311372D01*
X463240Y314422D01*
Y317579D01*
X462423Y320628D01*
X460844Y323362D01*
X458612Y325594D01*
X455878Y327173D01*
X452828Y327990D01*
D02*
G37*
G36*
X830003Y248040D02*
X827998D01*
X826145Y247273D01*
X824727Y245855D01*
X823960Y244002D01*
Y241998D01*
X824727Y240145D01*
X825635Y239237D01*
Y232500D01*
X825635Y232500D01*
X825891Y231212D01*
X826621Y230121D01*
X852476Y204266D01*
X852161Y203722D01*
X851460Y201105D01*
Y198395D01*
X852161Y195778D01*
X853516Y193432D01*
X855432Y191516D01*
X857778Y190161D01*
X860395Y189460D01*
X863105D01*
X865722Y190161D01*
X868068Y191516D01*
X869984Y193432D01*
X871339Y195778D01*
X872040Y198395D01*
Y201105D01*
X871339Y203722D01*
X869984Y206068D01*
X868068Y207984D01*
X865722Y209339D01*
X863105Y210040D01*
X860395D01*
X857778Y209339D01*
X857234Y209024D01*
X832365Y233894D01*
Y239237D01*
X833273Y240145D01*
X834040Y241998D01*
Y244002D01*
X833273Y245855D01*
X831855Y247273D01*
X830003Y248040D01*
D02*
G37*
G36*
X798105Y210040D02*
X795395D01*
X792778Y209339D01*
X790432Y207984D01*
X788516Y206068D01*
X787161Y203722D01*
X786460Y201105D01*
Y198395D01*
X787161Y195778D01*
X788516Y193432D01*
X790432Y191516D01*
X792778Y190161D01*
X795395Y189460D01*
X798105D01*
X800722Y190161D01*
X803068Y191516D01*
X804984Y193432D01*
X806339Y195778D01*
X807040Y198395D01*
Y201105D01*
X806339Y203722D01*
X804984Y206068D01*
X803068Y207984D01*
X800722Y209339D01*
X798105Y210040D01*
D02*
G37*
G36*
X739918Y240040D02*
X735583D01*
X731301Y239362D01*
X727178Y238022D01*
X723316Y236054D01*
X719809Y233506D01*
X716744Y230441D01*
X714196Y226934D01*
X712228Y223072D01*
X710888Y218949D01*
X710210Y214667D01*
Y210333D01*
X710888Y206051D01*
X712228Y201928D01*
X714196Y198066D01*
X716744Y194559D01*
X719809Y191494D01*
X723316Y188946D01*
X727178Y186978D01*
X731301Y185638D01*
X735583Y184960D01*
X739918D01*
X744199Y185638D01*
X748322Y186978D01*
X752184Y188946D01*
X755691Y191494D01*
X758756Y194559D01*
X761304Y198066D01*
X763272Y201928D01*
X764612Y206051D01*
X765290Y210333D01*
Y214667D01*
X764612Y218949D01*
X763272Y223072D01*
X761304Y226934D01*
X758756Y230441D01*
X755691Y233506D01*
X752184Y236054D01*
X748322Y238022D01*
X744199Y239362D01*
X739918Y240040D01*
D02*
G37*
G36*
X280667D02*
X276332D01*
X272051Y239362D01*
X267928Y238022D01*
X264066Y236054D01*
X260559Y233506D01*
X257494Y230441D01*
X254946Y226934D01*
X252978Y223072D01*
X251638Y218949D01*
X250960Y214667D01*
Y210333D01*
X251638Y206051D01*
X252978Y201928D01*
X254946Y198066D01*
X257494Y194559D01*
X260559Y191494D01*
X264066Y188946D01*
X267928Y186978D01*
X272051Y185638D01*
X276332Y184960D01*
X280667D01*
X284949Y185638D01*
X289072Y186978D01*
X292934Y188946D01*
X296441Y191494D01*
X299506Y194559D01*
X302054Y198066D01*
X304022Y201928D01*
X305362Y206051D01*
X306040Y210333D01*
Y214667D01*
X305362Y218949D01*
X304022Y223072D01*
X302054Y226934D01*
X299506Y230441D01*
X296441Y233506D01*
X292934Y236054D01*
X289072Y238022D01*
X284949Y239362D01*
X280667Y240040D01*
D02*
G37*
%LPD*%
G36*
X800129Y746385D02*
X774675D01*
X772094Y748966D01*
X772620Y750236D01*
X800129D01*
Y746385D01*
D02*
G37*
G36*
X765330Y402133D02*
X765528Y402002D01*
X766072Y401462D01*
X766203Y401265D01*
X766250Y401033D01*
Y269500D01*
Y269500D01*
X700500D01*
Y310245D01*
X700542Y310458D01*
X700755Y310500D01*
X717000D01*
X734250Y327750D01*
Y401745D01*
X734292Y401958D01*
X734505Y402001D01*
X765098Y402178D01*
X765330Y402133D01*
D02*
G37*
G36*
X659477Y489485D02*
X641856Y471865D01*
X626181D01*
X625841Y473135D01*
X626415Y473466D01*
X628284Y475335D01*
X629606Y477625D01*
X630290Y480178D01*
Y482822D01*
X629606Y485375D01*
X628284Y487665D01*
X626583Y489365D01*
X626822Y490635D01*
X658750D01*
X658750Y490635D01*
X658851Y490655D01*
X659477Y489485D01*
D02*
G37*
D10*
X524500Y805500D02*
X538000Y819000D01*
Y860000D01*
X526240Y825130D02*
X537574Y836464D01*
X508750Y850250D02*
Y862000D01*
X509250Y862500D01*
X500990Y834630D02*
Y842490D01*
X508750Y850250D01*
X511500Y805000D02*
Y834890D01*
X520740Y844130D01*
X523490D01*
Y825130D02*
X526240D01*
X524500Y805000D02*
Y805500D01*
X522250Y862500D02*
X535500D01*
X538000Y860000D01*
X300750Y898125D02*
X496875D01*
X296000Y893375D02*
X300750Y898125D01*
X296000Y878250D02*
Y893375D01*
X285750Y868000D02*
X296000Y878250D01*
X277750Y868000D02*
X285750D01*
X908250Y927250D02*
Y1006936D01*
X808000Y920000D02*
X901000D01*
X908250Y927250D01*
X581750Y683500D02*
X617750D01*
X696000Y761750D02*
Y819250D01*
X617750Y683500D02*
X696000Y761750D01*
X566500Y668250D02*
X581750Y683500D01*
X575250Y697000D02*
X605500D01*
X566500Y688250D02*
X575250Y697000D01*
X700150Y823400D02*
X716500D01*
X696000Y819250D02*
X700150Y823400D01*
X670750Y884500D02*
X679210Y892960D01*
X683040Y896790D02*
X734250Y948000D01*
X679355Y892960D02*
X683040Y896645D01*
X679210Y892960D02*
X679355D01*
X683040Y896645D02*
Y896790D01*
X652500Y893500D02*
X671000D01*
X676750Y899250D01*
X517250Y893500D02*
X652500D01*
X509250Y885500D02*
X517250Y893500D01*
X656250Y905000D02*
X656250Y905000D01*
Y897250D02*
Y905000D01*
X652500Y893500D02*
X656250Y897250D01*
X670750Y815500D02*
Y884500D01*
X734250Y948000D02*
Y1055850D01*
X679500Y883000D02*
X809940Y1013440D01*
X679500Y805500D02*
Y883000D01*
X809940Y1013440D02*
Y1056360D01*
X509250Y862500D02*
Y885500D01*
X496875Y898125D02*
X509250Y885750D01*
X634500Y760500D02*
X679500Y805500D01*
X628750Y773500D02*
X670750Y815500D01*
X716500Y798000D02*
X918000D01*
X935000Y815000D02*
Y854430D01*
X918000Y798000D02*
X935000Y815000D01*
Y854430D02*
X935670Y855100D01*
X764618Y759900D02*
X770418Y754100D01*
X808670D01*
X716500Y759900D02*
X764618D01*
X815570Y772600D02*
X834070Y754100D01*
X716500Y772600D02*
X815570D01*
X733740Y1056360D02*
X734250Y1055850D01*
X605500Y760500D02*
X634500D01*
X605500Y773200D02*
X605800Y773500D01*
X628750D01*
X537000Y1026750D02*
X582500D01*
D11*
X566250Y403750D02*
X566500Y404000D01*
Y668250D01*
X830910Y1163750D02*
X907110D01*
X566500Y668250D02*
Y688250D01*
Y740250D01*
X524500Y782250D02*
X566500Y740250D01*
X509250Y885500D02*
Y885750D01*
Y899179D01*
X396464Y914930D02*
X493499D01*
X509250Y899179D01*
X485610Y805000D02*
X511500D01*
X472370Y818240D02*
X485610Y805000D01*
X472370Y818240D02*
Y820990D01*
X462870Y843490D02*
Y859120D01*
X465250Y861500D01*
Y862000D01*
X524500Y782250D02*
Y805000D01*
X536500Y1026250D02*
X537000Y1026750D01*
D14*
X910730Y1090000D02*
X931750D01*
X909000Y1094000D02*
X909750Y1093250D01*
X908000Y1092730D02*
X910730Y1090000D01*
X908000Y1092730D02*
Y1093000D01*
X910500Y1077000D02*
X931750D01*
X907500Y1074000D02*
X910500Y1077000D01*
X907500Y1073500D02*
Y1074000D01*
X929750Y920000D02*
X944000D01*
X951750Y912250D01*
X921500Y928250D02*
X929750Y920000D01*
X921500Y928250D02*
Y1006000D01*
X922000Y1006500D01*
Y1008750D02*
Y1053000D01*
X931500Y1031000D02*
Y1076750D01*
X931750Y1077000D01*
X908000Y1093000D02*
Y1119000D01*
X914750Y1125750D01*
Y1163700D01*
X914700Y1163750D02*
X914750Y1163700D01*
X951750Y737750D02*
Y912250D01*
X768366Y747200D02*
X773066Y742500D01*
X774870Y734500D02*
X775145Y734225D01*
X639750Y869000D02*
X640125Y869375D01*
X622450Y836700D02*
X622500Y836750D01*
X716500Y747200D02*
X768366D01*
X716500Y734500D02*
X774870D01*
X649750Y824000D02*
Y870500D01*
X605500Y811300D02*
X621550D01*
X639750Y829500D01*
X605500Y785900D02*
X626650D01*
X659000Y818250D02*
Y870750D01*
X624350Y798600D02*
X649750Y824000D01*
X605500Y836700D02*
X622450D01*
X773066Y742500D02*
X815750D01*
X626650Y785900D02*
X659000Y818250D01*
X605500Y798600D02*
X624350D01*
X639750Y829500D02*
Y869000D01*
X780250Y680500D02*
X811250Y711500D01*
X780250Y605942D02*
Y680500D01*
X811250Y711500D02*
X925500D01*
X951750Y737750D01*
X773808Y599500D02*
X780250Y605942D01*
X640050Y747800D02*
X688750Y796500D01*
Y882674D02*
X835340Y1029264D01*
X688750Y796500D02*
Y882674D01*
X696000Y881000D02*
X704000Y889000D01*
X890000D01*
X909000Y870000D01*
X897250Y780250D02*
X897750Y779750D01*
Y746000D02*
Y779750D01*
X822950Y810700D02*
X834070Y821820D01*
Y855100D01*
X716500Y810700D02*
X822950D01*
X787580Y876190D02*
X808670Y855100D01*
X723608Y876190D02*
X787580D01*
X866500Y882500D02*
X884000Y865000D01*
X710250Y882500D02*
X866500D01*
X835340Y1029264D02*
Y1056360D01*
X884000Y855970D02*
X884870Y855100D01*
X884000Y855970D02*
Y865000D01*
X909000Y856370D02*
X910270Y855100D01*
X909000Y856370D02*
Y870000D01*
X716500Y785300D02*
X853670D01*
X884870Y754100D02*
X884870D01*
X853670Y785300D02*
X884870Y754100D01*
X858000Y752630D02*
X859470Y754100D01*
X858000Y739750D02*
Y752630D01*
X716500Y721800D02*
X840050D01*
X858000Y739750D01*
X605500Y747800D02*
X640050D01*
X656250Y905000D02*
X656750Y905500D01*
X670750D01*
X660200Y1028180D02*
X660380Y1028000D01*
X670750D01*
X607250Y906730D02*
Y907000D01*
Y906730D02*
X608980Y905000D01*
X643250D01*
X894000Y1093000D02*
Y1093000D01*
X893250Y1093750D02*
X894000Y1093000D01*
X607250Y907000D02*
Y946330D01*
X622100Y961180D01*
Y969180D01*
X597750Y929000D02*
Y940872D01*
X588068Y950554D02*
X597750Y940872D01*
X603050Y1003800D02*
Y1018700D01*
X582500Y1026750D02*
X595000D01*
X603050Y1018700D01*
X658400Y945950D02*
X660550Y943800D01*
X657820Y946530D02*
X658400Y945950D01*
X685700D01*
X642200D02*
X647500D01*
Y947850D02*
X648820Y946530D01*
X657820D01*
X647500Y947850D02*
Y969180D01*
X640550Y944300D02*
X642200Y945950D01*
X685550Y978800D02*
Y998300D01*
Y978800D02*
X685700Y978650D01*
X603050Y990800D02*
X632050D01*
X656550D01*
X677050Y1011300D02*
X685550D01*
X656550Y990800D02*
X677050Y1011300D01*
X634800Y969180D02*
X635550Y969930D01*
Y987300D01*
X632050Y990800D02*
X635550Y987300D01*
X642050Y1003800D02*
X647500Y1009250D01*
Y1028180D01*
X603050Y1003800D02*
X642050D01*
D17*
X523490Y844130D02*
D03*
Y825130D02*
D03*
X500990Y834630D02*
D03*
D24*
X656250Y905000D02*
D03*
X643250D02*
D03*
X894500Y1073500D02*
D03*
X907500D02*
D03*
X922000Y1006500D02*
D03*
X909000D02*
D03*
X511500Y805000D02*
D03*
X524500D02*
D03*
X478250Y862000D02*
D03*
X465250D02*
D03*
X509250Y862500D02*
D03*
X522250D02*
D03*
D25*
X660550Y943800D02*
D03*
Y930800D02*
D03*
X685550Y1011300D02*
D03*
Y998300D02*
D03*
X603050Y1003800D02*
D03*
Y990800D02*
D03*
X931750Y1077000D02*
D03*
Y1090000D02*
D03*
X277750Y868000D02*
D03*
Y881000D02*
D03*
D63*
X958250Y557750D02*
D03*
Y432750D02*
D03*
X908250Y557750D02*
D03*
D64*
Y432750D02*
D03*
D65*
X798750Y359250D02*
D03*
Y404250D02*
D03*
X863750Y359250D02*
D03*
X796750Y199750D02*
D03*
Y244750D02*
D03*
X861750Y199750D02*
D03*
X798000Y279500D02*
D03*
Y324500D02*
D03*
X863000Y279500D02*
D03*
D66*
X863750Y404250D02*
D03*
X861750Y244750D02*
D03*
X863000Y324500D02*
D03*
D69*
X616250Y929250D02*
X616500Y929000D01*
X616750D01*
X277750Y881000D02*
Y888000D01*
X588250Y647250D02*
X588750Y646750D01*
X596500D01*
X621250Y622000D01*
Y609250D02*
Y622000D01*
X823750Y282500D02*
X828500Y277750D01*
X615750Y266797D02*
Y278500D01*
Y266797D02*
X623137Y259410D01*
X881410D02*
X891500Y269500D01*
X623137Y259410D02*
X881410D01*
X625750Y265000D02*
X877750D01*
X625540Y265210D02*
X625750Y265000D01*
X779500Y572250D02*
X817250D01*
X823750Y565750D01*
Y282500D02*
Y565750D01*
X830750Y311750D02*
Y578750D01*
Y311750D02*
X863000Y279500D01*
X825625Y583875D02*
X830750Y578750D01*
X829000Y232500D02*
X861750Y199750D01*
X829000Y232500D02*
Y243000D01*
X884500Y271750D02*
Y447750D01*
X877750Y265000D02*
X884500Y271750D01*
X777875Y583875D02*
X825625D01*
X785500Y590500D02*
X832750D01*
X838000Y385000D02*
Y585250D01*
X832750Y590500D02*
X838000Y585250D01*
Y385000D02*
X863750Y359250D01*
X891500Y269500D02*
Y472000D01*
X884000Y448250D02*
X884500Y447750D01*
X605500Y849400D02*
X605550Y849450D01*
X605878Y862478D02*
X624585D01*
X605500Y862100D02*
X605878Y862478D01*
X605550Y849450D02*
X625450D01*
X625500Y849500D01*
X624585Y862478D02*
X624964Y862857D01*
X689500Y702500D02*
X689500D01*
X700000Y683500D02*
Y692000D01*
X689500Y702500D02*
X700000Y692000D01*
X620250Y456100D02*
X622150D01*
X732750Y537500D02*
Y614250D01*
X643750Y457000D02*
X652250D01*
X732750Y537500D01*
X666500Y482000D02*
X726750Y542250D01*
X666500Y481500D02*
Y482000D01*
X726750Y542250D02*
Y624750D01*
X590500Y456100D02*
X593850D01*
X606250Y468500D01*
X643250D01*
X590500Y481500D02*
X603000Y494000D01*
X658750D01*
X710750Y616780D02*
X711720Y617750D01*
X710750Y606250D02*
Y616780D01*
X707450Y593000D02*
Y602950D01*
X710750Y606250D01*
X462870Y806380D02*
Y843490D01*
Y806380D02*
X478500Y790750D01*
X720500Y545750D02*
Y594500D01*
X643250Y468500D02*
X720500Y545750D01*
X658750Y494000D02*
X713250Y548500D01*
Y597000D01*
X720250Y594750D02*
X720500Y594500D01*
X713250Y597000D02*
X720000Y603750D01*
X726750Y624750D02*
X733000Y631000D01*
X732841Y614341D02*
X732859D01*
X732750Y614250D02*
X732841Y614341D01*
X697750Y617750D02*
X698000Y618000D01*
Y632500D01*
D71*
X593000Y367500D02*
D03*
D72*
X618400D02*
D03*
X620250Y430700D02*
D03*
Y456100D02*
D03*
Y481500D02*
D03*
X590500D02*
D03*
Y456100D02*
D03*
Y430700D02*
D03*
D73*
X733740Y903960D02*
D03*
X808670Y754100D02*
D03*
D74*
X759140Y903960D02*
D03*
X784540D02*
D03*
X809940D02*
D03*
X835340D02*
D03*
X860740D02*
D03*
Y1056360D02*
D03*
X835340D02*
D03*
X809940D02*
D03*
X784540D02*
D03*
X759140D02*
D03*
X733740D02*
D03*
X910270Y855100D02*
D03*
X935670D02*
D03*
X808670D02*
D03*
X834070D02*
D03*
X884870D02*
D03*
X859470D02*
D03*
X935670Y754100D02*
D03*
X910270D02*
D03*
X884870D02*
D03*
X859470D02*
D03*
X834070D02*
D03*
D75*
X620250Y506900D02*
D03*
X590500D02*
D03*
D76*
X403535Y978570D02*
D03*
D77*
X368180Y943214D02*
D03*
X396464Y914930D02*
D03*
X431820Y950285D02*
D03*
D78*
X322300Y1163750D02*
D03*
X398500D02*
D03*
X838500D02*
D03*
X914700D02*
D03*
D79*
X278500Y1052500D02*
D03*
X958500Y672500D02*
D03*
X737750Y212500D02*
D03*
X278500D02*
D03*
D80*
X975000Y870000D02*
D03*
X960000Y840000D02*
D03*
X975000Y810000D02*
D03*
X960000Y780000D02*
D03*
X975000Y750000D02*
D03*
X960000Y720000D02*
D03*
X975000Y630000D02*
D03*
X960000Y600000D02*
D03*
X975000Y570000D02*
D03*
X960000Y540000D02*
D03*
X975000Y510000D02*
D03*
X960000Y480000D02*
D03*
X975000Y450000D02*
D03*
Y390000D02*
D03*
X960000Y360000D02*
D03*
X975000Y330000D02*
D03*
X960000Y300000D02*
D03*
X975000Y270000D02*
D03*
X960000Y240000D02*
D03*
X975000Y210000D02*
D03*
X960000Y180000D02*
D03*
X945000Y870000D02*
D03*
Y810000D02*
D03*
X930000Y780000D02*
D03*
Y660000D02*
D03*
X945000Y630000D02*
D03*
X930000Y600000D02*
D03*
X945000Y570000D02*
D03*
X930000Y540000D02*
D03*
X945000Y510000D02*
D03*
X930000Y480000D02*
D03*
X945000Y450000D02*
D03*
X930000Y420000D02*
D03*
X945000Y390000D02*
D03*
X930000Y360000D02*
D03*
X945000Y330000D02*
D03*
X930000Y300000D02*
D03*
X945000Y270000D02*
D03*
X930000Y240000D02*
D03*
X945000Y210000D02*
D03*
X930000Y180000D02*
D03*
X900000Y840000D02*
D03*
X915000Y810000D02*
D03*
X900000Y720000D02*
D03*
X915000Y690000D02*
D03*
X900000Y660000D02*
D03*
X915000Y630000D02*
D03*
X900000Y600000D02*
D03*
Y540000D02*
D03*
X915000Y510000D02*
D03*
X900000Y480000D02*
D03*
X915000Y450000D02*
D03*
Y390000D02*
D03*
X900000Y360000D02*
D03*
X915000Y330000D02*
D03*
X900000Y300000D02*
D03*
X915000Y270000D02*
D03*
X900000Y240000D02*
D03*
X915000Y210000D02*
D03*
X900000Y180000D02*
D03*
X870000Y840000D02*
D03*
X885000Y810000D02*
D03*
X870000Y780000D02*
D03*
Y720000D02*
D03*
X885000Y690000D02*
D03*
X870000Y660000D02*
D03*
X885000Y630000D02*
D03*
X870000Y600000D02*
D03*
X885000Y570000D02*
D03*
X870000Y540000D02*
D03*
X885000Y510000D02*
D03*
X870000Y480000D02*
D03*
Y420000D02*
D03*
Y300000D02*
D03*
X885000Y210000D02*
D03*
X870000Y180000D02*
D03*
X855000Y690000D02*
D03*
X840000Y660000D02*
D03*
X855000Y630000D02*
D03*
X840000Y600000D02*
D03*
X855000Y570000D02*
D03*
Y450000D02*
D03*
Y390000D02*
D03*
X840000Y360000D02*
D03*
Y240000D02*
D03*
Y180000D02*
D03*
X810000Y840000D02*
D03*
X825000Y690000D02*
D03*
X810000Y660000D02*
D03*
X825000Y630000D02*
D03*
X810000Y600000D02*
D03*
Y540000D02*
D03*
Y480000D02*
D03*
Y420000D02*
D03*
Y300000D02*
D03*
Y240000D02*
D03*
X825000Y210000D02*
D03*
X810000Y180000D02*
D03*
X795000Y630000D02*
D03*
X780000Y540000D02*
D03*
X795000Y450000D02*
D03*
Y390000D02*
D03*
X780000Y240000D02*
D03*
Y180000D02*
D03*
X750000Y840000D02*
D03*
X765000Y690000D02*
D03*
X750000Y660000D02*
D03*
X765000Y630000D02*
D03*
Y570000D02*
D03*
X750000Y540000D02*
D03*
Y420000D02*
D03*
Y180000D02*
D03*
X735000Y690000D02*
D03*
Y510000D02*
D03*
X720000Y480000D02*
D03*
X735000Y450000D02*
D03*
X720000Y240000D02*
D03*
Y180000D02*
D03*
X705000Y870000D02*
D03*
X690000Y600000D02*
D03*
Y540000D02*
D03*
Y480000D02*
D03*
X705000Y450000D02*
D03*
X690000Y420000D02*
D03*
Y240000D02*
D03*
X705000Y210000D02*
D03*
X690000Y180000D02*
D03*
X675000Y750000D02*
D03*
X660000Y660000D02*
D03*
Y540000D02*
D03*
X675000Y450000D02*
D03*
X660000Y420000D02*
D03*
X675000Y330000D02*
D03*
X660000Y240000D02*
D03*
Y180000D02*
D03*
X630000Y720000D02*
D03*
X645000Y690000D02*
D03*
X630000Y660000D02*
D03*
Y540000D02*
D03*
Y420000D02*
D03*
Y360000D02*
D03*
Y300000D02*
D03*
Y240000D02*
D03*
Y180000D02*
D03*
X600000Y600000D02*
D03*
X615000Y570000D02*
D03*
X600000Y540000D02*
D03*
Y420000D02*
D03*
Y240000D02*
D03*
Y180000D02*
D03*
X585000Y870000D02*
D03*
X570000Y840000D02*
D03*
X585000Y810000D02*
D03*
Y750000D02*
D03*
Y690000D02*
D03*
Y570000D02*
D03*
X570000Y360000D02*
D03*
Y240000D02*
D03*
Y180000D02*
D03*
X555000Y870000D02*
D03*
Y810000D02*
D03*
X540000Y780000D02*
D03*
Y720000D02*
D03*
X555000Y690000D02*
D03*
X540000Y660000D02*
D03*
X555000Y630000D02*
D03*
X540000Y600000D02*
D03*
X555000Y570000D02*
D03*
X540000Y540000D02*
D03*
X555000Y510000D02*
D03*
X540000Y480000D02*
D03*
X555000Y450000D02*
D03*
X540000Y420000D02*
D03*
X555000Y390000D02*
D03*
X540000Y360000D02*
D03*
Y240000D02*
D03*
Y180000D02*
D03*
X510000Y780000D02*
D03*
X525000Y750000D02*
D03*
X510000Y720000D02*
D03*
X525000Y690000D02*
D03*
X510000Y660000D02*
D03*
X525000Y630000D02*
D03*
X510000Y600000D02*
D03*
X525000Y570000D02*
D03*
X510000Y540000D02*
D03*
X525000Y510000D02*
D03*
X510000Y480000D02*
D03*
X525000Y450000D02*
D03*
X510000Y420000D02*
D03*
X525000Y390000D02*
D03*
X510000Y360000D02*
D03*
Y240000D02*
D03*
Y180000D02*
D03*
X480000Y780000D02*
D03*
X495000Y750000D02*
D03*
X480000Y720000D02*
D03*
X495000Y690000D02*
D03*
X480000Y660000D02*
D03*
X495000Y630000D02*
D03*
X480000Y600000D02*
D03*
X495000Y570000D02*
D03*
X480000Y540000D02*
D03*
X495000Y510000D02*
D03*
X480000Y480000D02*
D03*
X495000Y450000D02*
D03*
X480000Y420000D02*
D03*
X495000Y390000D02*
D03*
X480000Y360000D02*
D03*
Y240000D02*
D03*
Y180000D02*
D03*
X450000Y780000D02*
D03*
X465000Y750000D02*
D03*
X450000Y720000D02*
D03*
X465000Y690000D02*
D03*
X450000Y660000D02*
D03*
X465000Y630000D02*
D03*
X450000Y600000D02*
D03*
X465000Y570000D02*
D03*
X450000Y540000D02*
D03*
X465000Y510000D02*
D03*
X450000Y480000D02*
D03*
X465000Y450000D02*
D03*
X450000Y420000D02*
D03*
X465000Y390000D02*
D03*
X450000Y360000D02*
D03*
X465000Y330000D02*
D03*
X450000Y300000D02*
D03*
X465000Y270000D02*
D03*
X450000Y240000D02*
D03*
Y180000D02*
D03*
X420000Y780000D02*
D03*
X435000Y750000D02*
D03*
X420000Y720000D02*
D03*
X435000Y690000D02*
D03*
X420000Y660000D02*
D03*
X435000Y630000D02*
D03*
X420000Y600000D02*
D03*
X435000Y570000D02*
D03*
X420000Y540000D02*
D03*
X435000Y510000D02*
D03*
X420000Y480000D02*
D03*
X435000Y450000D02*
D03*
X420000Y420000D02*
D03*
X435000Y390000D02*
D03*
X420000Y360000D02*
D03*
X435000Y330000D02*
D03*
X420000Y300000D02*
D03*
X435000Y270000D02*
D03*
X420000Y240000D02*
D03*
Y180000D02*
D03*
X390000Y780000D02*
D03*
X405000Y750000D02*
D03*
X390000Y720000D02*
D03*
X405000Y690000D02*
D03*
X390000Y660000D02*
D03*
X405000Y630000D02*
D03*
X390000Y600000D02*
D03*
X405000Y570000D02*
D03*
X390000Y540000D02*
D03*
X405000Y510000D02*
D03*
X390000Y480000D02*
D03*
X405000Y450000D02*
D03*
X390000Y420000D02*
D03*
X405000Y390000D02*
D03*
X390000Y360000D02*
D03*
X405000Y330000D02*
D03*
X390000Y300000D02*
D03*
X405000Y270000D02*
D03*
X390000Y240000D02*
D03*
Y180000D02*
D03*
X360000Y780000D02*
D03*
X375000Y750000D02*
D03*
X360000Y720000D02*
D03*
X375000Y690000D02*
D03*
X360000Y660000D02*
D03*
X375000Y630000D02*
D03*
X360000Y600000D02*
D03*
X375000Y570000D02*
D03*
X360000Y540000D02*
D03*
X375000Y510000D02*
D03*
X360000Y480000D02*
D03*
X375000Y450000D02*
D03*
X360000Y420000D02*
D03*
X375000Y390000D02*
D03*
X360000Y360000D02*
D03*
X375000Y330000D02*
D03*
X360000Y240000D02*
D03*
Y180000D02*
D03*
X330000Y780000D02*
D03*
X345000Y750000D02*
D03*
X330000Y720000D02*
D03*
X345000Y690000D02*
D03*
X330000Y660000D02*
D03*
X345000Y630000D02*
D03*
X330000Y600000D02*
D03*
X345000Y570000D02*
D03*
X330000Y540000D02*
D03*
X345000Y510000D02*
D03*
X330000Y480000D02*
D03*
X345000Y450000D02*
D03*
X330000Y420000D02*
D03*
X345000Y390000D02*
D03*
X330000Y360000D02*
D03*
X345000Y330000D02*
D03*
X330000Y300000D02*
D03*
Y240000D02*
D03*
Y180000D02*
D03*
X315000Y870000D02*
D03*
X300000Y840000D02*
D03*
X315000Y810000D02*
D03*
X300000Y780000D02*
D03*
X315000Y750000D02*
D03*
X300000Y720000D02*
D03*
X315000Y690000D02*
D03*
X300000Y660000D02*
D03*
X315000Y630000D02*
D03*
X300000Y600000D02*
D03*
X315000Y570000D02*
D03*
X300000Y540000D02*
D03*
X315000Y510000D02*
D03*
X300000Y480000D02*
D03*
X315000Y450000D02*
D03*
X300000Y420000D02*
D03*
X315000Y390000D02*
D03*
X300000Y360000D02*
D03*
X315000Y330000D02*
D03*
X300000Y300000D02*
D03*
X315000Y270000D02*
D03*
X300000Y240000D02*
D03*
X315000Y210000D02*
D03*
X300000Y180000D02*
D03*
X270000Y840000D02*
D03*
X285000Y810000D02*
D03*
X270000Y780000D02*
D03*
X285000Y750000D02*
D03*
X270000Y720000D02*
D03*
X285000Y690000D02*
D03*
X270000Y660000D02*
D03*
X285000Y630000D02*
D03*
X270000Y600000D02*
D03*
X285000Y570000D02*
D03*
X270000Y540000D02*
D03*
X285000Y510000D02*
D03*
X270000Y480000D02*
D03*
X285000Y450000D02*
D03*
X270000Y420000D02*
D03*
X285000Y390000D02*
D03*
X270000Y360000D02*
D03*
X285000Y330000D02*
D03*
X270000Y300000D02*
D03*
X285000Y270000D02*
D03*
X270000Y180000D02*
D03*
X566250Y403750D02*
D03*
X615750Y278500D02*
D03*
X937500Y1005000D02*
D03*
X900000Y1050000D02*
D03*
X885000Y1080000D02*
D03*
X892500Y1065000D02*
D03*
X885000Y1050000D02*
D03*
X892500Y1035000D02*
D03*
X885000Y1020000D02*
D03*
X892500Y1005000D02*
D03*
X877500Y1095000D02*
D03*
X870000Y1080000D02*
D03*
X877500Y1065000D02*
D03*
X870000Y1020000D02*
D03*
X877500Y1005000D02*
D03*
X862500Y1095000D02*
D03*
X855000Y1080000D02*
D03*
X862500Y1035000D02*
D03*
X855000Y1020000D02*
D03*
X862500Y1005000D02*
D03*
X847500Y1095000D02*
D03*
X840000Y1080000D02*
D03*
X847500Y1065000D02*
D03*
Y1035000D02*
D03*
X840000Y1020000D02*
D03*
X847500Y1005000D02*
D03*
X832500Y1095000D02*
D03*
X825000Y1080000D02*
D03*
Y1050000D02*
D03*
X817500Y1095000D02*
D03*
X810000Y1080000D02*
D03*
X817500Y1065000D02*
D03*
Y1035000D02*
D03*
X802500Y1095000D02*
D03*
X795000Y1080000D02*
D03*
X802500Y1065000D02*
D03*
X787500Y1095000D02*
D03*
X780000Y1080000D02*
D03*
Y1020000D02*
D03*
X787500Y1005000D02*
D03*
X772500Y1095000D02*
D03*
X765000Y1080000D02*
D03*
X772500Y1065000D02*
D03*
X765000Y1020000D02*
D03*
X772500Y1005000D02*
D03*
X757500Y1095000D02*
D03*
X750000Y1080000D02*
D03*
Y1050000D02*
D03*
X757500Y1035000D02*
D03*
X750000Y1020000D02*
D03*
X757500Y1005000D02*
D03*
X742500Y1095000D02*
D03*
X735000Y1080000D02*
D03*
X742500Y1065000D02*
D03*
Y1035000D02*
D03*
Y1005000D02*
D03*
X727500Y1095000D02*
D03*
X720000Y1080000D02*
D03*
Y1050000D02*
D03*
X727500Y1035000D02*
D03*
X720000Y1020000D02*
D03*
X727500Y1005000D02*
D03*
X712500Y1095000D02*
D03*
X705000Y1080000D02*
D03*
X712500Y1065000D02*
D03*
X705000Y1050000D02*
D03*
X712500Y1035000D02*
D03*
X705000Y1020000D02*
D03*
X712500Y1005000D02*
D03*
X697500Y1095000D02*
D03*
X690000Y1080000D02*
D03*
X697500Y1065000D02*
D03*
X690000Y1050000D02*
D03*
X697500Y1035000D02*
D03*
Y1005000D02*
D03*
X690000Y960000D02*
D03*
Y930000D02*
D03*
X682500Y1095000D02*
D03*
X675000Y1080000D02*
D03*
X682500Y1065000D02*
D03*
X675000Y1050000D02*
D03*
X682500Y1035000D02*
D03*
Y915000D02*
D03*
X667500Y1095000D02*
D03*
X660000Y1080000D02*
D03*
X667500Y1065000D02*
D03*
X660000Y1050000D02*
D03*
X652500Y1095000D02*
D03*
X645000Y1080000D02*
D03*
X652500Y1065000D02*
D03*
X645000Y1050000D02*
D03*
X652500Y1005000D02*
D03*
Y915000D02*
D03*
X637500Y1095000D02*
D03*
X630000Y1080000D02*
D03*
X637500Y1065000D02*
D03*
X630000Y1050000D02*
D03*
Y930000D02*
D03*
X637500Y915000D02*
D03*
X622500Y1095000D02*
D03*
X615000Y1080000D02*
D03*
X622500Y1065000D02*
D03*
X615000Y1050000D02*
D03*
X622500Y945000D02*
D03*
Y915000D02*
D03*
X607500Y1095000D02*
D03*
X600000Y1080000D02*
D03*
X607500Y1065000D02*
D03*
X600000Y1050000D02*
D03*
X607500Y1035000D02*
D03*
Y975000D02*
D03*
X600000Y960000D02*
D03*
X277750Y888000D02*
D03*
X588250Y647250D02*
D03*
X621250Y609250D02*
D03*
X828500Y277750D02*
D03*
X625540Y265210D02*
D03*
X829000Y243000D02*
D03*
X779500Y572250D02*
D03*
X891500Y472000D02*
D03*
X884000Y448250D02*
D03*
X760250Y397750D02*
D03*
Y389750D02*
D03*
X760250Y273500D02*
D03*
X625500Y849500D02*
D03*
X624964Y862857D02*
D03*
X775145Y734225D02*
D03*
X659000Y870750D02*
D03*
X649750Y870500D02*
D03*
X622500Y836750D02*
D03*
X815750Y742500D02*
D03*
X640125Y869375D02*
D03*
X785500Y590500D02*
D03*
X777875Y583875D02*
D03*
X643750Y457000D02*
D03*
X666500Y481500D02*
D03*
X707450Y593000D02*
D03*
X773808Y599500D02*
D03*
X808000Y920000D02*
D03*
X676750Y899250D02*
D03*
X760250Y281500D02*
D03*
X711906D02*
D03*
Y273500D02*
D03*
X705000Y281500D02*
D03*
Y273500D02*
D03*
X478500Y790750D02*
D03*
X746437Y273500D02*
D03*
Y281500D02*
D03*
X753344Y273500D02*
D03*
Y281500D02*
D03*
X732625Y273500D02*
D03*
Y281500D02*
D03*
X739531Y273500D02*
D03*
Y281500D02*
D03*
X718812Y273500D02*
D03*
Y281500D02*
D03*
X725719Y273500D02*
D03*
Y281500D02*
D03*
X753000Y397750D02*
D03*
Y389750D02*
D03*
X746000Y397750D02*
D03*
Y389750D02*
D03*
X738750D02*
D03*
Y397750D02*
D03*
X720250Y594750D02*
D03*
X720000Y603750D02*
D03*
X733000Y631000D02*
D03*
X732859Y614341D02*
D03*
X698000Y632500D02*
D03*
X689500Y702500D02*
D03*
X700000Y683500D02*
D03*
X696000Y881000D02*
D03*
X897250Y780250D02*
D03*
X897750Y746000D02*
D03*
X723608Y876190D02*
D03*
X710250Y882500D02*
D03*
X670750Y905500D02*
D03*
X536500Y1026250D02*
D03*
X670750Y1028000D02*
D03*
X588068Y950554D02*
D03*
D81*
X640550Y930300D02*
D03*
Y944300D02*
D03*
D82*
X685700Y978650D02*
D03*
Y945950D02*
D03*
D83*
X597750Y929000D02*
D03*
X616750D02*
D03*
X607250Y907000D02*
D03*
X922000Y1053000D02*
D03*
X912500Y1031000D02*
D03*
X931500D02*
D03*
D84*
X716500Y861500D02*
D03*
Y848800D02*
D03*
Y836100D02*
D03*
Y823400D02*
D03*
Y810700D02*
D03*
Y798000D02*
D03*
Y785300D02*
D03*
Y772600D02*
D03*
Y759900D02*
D03*
Y747200D02*
D03*
Y734500D02*
D03*
Y721800D02*
D03*
Y709100D02*
D03*
Y696400D02*
D03*
X605500Y697000D02*
D03*
Y709700D02*
D03*
Y722400D02*
D03*
Y735100D02*
D03*
Y747800D02*
D03*
Y760500D02*
D03*
Y773200D02*
D03*
Y785900D02*
D03*
Y798600D02*
D03*
Y811300D02*
D03*
Y824000D02*
D03*
Y836700D02*
D03*
Y849400D02*
D03*
Y862100D02*
D03*
D85*
X622100Y1028180D02*
D03*
X634800D02*
D03*
X647500D02*
D03*
X660200D02*
D03*
X622100Y969180D02*
D03*
X634800D02*
D03*
X647500D02*
D03*
X660200D02*
D03*
D86*
X908000Y1093000D02*
D03*
X894000D02*
D03*
D87*
X711720Y617750D02*
D03*
X683780D02*
D03*
X697750D02*
D03*
D88*
X462870Y843490D02*
D03*
X481870D02*
D03*
X472370Y820990D02*
D03*
M02*
