M48
;Layer_Color=9474304
;FILE_FORMAT=4:4
METRIC,LZ
;TYPE=PLATED
T1F00S00C0.3000
T2F00S00C0.8001
T3F00S00C0.9000
T4F00S00C1.0000
T5F00S00C1.3000
T6F00S00C1.7000
T7F00S00C1.8900
T8F00S00C3.2000
%
T01
X0027Y0018
X003
X0033
X0036
X0039
Y0024
X0036
X0033
X003
X00315Y0027
X00285
X003Y003
X0033
X00345Y0033
X00375
X0039Y0036
X0036
X0033
X003
X0027
X00285Y0039
X00315
X00345
X00375
X0039Y003
X00315Y0033
X00285
X0027Y003
X00315Y0021
X0042Y0024
X0045
X0048
X0051
X0054
X0057
X006
X0063
X0062554Y0026521
X0061575Y002785
X0066Y0024
X0069
X0072
X00718812Y002735
X00711906
X00705
Y002815
X00711906
X00718812
X00725719
X00732625
X00739531
X00746437
X00753344
X0076025
Y002735
X00753344
X00746437
X00739531
X00732625
X00725719
X00705Y0021
X0072Y0018
X0075
X0078
Y0024
X0069Y0018
X0066
X0063
X006
X0057
X0054
X0051
X0048
X0045
X0042
X00435Y0027
X00465
X0045Y003
X0042
X00435Y0033
X00465
X0048Y0036
X0051
X0054
X0057
X006
X0063
X00675Y0033
X0073875Y0038975
X00746
X00753
X0076025
X00555Y0039
X00525
X00495
X00465
X00435
X00405
X0042Y0036
X0045
X00405Y0033
Y0027
X008285Y0027775
X00829Y00243
X0084Y0024
X0081
X00825Y0021
X0084Y0018
X0087
X009
X0093
X0096
X00975Y0021
X00945
X00915
X00885
X009Y0024
X0093
X0096
X00975Y0027
X00945
X00915
X0093Y003
X0096
X00975Y0033
X00945
X00915
X0093Y0036
X0096
X00975Y0039
X00945
X00915
X009Y0036
Y003
X0087
X0081
X0084Y0036
X00855Y0039
X00795
X0081Y0018
Y0042
X00795Y0045
X0081Y0048
X0087
X008915Y00472
X009Y0048
X0093
X0096
X00975Y0051
X00945
X00915
X00885
X009Y0054
X0093
X0096
X00975Y0057
X00945
X0096Y006
X0093
X009
X0087
X0084
X0081
X00825Y0063
X00855
X00885
X00915
X00945
X00975
X0093Y0066
X009
X0087
X0084
X0081
X00825Y0069
X00855
X00885
X00915
X009Y0072
X0089775Y00746
X0089725Y0078025
X0087Y0078
X0093
X0096
X00975Y0075
X0096Y0072
X0087
X0081575Y007425
X00795Y0063
X0081Y0054
X0087
X00885Y0057
X00855
Y0045
X00884Y0044825
X00915Y0045
X00945
X00975
X0093Y0042
X0087
X0075
X00753Y0039775
X00746
X0073875
X0076025
X00735Y0045
X00705
X00675
X0064375Y00457
X006665Y004815
X0069Y0048
X0072
X00735Y0051
X0075Y0054
X0078
X007795Y0057225
X00777875Y00583875
X007855Y005905
X00773808Y005995
X00765Y0057
Y0063
X00733Y00631
X00732859Y00614341
X0072Y0060375
X0072025Y0059475
X0070745Y00593
X0069Y006
X00698Y006325
X007Y006835
X006895Y007025
X00645Y0069
X0066Y0066
X0063
X0058825Y0064725
X00585Y0069
X00555
X00525
X00495
X00465
X00435
X00405
X0042Y0072
X0045
X0048
X0051
X0054
X00525Y0075
X00495
X00465
X00435
X00405
X0042Y0078
X0045
X0048
X004785Y0079075
X0051Y0078
X0054
X00585Y0075
X0063Y0072
X00675Y0075
X00775145Y00734225
X00765Y0069
X00735
X0075Y0066
X0062125Y0060925
X006Y006
X00615Y0057
X00585
X00555
X00525
X00495
X00465
X00435
X00405
X0042Y006
X0045
X0048
X0051
X0054
X00555Y0063
X00525
X00495
X00465
X00435
X00405
X0042Y0066
X0045
X0048
X0051
X0054
Y0054
X0051
X0048
X0045
X0042
X00435Y0051
X00465
X00495
X00525
X00555
X0054Y0048
X0051
X0048
X0045
X0042
X00435Y0045
X00465
X00495
X00525
X00555
X0054Y0042
X0051
X0048
X0045
X0042
X00405Y0045
Y0051
X006Y0054
X0063
X0066
X0069
Y0042
X0066
X0063
X006
X005705Y00407
X0039Y0042
X0036
X0033
X003
X0027
X00285Y0045
X00315
X00345
X00375
X0039Y0048
X0036
X0033
X003
X0027
X00285Y0051
X00315
X00345
X00375
X0039Y0054
X0036
X0033
X003
X0027
X00285Y0057
X00315
X00345
X00375
X0039Y006
X0036
X0033
X003
X0027
X00285Y0063
X00315
X00345
X00375
X0039Y0066
X0036
X0033
X003
X0027
X00285Y0069
X00315
X00345
X00375
X0039Y0072
X0036
X0033
X003
X0027
X00285Y0075
X00315
X00345
X00375
X0039Y0078
X0036
X0033
X003
X0027
X00285Y0081
X00315
X003Y0084
X0027
X0027775Y00888
X00315Y0087
X00555
X00585
X0057Y0084
X0054
X00555Y0081
X00585
X006225Y0083675
X006255Y008495
X00624964Y00862857
X00640125Y00869375
X0064975Y008705
X00659Y0087075
X0067675Y0089925
X0067075Y009055
X00685Y00910001
X0068Y00920001
X0069
X00685Y00930001
X0068Y00960001
X0069
X007Y01000001
X0071
X0072
X00725Y01010001
X00715
X00705
X007Y01020001
X0071
X0072
X00725Y01030001
X00715
X00705
X00695
X00685
X0068Y01040001
X0069
X007
X0071
X0072
X00715Y01050001
X00705
X00695
X00685
X00675
X00665
X00655
X00645
X00635
X00625
X00615
X00605
X006Y01060001
X0061
X0062
X0063
X0064
X0065
X0066
X0067
X0068
X0069
X007
X0071
X0072
X00725Y01070001
X00735
X00745
X00755
X00765
X00775
X00785
X0078Y01080001
X0079
X00785Y01090001
X00775
X00765
X00755
X00745
X00735
X00725
X00715
X00705
X00695
X00685
X00675
X00665
X00655
X00645
X00635
X00625
X00615
X00605
X006Y01080001
X0061
X0062
X0063
X0064
X0065
X0066
X0067
X0068
X0069
X007
X0071
X0072
X0073
X0074
X0075
X0076
X0077
Y01060001
X00775Y01050001
Y01030001
X00765
X00755
X00745
X0075Y01040001
X0076
Y01020001
X0077
X0078
X00785Y01010001
X00775
X00765
X00755
X00745
X0075Y01020001
Y01000001
X0076
X0077
X0078
X0079Y01040001
X00745Y01050001
X00715Y01070001
X00705
X00695
X00685
X00675
X00665
X00655
X00645
X00635
X00625
X00615
X00605
X006Y01040001
X0061
X00605Y01030001
X0061Y01020001
Y00980001
X006
X00605Y00970001
X006Y00960001
X0061
X00625Y00950001
X0063Y00940001
X00625Y00930001
X0063Y00920001
X0064
X0065
X0066
X00696Y00881
X0071025Y008825
X00705Y0087
X00723608Y0087619
X0075Y0084
X0065Y01000001
X00655Y01010001
X0067075Y01028
X0067Y01040001
X005365Y0102625
X00588068Y00950554
X00808Y0092
X0081Y0084
X0087
X009
X00915Y0081
X00945
X00975
X0096Y0084
X00975Y0087
X00945
X00885Y0081
X00880001Y01000001
X00890001
X00895001Y01010001
X00885001
X00875001
X00865001
X00855
X00845
X00840001Y01020001
X00850001
X00860001
X00870001
X00880001
X00875001Y01030001
X00865001
X00855
X00845
X00850001Y01040001
X00860001
X00845Y01050001
X00850001Y01060001
X00855Y01070001
X00865001
X00875001
X00885001
X00880001Y01080001
X00870001
X00860001
X00850001
X00840001
X0083
X0082
X0081
X008
X00805Y01090001
X00815
X00825
X00835
X00845
X00855
X00865001
X00875001
X00885001
X00880001Y01060001
X00890001
X00900001
X00910001
X00905001Y01050001
X00895001
X00885001
X00890001Y01040001
X00900001
X00905001Y01030001
X00945001
X00940001Y01040001
X00945001Y01050001
X00940001Y01060001
X00945001Y01070001
Y01090001
X00940001Y01020001
X00945001Y01010001
X00935001
X00940001Y01000001
X00870001
X00860001
X00850001
X0083
X00825Y01030001
X0082Y01040001
X00825Y01050001
Y01070001
X00835
X00845
X00815
X00805
X00795
Y01090001
Y01030001
Y01010001
T02
X0080867Y007541
X0083407
X0085947
X0088487
X0091027
X0093567
X0078454Y0090396
X0075914
X0073374
Y0105636
X0075914
X0078454
X0080994
X0083534
X0086074
Y0090396
X0083534
X0080994
X0080867Y008551
X0083407
X0085947
X0088487
X0091027
X0093567
T03
X005905Y004307
Y004561
Y004815
Y005069
X0062025
Y004815
Y004561
Y004307
T04
X0079675Y0019975
Y0024475
X00798Y002795
Y003245
X0079875Y0035925
X0086375
X00863Y003245
Y002795
X0086175Y0024475
Y0019975
X0086375Y0040425
X0079875
T05
X0090825Y0043275
X0095825
Y0055775
X0090825
X00396464Y0091493
X0036818Y00943214
X00403535Y0097857
X0043182Y00950285
T06
X003223Y0116375
X003985
X008385
X009147
T07
X0045125Y00316
X0041375Y008035
T08
X002785Y002125
X0073775
X009585Y006725
X002785Y010525
M30
