G04*
G04 #@! TF.GenerationSoftware,Altium Limited,Altium Designer,21.0.9 (235)*
G04*
G04 Layer_Color=255*
%FSLAX44Y44*%
%MOMM*%
G71*
G04*
G04 #@! TF.SameCoordinates,3421A621-DC7B-4D7E-80C2-F70395B1EBD6*
G04*
G04*
G04 #@! TF.FilePolarity,Positive*
G04*
G01*
G75*
%ADD19R,1.5000X0.3000*%
%ADD20R,0.3000X1.5000*%
%ADD21R,5.7000X2.0000*%
G04:AMPARAMS|DCode=22|XSize=0.8mm|YSize=1.2mm|CornerRadius=0mm|HoleSize=0mm|Usage=FLASHONLY|Rotation=335.000|XOffset=0mm|YOffset=0mm|HoleType=Round|Shape=Rectangle|*
%AMROTATEDRECTD22*
4,1,4,-0.6161,-0.3747,-0.1090,0.7128,0.6161,0.3747,0.1090,-0.7128,-0.6161,-0.3747,0.0*
%
%ADD22ROTATEDRECTD22*%

%ADD23R,0.8000X0.9000*%
%ADD24R,1.1500X0.6000*%
%ADD25R,0.9000X0.8000*%
%ADD26R,3.2500X4.0000*%
%ADD27R,2.5000X1.5000*%
%ADD28R,1.5000X1.6000*%
%ADD29R,1.2000X1.2000*%
%ADD30R,1.4000X0.8500*%
%ADD31R,1.3500X1.3500*%
%ADD32R,2.6500X1.7500*%
%ADD33R,0.5499X1.1999*%
%ADD34R,5.0800X6.3500*%
%ADD35R,0.9000X1.8000*%
%ADD36R,4.7000X3.4000*%
%ADD37R,2.5000X1.2000*%
%ADD64C,2.0000*%
%ADD65R,2.0000X2.0000*%
%ADD66C,1.5500*%
%ADD67R,1.5500X1.5500*%
%ADD71R,1.2002X1.2002*%
%ADD72C,1.2002*%
%ADD73C,1.5000*%
%ADD74R,1.5000X1.5000*%
%ADD75P,2.7577X4X360.0*%
%ADD76C,1.9500*%
%ADD77C,2.5500*%
%ADD78C,5.0000*%
D19*
X661000Y630500D02*
D03*
Y625500D02*
D03*
Y620500D02*
D03*
Y615500D02*
D03*
Y610500D02*
D03*
Y605500D02*
D03*
Y600500D02*
D03*
Y595500D02*
D03*
Y590500D02*
D03*
Y585500D02*
D03*
Y580500D02*
D03*
Y575500D02*
D03*
X750000D02*
D03*
Y580500D02*
D03*
Y585500D02*
D03*
Y590500D02*
D03*
Y595500D02*
D03*
Y600500D02*
D03*
Y605500D02*
D03*
Y610500D02*
D03*
Y615500D02*
D03*
Y620500D02*
D03*
Y625500D02*
D03*
Y630500D02*
D03*
D20*
X678000Y558500D02*
D03*
X683000D02*
D03*
X688000D02*
D03*
X693000D02*
D03*
X698000D02*
D03*
X703000D02*
D03*
X708000D02*
D03*
X713000D02*
D03*
X718000D02*
D03*
X723000D02*
D03*
X728000D02*
D03*
X733000D02*
D03*
Y647500D02*
D03*
X728000D02*
D03*
X723000D02*
D03*
X718000D02*
D03*
X713000D02*
D03*
X708000D02*
D03*
X703000D02*
D03*
X698000D02*
D03*
X693000D02*
D03*
X688000D02*
D03*
X683000D02*
D03*
X678000D02*
D03*
D21*
X732250Y297000D02*
D03*
Y328000D02*
D03*
D22*
X308656Y947780D02*
D03*
X294844Y954220D02*
D03*
D23*
X608000Y331250D02*
D03*
X595000D02*
D03*
X726500Y393000D02*
D03*
X713500D02*
D03*
X589750Y273250D02*
D03*
X602750D02*
D03*
X680500Y671750D02*
D03*
X667500D02*
D03*
X675250Y687250D02*
D03*
X688250D02*
D03*
X675250Y702500D02*
D03*
X688250D02*
D03*
X633000Y581250D02*
D03*
X620000D02*
D03*
X759000Y470000D02*
D03*
X746000D02*
D03*
X759000Y450500D02*
D03*
X746000D02*
D03*
X759000Y431000D02*
D03*
X746000D02*
D03*
X636000Y311250D02*
D03*
X649000D02*
D03*
X661750Y384750D02*
D03*
X674750D02*
D03*
X664500Y289250D02*
D03*
X677500D02*
D03*
X636000Y289500D02*
D03*
X649000D02*
D03*
X661500Y363000D02*
D03*
X674500D02*
D03*
X636750Y336000D02*
D03*
X649750D02*
D03*
X758750Y489500D02*
D03*
X745750D02*
D03*
X633250Y609750D02*
D03*
X620250D02*
D03*
D24*
X591490Y301870D02*
D03*
X613990Y311370D02*
D03*
Y292370D02*
D03*
D25*
X312250Y883250D02*
D03*
Y896250D02*
D03*
X508730Y921250D02*
D03*
Y934250D02*
D03*
D26*
X562500Y994250D02*
D03*
D27*
X510000Y971750D02*
D03*
Y994250D02*
D03*
Y1016750D02*
D03*
D28*
X567500Y924250D02*
D03*
D29*
X536500Y914250D02*
D03*
Y934250D02*
D03*
D30*
X475000Y1080500D02*
D03*
Y1063000D02*
D03*
X435000Y1080500D02*
D03*
Y1063000D02*
D03*
D31*
X590500Y648250D02*
D03*
X637500D02*
D03*
D32*
X700250Y366000D02*
D03*
X743250D02*
D03*
X518500Y1051750D02*
D03*
X561500D02*
D03*
D33*
X684500Y340750D02*
D03*
X675000D02*
D03*
X665500D02*
D03*
Y314751D02*
D03*
X675000D02*
D03*
X684500D02*
D03*
D34*
X504350Y284300D02*
D03*
Y835600D02*
D03*
X360650Y835200D02*
D03*
Y283900D02*
D03*
D35*
X405000Y1024250D02*
D03*
X376000D02*
D03*
X404500Y1064250D02*
D03*
X375500D02*
D03*
D36*
X537750Y1097000D02*
D03*
D37*
X798000Y467125D02*
D03*
X853000D02*
D03*
Y517125D02*
D03*
X798000D02*
D03*
Y492125D02*
D03*
X853000D02*
D03*
D64*
X958250Y557750D02*
D03*
Y432750D02*
D03*
X908250Y557750D02*
D03*
D65*
Y432750D02*
D03*
D66*
X798750Y359250D02*
D03*
Y404250D02*
D03*
X863750Y359250D02*
D03*
X796750Y199750D02*
D03*
Y244750D02*
D03*
X861750Y199750D02*
D03*
X798000Y279500D02*
D03*
Y324500D02*
D03*
X863000Y279500D02*
D03*
D67*
X863750Y404250D02*
D03*
X861750Y244750D02*
D03*
X863000Y324500D02*
D03*
D71*
X733740Y903960D02*
D03*
X808670Y754100D02*
D03*
D72*
X759140Y903960D02*
D03*
X784540D02*
D03*
X809940D02*
D03*
X835340D02*
D03*
X860740D02*
D03*
Y1056360D02*
D03*
X835340D02*
D03*
X809940D02*
D03*
X784540D02*
D03*
X759140D02*
D03*
X733740D02*
D03*
X910270Y855100D02*
D03*
X935670D02*
D03*
X808670D02*
D03*
X834070D02*
D03*
X884870D02*
D03*
X859470D02*
D03*
X935670Y754100D02*
D03*
X910270D02*
D03*
X884870D02*
D03*
X859470D02*
D03*
X834070D02*
D03*
D73*
X620250Y430700D02*
D03*
Y456100D02*
D03*
Y481500D02*
D03*
X590500D02*
D03*
Y456100D02*
D03*
Y430700D02*
D03*
D74*
X620250Y506900D02*
D03*
X590500D02*
D03*
D75*
X403535Y978570D02*
D03*
D76*
X368180Y943214D02*
D03*
X396464Y914930D02*
D03*
X431820Y950285D02*
D03*
D77*
X322300Y1163750D02*
D03*
X398500D02*
D03*
X838500D02*
D03*
X914700D02*
D03*
D78*
X278500Y1052500D02*
D03*
X958500Y672500D02*
D03*
X737750Y212500D02*
D03*
X278500D02*
D03*
M02*
