G04*
G04 #@! TF.GenerationSoftware,Altium Limited,Altium Designer,21.0.9 (235)*
G04*
G04 Layer_Color=128*
%FSLAX44Y44*%
%MOMM*%
G71*
G04*
G04 #@! TF.SameCoordinates,3421A621-DC7B-4D7E-80C2-F70395B1EBD6*
G04*
G04*
G04 #@! TF.FilePolarity,Positive*
G04*
G01*
G75*
%ADD23R,0.8000X0.9000*%
%ADD24R,1.1500X0.6000*%
%ADD25R,0.9000X0.8000*%
%ADD80R,0.9000X0.8000*%
%ADD81R,1.2200X0.9100*%
%ADD82R,0.6000X1.6000*%
%ADD83O,2.2500X0.6000*%
%ADD84R,0.9000X2.5000*%
%ADD85R,0.8000X0.9000*%
%ADD86R,1.1684X1.6002*%
%ADD87R,0.6000X1.1500*%
D23*
X656250Y905000D02*
D03*
X643250D02*
D03*
X894500Y1073500D02*
D03*
X907500D02*
D03*
X922000Y1006500D02*
D03*
X909000D02*
D03*
X511500Y805000D02*
D03*
X524500D02*
D03*
X478250Y862000D02*
D03*
X465250D02*
D03*
X509250Y862500D02*
D03*
X522250D02*
D03*
D24*
X499990Y824370D02*
D03*
Y843370D02*
D03*
X522490Y833870D02*
D03*
D25*
X660550Y943800D02*
D03*
Y930800D02*
D03*
X685550Y1011300D02*
D03*
Y998300D02*
D03*
X603050Y1003800D02*
D03*
Y990800D02*
D03*
X931750Y1077000D02*
D03*
Y1090000D02*
D03*
X277750Y868000D02*
D03*
Y881000D02*
D03*
D80*
X640550Y930300D02*
D03*
Y944300D02*
D03*
D81*
X685700Y978650D02*
D03*
Y945950D02*
D03*
D82*
X597750Y929000D02*
D03*
X616750D02*
D03*
X607250Y907000D02*
D03*
X922000Y1053000D02*
D03*
X912500Y1031000D02*
D03*
X931500D02*
D03*
D83*
X716500Y861500D02*
D03*
Y848800D02*
D03*
Y836100D02*
D03*
Y823400D02*
D03*
Y810700D02*
D03*
Y798000D02*
D03*
Y785300D02*
D03*
Y772600D02*
D03*
Y759900D02*
D03*
Y747200D02*
D03*
Y734500D02*
D03*
Y721800D02*
D03*
Y709100D02*
D03*
Y696400D02*
D03*
X605500Y697000D02*
D03*
Y709700D02*
D03*
Y722400D02*
D03*
Y735100D02*
D03*
Y747800D02*
D03*
Y760500D02*
D03*
Y773200D02*
D03*
Y785900D02*
D03*
Y798600D02*
D03*
Y811300D02*
D03*
Y824000D02*
D03*
Y836700D02*
D03*
Y849400D02*
D03*
Y862100D02*
D03*
D84*
X622100Y1028180D02*
D03*
X634800D02*
D03*
X647500D02*
D03*
X660200D02*
D03*
X622100Y969180D02*
D03*
X634800D02*
D03*
X647500D02*
D03*
X660200D02*
D03*
D85*
X908000Y1093000D02*
D03*
X894000D02*
D03*
D86*
X697750Y617750D02*
D03*
D87*
X462870Y843490D02*
D03*
X481870D02*
D03*
X472370Y820990D02*
D03*
M02*
