G04*
G04 #@! TF.GenerationSoftware,Altium Limited,Altium Designer,21.0.9 (235)*
G04*
G04 Layer_Color=8388736*
%FSLAX44Y44*%
%MOMM*%
G71*
G04*
G04 #@! TF.SameCoordinates,3421A621-DC7B-4D7E-80C2-F70395B1EBD6*
G04*
G04*
G04 #@! TF.FilePolarity,Negative*
G04*
G01*
G75*
%ADD37R,2.5000X1.2000*%
%ADD38R,1.7032X0.5032*%
%ADD39R,0.5032X1.7032*%
%ADD40R,5.9032X2.2032*%
G04:AMPARAMS|DCode=41|XSize=1.0032mm|YSize=1.4032mm|CornerRadius=0mm|HoleSize=0mm|Usage=FLASHONLY|Rotation=335.000|XOffset=0mm|YOffset=0mm|HoleType=Round|Shape=Rectangle|*
%AMROTATEDRECTD41*
4,1,4,-0.7511,-0.4239,-0.1581,0.8479,0.7511,0.4239,0.1581,-0.8479,-0.7511,-0.4239,0.0*
%
%ADD41ROTATEDRECTD41*%

%ADD42R,1.0032X1.1032*%
%ADD43R,1.3532X0.8032*%
%ADD44R,1.1032X1.0032*%
%ADD45R,3.4532X4.2032*%
%ADD46R,2.7032X1.7032*%
%ADD47R,1.7032X1.8032*%
%ADD48R,1.4032X1.4032*%
%ADD49R,1.6032X1.0532*%
%ADD50R,1.5532X1.5532*%
%ADD51R,2.8532X1.9532*%
%ADD52R,0.7531X1.4031*%
%ADD53R,5.2832X6.5532*%
%ADD54R,1.1032X2.0032*%
%ADD55R,4.9032X3.6032*%
%ADD56R,1.4034X1.4034*%
%ADD57C,1.4034*%
%ADD58C,1.7032*%
%ADD59R,1.7032X1.7032*%
%ADD60P,3.0451X4X360.0*%
%ADD61C,2.1532*%
%ADD62C,2.7532*%
%ADD63R,0.2032X0.2032*%
%ADD64C,2.0000*%
%ADD65R,2.0000X2.0000*%
%ADD66C,1.5500*%
%ADD67R,1.5500X1.5500*%
%ADD68C,5.2032*%
%ADD69C,0.7032*%
G36*
X693250Y228351D02*
Y228112D01*
Y227873D01*
Y227635D01*
Y227396D01*
Y227157D01*
Y226918D01*
Y226679D01*
Y226440D01*
Y226201D01*
Y225962D01*
Y225723D01*
Y225485D01*
Y225246D01*
Y225007D01*
Y224768D01*
Y224529D01*
Y224290D01*
Y224051D01*
Y223812D01*
Y223573D01*
Y223334D01*
Y223095D01*
Y222857D01*
Y222618D01*
Y222379D01*
Y222140D01*
Y221901D01*
Y221662D01*
Y221423D01*
Y221184D01*
Y220945D01*
Y220707D01*
Y220468D01*
Y220229D01*
Y219990D01*
Y219751D01*
Y219512D01*
Y219273D01*
Y219034D01*
Y218795D01*
Y218556D01*
Y218318D01*
Y218079D01*
Y217840D01*
Y217601D01*
Y217362D01*
Y217123D01*
Y216884D01*
Y216645D01*
Y216406D01*
Y216168D01*
Y215929D01*
Y215690D01*
Y215451D01*
Y215212D01*
Y214973D01*
Y214734D01*
Y214495D01*
Y214256D01*
Y214018D01*
Y213779D01*
Y213540D01*
Y213301D01*
Y213062D01*
Y212823D01*
Y212584D01*
Y212345D01*
Y212106D01*
Y211867D01*
Y211628D01*
Y211390D01*
Y211151D01*
Y210912D01*
Y210673D01*
Y210434D01*
Y210195D01*
Y209956D01*
Y209717D01*
Y209478D01*
Y209240D01*
Y209001D01*
Y208762D01*
Y208523D01*
Y208284D01*
Y208045D01*
Y207806D01*
Y207567D01*
Y207328D01*
Y207090D01*
Y206851D01*
Y206612D01*
Y206373D01*
Y206134D01*
Y205895D01*
Y205656D01*
Y205417D01*
Y205178D01*
Y204939D01*
Y204701D01*
Y204462D01*
Y204223D01*
Y203984D01*
Y203745D01*
Y203506D01*
Y203267D01*
Y203028D01*
Y202789D01*
Y202551D01*
Y202312D01*
Y202073D01*
Y201834D01*
Y201595D01*
Y201356D01*
Y201117D01*
Y200878D01*
Y200639D01*
Y200400D01*
Y200161D01*
Y199923D01*
Y199684D01*
Y199445D01*
Y199206D01*
Y198967D01*
Y198728D01*
Y198489D01*
Y198250D01*
Y198011D01*
Y197773D01*
Y197534D01*
Y197295D01*
Y197056D01*
Y196817D01*
Y196578D01*
Y196339D01*
Y196100D01*
Y195861D01*
Y195623D01*
Y195384D01*
Y195145D01*
Y194906D01*
Y194667D01*
Y194428D01*
Y194189D01*
Y193950D01*
Y193711D01*
Y193472D01*
Y193234D01*
Y192995D01*
Y192756D01*
Y192517D01*
Y192278D01*
Y192039D01*
Y191800D01*
Y191561D01*
Y191322D01*
Y191083D01*
Y190845D01*
Y190606D01*
Y190367D01*
Y190128D01*
Y189889D01*
Y189650D01*
Y189411D01*
Y189172D01*
Y188933D01*
Y188694D01*
Y188456D01*
Y188217D01*
X327500D01*
Y188456D01*
Y188694D01*
Y188933D01*
Y189172D01*
Y189411D01*
Y189650D01*
Y189889D01*
Y190128D01*
Y190367D01*
Y190606D01*
Y190845D01*
Y191083D01*
Y191322D01*
Y191561D01*
Y191800D01*
Y192039D01*
Y192278D01*
Y192517D01*
Y192756D01*
Y192995D01*
Y193234D01*
Y193472D01*
Y193711D01*
Y193950D01*
Y194189D01*
Y194428D01*
Y194667D01*
Y194906D01*
Y195145D01*
Y195384D01*
Y195623D01*
Y195861D01*
Y196100D01*
Y196339D01*
Y196578D01*
Y196817D01*
Y197056D01*
Y197295D01*
Y197534D01*
Y197773D01*
Y198011D01*
Y198250D01*
Y198489D01*
Y198728D01*
Y198967D01*
Y199206D01*
Y199445D01*
Y199684D01*
Y199923D01*
Y200161D01*
Y200400D01*
Y200639D01*
Y200878D01*
Y201117D01*
Y201356D01*
Y201595D01*
Y201834D01*
Y202073D01*
Y202312D01*
Y202551D01*
Y202789D01*
Y203028D01*
Y203267D01*
Y203506D01*
Y203745D01*
Y203984D01*
Y204223D01*
Y204462D01*
Y204701D01*
Y204939D01*
Y205178D01*
Y205417D01*
Y205656D01*
Y205895D01*
Y206134D01*
Y206373D01*
Y206612D01*
Y206851D01*
Y207090D01*
Y207328D01*
Y207567D01*
Y207806D01*
Y208045D01*
Y208284D01*
Y208523D01*
Y208762D01*
Y209001D01*
Y209240D01*
Y209478D01*
Y209717D01*
Y209956D01*
Y210195D01*
Y210434D01*
Y210673D01*
Y210912D01*
Y211151D01*
Y211390D01*
Y211628D01*
Y211867D01*
Y212106D01*
Y212345D01*
Y212584D01*
Y212823D01*
Y213062D01*
Y213301D01*
Y213540D01*
Y213779D01*
Y214018D01*
Y214256D01*
Y214495D01*
Y214734D01*
Y214973D01*
Y215212D01*
Y215451D01*
Y215690D01*
Y215929D01*
Y216168D01*
Y216406D01*
Y216645D01*
Y216884D01*
Y217123D01*
Y217362D01*
Y217601D01*
Y217840D01*
Y218079D01*
Y218318D01*
Y218556D01*
Y218795D01*
Y219034D01*
Y219273D01*
Y219512D01*
Y219751D01*
Y219990D01*
Y220229D01*
Y220468D01*
Y220707D01*
Y220945D01*
Y221184D01*
Y221423D01*
Y221662D01*
Y221901D01*
Y222140D01*
Y222379D01*
Y222618D01*
Y222857D01*
Y223095D01*
Y223334D01*
Y223573D01*
Y223812D01*
Y224051D01*
Y224290D01*
Y224529D01*
Y224768D01*
Y225007D01*
Y225246D01*
Y225485D01*
Y225723D01*
Y225962D01*
Y226201D01*
Y226440D01*
Y226679D01*
Y226918D01*
Y227157D01*
Y227396D01*
Y227635D01*
Y227873D01*
Y228112D01*
Y228351D01*
Y228590D01*
X693250D01*
Y228351D01*
D02*
G37*
%LPC*%
G36*
X687278Y223334D02*
X333472D01*
Y223095D01*
X333233D01*
Y222857D01*
X332995D01*
Y222618D01*
Y222379D01*
X332756D01*
Y222140D01*
Y221901D01*
Y221662D01*
Y221423D01*
Y221184D01*
Y220945D01*
Y220707D01*
Y220468D01*
Y220229D01*
Y219990D01*
Y219751D01*
Y219512D01*
Y219273D01*
Y219034D01*
Y218795D01*
Y218556D01*
Y218318D01*
Y218079D01*
Y217840D01*
Y217601D01*
Y217362D01*
Y217123D01*
Y216884D01*
Y216645D01*
Y216406D01*
Y216168D01*
Y215929D01*
Y215690D01*
Y215451D01*
Y215212D01*
Y214973D01*
Y214734D01*
Y214495D01*
Y214256D01*
Y214018D01*
Y213779D01*
Y213540D01*
Y213301D01*
Y213062D01*
Y212823D01*
Y212584D01*
Y212345D01*
Y212106D01*
Y211867D01*
Y211628D01*
Y211390D01*
Y211151D01*
Y210912D01*
Y210673D01*
Y210434D01*
Y210195D01*
Y209956D01*
Y209717D01*
Y209478D01*
Y209240D01*
Y209001D01*
Y208762D01*
Y208523D01*
Y208284D01*
Y208045D01*
Y207806D01*
Y207567D01*
Y207328D01*
Y207090D01*
Y206851D01*
Y206612D01*
Y206373D01*
Y206134D01*
Y205895D01*
Y205656D01*
Y205417D01*
Y205178D01*
Y204939D01*
Y204701D01*
Y204462D01*
Y204223D01*
Y203984D01*
Y203745D01*
Y203506D01*
Y203267D01*
Y203028D01*
Y202789D01*
Y202551D01*
Y202312D01*
Y202073D01*
Y201834D01*
Y201595D01*
Y201356D01*
Y201117D01*
Y200878D01*
Y200639D01*
Y200400D01*
Y200161D01*
Y199923D01*
Y199684D01*
Y199445D01*
Y199206D01*
Y198967D01*
Y198728D01*
Y198489D01*
Y198250D01*
Y198011D01*
Y197773D01*
Y197534D01*
Y197295D01*
Y197056D01*
Y196817D01*
Y196578D01*
Y196339D01*
Y196100D01*
Y195861D01*
Y195623D01*
Y195384D01*
Y195145D01*
Y194906D01*
Y194667D01*
Y194428D01*
Y194189D01*
Y193950D01*
Y193711D01*
X332995D01*
Y193472D01*
X333233D01*
Y193234D01*
X687516D01*
Y193472D01*
X687755D01*
Y193711D01*
X687994D01*
Y193950D01*
Y194189D01*
Y194428D01*
Y194667D01*
Y194906D01*
Y195145D01*
Y195384D01*
Y195623D01*
Y195861D01*
Y196100D01*
Y196339D01*
Y196578D01*
Y196817D01*
Y197056D01*
Y197295D01*
Y197534D01*
Y197773D01*
Y198011D01*
Y198250D01*
Y198489D01*
Y198728D01*
Y198967D01*
Y199206D01*
Y199445D01*
Y199684D01*
Y199923D01*
Y200161D01*
Y200400D01*
Y200639D01*
Y200878D01*
Y201117D01*
Y201356D01*
Y201595D01*
Y201834D01*
Y202073D01*
Y202312D01*
Y202551D01*
Y202789D01*
Y203028D01*
Y203267D01*
Y203506D01*
Y203745D01*
Y203984D01*
Y204223D01*
Y204462D01*
Y204701D01*
Y204939D01*
Y205178D01*
Y205417D01*
Y205656D01*
Y205895D01*
Y206134D01*
Y206373D01*
Y206612D01*
Y206851D01*
Y207090D01*
Y207328D01*
Y207567D01*
Y207806D01*
Y208045D01*
Y208284D01*
Y208523D01*
Y208762D01*
Y209001D01*
Y209240D01*
Y209478D01*
Y209717D01*
Y209956D01*
Y210195D01*
Y210434D01*
Y210673D01*
Y210912D01*
Y211151D01*
Y211390D01*
Y211628D01*
Y211867D01*
Y212106D01*
Y212345D01*
Y212584D01*
Y212823D01*
Y213062D01*
Y213301D01*
Y213540D01*
Y213779D01*
Y214018D01*
Y214256D01*
Y214495D01*
Y214734D01*
Y214973D01*
Y215212D01*
Y215451D01*
Y215690D01*
Y215929D01*
Y216168D01*
Y216406D01*
Y216645D01*
Y216884D01*
Y217123D01*
Y217362D01*
Y217601D01*
Y217840D01*
Y218079D01*
Y218318D01*
Y218556D01*
Y218795D01*
Y219034D01*
Y219273D01*
Y219512D01*
Y219751D01*
Y219990D01*
Y220229D01*
Y220468D01*
Y220707D01*
Y220945D01*
Y221184D01*
Y221423D01*
Y221662D01*
Y221901D01*
Y222140D01*
Y222379D01*
X687755D01*
Y222618D01*
Y222857D01*
X687516D01*
Y223095D01*
X687278D01*
Y223334D01*
D02*
G37*
%LPD*%
G36*
X468449Y216884D02*
X468927D01*
Y216645D01*
Y216406D01*
X469165D01*
Y216168D01*
X468927D01*
Y215929D01*
Y215690D01*
Y215451D01*
X468688D01*
Y215212D01*
X468210D01*
Y214973D01*
X466538D01*
Y215212D01*
X466299D01*
Y215451D01*
Y215690D01*
Y215929D01*
Y216168D01*
Y216406D01*
Y216645D01*
X466538D01*
Y216884D01*
X466777D01*
Y217123D01*
X468449D01*
Y216884D01*
D02*
G37*
G36*
X478721Y212345D02*
X479199D01*
Y212106D01*
X479438D01*
Y211867D01*
X479677D01*
Y211628D01*
Y211390D01*
Y211151D01*
Y210912D01*
X479438D01*
Y210673D01*
Y210434D01*
X479199D01*
Y210195D01*
Y209956D01*
X478960D01*
Y209717D01*
X478721D01*
Y209478D01*
X478005D01*
Y209717D01*
X477766D01*
Y209956D01*
X477527D01*
Y210195D01*
X477288D01*
Y210434D01*
X475854D01*
Y210195D01*
X475138D01*
Y209956D01*
X474899D01*
Y209717D01*
X474421D01*
Y209478D01*
X473704D01*
Y209240D01*
X473227D01*
Y209001D01*
X472988D01*
Y208762D01*
Y208523D01*
X472749D01*
Y208284D01*
X472510D01*
Y208045D01*
X472271D01*
Y207806D01*
X472032D01*
Y207567D01*
Y207328D01*
X471793D01*
Y207090D01*
Y206851D01*
Y206612D01*
Y206373D01*
Y206134D01*
Y205895D01*
Y205656D01*
X471554D01*
Y205417D01*
Y205178D01*
Y204939D01*
Y204701D01*
Y204462D01*
X471793D01*
Y204223D01*
Y203984D01*
Y203745D01*
X472032D01*
Y203506D01*
Y203267D01*
X472271D01*
Y203028D01*
X472510D01*
Y202789D01*
X472749D01*
Y202551D01*
X473227D01*
Y202312D01*
X475377D01*
Y202551D01*
X475616D01*
Y202789D01*
X475854D01*
Y203028D01*
X476332D01*
Y203267D01*
X477049D01*
Y203028D01*
X477288D01*
Y202789D01*
X477527D01*
Y202551D01*
Y202312D01*
X477766D01*
Y202073D01*
Y201834D01*
Y201595D01*
X477527D01*
Y201356D01*
Y201117D01*
X477288D01*
Y200878D01*
X477049D01*
Y200639D01*
X476810D01*
Y200400D01*
X476093D01*
Y200161D01*
X471793D01*
Y200400D01*
X471315D01*
Y200639D01*
X471077D01*
Y200878D01*
X470838D01*
Y201117D01*
X470360D01*
Y201356D01*
X470121D01*
Y201595D01*
X469882D01*
Y201834D01*
X469643D01*
Y202073D01*
Y202312D01*
Y202551D01*
X469404D01*
Y202789D01*
Y203028D01*
X469165D01*
Y203267D01*
Y203506D01*
X468927D01*
Y203745D01*
Y203984D01*
Y204223D01*
Y204462D01*
Y204701D01*
Y204939D01*
Y205178D01*
Y205417D01*
Y205656D01*
Y205895D01*
Y206134D01*
X469165D01*
Y206373D01*
Y206612D01*
Y206851D01*
X469404D01*
Y207090D01*
Y207328D01*
Y207567D01*
X469643D01*
Y207806D01*
Y208045D01*
Y208284D01*
X469882D01*
Y208523D01*
Y208762D01*
X470121D01*
Y209001D01*
X470360D01*
Y209240D01*
Y209478D01*
X470599D01*
Y209717D01*
X470838D01*
Y209956D01*
Y210195D01*
X471077D01*
Y210434D01*
X471315D01*
Y210673D01*
X471554D01*
Y210912D01*
X472032D01*
Y211151D01*
X472271D01*
Y211390D01*
X472749D01*
Y211628D01*
X473227D01*
Y211867D01*
X473466D01*
Y212106D01*
X473704D01*
Y212345D01*
X474182D01*
Y212584D01*
X478721D01*
Y212345D01*
D02*
G37*
G36*
X543940Y216884D02*
X544179D01*
Y216645D01*
Y216406D01*
Y216168D01*
Y215929D01*
Y215690D01*
Y215451D01*
X543940D01*
Y215212D01*
Y214973D01*
Y214734D01*
Y214495D01*
Y214256D01*
Y214018D01*
Y213779D01*
Y213540D01*
Y213301D01*
Y213062D01*
Y212823D01*
X543701D01*
Y212584D01*
Y212345D01*
Y212106D01*
Y211867D01*
Y211628D01*
Y211390D01*
Y211151D01*
X543462D01*
Y210912D01*
Y210673D01*
Y210434D01*
Y210195D01*
X543223D01*
Y209956D01*
Y209717D01*
Y209478D01*
X542984D01*
Y209240D01*
Y209001D01*
Y208762D01*
Y208523D01*
Y208284D01*
Y208045D01*
Y207806D01*
Y207567D01*
Y207328D01*
Y207090D01*
Y206851D01*
Y206612D01*
X542745D01*
Y206373D01*
Y206134D01*
Y205895D01*
Y205656D01*
Y205417D01*
X542506D01*
Y205178D01*
Y204939D01*
Y204701D01*
Y204462D01*
Y204223D01*
Y203984D01*
Y203745D01*
Y203506D01*
X542268D01*
Y203267D01*
Y203028D01*
X542029D01*
Y202789D01*
Y202551D01*
Y202312D01*
X541790D01*
Y202073D01*
Y201834D01*
Y201595D01*
Y201356D01*
Y201117D01*
Y200878D01*
Y200639D01*
Y200400D01*
X541551D01*
Y200161D01*
X539401D01*
Y200400D01*
X539162D01*
Y200639D01*
X538923D01*
Y200878D01*
Y201117D01*
X539162D01*
Y201356D01*
X539401D01*
Y201595D01*
Y201834D01*
X539640D01*
Y202073D01*
Y202312D01*
Y202551D01*
Y202789D01*
Y203028D01*
Y203267D01*
Y203506D01*
Y203745D01*
X539879D01*
Y203984D01*
Y204223D01*
Y204462D01*
Y204701D01*
Y204939D01*
Y205178D01*
Y205417D01*
Y205656D01*
X540118D01*
Y205895D01*
Y206134D01*
Y206373D01*
Y206612D01*
X540356D01*
Y206851D01*
Y207090D01*
Y207328D01*
Y207567D01*
Y207806D01*
X540595D01*
Y208045D01*
Y208284D01*
Y208523D01*
X540834D01*
Y208762D01*
Y209001D01*
Y209240D01*
Y209478D01*
Y209717D01*
Y209956D01*
Y210195D01*
Y210434D01*
Y210673D01*
Y210912D01*
X540595D01*
Y211151D01*
X540118D01*
Y210912D01*
X539879D01*
Y210673D01*
X539640D01*
Y210434D01*
Y210195D01*
X539401D01*
Y209956D01*
Y209717D01*
X539162D01*
Y209478D01*
Y209240D01*
X538923D01*
Y209001D01*
X538684D01*
Y208762D01*
X538445D01*
Y208523D01*
Y208284D01*
Y208045D01*
X538206D01*
Y207806D01*
Y207567D01*
X537967D01*
Y207328D01*
X537729D01*
Y207090D01*
X537490D01*
Y206851D01*
Y206612D01*
X537251D01*
Y206373D01*
Y206134D01*
X537012D01*
Y205895D01*
X536773D01*
Y205656D01*
Y205417D01*
X536534D01*
Y205178D01*
X536295D01*
Y204939D01*
Y204701D01*
X536056D01*
Y204462D01*
Y204223D01*
X535817D01*
Y203984D01*
X535578D01*
Y203745D01*
X535340D01*
Y203506D01*
X535101D01*
Y203267D01*
Y203028D01*
X534862D01*
Y202789D01*
Y202551D01*
X534384D01*
Y202312D01*
X532712D01*
Y202551D01*
X532234D01*
Y202789D01*
X531995D01*
Y203028D01*
X531756D01*
Y203267D01*
Y203506D01*
Y203745D01*
Y203984D01*
Y204223D01*
Y204462D01*
Y204701D01*
Y204939D01*
Y205178D01*
Y205417D01*
Y205656D01*
Y205895D01*
Y206134D01*
Y206373D01*
X531517D01*
Y206612D01*
Y206851D01*
Y207090D01*
Y207328D01*
X531278D01*
Y207567D01*
Y207806D01*
X531040D01*
Y208045D01*
Y208284D01*
Y208523D01*
Y208762D01*
Y209001D01*
Y209240D01*
Y209478D01*
Y209717D01*
X530801D01*
Y209956D01*
Y210195D01*
Y210434D01*
X530562D01*
Y210673D01*
X530323D01*
Y210912D01*
X529845D01*
Y210673D01*
X529606D01*
Y210434D01*
X529367D01*
Y210195D01*
Y209956D01*
X529128D01*
Y209717D01*
Y209478D01*
Y209240D01*
Y209001D01*
Y208762D01*
Y208523D01*
Y208284D01*
Y208045D01*
X528889D01*
Y207806D01*
Y207567D01*
Y207328D01*
X528651D01*
Y207090D01*
Y206851D01*
X528412D01*
Y206612D01*
Y206373D01*
X528173D01*
Y206134D01*
Y205895D01*
Y205656D01*
Y205417D01*
Y205178D01*
X527934D01*
Y204939D01*
Y204701D01*
Y204462D01*
Y204223D01*
Y203984D01*
Y203745D01*
X527695D01*
Y203506D01*
Y203267D01*
Y203028D01*
Y202789D01*
X527456D01*
Y202551D01*
Y202312D01*
X527217D01*
Y202073D01*
Y201834D01*
Y201595D01*
X526978D01*
Y201356D01*
Y201117D01*
Y200878D01*
Y200639D01*
X526739D01*
Y200400D01*
X526501D01*
Y200161D01*
X524350D01*
Y200400D01*
X524112D01*
Y200639D01*
Y200878D01*
Y201117D01*
X524350D01*
Y201356D01*
Y201595D01*
X524589D01*
Y201834D01*
Y202073D01*
X524828D01*
Y202312D01*
Y202551D01*
Y202789D01*
Y203028D01*
Y203267D01*
Y203506D01*
Y203745D01*
Y203984D01*
X525067D01*
Y204223D01*
Y204462D01*
Y204701D01*
X525306D01*
Y204939D01*
Y205178D01*
X525545D01*
Y205417D01*
Y205656D01*
X525784D01*
Y205895D01*
Y206134D01*
Y206373D01*
X526023D01*
Y206612D01*
Y206851D01*
Y207090D01*
Y207328D01*
Y207567D01*
Y207806D01*
Y208045D01*
X526262D01*
Y208284D01*
Y208523D01*
Y208762D01*
X526501D01*
Y209001D01*
Y209240D01*
X526739D01*
Y209478D01*
Y209717D01*
X526978D01*
Y209956D01*
Y210195D01*
Y210434D01*
Y210673D01*
Y210912D01*
X527217D01*
Y211151D01*
Y211390D01*
Y211628D01*
X527456D01*
Y211867D01*
Y212106D01*
Y212345D01*
Y212584D01*
X527695D01*
Y212823D01*
Y213062D01*
Y213301D01*
X527934D01*
Y213540D01*
Y213779D01*
X528173D01*
Y214018D01*
Y214256D01*
Y214495D01*
Y214734D01*
X528412D01*
Y214973D01*
Y215212D01*
Y215451D01*
Y215690D01*
X528651D01*
Y215929D01*
Y216168D01*
X528889D01*
Y216406D01*
Y216645D01*
X529128D01*
Y216884D01*
X529367D01*
Y217123D01*
X531756D01*
Y216884D01*
X532234D01*
Y216645D01*
Y216406D01*
X532473D01*
Y216168D01*
Y215929D01*
Y215690D01*
Y215451D01*
Y215212D01*
X532712D01*
Y214973D01*
Y214734D01*
Y214495D01*
Y214256D01*
Y214018D01*
Y213779D01*
Y213540D01*
X532951D01*
Y213301D01*
Y213062D01*
Y212823D01*
Y212584D01*
Y212345D01*
Y212106D01*
X533190D01*
Y211867D01*
Y211628D01*
Y211390D01*
X533428D01*
Y211151D01*
Y210912D01*
Y210673D01*
Y210434D01*
Y210195D01*
X533667D01*
Y209956D01*
Y209717D01*
Y209478D01*
Y209240D01*
Y209001D01*
Y208762D01*
Y208523D01*
Y208284D01*
Y208045D01*
Y207806D01*
Y207567D01*
Y207328D01*
X533906D01*
Y207090D01*
Y206851D01*
Y206612D01*
X534384D01*
Y206373D01*
X534623D01*
Y206612D01*
X534862D01*
Y206851D01*
X535101D01*
Y207090D01*
Y207328D01*
X535340D01*
Y207567D01*
Y207806D01*
X535578D01*
Y208045D01*
Y208284D01*
X535817D01*
Y208523D01*
X536056D01*
Y208762D01*
Y209001D01*
X536295D01*
Y209240D01*
Y209478D01*
X536534D01*
Y209717D01*
X536773D01*
Y209956D01*
X537012D01*
Y210195D01*
X537251D01*
Y210434D01*
Y210673D01*
X537490D01*
Y210912D01*
Y211151D01*
Y211390D01*
X537729D01*
Y211628D01*
X537967D01*
Y211867D01*
Y212106D01*
X538206D01*
Y212345D01*
X538445D01*
Y212584D01*
Y212823D01*
X538684D01*
Y213062D01*
Y213301D01*
X538923D01*
Y213540D01*
X539162D01*
Y213779D01*
X539401D01*
Y214018D01*
X539640D01*
Y214256D01*
Y214495D01*
Y214734D01*
X539879D01*
Y214973D01*
Y215212D01*
X540118D01*
Y215451D01*
X540356D01*
Y215690D01*
X540595D01*
Y215929D01*
Y216168D01*
X540834D01*
Y216406D01*
Y216645D01*
X541073D01*
Y216884D01*
X541312D01*
Y217123D01*
X543940D01*
Y216884D01*
D02*
G37*
G36*
X502850Y207806D02*
X503328D01*
Y207567D01*
X503567D01*
Y207328D01*
X503805D01*
Y207090D01*
Y206851D01*
Y206612D01*
X503567D01*
Y206373D01*
Y206134D01*
X503089D01*
Y205895D01*
X501894D01*
Y205656D01*
X501655D01*
Y205895D01*
X498788D01*
Y205656D01*
X498072D01*
Y205895D01*
X497355D01*
Y206134D01*
Y206373D01*
Y206612D01*
X497116D01*
Y206851D01*
X497355D01*
Y207090D01*
Y207328D01*
Y207567D01*
X497594D01*
Y207806D01*
X498311D01*
Y208045D01*
X502850D01*
Y207806D01*
D02*
G37*
G36*
X445276D02*
X445515D01*
Y207567D01*
Y207328D01*
Y207090D01*
Y206851D01*
Y206612D01*
Y206373D01*
Y206134D01*
X445276D01*
Y205895D01*
X444798D01*
Y205656D01*
X444081D01*
Y205895D01*
X439542D01*
Y206134D01*
X439303D01*
Y206373D01*
Y206612D01*
Y206851D01*
Y207090D01*
X439542D01*
Y207328D01*
Y207567D01*
X439781D01*
Y207806D01*
X440259D01*
Y208045D01*
X445276D01*
Y207806D01*
D02*
G37*
G36*
X488516Y212345D02*
X488994D01*
Y212106D01*
X489233D01*
Y211867D01*
X489711D01*
Y211628D01*
X489949D01*
Y211390D01*
X490188D01*
Y211151D01*
Y210912D01*
Y210673D01*
X490427D01*
Y210434D01*
Y210195D01*
Y209956D01*
X490666D01*
Y209717D01*
Y209478D01*
Y209240D01*
X490905D01*
Y209001D01*
X490666D01*
Y208762D01*
Y208523D01*
Y208284D01*
X490427D01*
Y208045D01*
Y207806D01*
X490188D01*
Y207567D01*
Y207328D01*
X489949D01*
Y207090D01*
Y206851D01*
X489711D01*
Y206612D01*
X489233D01*
Y206373D01*
Y206134D01*
X488755D01*
Y205895D01*
X488277D01*
Y205656D01*
X488038D01*
Y205417D01*
X487560D01*
Y205178D01*
X487083D01*
Y204939D01*
X485410D01*
Y204701D01*
X482544D01*
Y204462D01*
X482066D01*
Y204223D01*
Y203984D01*
Y203745D01*
Y203506D01*
Y203267D01*
X482305D01*
Y203028D01*
X482783D01*
Y202789D01*
X483021D01*
Y202551D01*
X483499D01*
Y202312D01*
X486127D01*
Y202551D01*
X486605D01*
Y202789D01*
X486844D01*
Y203028D01*
X487322D01*
Y203267D01*
X488038D01*
Y203028D01*
X488516D01*
Y202789D01*
Y202551D01*
X488755D01*
Y202312D01*
Y202073D01*
Y201834D01*
X488516D01*
Y201595D01*
X488277D01*
Y201356D01*
Y201117D01*
X488038D01*
Y200878D01*
X487799D01*
Y200639D01*
X487560D01*
Y200400D01*
X487083D01*
Y200161D01*
X481827D01*
Y200400D01*
X481588D01*
Y200639D01*
X481349D01*
Y200878D01*
X481110D01*
Y201117D01*
X480871D01*
Y201356D01*
X480393D01*
Y201595D01*
X480155D01*
Y201834D01*
Y202073D01*
X479916D01*
Y202312D01*
Y202551D01*
X479677D01*
Y202789D01*
Y203028D01*
X479438D01*
Y203267D01*
Y203506D01*
Y203745D01*
Y203984D01*
X479199D01*
Y204223D01*
Y204462D01*
Y204701D01*
Y204939D01*
Y205178D01*
Y205417D01*
X479438D01*
Y205656D01*
Y205895D01*
Y206134D01*
X479677D01*
Y206373D01*
Y206612D01*
X479916D01*
Y206851D01*
Y207090D01*
Y207328D01*
X480155D01*
Y207567D01*
Y207806D01*
Y208045D01*
Y208284D01*
Y208523D01*
X480393D01*
Y208762D01*
X480632D01*
Y209001D01*
X480871D01*
Y209240D01*
Y209478D01*
X481110D01*
Y209717D01*
Y209956D01*
X481349D01*
Y210195D01*
X481588D01*
Y210434D01*
X481827D01*
Y210673D01*
X482066D01*
Y210912D01*
X482305D01*
Y211151D01*
X482544D01*
Y211390D01*
X483021D01*
Y211628D01*
X483499D01*
Y211867D01*
X483738D01*
Y212106D01*
X483977D01*
Y212345D01*
X484455D01*
Y212584D01*
X488516D01*
Y212345D01*
D02*
G37*
G36*
X457221Y216884D02*
X457698D01*
Y216645D01*
X458176D01*
Y216406D01*
X458415D01*
Y216168D01*
X459132D01*
Y215929D01*
X459610D01*
Y215690D01*
X459849D01*
Y215451D01*
X460087D01*
Y215212D01*
X460326D01*
Y214973D01*
X460565D01*
Y214734D01*
Y214495D01*
X460804D01*
Y214256D01*
X461043D01*
Y214018D01*
Y213779D01*
X461282D01*
Y213540D01*
X461521D01*
Y213301D01*
Y213062D01*
Y212823D01*
Y212584D01*
Y212345D01*
Y212106D01*
Y211867D01*
Y211628D01*
Y211390D01*
X461760D01*
Y211151D01*
Y210912D01*
Y210673D01*
Y210434D01*
Y210195D01*
Y209956D01*
Y209717D01*
Y209478D01*
Y209240D01*
Y209001D01*
X461521D01*
Y208762D01*
Y208523D01*
Y208284D01*
Y208045D01*
Y207806D01*
Y207567D01*
Y207328D01*
Y207090D01*
Y206851D01*
X461282D01*
Y206612D01*
Y206373D01*
X461043D01*
Y206134D01*
X460804D01*
Y205895D01*
Y205656D01*
X460565D01*
Y205417D01*
Y205178D01*
X460326D01*
Y204939D01*
Y204701D01*
Y204462D01*
X460087D01*
Y204223D01*
Y203984D01*
X459849D01*
Y203745D01*
X459610D01*
Y203506D01*
X459371D01*
Y203267D01*
X459132D01*
Y203028D01*
X458893D01*
Y202789D01*
X458654D01*
Y202551D01*
X458415D01*
Y202312D01*
X457937D01*
Y202073D01*
X457698D01*
Y201834D01*
X457459D01*
Y201595D01*
X456982D01*
Y201356D01*
X456265D01*
Y201117D01*
X455787D01*
Y200878D01*
X455548D01*
Y200639D01*
X455070D01*
Y200400D01*
X453637D01*
Y200161D01*
X446470D01*
Y200400D01*
X445993D01*
Y200639D01*
Y200878D01*
Y201117D01*
Y201356D01*
X446231D01*
Y201595D01*
X446470D01*
Y201834D01*
Y202073D01*
X446709D01*
Y202312D01*
Y202551D01*
Y202789D01*
Y203028D01*
X446948D01*
Y203267D01*
Y203506D01*
Y203745D01*
Y203984D01*
Y204223D01*
Y204462D01*
Y204701D01*
Y204939D01*
Y205178D01*
Y205417D01*
X447187D01*
Y205656D01*
Y205895D01*
Y206134D01*
Y206373D01*
X447426D01*
Y206612D01*
Y206851D01*
Y207090D01*
X447665D01*
Y207328D01*
Y207567D01*
X447904D01*
Y207806D01*
Y208045D01*
Y208284D01*
Y208523D01*
Y208762D01*
Y209001D01*
X448143D01*
Y209240D01*
Y209478D01*
Y209717D01*
Y209956D01*
Y210195D01*
Y210434D01*
X448382D01*
Y210673D01*
Y210912D01*
Y211151D01*
Y211390D01*
Y211628D01*
X448620D01*
Y211867D01*
Y212106D01*
X448859D01*
Y212345D01*
Y212584D01*
X449098D01*
Y212823D01*
Y213062D01*
Y213301D01*
Y213540D01*
Y213779D01*
Y214018D01*
Y214256D01*
Y214495D01*
X449337D01*
Y214734D01*
Y214973D01*
Y215212D01*
Y215451D01*
Y215690D01*
Y215929D01*
Y216168D01*
X449576D01*
Y216406D01*
Y216645D01*
X449815D01*
Y216884D01*
X450054D01*
Y217123D01*
X457221D01*
Y216884D01*
D02*
G37*
G36*
X600319D02*
X600797D01*
Y216645D01*
Y216406D01*
Y216168D01*
X600558D01*
Y215929D01*
Y215690D01*
X600319D01*
Y215451D01*
Y215212D01*
Y214973D01*
Y214734D01*
Y214495D01*
Y214256D01*
X600080D01*
Y214018D01*
Y213779D01*
Y213540D01*
Y213301D01*
X599842D01*
Y213062D01*
Y212823D01*
Y212584D01*
Y212345D01*
X599603D01*
Y212106D01*
Y211867D01*
X599364D01*
Y211628D01*
Y211390D01*
Y211151D01*
X599125D01*
Y210912D01*
Y210673D01*
Y210434D01*
Y210195D01*
Y209956D01*
Y209717D01*
Y209478D01*
Y209240D01*
X598886D01*
Y209001D01*
Y208762D01*
Y208523D01*
Y208284D01*
Y208045D01*
Y207806D01*
X598647D01*
Y207567D01*
Y207328D01*
Y207090D01*
X598408D01*
Y206851D01*
Y206612D01*
X598169D01*
Y206373D01*
Y206134D01*
Y205895D01*
Y205656D01*
X597930D01*
Y205417D01*
Y205178D01*
Y204939D01*
Y204701D01*
Y204462D01*
Y204223D01*
X597691D01*
Y203984D01*
Y203745D01*
Y203506D01*
Y203267D01*
Y203028D01*
X597453D01*
Y202789D01*
Y202551D01*
X597214D01*
Y202312D01*
Y202073D01*
Y201834D01*
X596975D01*
Y201595D01*
Y201356D01*
Y201117D01*
Y200878D01*
Y200639D01*
X596736D01*
Y200400D01*
X596497D01*
Y200161D01*
X596019D01*
Y199923D01*
X595303D01*
Y200161D01*
X594586D01*
Y200400D01*
X594347D01*
Y200639D01*
Y200878D01*
Y201117D01*
X594586D01*
Y201356D01*
Y201595D01*
Y201834D01*
X594825D01*
Y202073D01*
Y202312D01*
Y202551D01*
Y202789D01*
Y203028D01*
Y203267D01*
Y203506D01*
X595064D01*
Y203745D01*
Y203984D01*
Y204223D01*
Y204462D01*
X595303D01*
Y204701D01*
Y204939D01*
Y205178D01*
Y205417D01*
X595541D01*
Y205656D01*
Y205895D01*
Y206134D01*
Y206373D01*
X595780D01*
Y206612D01*
Y206851D01*
Y207090D01*
Y207328D01*
Y207567D01*
X596019D01*
Y207806D01*
Y208045D01*
Y208284D01*
Y208523D01*
Y208762D01*
Y209001D01*
X596258D01*
Y209240D01*
Y209478D01*
Y209717D01*
Y209956D01*
X596497D01*
Y210195D01*
Y210434D01*
X596736D01*
Y210673D01*
Y210912D01*
X596975D01*
Y211151D01*
Y211390D01*
Y211628D01*
Y211867D01*
Y212106D01*
Y212345D01*
Y212584D01*
X596736D01*
Y212823D01*
X596019D01*
Y212584D01*
X595541D01*
Y212345D01*
Y212106D01*
X595303D01*
Y211867D01*
X595064D01*
Y211628D01*
X593630D01*
Y211867D01*
X593391D01*
Y212106D01*
Y212345D01*
X593153D01*
Y212584D01*
Y212823D01*
Y213062D01*
Y213301D01*
X593391D01*
Y213540D01*
X593630D01*
Y213779D01*
X594347D01*
Y214018D01*
X594586D01*
Y214256D01*
X594825D01*
Y214495D01*
X595303D01*
Y214734D01*
X595780D01*
Y214973D01*
X596258D01*
Y215212D01*
X596736D01*
Y215451D01*
X596975D01*
Y215690D01*
X597214D01*
Y215929D01*
X597691D01*
Y216168D01*
X597930D01*
Y216406D01*
X598169D01*
Y216645D01*
X598408D01*
Y216884D01*
X598647D01*
Y217123D01*
X600319D01*
Y216884D01*
D02*
G37*
G36*
X585986D02*
X586463D01*
Y216645D01*
X586941D01*
Y216406D01*
X587180D01*
Y216168D01*
X587419D01*
Y215929D01*
X587658D01*
Y215690D01*
X587897D01*
Y215451D01*
Y215212D01*
X588136D01*
Y214973D01*
Y214734D01*
X588375D01*
Y214495D01*
Y214256D01*
X588614D01*
Y214018D01*
Y213779D01*
Y213540D01*
Y213301D01*
Y213062D01*
Y212823D01*
Y212584D01*
Y212345D01*
Y212106D01*
X588375D01*
Y211867D01*
Y211628D01*
Y211390D01*
X588136D01*
Y211151D01*
Y210912D01*
X587897D01*
Y210673D01*
Y210434D01*
X587658D01*
Y210195D01*
Y209956D01*
Y209717D01*
X587419D01*
Y209478D01*
X587180D01*
Y209240D01*
X586702D01*
Y209001D01*
Y208762D01*
X586463D01*
Y208523D01*
X586225D01*
Y208284D01*
X585986D01*
Y208045D01*
X585508D01*
Y207806D01*
X585269D01*
Y207567D01*
X585030D01*
Y207328D01*
X584791D01*
Y207090D01*
X584313D01*
Y206851D01*
X584075D01*
Y206612D01*
X583836D01*
Y206373D01*
X583597D01*
Y206134D01*
X583119D01*
Y205895D01*
X582641D01*
Y205656D01*
X582163D01*
Y205417D01*
X581924D01*
Y205178D01*
X581685D01*
Y204939D01*
X581447D01*
Y204701D01*
X581208D01*
Y204462D01*
X580969D01*
Y204223D01*
X580730D01*
Y203984D01*
X580252D01*
Y203745D01*
X580013D01*
Y203506D01*
X579774D01*
Y203267D01*
X579535D01*
Y203028D01*
Y202789D01*
Y202551D01*
X579774D01*
Y202312D01*
X585986D01*
Y202073D01*
X586463D01*
Y201834D01*
Y201595D01*
Y201356D01*
Y201117D01*
Y200878D01*
Y200639D01*
X586225D01*
Y200400D01*
X585747D01*
Y200161D01*
X577863D01*
Y199923D01*
X576908D01*
Y200161D01*
X576430D01*
Y200400D01*
X576191D01*
Y200639D01*
Y200878D01*
Y201117D01*
Y201356D01*
Y201595D01*
X576430D01*
Y201834D01*
Y202073D01*
X576669D01*
Y202312D01*
Y202551D01*
X576908D01*
Y202789D01*
Y203028D01*
X577146D01*
Y203267D01*
X577385D01*
Y203506D01*
Y203745D01*
X577624D01*
Y203984D01*
Y204223D01*
X577863D01*
Y204462D01*
X578102D01*
Y204701D01*
X578580D01*
Y204939D01*
Y205178D01*
X578819D01*
Y205417D01*
X579058D01*
Y205656D01*
X579296D01*
Y205895D01*
X579774D01*
Y206134D01*
Y206373D01*
X580013D01*
Y206612D01*
X580252D01*
Y206851D01*
X580730D01*
Y207090D01*
X580969D01*
Y207328D01*
X581208D01*
Y207567D01*
X581685D01*
Y207806D01*
X581924D01*
Y208045D01*
X582402D01*
Y208284D01*
X582880D01*
Y208523D01*
X583119D01*
Y208762D01*
X583358D01*
Y209001D01*
X583836D01*
Y209240D01*
X584075D01*
Y209478D01*
X584313D01*
Y209717D01*
X584552D01*
Y209956D01*
X584791D01*
Y210195D01*
X585030D01*
Y210434D01*
X585269D01*
Y210673D01*
X585508D01*
Y210912D01*
Y211151D01*
X585747D01*
Y211390D01*
Y211628D01*
Y211867D01*
X585986D01*
Y212106D01*
Y212345D01*
Y212584D01*
Y212823D01*
Y213062D01*
Y213301D01*
X585747D01*
Y213540D01*
Y213779D01*
Y214018D01*
Y214256D01*
X585508D01*
Y214495D01*
X585269D01*
Y214734D01*
X585030D01*
Y214973D01*
X582402D01*
Y214734D01*
X581924D01*
Y214495D01*
X581685D01*
Y214256D01*
X581447D01*
Y214018D01*
X580969D01*
Y213779D01*
X580252D01*
Y214018D01*
X580013D01*
Y214256D01*
X579774D01*
Y214495D01*
X579535D01*
Y214734D01*
Y214973D01*
Y215212D01*
Y215451D01*
Y215690D01*
X579774D01*
Y215929D01*
X580013D01*
Y216168D01*
X580491D01*
Y216406D01*
X580969D01*
Y216645D01*
X581447D01*
Y216884D01*
X581924D01*
Y217123D01*
X585986D01*
Y216884D01*
D02*
G37*
G36*
X570219Y218079D02*
X570457D01*
Y217840D01*
Y217601D01*
Y217362D01*
Y217123D01*
Y216884D01*
Y216645D01*
X570219D01*
Y216406D01*
Y216168D01*
Y215929D01*
Y215690D01*
X569980D01*
Y215451D01*
Y215212D01*
Y214973D01*
X569741D01*
Y214734D01*
Y214495D01*
X569502D01*
Y214256D01*
Y214018D01*
Y213779D01*
Y213540D01*
X569263D01*
Y213301D01*
Y213062D01*
Y212823D01*
Y212584D01*
Y212345D01*
Y212106D01*
X569024D01*
Y211867D01*
Y211628D01*
Y211390D01*
Y211151D01*
Y210912D01*
X568785D01*
Y210673D01*
Y210434D01*
X568546D01*
Y210195D01*
Y209956D01*
Y209717D01*
X568307D01*
Y209478D01*
Y209240D01*
Y209001D01*
Y208762D01*
Y208523D01*
Y208284D01*
X569263D01*
Y208523D01*
X569502D01*
Y208762D01*
Y209001D01*
X569741D01*
Y209240D01*
X569980D01*
Y209478D01*
X570219D01*
Y209717D01*
X570696D01*
Y209956D01*
X570935D01*
Y210195D01*
X571174D01*
Y210434D01*
X571413D01*
Y210673D01*
X571652D01*
Y210912D01*
X571891D01*
Y211151D01*
X572130D01*
Y211390D01*
X572369D01*
Y211628D01*
X572607D01*
Y211867D01*
X572846D01*
Y212106D01*
X573085D01*
Y212345D01*
X573324D01*
Y212584D01*
X575713D01*
Y212345D01*
X575952D01*
Y212106D01*
Y211867D01*
X575713D01*
Y211628D01*
X575474D01*
Y211390D01*
X575235D01*
Y211151D01*
X574996D01*
Y210912D01*
X574757D01*
Y210673D01*
X574280D01*
Y210434D01*
X574041D01*
Y210195D01*
X573802D01*
Y209956D01*
X573563D01*
Y209717D01*
X573324D01*
Y209478D01*
X573085D01*
Y209240D01*
X572846D01*
Y209001D01*
X572607D01*
Y208762D01*
X572369D01*
Y208523D01*
X572130D01*
Y208284D01*
X571652D01*
Y208045D01*
X571413D01*
Y207806D01*
X570935D01*
Y207567D01*
X570696D01*
Y207328D01*
X570457D01*
Y207090D01*
Y206851D01*
Y206612D01*
Y206373D01*
X570696D01*
Y206134D01*
Y205895D01*
X570935D01*
Y205656D01*
X571413D01*
Y205417D01*
Y205178D01*
X571652D01*
Y204939D01*
X571891D01*
Y204701D01*
Y204462D01*
X572130D01*
Y204223D01*
X572369D01*
Y203984D01*
X572607D01*
Y203745D01*
X572846D01*
Y203506D01*
Y203267D01*
X573085D01*
Y203028D01*
Y202789D01*
X573324D01*
Y202551D01*
Y202312D01*
X573563D01*
Y202073D01*
X573802D01*
Y201834D01*
Y201595D01*
X574041D01*
Y201356D01*
Y201117D01*
X574280D01*
Y200878D01*
Y200639D01*
Y200400D01*
X574041D01*
Y200161D01*
X573324D01*
Y199923D01*
X572369D01*
Y200161D01*
X571891D01*
Y200400D01*
X571652D01*
Y200639D01*
Y200878D01*
X571413D01*
Y201117D01*
Y201356D01*
X571174D01*
Y201595D01*
X570935D01*
Y201834D01*
Y202073D01*
X570696D01*
Y202312D01*
Y202551D01*
X570457D01*
Y202789D01*
Y203028D01*
X570219D01*
Y203267D01*
X569980D01*
Y203506D01*
X569741D01*
Y203745D01*
Y203984D01*
X569502D01*
Y204223D01*
X569263D01*
Y204462D01*
X569024D01*
Y204701D01*
X568785D01*
Y204939D01*
X568546D01*
Y205178D01*
X568068D01*
Y205417D01*
X567352D01*
Y205178D01*
Y204939D01*
X567113D01*
Y204701D01*
Y204462D01*
Y204223D01*
Y203984D01*
Y203745D01*
Y203506D01*
Y203267D01*
X566874D01*
Y203028D01*
Y202789D01*
Y202551D01*
Y202312D01*
Y202073D01*
X566635D01*
Y201834D01*
Y201595D01*
Y201356D01*
Y201117D01*
X566396D01*
Y200878D01*
Y200639D01*
X566157D01*
Y200400D01*
X565918D01*
Y200161D01*
X565202D01*
Y199923D01*
X564485D01*
Y200161D01*
X564007D01*
Y200400D01*
X563768D01*
Y200639D01*
Y200878D01*
Y201117D01*
Y201356D01*
Y201595D01*
X564007D01*
Y201834D01*
Y202073D01*
Y202312D01*
X564246D01*
Y202551D01*
Y202789D01*
Y203028D01*
Y203267D01*
X564485D01*
Y203506D01*
Y203745D01*
X564724D01*
Y203984D01*
Y204223D01*
Y204462D01*
Y204701D01*
X564963D01*
Y204939D01*
Y205178D01*
Y205417D01*
Y205656D01*
Y205895D01*
Y206134D01*
X565202D01*
Y206373D01*
Y206612D01*
Y206851D01*
Y207090D01*
Y207328D01*
X565441D01*
Y207567D01*
Y207806D01*
X565680D01*
Y208045D01*
Y208284D01*
Y208523D01*
X565918D01*
Y208762D01*
Y209001D01*
Y209240D01*
Y209478D01*
X566157D01*
Y209717D01*
Y209956D01*
Y210195D01*
Y210434D01*
Y210673D01*
Y210912D01*
X566396D01*
Y211151D01*
Y211390D01*
Y211628D01*
Y211867D01*
X566635D01*
Y212106D01*
Y212345D01*
Y212584D01*
X566874D01*
Y212823D01*
Y213062D01*
Y213301D01*
X567113D01*
Y213540D01*
Y213779D01*
Y214018D01*
Y214256D01*
Y214495D01*
Y214734D01*
X567352D01*
Y214973D01*
Y215212D01*
Y215451D01*
Y215690D01*
Y215929D01*
Y216168D01*
X567591D01*
Y216406D01*
Y216645D01*
Y216884D01*
Y217123D01*
X567830D01*
Y217362D01*
Y217601D01*
Y217840D01*
X568068D01*
Y218079D01*
X568546D01*
Y218318D01*
X570219D01*
Y218079D01*
D02*
G37*
G36*
X560424Y216884D02*
X560901D01*
Y216645D01*
X561140D01*
Y216406D01*
Y216168D01*
X561618D01*
Y215929D01*
X561857D01*
Y215690D01*
X562096D01*
Y215451D01*
X562335D01*
Y215212D01*
Y214973D01*
Y214734D01*
X562574D01*
Y214495D01*
Y214256D01*
Y214018D01*
Y213779D01*
Y213540D01*
X562813D01*
Y213301D01*
Y213062D01*
Y212823D01*
X562574D01*
Y212584D01*
Y212345D01*
Y212106D01*
Y211867D01*
X562335D01*
Y211628D01*
Y211390D01*
Y211151D01*
Y210912D01*
Y210673D01*
X562096D01*
Y210434D01*
X561857D01*
Y210195D01*
X561618D01*
Y209956D01*
Y209717D01*
X561379D01*
Y209478D01*
X561140D01*
Y209240D01*
X560901D01*
Y209001D01*
X560663D01*
Y208762D01*
X560424D01*
Y208523D01*
X560185D01*
Y208284D01*
X559946D01*
Y208045D01*
X559707D01*
Y207806D01*
X559468D01*
Y207567D01*
X559229D01*
Y207328D01*
X558751D01*
Y207090D01*
X558513D01*
Y206851D01*
X558035D01*
Y206612D01*
X557796D01*
Y206373D01*
Y206134D01*
X557318D01*
Y205895D01*
X557079D01*
Y205656D01*
X556601D01*
Y205417D01*
X556362D01*
Y205178D01*
X556124D01*
Y204939D01*
X555885D01*
Y204701D01*
X555407D01*
Y204462D01*
X555168D01*
Y204223D01*
X554690D01*
Y203984D01*
X554451D01*
Y203745D01*
X554212D01*
Y203506D01*
X553974D01*
Y203267D01*
Y203028D01*
X553735D01*
Y202789D01*
X553974D01*
Y202551D01*
X554212D01*
Y202312D01*
X560185D01*
Y202073D01*
X560424D01*
Y201834D01*
X560663D01*
Y201595D01*
Y201356D01*
Y201117D01*
X560424D01*
Y200878D01*
Y200639D01*
X560185D01*
Y200400D01*
X559946D01*
Y200161D01*
X559468D01*
Y199923D01*
X558990D01*
Y200161D01*
X550390D01*
Y200400D01*
X550151D01*
Y200639D01*
Y200878D01*
Y201117D01*
Y201356D01*
X550390D01*
Y201595D01*
X550629D01*
Y201834D01*
X550868D01*
Y202073D01*
Y202312D01*
X551107D01*
Y202551D01*
Y202789D01*
Y203028D01*
X551346D01*
Y203267D01*
Y203506D01*
X551585D01*
Y203745D01*
X551824D01*
Y203984D01*
Y204223D01*
X552062D01*
Y204462D01*
X552301D01*
Y204701D01*
X552540D01*
Y204939D01*
X552779D01*
Y205178D01*
X553018D01*
Y205417D01*
X553257D01*
Y205656D01*
X553496D01*
Y205895D01*
X553735D01*
Y206134D01*
X553974D01*
Y206373D01*
X554212D01*
Y206612D01*
X554690D01*
Y206851D01*
X554929D01*
Y207090D01*
X555407D01*
Y207328D01*
X555646D01*
Y207567D01*
X555885D01*
Y207806D01*
X556362D01*
Y208045D01*
X556601D01*
Y208284D01*
X557079D01*
Y208523D01*
Y208762D01*
X557557D01*
Y209001D01*
X557796D01*
Y209240D01*
X558274D01*
Y209478D01*
X558513D01*
Y209717D01*
X558751D01*
Y209956D01*
X558990D01*
Y210195D01*
X559229D01*
Y210434D01*
Y210673D01*
X559468D01*
Y210912D01*
X559707D01*
Y211151D01*
X559946D01*
Y211390D01*
X560185D01*
Y211628D01*
Y211867D01*
Y212106D01*
X560424D01*
Y212345D01*
Y212584D01*
Y212823D01*
Y213062D01*
Y213301D01*
X560185D01*
Y213540D01*
Y213779D01*
X559946D01*
Y214018D01*
X559707D01*
Y214256D01*
X559468D01*
Y214495D01*
X559229D01*
Y214734D01*
X558751D01*
Y214973D01*
X556840D01*
Y214734D01*
X556124D01*
Y214495D01*
X555885D01*
Y214256D01*
X555407D01*
Y214018D01*
X553974D01*
Y214256D01*
X553735D01*
Y214495D01*
X553496D01*
Y214734D01*
Y214973D01*
Y215212D01*
Y215451D01*
X553735D01*
Y215690D01*
X553974D01*
Y215929D01*
X554212D01*
Y216168D01*
X554690D01*
Y216406D01*
X554929D01*
Y216645D01*
X555168D01*
Y216884D01*
X556362D01*
Y217123D01*
X560424D01*
Y216884D01*
D02*
G37*
G36*
X520289D02*
X520767D01*
Y216645D01*
Y216406D01*
X521006D01*
Y216168D01*
Y215929D01*
Y215690D01*
Y215451D01*
Y215212D01*
Y214973D01*
Y214734D01*
Y214495D01*
Y214256D01*
Y214018D01*
X521245D01*
Y213779D01*
Y213540D01*
Y213301D01*
Y213062D01*
Y212823D01*
Y212584D01*
Y212345D01*
Y212106D01*
Y211867D01*
Y211628D01*
X521484D01*
Y211390D01*
Y211151D01*
Y210912D01*
Y210673D01*
X521723D01*
Y210434D01*
Y210195D01*
Y209956D01*
X521962D01*
Y209717D01*
Y209478D01*
Y209240D01*
Y209001D01*
Y208762D01*
Y208523D01*
Y208284D01*
Y208045D01*
Y207806D01*
X522200D01*
Y207567D01*
Y207328D01*
Y207090D01*
Y206851D01*
Y206612D01*
Y206373D01*
Y206134D01*
Y205895D01*
Y205656D01*
Y205417D01*
Y205178D01*
Y204939D01*
X522439D01*
Y204701D01*
Y204462D01*
Y204223D01*
Y203984D01*
Y203745D01*
Y203506D01*
Y203267D01*
Y203028D01*
Y202789D01*
Y202551D01*
Y202312D01*
Y202073D01*
Y201834D01*
X522678D01*
Y201595D01*
Y201356D01*
Y201117D01*
Y200878D01*
Y200639D01*
Y200400D01*
X522439D01*
Y200161D01*
X521723D01*
Y199923D01*
X520767D01*
Y200161D01*
X520289D01*
Y200400D01*
Y200639D01*
X520050D01*
Y200878D01*
Y201117D01*
Y201356D01*
Y201595D01*
X520289D01*
Y201834D01*
Y202073D01*
Y202312D01*
X520050D01*
Y202551D01*
Y202789D01*
Y203028D01*
Y203267D01*
Y203506D01*
Y203745D01*
Y203984D01*
X519811D01*
Y204223D01*
X519572D01*
Y204462D01*
X519095D01*
Y204701D01*
X513600D01*
Y204462D01*
X512883D01*
Y204223D01*
X512645D01*
Y203984D01*
X512406D01*
Y203745D01*
X512167D01*
Y203506D01*
Y203267D01*
X511928D01*
Y203028D01*
Y202789D01*
X511689D01*
Y202551D01*
Y202312D01*
X511450D01*
Y202073D01*
X511211D01*
Y201834D01*
Y201595D01*
X510972D01*
Y201356D01*
Y201117D01*
Y200878D01*
X510733D01*
Y200639D01*
Y200400D01*
X510494D01*
Y200161D01*
X508106D01*
Y200400D01*
X507867D01*
Y200639D01*
Y200878D01*
X508106D01*
Y201117D01*
Y201356D01*
X508344D01*
Y201595D01*
X508583D01*
Y201834D01*
X508822D01*
Y202073D01*
Y202312D01*
Y202551D01*
X509061D01*
Y202789D01*
Y203028D01*
X509300D01*
Y203267D01*
X509539D01*
Y203506D01*
X509778D01*
Y203745D01*
Y203984D01*
X510017D01*
Y204223D01*
Y204462D01*
Y204701D01*
Y204939D01*
X510256D01*
Y205178D01*
Y205417D01*
X510494D01*
Y205656D01*
X510733D01*
Y205895D01*
X510972D01*
Y206134D01*
Y206373D01*
X511211D01*
Y206612D01*
Y206851D01*
Y207090D01*
X511450D01*
Y207328D01*
X511689D01*
Y207567D01*
Y207806D01*
X511928D01*
Y208045D01*
X512167D01*
Y208284D01*
Y208523D01*
X512406D01*
Y208762D01*
Y209001D01*
X512645D01*
Y209240D01*
X512883D01*
Y209478D01*
X513122D01*
Y209717D01*
Y209956D01*
X513361D01*
Y210195D01*
Y210434D01*
Y210673D01*
X513600D01*
Y210912D01*
X513839D01*
Y211151D01*
X514078D01*
Y211390D01*
X514317D01*
Y211628D01*
Y211867D01*
X514556D01*
Y212106D01*
Y212345D01*
Y212584D01*
X514795D01*
Y212823D01*
Y213062D01*
X515033D01*
Y213301D01*
X515272D01*
Y213540D01*
X515511D01*
Y213779D01*
Y214018D01*
X515750D01*
Y214256D01*
Y214495D01*
X515989D01*
Y214734D01*
X516228D01*
Y214973D01*
X516467D01*
Y215212D01*
X516706D01*
Y215451D01*
Y215690D01*
X516945D01*
Y215929D01*
Y216168D01*
Y216406D01*
X517183D01*
Y216645D01*
X517422D01*
Y216884D01*
X517900D01*
Y217123D01*
X520289D01*
Y216884D01*
D02*
G37*
G36*
X467493Y212345D02*
X467971D01*
Y212106D01*
Y211867D01*
Y211628D01*
Y211390D01*
X467732D01*
Y211151D01*
X467493D01*
Y210912D01*
Y210673D01*
Y210434D01*
X467254D01*
Y210195D01*
Y209956D01*
Y209717D01*
Y209478D01*
Y209240D01*
Y209001D01*
Y208762D01*
X467015D01*
Y208523D01*
Y208284D01*
Y208045D01*
Y207806D01*
X466777D01*
Y207567D01*
Y207328D01*
Y207090D01*
X466538D01*
Y206851D01*
Y206612D01*
Y206373D01*
X466299D01*
Y206134D01*
Y205895D01*
Y205656D01*
Y205417D01*
X466060D01*
Y205178D01*
Y204939D01*
Y204701D01*
Y204462D01*
Y204223D01*
Y203984D01*
X465821D01*
Y203745D01*
Y203506D01*
Y203267D01*
Y203028D01*
X465582D01*
Y202789D01*
Y202551D01*
Y202312D01*
X465343D01*
Y202073D01*
Y201834D01*
Y201595D01*
X465104D01*
Y201356D01*
Y201117D01*
Y200878D01*
Y200639D01*
Y200400D01*
X464865D01*
Y200161D01*
X464388D01*
Y199923D01*
X463432D01*
Y200161D01*
X462954D01*
Y200400D01*
X462715D01*
Y200639D01*
Y200878D01*
Y201117D01*
Y201356D01*
Y201595D01*
X462954D01*
Y201834D01*
Y202073D01*
Y202312D01*
Y202551D01*
Y202789D01*
X463193D01*
Y203028D01*
Y203267D01*
Y203506D01*
Y203745D01*
Y203984D01*
X463432D01*
Y204223D01*
Y204462D01*
X463671D01*
Y204701D01*
Y204939D01*
Y205178D01*
X463910D01*
Y205417D01*
Y205656D01*
Y205895D01*
Y206134D01*
Y206373D01*
X464149D01*
Y206612D01*
Y206851D01*
Y207090D01*
Y207328D01*
Y207567D01*
Y207806D01*
Y208045D01*
Y208284D01*
X464388D01*
Y208523D01*
Y208762D01*
Y209001D01*
X464626D01*
Y209240D01*
Y209478D01*
Y209717D01*
X464865D01*
Y209956D01*
Y210195D01*
X465104D01*
Y210434D01*
Y210673D01*
Y210912D01*
Y211151D01*
Y211390D01*
Y211628D01*
Y211867D01*
X465343D01*
Y212106D01*
Y212345D01*
X465582D01*
Y212584D01*
X467493D01*
Y212345D01*
D02*
G37*
G36*
X434287Y216884D02*
X434764D01*
Y216645D01*
X435003D01*
Y216406D01*
X435242D01*
Y216168D01*
X435481D01*
Y215929D01*
X435959D01*
Y215690D01*
X436198D01*
Y215451D01*
X436437D01*
Y215212D01*
X436675D01*
Y214973D01*
X436914D01*
Y214734D01*
X437153D01*
Y214495D01*
X437392D01*
Y214256D01*
Y214018D01*
Y213779D01*
Y213540D01*
Y213301D01*
X437631D01*
Y213062D01*
Y212823D01*
Y212584D01*
Y212345D01*
X437870D01*
Y212106D01*
Y211867D01*
X438109D01*
Y211628D01*
Y211390D01*
Y211151D01*
Y210912D01*
Y210673D01*
Y210434D01*
Y210195D01*
X437870D01*
Y209956D01*
Y209717D01*
Y209478D01*
Y209240D01*
Y209001D01*
Y208762D01*
X437631D01*
Y208523D01*
Y208284D01*
Y208045D01*
Y207806D01*
X437392D01*
Y207567D01*
Y207328D01*
Y207090D01*
Y206851D01*
Y206612D01*
Y206373D01*
X437153D01*
Y206134D01*
Y205895D01*
X436914D01*
Y205656D01*
Y205417D01*
X436675D01*
Y205178D01*
Y204939D01*
X436437D01*
Y204701D01*
Y204462D01*
X436198D01*
Y204223D01*
Y203984D01*
X435959D01*
Y203745D01*
X435720D01*
Y203506D01*
X435481D01*
Y203267D01*
X435242D01*
Y203028D01*
X435003D01*
Y202789D01*
Y202551D01*
X434525D01*
Y202312D01*
X434287D01*
Y202073D01*
X434048D01*
Y201834D01*
Y201595D01*
X433809D01*
Y201356D01*
X433331D01*
Y201117D01*
X432853D01*
Y200878D01*
X432375D01*
Y200639D01*
X432136D01*
Y200400D01*
X431181D01*
Y200161D01*
X430464D01*
Y199923D01*
X429986D01*
Y199684D01*
Y199445D01*
Y199206D01*
Y198967D01*
X430464D01*
Y198728D01*
X430942D01*
Y198489D01*
X431659D01*
Y198250D01*
X432136D01*
Y198011D01*
X432853D01*
Y197773D01*
X433809D01*
Y197534D01*
X434048D01*
Y197295D01*
Y197056D01*
Y196817D01*
Y196578D01*
Y196339D01*
X433809D01*
Y196100D01*
Y195861D01*
X433331D01*
Y195623D01*
X432614D01*
Y195384D01*
X432136D01*
Y195623D01*
X431420D01*
Y195861D01*
X429986D01*
Y196100D01*
X429748D01*
Y196339D01*
X429509D01*
Y196578D01*
X429031D01*
Y196817D01*
X428553D01*
Y197056D01*
X428314D01*
Y197295D01*
X428075D01*
Y197534D01*
X427836D01*
Y197773D01*
X427598D01*
Y198011D01*
Y198250D01*
X427359D01*
Y198489D01*
Y198728D01*
Y198967D01*
Y199206D01*
Y199445D01*
Y199684D01*
X427120D01*
Y199923D01*
X426881D01*
Y200161D01*
X425686D01*
Y200400D01*
X425209D01*
Y200639D01*
X424970D01*
Y200878D01*
X424731D01*
Y201117D01*
X424253D01*
Y201356D01*
X424014D01*
Y201595D01*
X423775D01*
Y201834D01*
X423536D01*
Y202073D01*
X423297D01*
Y202312D01*
X423059D01*
Y202551D01*
X422820D01*
Y202789D01*
Y203028D01*
X422581D01*
Y203267D01*
Y203506D01*
Y203745D01*
X422342D01*
Y203984D01*
Y204223D01*
X422103D01*
Y204462D01*
Y204701D01*
Y204939D01*
X421864D01*
Y205178D01*
Y205417D01*
Y205656D01*
Y205895D01*
Y206134D01*
Y206373D01*
Y206612D01*
Y206851D01*
Y207090D01*
Y207328D01*
Y207567D01*
X422103D01*
Y207806D01*
Y208045D01*
Y208284D01*
Y208523D01*
X422342D01*
Y208762D01*
Y209001D01*
X422581D01*
Y209240D01*
Y209478D01*
X422820D01*
Y209717D01*
Y209956D01*
Y210195D01*
Y210434D01*
Y210673D01*
Y210912D01*
Y211151D01*
Y211390D01*
X423059D01*
Y211628D01*
Y211867D01*
X423297D01*
Y212106D01*
X423536D01*
Y212345D01*
Y212584D01*
X423775D01*
Y212823D01*
Y213062D01*
X424014D01*
Y213301D01*
X424253D01*
Y213540D01*
X424492D01*
Y213779D01*
X424731D01*
Y214018D01*
X424970D01*
Y214256D01*
X425209D01*
Y214495D01*
Y214734D01*
X425686D01*
Y214973D01*
X425925D01*
Y215212D01*
X426164D01*
Y215451D01*
X426403D01*
Y215690D01*
X426642D01*
Y215929D01*
X427120D01*
Y216168D01*
X427598D01*
Y216406D01*
X427836D01*
Y216645D01*
X428553D01*
Y216884D01*
X429270D01*
Y217123D01*
X434287D01*
Y216884D01*
D02*
G37*
%LPC*%
G36*
X487322Y210434D02*
X485888D01*
Y210195D01*
X485172D01*
Y209956D01*
X484694D01*
Y209717D01*
X484455D01*
Y209478D01*
X483977D01*
Y209240D01*
X483738D01*
Y209001D01*
X483499D01*
Y208762D01*
X483260D01*
Y208523D01*
X483021D01*
Y208284D01*
X482783D01*
Y208045D01*
X482544D01*
Y207806D01*
X482305D01*
Y207567D01*
Y207328D01*
Y207090D01*
X482544D01*
Y206851D01*
X485172D01*
Y207090D01*
X485649D01*
Y207328D01*
X485888D01*
Y207567D01*
X486366D01*
Y207806D01*
X487560D01*
Y208045D01*
X487799D01*
Y208284D01*
X488038D01*
Y208523D01*
Y208762D01*
X488277D01*
Y209001D01*
Y209240D01*
Y209478D01*
X488038D01*
Y209717D01*
Y209956D01*
X487799D01*
Y210195D01*
X487322D01*
Y210434D01*
D02*
G37*
G36*
X455787Y214973D02*
X452682D01*
Y214734D01*
X452204D01*
Y214495D01*
X451965D01*
Y214256D01*
Y214018D01*
X451726D01*
Y213779D01*
Y213540D01*
Y213301D01*
Y213062D01*
X451487D01*
Y212823D01*
Y212584D01*
Y212345D01*
X451248D01*
Y212106D01*
Y211867D01*
Y211628D01*
Y211390D01*
Y211151D01*
Y210912D01*
Y210673D01*
X451009D01*
Y210434D01*
Y210195D01*
Y209956D01*
Y209717D01*
X450770D01*
Y209478D01*
Y209240D01*
Y209001D01*
X450532D01*
Y208762D01*
Y208523D01*
Y208284D01*
X450293D01*
Y208045D01*
Y207806D01*
Y207567D01*
Y207328D01*
Y207090D01*
X450054D01*
Y206851D01*
Y206612D01*
Y206373D01*
Y206134D01*
Y205895D01*
Y205656D01*
Y205417D01*
X449815D01*
Y205178D01*
Y204939D01*
Y204701D01*
Y204462D01*
Y204223D01*
X449576D01*
Y203984D01*
Y203745D01*
X449337D01*
Y203506D01*
X449098D01*
Y203267D01*
Y203028D01*
Y202789D01*
X449337D01*
Y202551D01*
X449576D01*
Y202312D01*
X453398D01*
Y202551D01*
X453637D01*
Y202789D01*
X453876D01*
Y203028D01*
X454354D01*
Y203267D01*
X455309D01*
Y203506D01*
X455787D01*
Y203745D01*
X456026D01*
Y203984D01*
X456265D01*
Y204223D01*
X456504D01*
Y204462D01*
X456743D01*
Y204701D01*
X456982D01*
Y204939D01*
X457221D01*
Y205178D01*
X457459D01*
Y205417D01*
X457698D01*
Y205656D01*
X457937D01*
Y205895D01*
X458176D01*
Y206134D01*
Y206373D01*
X458415D01*
Y206612D01*
Y206851D01*
Y207090D01*
X458654D01*
Y207328D01*
Y207567D01*
Y207806D01*
X458893D01*
Y208045D01*
Y208284D01*
Y208523D01*
X459132D01*
Y208762D01*
Y209001D01*
Y209240D01*
Y209478D01*
Y209717D01*
Y209956D01*
X459371D01*
Y210195D01*
Y210434D01*
Y210673D01*
Y210912D01*
Y211151D01*
Y211390D01*
X459132D01*
Y211628D01*
Y211867D01*
Y212106D01*
X458893D01*
Y212345D01*
X458654D01*
Y212584D01*
Y212823D01*
X458415D01*
Y213062D01*
Y213301D01*
X458176D01*
Y213540D01*
Y213779D01*
X457698D01*
Y214018D01*
X456982D01*
Y214256D01*
X456504D01*
Y214495D01*
X456265D01*
Y214734D01*
X455787D01*
Y214973D01*
D02*
G37*
G36*
X518617Y213779D02*
X518139D01*
Y213540D01*
X517900D01*
Y213301D01*
X517661D01*
Y213062D01*
Y212823D01*
X517422D01*
Y212584D01*
Y212345D01*
X517183D01*
Y212106D01*
X516945D01*
Y211867D01*
Y211628D01*
X516706D01*
Y211390D01*
Y211151D01*
X516467D01*
Y210912D01*
Y210673D01*
X516228D01*
Y210434D01*
X515989D01*
Y210195D01*
X515750D01*
Y209956D01*
X515511D01*
Y209717D01*
Y209478D01*
Y209240D01*
Y209001D01*
X515272D01*
Y208762D01*
Y208523D01*
X514795D01*
Y208284D01*
X514556D01*
Y208045D01*
X514317D01*
Y207806D01*
Y207567D01*
Y207328D01*
Y207090D01*
X514556D01*
Y206851D01*
X518856D01*
Y207090D01*
X519334D01*
Y207328D01*
Y207567D01*
X519572D01*
Y207806D01*
Y208045D01*
X519334D01*
Y208284D01*
Y208523D01*
Y208762D01*
X519095D01*
Y209001D01*
Y209240D01*
Y209478D01*
Y209717D01*
Y209956D01*
Y210195D01*
Y210434D01*
Y210673D01*
Y210912D01*
Y211151D01*
Y211390D01*
Y211628D01*
Y211867D01*
Y212106D01*
Y212345D01*
Y212584D01*
Y212823D01*
Y213062D01*
X518856D01*
Y213301D01*
Y213540D01*
X518617D01*
Y213779D01*
D02*
G37*
G36*
X432853Y214973D02*
X429986D01*
Y214734D01*
X429509D01*
Y214495D01*
X429270D01*
Y214256D01*
X429031D01*
Y214018D01*
X428553D01*
Y213779D01*
X428075D01*
Y213540D01*
X427598D01*
Y213301D01*
X427359D01*
Y213062D01*
Y212823D01*
X427120D01*
Y212584D01*
X426881D01*
Y212345D01*
X426642D01*
Y212106D01*
X426403D01*
Y211867D01*
X426164D01*
Y211628D01*
Y211390D01*
X425925D01*
Y211151D01*
Y210912D01*
X425686D01*
Y210673D01*
Y210434D01*
X425447D01*
Y210195D01*
Y209956D01*
X425209D01*
Y209717D01*
Y209478D01*
X424970D01*
Y209240D01*
Y209001D01*
Y208762D01*
Y208523D01*
X424731D01*
Y208284D01*
Y208045D01*
Y207806D01*
Y207567D01*
Y207328D01*
Y207090D01*
Y206851D01*
Y206612D01*
Y206373D01*
Y206134D01*
Y205895D01*
Y205656D01*
Y205417D01*
X424970D01*
Y205178D01*
Y204939D01*
Y204701D01*
Y204462D01*
Y204223D01*
X425209D01*
Y203984D01*
Y203745D01*
X425686D01*
Y203506D01*
X425925D01*
Y203267D01*
X426164D01*
Y203028D01*
X426642D01*
Y202789D01*
X426881D01*
Y202551D01*
X427359D01*
Y202312D01*
X429986D01*
Y202551D01*
X430464D01*
Y202789D01*
X430703D01*
Y203028D01*
X431181D01*
Y203267D01*
X431659D01*
Y203506D01*
X431898D01*
Y203745D01*
X432375D01*
Y203984D01*
X432614D01*
Y204223D01*
X432853D01*
Y204462D01*
X433092D01*
Y204701D01*
Y204939D01*
X433331D01*
Y205178D01*
X433570D01*
Y205417D01*
X433809D01*
Y205656D01*
X434048D01*
Y205895D01*
Y206134D01*
X434287D01*
Y206373D01*
Y206612D01*
Y206851D01*
X434525D01*
Y207090D01*
Y207328D01*
X434764D01*
Y207567D01*
Y207806D01*
X435003D01*
Y208045D01*
Y208284D01*
X435242D01*
Y208523D01*
Y208762D01*
Y209001D01*
Y209240D01*
Y209478D01*
Y209717D01*
Y209956D01*
Y210195D01*
Y210434D01*
Y210673D01*
Y210912D01*
Y211151D01*
Y211390D01*
Y211628D01*
Y211867D01*
Y212106D01*
Y212345D01*
Y212584D01*
X435003D01*
Y212823D01*
Y213062D01*
X434764D01*
Y213301D01*
X434525D01*
Y213540D01*
X434287D01*
Y213779D01*
X434048D01*
Y214018D01*
X433809D01*
Y214256D01*
X433570D01*
Y214495D01*
X433092D01*
Y214734D01*
X432853D01*
Y214973D01*
D02*
G37*
%LPD*%
D37*
X798000Y467125D02*
D03*
X853000D02*
D03*
Y517125D02*
D03*
X798000D02*
D03*
Y492125D02*
D03*
X853000D02*
D03*
D38*
X661000Y630500D02*
D03*
Y625500D02*
D03*
Y620500D02*
D03*
Y615500D02*
D03*
Y610500D02*
D03*
Y605500D02*
D03*
Y600500D02*
D03*
Y595500D02*
D03*
Y590500D02*
D03*
Y585500D02*
D03*
Y580500D02*
D03*
Y575500D02*
D03*
X750000D02*
D03*
Y580500D02*
D03*
Y585500D02*
D03*
Y590500D02*
D03*
Y595500D02*
D03*
Y600500D02*
D03*
Y605500D02*
D03*
Y610500D02*
D03*
Y615500D02*
D03*
Y620500D02*
D03*
Y625500D02*
D03*
Y630500D02*
D03*
D39*
X678000Y558500D02*
D03*
X683000D02*
D03*
X688000D02*
D03*
X693000D02*
D03*
X698000D02*
D03*
X703000D02*
D03*
X708000D02*
D03*
X713000D02*
D03*
X718000D02*
D03*
X723000D02*
D03*
X728000D02*
D03*
X733000D02*
D03*
Y647500D02*
D03*
X728000D02*
D03*
X723000D02*
D03*
X718000D02*
D03*
X713000D02*
D03*
X708000D02*
D03*
X703000D02*
D03*
X698000D02*
D03*
X693000D02*
D03*
X688000D02*
D03*
X683000D02*
D03*
X678000D02*
D03*
D40*
X732250Y297000D02*
D03*
Y328000D02*
D03*
D41*
X308656Y947780D02*
D03*
X294844Y954220D02*
D03*
D42*
X608000Y331250D02*
D03*
X595000D02*
D03*
X726500Y393000D02*
D03*
X713500D02*
D03*
X589750Y273250D02*
D03*
X602750D02*
D03*
X680500Y671750D02*
D03*
X667500D02*
D03*
X675250Y687250D02*
D03*
X688250D02*
D03*
X675250Y702500D02*
D03*
X688250D02*
D03*
X633000Y581250D02*
D03*
X620000D02*
D03*
X759000Y470000D02*
D03*
X746000D02*
D03*
X759000Y450500D02*
D03*
X746000D02*
D03*
X759000Y431000D02*
D03*
X746000D02*
D03*
X636000Y311250D02*
D03*
X649000D02*
D03*
X661750Y384750D02*
D03*
X674750D02*
D03*
X664500Y289250D02*
D03*
X677500D02*
D03*
X636000Y289500D02*
D03*
X649000D02*
D03*
X661500Y363000D02*
D03*
X674500D02*
D03*
X636750Y336000D02*
D03*
X649750D02*
D03*
X758750Y489500D02*
D03*
X745750D02*
D03*
X633250Y609750D02*
D03*
X620250D02*
D03*
D43*
X591490Y301870D02*
D03*
X613990Y311370D02*
D03*
Y292370D02*
D03*
D44*
X312250Y883250D02*
D03*
Y896250D02*
D03*
X508730Y921250D02*
D03*
Y934250D02*
D03*
D45*
X562500Y994250D02*
D03*
D46*
X510000Y971750D02*
D03*
Y994250D02*
D03*
Y1016750D02*
D03*
D47*
X567500Y924250D02*
D03*
D48*
X536500Y914250D02*
D03*
Y934250D02*
D03*
D49*
X475000Y1080500D02*
D03*
Y1063000D02*
D03*
X435000Y1080500D02*
D03*
Y1063000D02*
D03*
D50*
X590500Y648250D02*
D03*
X637500D02*
D03*
D51*
X700250Y366000D02*
D03*
X743250D02*
D03*
X518500Y1051750D02*
D03*
X561500D02*
D03*
D52*
X684500Y340750D02*
D03*
X675000D02*
D03*
X665500D02*
D03*
Y314751D02*
D03*
X675000D02*
D03*
X684500D02*
D03*
D53*
X504350Y284300D02*
D03*
Y835600D02*
D03*
X360650Y835200D02*
D03*
Y283900D02*
D03*
D54*
X405000Y1024250D02*
D03*
X376000D02*
D03*
X404500Y1064250D02*
D03*
X375500D02*
D03*
D55*
X537750Y1097000D02*
D03*
D56*
X733740Y903960D02*
D03*
X808670Y754100D02*
D03*
D57*
X759140Y903960D02*
D03*
X784540D02*
D03*
X809940D02*
D03*
X835340D02*
D03*
X860740D02*
D03*
Y1056360D02*
D03*
X835340D02*
D03*
X809940D02*
D03*
X784540D02*
D03*
X759140D02*
D03*
X733740D02*
D03*
X910270Y855100D02*
D03*
X935670D02*
D03*
X808670D02*
D03*
X834070D02*
D03*
X884870D02*
D03*
X859470D02*
D03*
X935670Y754100D02*
D03*
X910270D02*
D03*
X884870D02*
D03*
X859470D02*
D03*
X834070D02*
D03*
D58*
X620250Y430700D02*
D03*
Y456100D02*
D03*
Y481500D02*
D03*
X590500D02*
D03*
Y456100D02*
D03*
Y430700D02*
D03*
D59*
X620250Y506900D02*
D03*
X590500D02*
D03*
D60*
X403535Y978570D02*
D03*
D61*
X368180Y943214D02*
D03*
X396464Y914930D02*
D03*
X431820Y950285D02*
D03*
D62*
X322300Y1163750D02*
D03*
X398500D02*
D03*
X838500D02*
D03*
X914700D02*
D03*
D63*
X451250Y316000D02*
D03*
X413750Y803500D02*
D03*
D64*
X958250Y557750D02*
D03*
Y432750D02*
D03*
X908250Y557750D02*
D03*
D65*
Y432750D02*
D03*
D66*
X798750Y359250D02*
D03*
Y404250D02*
D03*
X863750Y359250D02*
D03*
X796750Y199750D02*
D03*
Y244750D02*
D03*
X861750Y199750D02*
D03*
X798000Y279500D02*
D03*
Y324500D02*
D03*
X863000Y279500D02*
D03*
D67*
X863750Y404250D02*
D03*
X861750Y244750D02*
D03*
X863000Y324500D02*
D03*
D68*
X278500Y1052500D02*
D03*
X958500Y672500D02*
D03*
X737750Y212500D02*
D03*
X278500D02*
D03*
D69*
X277750Y888000D02*
D03*
X588250Y647250D02*
D03*
X621250Y609250D02*
D03*
M02*
